G04 EAGLE Gerber RS-274X export*
G75*
%MOMM*%
%FSLAX34Y34*%
%LPD*%
%INBottom Copper*%
%IPPOS*%
%AMOC8*
5,1,8,0,0,1.08239X$1,22.5*%
G01*
%ADD10P,1.429621X8X202.500000*%
%ADD11P,1.429621X8X292.500000*%
%ADD12P,1.429621X8X112.500000*%
%ADD13C,1.320800*%
%ADD14C,1.308000*%
%ADD15C,2.850000*%
%ADD16P,1.429621X8X253.800000*%
%ADD17C,1.320800*%
%ADD18R,1.508000X1.508000*%
%ADD19R,1.308000X1.308000*%
%ADD20P,1.429621X8X22.500000*%
%ADD21C,1.879600*%
%ADD22C,0.152400*%
%ADD23C,0.756400*%

G36*
X38099Y-374507D02*
X38099Y-374507D01*
X38125Y-374501D01*
X38173Y-374499D01*
X75868Y-368908D01*
X75893Y-368900D01*
X75942Y-368893D01*
X112907Y-359634D01*
X112931Y-359623D01*
X112979Y-359612D01*
X148859Y-346774D01*
X148882Y-346761D01*
X148928Y-346745D01*
X183376Y-330452D01*
X183398Y-330437D01*
X183442Y-330417D01*
X216128Y-310826D01*
X216148Y-310809D01*
X216190Y-310784D01*
X246799Y-288084D01*
X246817Y-288065D01*
X246856Y-288036D01*
X275092Y-262445D01*
X275109Y-262424D01*
X275145Y-262392D01*
X300736Y-234156D01*
X300751Y-234134D01*
X300784Y-234099D01*
X323484Y-203490D01*
X323496Y-203467D01*
X323526Y-203428D01*
X343117Y-170742D01*
X343127Y-170718D01*
X343152Y-170676D01*
X359445Y-136228D01*
X359453Y-136202D01*
X359474Y-136159D01*
X372312Y-100279D01*
X372315Y-100260D01*
X372321Y-100249D01*
X372322Y-100239D01*
X372334Y-100207D01*
X381593Y-63242D01*
X381595Y-63215D01*
X381608Y-63168D01*
X387199Y-25473D01*
X387199Y-25447D01*
X387207Y-25399D01*
X389076Y12663D01*
X389073Y12689D01*
X389076Y12737D01*
X387207Y50799D01*
X387201Y50825D01*
X387199Y50873D01*
X381608Y88568D01*
X381600Y88593D01*
X381593Y88642D01*
X372334Y125607D01*
X372323Y125631D01*
X372312Y125679D01*
X359474Y161559D01*
X359461Y161582D01*
X359445Y161628D01*
X343152Y196076D01*
X343137Y196098D01*
X343117Y196142D01*
X323526Y228828D01*
X323509Y228848D01*
X323484Y228890D01*
X300784Y259499D01*
X300765Y259517D01*
X300736Y259556D01*
X275145Y287792D01*
X275124Y287809D01*
X275092Y287845D01*
X246856Y313436D01*
X246834Y313451D01*
X246799Y313484D01*
X222421Y331563D01*
X222407Y331570D01*
X222396Y331581D01*
X222298Y331626D01*
X222203Y331676D01*
X222187Y331678D01*
X222173Y331685D01*
X222066Y331697D01*
X221960Y331713D01*
X221944Y331710D01*
X221929Y331712D01*
X221823Y331689D01*
X221717Y331670D01*
X221704Y331663D01*
X221688Y331660D01*
X221596Y331604D01*
X221501Y331553D01*
X221491Y331541D01*
X221477Y331533D01*
X221407Y331451D01*
X221334Y331373D01*
X221327Y331359D01*
X221317Y331346D01*
X221277Y331246D01*
X221233Y331149D01*
X221231Y331133D01*
X221225Y331118D01*
X221207Y330952D01*
X221207Y328002D01*
X218098Y324893D01*
X213702Y324893D01*
X210905Y327690D01*
X210831Y327743D01*
X210761Y327803D01*
X210731Y327815D01*
X210705Y327834D01*
X210618Y327861D01*
X210533Y327895D01*
X210492Y327899D01*
X210470Y327906D01*
X210438Y327905D01*
X210367Y327913D01*
X196033Y327913D01*
X195943Y327899D01*
X195852Y327891D01*
X195823Y327879D01*
X195791Y327874D01*
X195710Y327831D01*
X195626Y327795D01*
X195594Y327769D01*
X195573Y327758D01*
X195551Y327735D01*
X195495Y327690D01*
X192698Y324893D01*
X188302Y324893D01*
X185193Y328002D01*
X185193Y332398D01*
X188302Y335507D01*
X192698Y335507D01*
X195495Y332710D01*
X195569Y332657D01*
X195639Y332597D01*
X195669Y332585D01*
X195695Y332566D01*
X195782Y332539D01*
X195867Y332505D01*
X195908Y332501D01*
X195930Y332494D01*
X195962Y332495D01*
X196033Y332487D01*
X210367Y332487D01*
X210457Y332501D01*
X210548Y332509D01*
X210577Y332521D01*
X210609Y332526D01*
X210690Y332569D01*
X210774Y332605D01*
X210806Y332631D01*
X210827Y332642D01*
X210849Y332665D01*
X210905Y332710D01*
X213702Y335507D01*
X214577Y335507D01*
X214618Y335513D01*
X214660Y335511D01*
X214739Y335533D01*
X214820Y335546D01*
X214857Y335566D01*
X214897Y335577D01*
X214965Y335623D01*
X215037Y335662D01*
X215066Y335692D01*
X215101Y335715D01*
X215150Y335781D01*
X215207Y335840D01*
X215224Y335878D01*
X215250Y335911D01*
X215276Y335989D01*
X215310Y336063D01*
X215315Y336104D01*
X215328Y336144D01*
X215328Y336226D01*
X215337Y336307D01*
X215329Y336348D01*
X215329Y336390D01*
X215303Y336468D01*
X215285Y336548D01*
X215264Y336584D01*
X215251Y336623D01*
X215201Y336689D01*
X215159Y336759D01*
X215127Y336786D01*
X215102Y336819D01*
X214978Y336914D01*
X214972Y336919D01*
X214971Y336919D01*
X214969Y336921D01*
X183442Y355817D01*
X183418Y355827D01*
X183376Y355852D01*
X148928Y372145D01*
X148902Y372153D01*
X148859Y372174D01*
X112979Y385012D01*
X112953Y385017D01*
X112907Y385034D01*
X75942Y394293D01*
X75915Y394295D01*
X75868Y394308D01*
X38173Y399899D01*
X38147Y399899D01*
X38099Y399907D01*
X37Y401776D01*
X11Y401773D01*
X-37Y401776D01*
X-38099Y399907D01*
X-38125Y399901D01*
X-38173Y399899D01*
X-75868Y394308D01*
X-75893Y394300D01*
X-75942Y394293D01*
X-112907Y385034D01*
X-112931Y385023D01*
X-112979Y385012D01*
X-114045Y384630D01*
X-114124Y384587D01*
X-114207Y384550D01*
X-114231Y384527D01*
X-114260Y384511D01*
X-114321Y384445D01*
X-114388Y384384D01*
X-114404Y384354D01*
X-114426Y384330D01*
X-114463Y384247D01*
X-114506Y384168D01*
X-114512Y384135D01*
X-114526Y384105D01*
X-114534Y384015D01*
X-114550Y383926D01*
X-114545Y383893D01*
X-114548Y383860D01*
X-114527Y383772D01*
X-114514Y383683D01*
X-114499Y383653D01*
X-114491Y383620D01*
X-114444Y383544D01*
X-114403Y383463D01*
X-114379Y383440D01*
X-114361Y383412D01*
X-114292Y383355D01*
X-114227Y383291D01*
X-114190Y383271D01*
X-114171Y383255D01*
X-114141Y383244D01*
X-114080Y383210D01*
X-110110Y381566D01*
X-107037Y378493D01*
X-105374Y374479D01*
X-105374Y370133D01*
X-107037Y366119D01*
X-110110Y363046D01*
X-114124Y361383D01*
X-118470Y361383D01*
X-122484Y363046D01*
X-125557Y366119D01*
X-127220Y370133D01*
X-127220Y374479D01*
X-125557Y378493D01*
X-124811Y379239D01*
X-124765Y379303D01*
X-124712Y379361D01*
X-124693Y379402D01*
X-124667Y379439D01*
X-124644Y379514D01*
X-124612Y379586D01*
X-124608Y379631D01*
X-124595Y379674D01*
X-124597Y379753D01*
X-124590Y379831D01*
X-124600Y379875D01*
X-124601Y379920D01*
X-124628Y379994D01*
X-124647Y380071D01*
X-124670Y380109D01*
X-124686Y380151D01*
X-124735Y380212D01*
X-124777Y380279D01*
X-124811Y380308D01*
X-124839Y380343D01*
X-124906Y380385D01*
X-124967Y380436D01*
X-125009Y380451D01*
X-125046Y380476D01*
X-125123Y380495D01*
X-125197Y380523D01*
X-125241Y380525D01*
X-125285Y380536D01*
X-125363Y380530D01*
X-125442Y380533D01*
X-125500Y380519D01*
X-125530Y380517D01*
X-125555Y380506D01*
X-125606Y380494D01*
X-148859Y372174D01*
X-148882Y372161D01*
X-148928Y372145D01*
X-163797Y365113D01*
X-163862Y365068D01*
X-163931Y365031D01*
X-163962Y364999D01*
X-163999Y364973D01*
X-164046Y364910D01*
X-164101Y364853D01*
X-164120Y364812D01*
X-164146Y364776D01*
X-164171Y364701D01*
X-164204Y364630D01*
X-164209Y364585D01*
X-164223Y364543D01*
X-164223Y364464D01*
X-164231Y364385D01*
X-164222Y364341D01*
X-164222Y364297D01*
X-164196Y364222D01*
X-164179Y364145D01*
X-164156Y364106D01*
X-164142Y364064D01*
X-164093Y364001D01*
X-164053Y363934D01*
X-164019Y363905D01*
X-163992Y363869D01*
X-163926Y363825D01*
X-163866Y363774D01*
X-163824Y363757D01*
X-163787Y363732D01*
X-163711Y363711D01*
X-163638Y363682D01*
X-163579Y363675D01*
X-163550Y363667D01*
X-163522Y363669D01*
X-163471Y363663D01*
X-161801Y363663D01*
X-159945Y363369D01*
X-158158Y362789D01*
X-156484Y361936D01*
X-154963Y360831D01*
X-153635Y359502D01*
X-152530Y357982D01*
X-152502Y357928D01*
X-162661Y353426D01*
X-162678Y353415D01*
X-162697Y353409D01*
X-162781Y353348D01*
X-162867Y353291D01*
X-162879Y353276D01*
X-162896Y353264D01*
X-162955Y353179D01*
X-163019Y353098D01*
X-163026Y353079D01*
X-163037Y353063D01*
X-163067Y352964D01*
X-163102Y352866D01*
X-163102Y352847D01*
X-163108Y352827D01*
X-163104Y352724D01*
X-163106Y352620D01*
X-163100Y352602D01*
X-163100Y352582D01*
X-163049Y352422D01*
X-162740Y351724D01*
X-162741Y351724D01*
X-163051Y352421D01*
X-163061Y352438D01*
X-163067Y352457D01*
X-163129Y352540D01*
X-163185Y352627D01*
X-163201Y352639D01*
X-163213Y352655D01*
X-163297Y352715D01*
X-163378Y352779D01*
X-163397Y352786D01*
X-163413Y352797D01*
X-163513Y352827D01*
X-163610Y352861D01*
X-163630Y352862D01*
X-163649Y352868D01*
X-163753Y352864D01*
X-163856Y352866D01*
X-163875Y352860D01*
X-163895Y352859D01*
X-164055Y352808D01*
X-174187Y348318D01*
X-174386Y348929D01*
X-174680Y350785D01*
X-174680Y352664D01*
X-174386Y354520D01*
X-173805Y356308D01*
X-172952Y357982D01*
X-171847Y359502D01*
X-171529Y359821D01*
X-171462Y359914D01*
X-171392Y360008D01*
X-171389Y360015D01*
X-171385Y360021D01*
X-171351Y360131D01*
X-171315Y360241D01*
X-171315Y360249D01*
X-171313Y360256D01*
X-171316Y360372D01*
X-171317Y360487D01*
X-171319Y360494D01*
X-171319Y360502D01*
X-171359Y360609D01*
X-171397Y360720D01*
X-171401Y360726D01*
X-171404Y360733D01*
X-171476Y360823D01*
X-171547Y360915D01*
X-171553Y360919D01*
X-171557Y360925D01*
X-171655Y360987D01*
X-171751Y361052D01*
X-171758Y361054D01*
X-171764Y361058D01*
X-171876Y361086D01*
X-171988Y361116D01*
X-171996Y361116D01*
X-172003Y361118D01*
X-172118Y361109D01*
X-172234Y361102D01*
X-172242Y361099D01*
X-172248Y361099D01*
X-172267Y361090D01*
X-172392Y361047D01*
X-183376Y355852D01*
X-183398Y355837D01*
X-183442Y355817D01*
X-186856Y353771D01*
X-186888Y353744D01*
X-186925Y353725D01*
X-186981Y353665D01*
X-187044Y353612D01*
X-187065Y353576D01*
X-187094Y353546D01*
X-187129Y353472D01*
X-187171Y353402D01*
X-187180Y353361D01*
X-187198Y353323D01*
X-187207Y353242D01*
X-187225Y353162D01*
X-187220Y353120D01*
X-187225Y353079D01*
X-187207Y352999D01*
X-187199Y352917D01*
X-187181Y352879D01*
X-187173Y352838D01*
X-187130Y352768D01*
X-187096Y352693D01*
X-187068Y352663D01*
X-187046Y352627D01*
X-186984Y352574D01*
X-186928Y352514D01*
X-186891Y352494D01*
X-186859Y352467D01*
X-186783Y352437D01*
X-186711Y352398D01*
X-186670Y352391D01*
X-186631Y352375D01*
X-186476Y352358D01*
X-186469Y352357D01*
X-186467Y352357D01*
X-186465Y352357D01*
X-183790Y352357D01*
X-179776Y350694D01*
X-176703Y347621D01*
X-175040Y343607D01*
X-175040Y339261D01*
X-176703Y335247D01*
X-179776Y332174D01*
X-183790Y330511D01*
X-188136Y330511D01*
X-192150Y332174D01*
X-195223Y335247D01*
X-196886Y339261D01*
X-196886Y343607D01*
X-195479Y347002D01*
X-195479Y347006D01*
X-195476Y347010D01*
X-195450Y347126D01*
X-195423Y347241D01*
X-195424Y347246D01*
X-195423Y347250D01*
X-195435Y347368D01*
X-195446Y347486D01*
X-195448Y347490D01*
X-195449Y347494D01*
X-195498Y347603D01*
X-195546Y347711D01*
X-195549Y347714D01*
X-195551Y347718D01*
X-195632Y347804D01*
X-195713Y347892D01*
X-195717Y347894D01*
X-195719Y347897D01*
X-195823Y347952D01*
X-195928Y348011D01*
X-195933Y348011D01*
X-195936Y348013D01*
X-196053Y348033D01*
X-196170Y348054D01*
X-196175Y348054D01*
X-196179Y348054D01*
X-196296Y348036D01*
X-196414Y348019D01*
X-196417Y348017D01*
X-196422Y348016D01*
X-196574Y347946D01*
X-216128Y336226D01*
X-216148Y336209D01*
X-216190Y336184D01*
X-246799Y313484D01*
X-246817Y313465D01*
X-246856Y313436D01*
X-275092Y287845D01*
X-275109Y287824D01*
X-275145Y287792D01*
X-300736Y259556D01*
X-300751Y259534D01*
X-300784Y259499D01*
X-323484Y228890D01*
X-323492Y228876D01*
X-323502Y228865D01*
X-323509Y228850D01*
X-323526Y228828D01*
X-343117Y196142D01*
X-343127Y196118D01*
X-343152Y196076D01*
X-359445Y161628D01*
X-359453Y161602D01*
X-359474Y161559D01*
X-372312Y125679D01*
X-372317Y125653D01*
X-372334Y125607D01*
X-381593Y88642D01*
X-381595Y88615D01*
X-381608Y88568D01*
X-387199Y50873D01*
X-387199Y50847D01*
X-387207Y50799D01*
X-389076Y12737D01*
X-389073Y12711D01*
X-389076Y12663D01*
X-387207Y-25399D01*
X-387201Y-25425D01*
X-387199Y-25473D01*
X-381608Y-63168D01*
X-381600Y-63193D01*
X-381593Y-63242D01*
X-372334Y-100207D01*
X-372323Y-100231D01*
X-372312Y-100279D01*
X-359474Y-136159D01*
X-359461Y-136182D01*
X-359445Y-136228D01*
X-343152Y-170676D01*
X-343137Y-170698D01*
X-343117Y-170742D01*
X-323526Y-203428D01*
X-323509Y-203448D01*
X-323484Y-203490D01*
X-300784Y-234099D01*
X-300765Y-234117D01*
X-300736Y-234156D01*
X-275145Y-262392D01*
X-275124Y-262409D01*
X-275092Y-262445D01*
X-246856Y-288036D01*
X-246834Y-288051D01*
X-246799Y-288084D01*
X-216190Y-310784D01*
X-216170Y-310795D01*
X-216165Y-310799D01*
X-216161Y-310801D01*
X-216128Y-310826D01*
X-183442Y-330417D01*
X-183418Y-330427D01*
X-183376Y-330452D01*
X-148928Y-346745D01*
X-148902Y-346753D01*
X-148859Y-346774D01*
X-112979Y-359612D01*
X-112953Y-359617D01*
X-112907Y-359634D01*
X-75942Y-368893D01*
X-75915Y-368895D01*
X-75868Y-368908D01*
X-38173Y-374499D01*
X-38147Y-374499D01*
X-38099Y-374507D01*
X-37Y-376376D01*
X-11Y-376373D01*
X37Y-376376D01*
X38099Y-374507D01*
G37*
%LPC*%
G36*
X-7612Y-45528D02*
X-7612Y-45528D01*
X-11865Y-40727D01*
X-13400Y-34500D01*
X-13212Y-33738D01*
X-13208Y-33682D01*
X-13193Y-33628D01*
X-13198Y-33560D01*
X-13193Y-33493D01*
X-13206Y-33439D01*
X-13210Y-33383D01*
X-13236Y-33320D01*
X-13252Y-33254D01*
X-13283Y-33207D01*
X-13304Y-33155D01*
X-13349Y-33104D01*
X-13385Y-33047D01*
X-13429Y-33012D01*
X-13466Y-32970D01*
X-13553Y-32912D01*
X-13577Y-32893D01*
X-13589Y-32889D01*
X-13606Y-32878D01*
X-21109Y-29054D01*
X-29054Y-21109D01*
X-34156Y-11098D01*
X-35913Y0D01*
X-34156Y11098D01*
X-29054Y21109D01*
X-21109Y29054D01*
X-13606Y32878D01*
X-13561Y32911D01*
X-13510Y32936D01*
X-13462Y32983D01*
X-13407Y33023D01*
X-13375Y33069D01*
X-13335Y33109D01*
X-13305Y33169D01*
X-13266Y33224D01*
X-13250Y33278D01*
X-13225Y33328D01*
X-13215Y33395D01*
X-13196Y33460D01*
X-13198Y33516D01*
X-13190Y33572D01*
X-13204Y33676D01*
X-13205Y33706D01*
X-13210Y33718D01*
X-13212Y33738D01*
X-13400Y34500D01*
X-11865Y40727D01*
X-7612Y45528D01*
X-1615Y47802D01*
X4752Y47029D01*
X10030Y43386D01*
X13011Y37707D01*
X13011Y33647D01*
X13025Y33561D01*
X13031Y33474D01*
X13044Y33441D01*
X13050Y33405D01*
X13091Y33328D01*
X13125Y33247D01*
X13148Y33219D01*
X13165Y33187D01*
X13229Y33127D01*
X13286Y33061D01*
X13325Y33036D01*
X13344Y33018D01*
X13372Y33005D01*
X13426Y32969D01*
X21109Y29054D01*
X29054Y21109D01*
X34156Y11098D01*
X35913Y0D01*
X34156Y-11098D01*
X29054Y-21109D01*
X21109Y-29054D01*
X13426Y-32969D01*
X13356Y-33021D01*
X13281Y-33066D01*
X13257Y-33093D01*
X13228Y-33115D01*
X13178Y-33186D01*
X13121Y-33253D01*
X13107Y-33286D01*
X13087Y-33316D01*
X13062Y-33400D01*
X13029Y-33481D01*
X13024Y-33527D01*
X13017Y-33552D01*
X13018Y-33583D01*
X13011Y-33647D01*
X13011Y-37707D01*
X10030Y-43386D01*
X4752Y-47029D01*
X-1615Y-47802D01*
X-7612Y-45528D01*
G37*
%LPD*%
%LPC*%
G36*
X-243498Y147093D02*
X-243498Y147093D01*
X-246607Y150202D01*
X-246607Y154598D01*
X-243498Y157707D01*
X-239102Y157707D01*
X-236305Y154910D01*
X-236231Y154857D01*
X-236161Y154797D01*
X-236131Y154785D01*
X-236105Y154766D01*
X-236018Y154739D01*
X-235933Y154705D01*
X-235892Y154701D01*
X-235870Y154694D01*
X-235838Y154695D01*
X-235767Y154687D01*
X96067Y154687D01*
X96157Y154701D01*
X96248Y154709D01*
X96277Y154721D01*
X96309Y154726D01*
X96390Y154769D01*
X96474Y154805D01*
X96506Y154831D01*
X96527Y154842D01*
X96549Y154865D01*
X96605Y154910D01*
X99402Y157707D01*
X103798Y157707D01*
X106907Y154598D01*
X106907Y150202D01*
X103798Y147093D01*
X99402Y147093D01*
X96605Y149890D01*
X96531Y149943D01*
X96461Y150003D01*
X96431Y150015D01*
X96405Y150034D01*
X96318Y150061D01*
X96233Y150095D01*
X96192Y150099D01*
X96170Y150106D01*
X96138Y150105D01*
X96067Y150113D01*
X-235767Y150113D01*
X-235857Y150099D01*
X-235948Y150091D01*
X-235977Y150079D01*
X-236009Y150074D01*
X-236090Y150031D01*
X-236174Y149995D01*
X-236206Y149969D01*
X-236227Y149958D01*
X-236249Y149935D01*
X-236305Y149890D01*
X-239102Y147093D01*
X-243498Y147093D01*
G37*
%LPD*%
%LPC*%
G36*
X-91098Y96293D02*
X-91098Y96293D01*
X-94207Y99402D01*
X-94207Y103798D01*
X-91098Y106907D01*
X-86702Y106907D01*
X-83905Y104110D01*
X-83831Y104057D01*
X-83761Y103997D01*
X-83731Y103985D01*
X-83705Y103966D01*
X-83618Y103939D01*
X-83533Y103905D01*
X-83492Y103901D01*
X-83470Y103894D01*
X-83438Y103895D01*
X-83367Y103887D01*
X172267Y103887D01*
X172357Y103901D01*
X172448Y103909D01*
X172477Y103921D01*
X172509Y103926D01*
X172590Y103969D01*
X172674Y104005D01*
X172706Y104031D01*
X172727Y104042D01*
X172749Y104065D01*
X172805Y104110D01*
X175602Y106907D01*
X179998Y106907D01*
X183107Y103798D01*
X183107Y99402D01*
X179998Y96293D01*
X175602Y96293D01*
X172805Y99090D01*
X172731Y99143D01*
X172661Y99203D01*
X172631Y99215D01*
X172605Y99234D01*
X172518Y99261D01*
X172433Y99295D01*
X172392Y99299D01*
X172370Y99306D01*
X172338Y99305D01*
X172267Y99313D01*
X-83367Y99313D01*
X-83457Y99299D01*
X-83548Y99291D01*
X-83577Y99279D01*
X-83609Y99274D01*
X-83690Y99231D01*
X-83774Y99195D01*
X-83806Y99169D01*
X-83827Y99158D01*
X-83849Y99135D01*
X-83905Y99090D01*
X-86702Y96293D01*
X-91098Y96293D01*
G37*
%LPD*%
%LPC*%
G36*
X-77817Y277367D02*
X-77817Y277367D01*
X-80805Y278605D01*
X-83091Y280891D01*
X-84329Y283879D01*
X-84329Y300321D01*
X-83091Y303309D01*
X-80805Y305595D01*
X-77817Y306833D01*
X-74583Y306833D01*
X-71595Y305595D01*
X-70106Y304106D01*
X-70048Y304064D01*
X-69996Y304015D01*
X-69949Y303993D01*
X-69907Y303962D01*
X-69838Y303941D01*
X-69773Y303911D01*
X-69721Y303905D01*
X-69671Y303890D01*
X-69600Y303892D01*
X-69529Y303884D01*
X-69478Y303895D01*
X-69426Y303896D01*
X-69358Y303921D01*
X-69288Y303936D01*
X-69243Y303963D01*
X-69195Y303981D01*
X-69139Y304026D01*
X-69077Y304063D01*
X-69043Y304102D01*
X-69003Y304135D01*
X-68964Y304195D01*
X-68917Y304249D01*
X-68898Y304298D01*
X-68870Y304342D01*
X-68852Y304411D01*
X-68825Y304478D01*
X-68817Y304549D01*
X-68809Y304580D01*
X-68811Y304603D01*
X-68807Y304644D01*
X-68807Y306998D01*
X-65698Y310107D01*
X-61743Y310107D01*
X-61652Y310121D01*
X-61562Y310129D01*
X-61532Y310141D01*
X-61500Y310146D01*
X-61419Y310189D01*
X-61335Y310225D01*
X-61303Y310251D01*
X-61282Y310262D01*
X-61260Y310285D01*
X-61204Y310330D01*
X-30930Y340604D01*
X-30877Y340678D01*
X-30817Y340748D01*
X-30805Y340778D01*
X-30786Y340804D01*
X-30759Y340891D01*
X-30725Y340976D01*
X-30721Y341017D01*
X-30714Y341039D01*
X-30715Y341071D01*
X-30707Y341143D01*
X-30707Y345098D01*
X-27598Y348207D01*
X-23202Y348207D01*
X-20093Y345098D01*
X-20093Y340702D01*
X-23202Y337593D01*
X-27157Y337593D01*
X-27248Y337579D01*
X-27338Y337571D01*
X-27368Y337559D01*
X-27400Y337554D01*
X-27481Y337511D01*
X-27565Y337475D01*
X-27597Y337449D01*
X-27618Y337438D01*
X-27640Y337415D01*
X-27696Y337370D01*
X-57970Y307096D01*
X-58023Y307022D01*
X-58083Y306952D01*
X-58095Y306922D01*
X-58114Y306896D01*
X-58141Y306809D01*
X-58175Y306724D01*
X-58179Y306683D01*
X-58186Y306661D01*
X-58185Y306629D01*
X-58193Y306557D01*
X-58193Y304644D01*
X-58182Y304574D01*
X-58180Y304502D01*
X-58162Y304453D01*
X-58154Y304402D01*
X-58120Y304338D01*
X-58095Y304271D01*
X-58063Y304230D01*
X-58038Y304184D01*
X-57986Y304135D01*
X-57942Y304079D01*
X-57898Y304051D01*
X-57860Y304015D01*
X-57795Y303985D01*
X-57735Y303946D01*
X-57684Y303933D01*
X-57637Y303911D01*
X-57566Y303903D01*
X-57496Y303886D01*
X-57444Y303890D01*
X-57393Y303884D01*
X-57322Y303899D01*
X-57251Y303905D01*
X-57203Y303925D01*
X-57152Y303936D01*
X-57091Y303973D01*
X-57025Y304001D01*
X-56969Y304046D01*
X-56941Y304063D01*
X-56926Y304080D01*
X-56894Y304106D01*
X-55405Y305595D01*
X-52417Y306833D01*
X-49183Y306833D01*
X-46195Y305595D01*
X-43909Y303309D01*
X-42671Y300321D01*
X-42671Y283879D01*
X-43909Y280891D01*
X-46195Y278605D01*
X-49183Y277367D01*
X-52417Y277367D01*
X-55405Y278605D01*
X-57691Y280891D01*
X-58929Y283879D01*
X-58929Y300029D01*
X-58940Y300099D01*
X-58942Y300171D01*
X-58960Y300220D01*
X-58968Y300271D01*
X-59002Y300335D01*
X-59027Y300402D01*
X-59059Y300443D01*
X-59084Y300489D01*
X-59136Y300538D01*
X-59180Y300594D01*
X-59224Y300622D01*
X-59262Y300658D01*
X-59327Y300688D01*
X-59387Y300727D01*
X-59438Y300740D01*
X-59485Y300762D01*
X-59556Y300770D01*
X-59626Y300787D01*
X-59678Y300783D01*
X-59729Y300789D01*
X-59800Y300774D01*
X-59871Y300768D01*
X-59919Y300748D01*
X-59970Y300737D01*
X-60031Y300700D01*
X-60097Y300672D01*
X-60153Y300627D01*
X-60181Y300610D01*
X-60196Y300593D01*
X-60228Y300567D01*
X-61302Y299493D01*
X-65698Y299493D01*
X-66772Y300567D01*
X-66830Y300609D01*
X-66882Y300658D01*
X-66929Y300680D01*
X-66971Y300710D01*
X-67040Y300732D01*
X-67105Y300762D01*
X-67157Y300767D01*
X-67207Y300783D01*
X-67278Y300781D01*
X-67349Y300789D01*
X-67400Y300778D01*
X-67452Y300776D01*
X-67520Y300752D01*
X-67590Y300737D01*
X-67635Y300710D01*
X-67683Y300692D01*
X-67739Y300647D01*
X-67801Y300610D01*
X-67835Y300571D01*
X-67875Y300538D01*
X-67914Y300478D01*
X-67961Y300423D01*
X-67980Y300375D01*
X-68008Y300331D01*
X-68026Y300262D01*
X-68053Y300195D01*
X-68061Y300124D01*
X-68069Y300093D01*
X-68067Y300070D01*
X-68071Y300029D01*
X-68071Y283879D01*
X-69309Y280891D01*
X-71595Y278605D01*
X-74583Y277367D01*
X-77817Y277367D01*
G37*
%LPD*%
%LPC*%
G36*
X-154598Y324893D02*
X-154598Y324893D01*
X-157707Y328002D01*
X-157707Y332398D01*
X-154598Y335507D01*
X-150643Y335507D01*
X-150552Y335521D01*
X-150462Y335529D01*
X-150432Y335541D01*
X-150400Y335546D01*
X-150319Y335589D01*
X-150235Y335625D01*
X-150203Y335651D01*
X-150182Y335662D01*
X-150160Y335685D01*
X-150104Y335730D01*
X-140647Y345187D01*
X-115563Y345187D01*
X-115472Y345201D01*
X-115382Y345209D01*
X-115352Y345221D01*
X-115320Y345226D01*
X-115239Y345269D01*
X-115155Y345305D01*
X-115123Y345331D01*
X-115102Y345342D01*
X-115080Y345365D01*
X-115024Y345410D01*
X-102547Y357887D01*
X32567Y357887D01*
X32657Y357901D01*
X32748Y357909D01*
X32777Y357921D01*
X32809Y357926D01*
X32890Y357969D01*
X32974Y358005D01*
X33006Y358031D01*
X33027Y358042D01*
X33049Y358065D01*
X33105Y358110D01*
X35902Y360907D01*
X40298Y360907D01*
X43407Y357798D01*
X43407Y353402D01*
X40298Y350293D01*
X35902Y350293D01*
X33105Y353090D01*
X33031Y353143D01*
X32961Y353203D01*
X32931Y353215D01*
X32905Y353234D01*
X32818Y353261D01*
X32733Y353295D01*
X32692Y353299D01*
X32670Y353306D01*
X32638Y353305D01*
X32567Y353313D01*
X-100337Y353313D01*
X-100428Y353299D01*
X-100518Y353291D01*
X-100548Y353279D01*
X-100580Y353274D01*
X-100661Y353231D01*
X-100745Y353195D01*
X-100777Y353169D01*
X-100798Y353158D01*
X-100820Y353135D01*
X-100876Y353090D01*
X-113353Y340613D01*
X-138437Y340613D01*
X-138528Y340599D01*
X-138618Y340591D01*
X-138648Y340579D01*
X-138680Y340574D01*
X-138761Y340531D01*
X-138845Y340495D01*
X-138877Y340469D01*
X-138898Y340458D01*
X-138920Y340435D01*
X-138976Y340390D01*
X-146870Y332496D01*
X-146923Y332422D01*
X-146983Y332352D01*
X-146995Y332322D01*
X-147014Y332296D01*
X-147041Y332209D01*
X-147075Y332124D01*
X-147079Y332083D01*
X-147086Y332061D01*
X-147085Y332029D01*
X-147093Y331957D01*
X-147093Y328002D01*
X-150202Y324893D01*
X-154598Y324893D01*
G37*
%LPD*%
%LPC*%
G36*
X-207088Y266547D02*
X-207088Y266547D01*
X-207827Y273241D01*
X-203616Y278496D01*
X-196880Y279240D01*
X-196830Y279211D01*
X-196800Y279206D01*
X-196773Y279193D01*
X-196680Y279183D01*
X-196588Y279165D01*
X-196558Y279169D01*
X-196529Y279166D01*
X-196437Y279186D01*
X-196344Y279198D01*
X-196318Y279212D01*
X-196288Y279218D01*
X-196208Y279266D01*
X-196124Y279308D01*
X-196103Y279329D01*
X-196077Y279344D01*
X-196016Y279415D01*
X-195950Y279481D01*
X-195937Y279508D01*
X-195917Y279531D01*
X-195882Y279618D01*
X-195841Y279702D01*
X-195836Y279731D01*
X-195825Y279759D01*
X-195807Y279926D01*
X-195807Y281598D01*
X-192698Y284707D01*
X-188743Y284707D01*
X-188652Y284721D01*
X-188562Y284729D01*
X-188532Y284741D01*
X-188500Y284746D01*
X-188419Y284789D01*
X-188335Y284825D01*
X-188303Y284851D01*
X-188282Y284862D01*
X-188260Y284885D01*
X-188204Y284930D01*
X-178747Y294387D01*
X-170633Y294387D01*
X-170543Y294401D01*
X-170452Y294409D01*
X-170423Y294421D01*
X-170391Y294426D01*
X-170310Y294469D01*
X-170226Y294505D01*
X-170194Y294531D01*
X-170173Y294542D01*
X-170151Y294565D01*
X-170095Y294610D01*
X-167298Y297407D01*
X-162902Y297407D01*
X-161828Y296333D01*
X-161770Y296291D01*
X-161718Y296242D01*
X-161671Y296220D01*
X-161629Y296190D01*
X-161560Y296168D01*
X-161495Y296138D01*
X-161443Y296133D01*
X-161393Y296117D01*
X-161322Y296119D01*
X-161251Y296111D01*
X-161200Y296122D01*
X-161148Y296124D01*
X-161080Y296148D01*
X-161010Y296163D01*
X-160965Y296190D01*
X-160917Y296208D01*
X-160861Y296253D01*
X-160799Y296290D01*
X-160765Y296329D01*
X-160725Y296362D01*
X-160686Y296422D01*
X-160639Y296477D01*
X-160620Y296525D01*
X-160592Y296569D01*
X-160574Y296638D01*
X-160547Y296705D01*
X-160539Y296776D01*
X-160531Y296807D01*
X-160533Y296830D01*
X-160529Y296871D01*
X-160529Y300321D01*
X-159291Y303309D01*
X-157005Y305595D01*
X-154017Y306833D01*
X-150783Y306833D01*
X-147795Y305595D01*
X-145509Y303309D01*
X-144271Y300321D01*
X-144271Y283879D01*
X-145509Y280891D01*
X-147795Y278605D01*
X-150783Y277367D01*
X-154017Y277367D01*
X-157005Y278605D01*
X-159291Y280891D01*
X-160529Y283879D01*
X-160529Y287329D01*
X-160540Y287399D01*
X-160542Y287471D01*
X-160560Y287520D01*
X-160568Y287571D01*
X-160602Y287635D01*
X-160627Y287702D01*
X-160659Y287743D01*
X-160684Y287789D01*
X-160736Y287838D01*
X-160780Y287894D01*
X-160824Y287922D01*
X-160862Y287958D01*
X-160927Y287988D01*
X-160987Y288027D01*
X-161038Y288040D01*
X-161085Y288062D01*
X-161156Y288070D01*
X-161226Y288087D01*
X-161278Y288083D01*
X-161329Y288089D01*
X-161400Y288074D01*
X-161471Y288068D01*
X-161519Y288048D01*
X-161570Y288037D01*
X-161631Y288000D01*
X-161697Y287972D01*
X-161753Y287927D01*
X-161781Y287910D01*
X-161796Y287893D01*
X-161828Y287867D01*
X-162902Y286793D01*
X-167298Y286793D01*
X-170095Y289590D01*
X-170169Y289643D01*
X-170239Y289703D01*
X-170269Y289715D01*
X-170295Y289734D01*
X-170382Y289761D01*
X-170467Y289795D01*
X-170508Y289799D01*
X-170530Y289806D01*
X-170562Y289805D01*
X-170633Y289813D01*
X-176537Y289813D01*
X-176628Y289799D01*
X-176718Y289791D01*
X-176748Y289779D01*
X-176780Y289774D01*
X-176861Y289731D01*
X-176945Y289695D01*
X-176977Y289669D01*
X-176998Y289658D01*
X-177020Y289635D01*
X-177076Y289590D01*
X-184970Y281696D01*
X-185023Y281622D01*
X-185083Y281552D01*
X-185095Y281522D01*
X-185114Y281496D01*
X-185141Y281409D01*
X-185175Y281324D01*
X-185179Y281283D01*
X-185186Y281261D01*
X-185185Y281229D01*
X-185193Y281157D01*
X-185193Y277202D01*
X-188302Y274093D01*
X-190715Y274093D01*
X-190776Y274083D01*
X-190837Y274083D01*
X-190896Y274064D01*
X-190958Y274054D01*
X-191012Y274025D01*
X-191071Y274005D01*
X-191120Y273967D01*
X-191175Y273938D01*
X-191217Y273894D01*
X-191267Y273856D01*
X-191302Y273805D01*
X-191344Y273760D01*
X-191370Y273704D01*
X-191405Y273653D01*
X-191422Y273593D01*
X-191448Y273537D01*
X-191455Y273476D01*
X-191471Y273416D01*
X-191471Y273325D01*
X-191475Y273293D01*
X-191471Y273276D01*
X-191471Y273248D01*
X-190929Y268331D01*
X-195139Y263076D01*
X-201832Y262337D01*
X-207088Y266547D01*
G37*
%LPD*%
%LPC*%
G36*
X268000Y-113897D02*
X268000Y-113897D01*
X265036Y-112670D01*
X262767Y-110401D01*
X261540Y-107437D01*
X261540Y-104228D01*
X262767Y-101264D01*
X265036Y-98996D01*
X268000Y-97768D01*
X270512Y-97768D01*
X270557Y-97760D01*
X270603Y-97762D01*
X270678Y-97741D01*
X270755Y-97728D01*
X270795Y-97707D01*
X270839Y-97694D01*
X270903Y-97649D01*
X270972Y-97613D01*
X271004Y-97580D01*
X271041Y-97554D01*
X271088Y-97491D01*
X271142Y-97435D01*
X271161Y-97393D01*
X271188Y-97356D01*
X271212Y-97282D01*
X271245Y-97212D01*
X271250Y-97166D01*
X271264Y-97122D01*
X271264Y-97044D01*
X271272Y-96967D01*
X271262Y-96922D01*
X271262Y-96876D01*
X271224Y-96745D01*
X271220Y-96727D01*
X271217Y-96723D01*
X271217Y-96719D01*
X271216Y-96718D01*
X271215Y-96715D01*
X270042Y-93883D01*
X270042Y-90674D01*
X271270Y-87710D01*
X273538Y-85442D01*
X276503Y-84214D01*
X277931Y-84214D01*
X278050Y-84195D01*
X278169Y-84176D01*
X278171Y-84175D01*
X278174Y-84174D01*
X278280Y-84118D01*
X278387Y-84063D01*
X278389Y-84060D01*
X278392Y-84059D01*
X278473Y-83973D01*
X278558Y-83886D01*
X278559Y-83883D01*
X278561Y-83881D01*
X278612Y-83770D01*
X278663Y-83663D01*
X278663Y-83660D01*
X278665Y-83658D01*
X278678Y-83538D01*
X278692Y-83419D01*
X278691Y-83416D01*
X278692Y-83413D01*
X278666Y-83296D01*
X278642Y-83178D01*
X278640Y-83175D01*
X278639Y-83173D01*
X278634Y-83164D01*
X278564Y-83030D01*
X278562Y-83026D01*
X277877Y-81373D01*
X277528Y-79619D01*
X277528Y-77830D01*
X277877Y-76076D01*
X278216Y-75258D01*
X285154Y-79610D01*
X285172Y-79618D01*
X285188Y-79630D01*
X285285Y-79665D01*
X285381Y-79705D01*
X285401Y-79707D01*
X285419Y-79714D01*
X285523Y-79716D01*
X285626Y-79723D01*
X285646Y-79718D01*
X285665Y-79719D01*
X285764Y-79688D01*
X285864Y-79662D01*
X285881Y-79651D01*
X285900Y-79646D01*
X285984Y-79585D01*
X286071Y-79528D01*
X286083Y-79513D01*
X286099Y-79501D01*
X286204Y-79370D01*
X286609Y-78724D01*
X286610Y-78724D01*
X286205Y-79371D01*
X286197Y-79389D01*
X286185Y-79405D01*
X286150Y-79502D01*
X286110Y-79597D01*
X286108Y-79617D01*
X286101Y-79636D01*
X286099Y-79739D01*
X286092Y-79843D01*
X286097Y-79862D01*
X286096Y-79882D01*
X286127Y-79981D01*
X286153Y-80081D01*
X286164Y-80098D01*
X286170Y-80117D01*
X286230Y-80200D01*
X286287Y-80287D01*
X286302Y-80300D01*
X286314Y-80316D01*
X286445Y-80420D01*
X291670Y-83697D01*
X291675Y-83700D01*
X291679Y-83703D01*
X291789Y-83748D01*
X291897Y-83793D01*
X291902Y-83793D01*
X291908Y-83795D01*
X292074Y-83814D01*
X294128Y-83814D01*
X297092Y-85042D01*
X299360Y-87310D01*
X300588Y-90274D01*
X300588Y-93483D01*
X299360Y-96447D01*
X297092Y-98715D01*
X294128Y-99943D01*
X291616Y-99943D01*
X291571Y-99951D01*
X291525Y-99949D01*
X291450Y-99970D01*
X291373Y-99983D01*
X291333Y-100004D01*
X291288Y-100017D01*
X291224Y-100062D01*
X291156Y-100098D01*
X291124Y-100131D01*
X291086Y-100157D01*
X291040Y-100220D01*
X290986Y-100276D01*
X290967Y-100318D01*
X290940Y-100355D01*
X290915Y-100429D01*
X290883Y-100499D01*
X290878Y-100545D01*
X290863Y-100589D01*
X290864Y-100667D01*
X290856Y-100744D01*
X290865Y-100789D01*
X290866Y-100835D01*
X290904Y-100966D01*
X290908Y-100984D01*
X290910Y-100989D01*
X290912Y-100996D01*
X292086Y-103828D01*
X292086Y-107037D01*
X290858Y-110001D01*
X288589Y-112269D01*
X285625Y-113497D01*
X282417Y-113497D01*
X279453Y-112269D01*
X277551Y-110368D01*
X277535Y-110356D01*
X277522Y-110340D01*
X277435Y-110284D01*
X277351Y-110224D01*
X277332Y-110218D01*
X277316Y-110207D01*
X277215Y-110182D01*
X277116Y-110152D01*
X277096Y-110152D01*
X277077Y-110147D01*
X276974Y-110155D01*
X276870Y-110158D01*
X276852Y-110165D01*
X276832Y-110167D01*
X276737Y-110207D01*
X276639Y-110243D01*
X276624Y-110255D01*
X276605Y-110263D01*
X276475Y-110368D01*
X274173Y-112670D01*
X271209Y-113897D01*
X268000Y-113897D01*
G37*
%LPD*%
%LPC*%
G36*
X86702Y20093D02*
X86702Y20093D01*
X83593Y23202D01*
X83593Y27598D01*
X86702Y30707D01*
X91098Y30707D01*
X93895Y27910D01*
X93969Y27857D01*
X94039Y27797D01*
X94069Y27785D01*
X94095Y27766D01*
X94182Y27739D01*
X94267Y27705D01*
X94308Y27701D01*
X94330Y27694D01*
X94362Y27695D01*
X94433Y27687D01*
X227337Y27687D01*
X227428Y27701D01*
X227518Y27709D01*
X227548Y27721D01*
X227580Y27726D01*
X227661Y27769D01*
X227745Y27805D01*
X227777Y27831D01*
X227798Y27842D01*
X227820Y27865D01*
X227876Y27910D01*
X235770Y35804D01*
X235823Y35878D01*
X235883Y35948D01*
X235895Y35978D01*
X235914Y36004D01*
X235941Y36091D01*
X235975Y36176D01*
X235979Y36217D01*
X235986Y36239D01*
X235985Y36271D01*
X235993Y36343D01*
X235993Y40298D01*
X239102Y43407D01*
X243498Y43407D01*
X246607Y40298D01*
X246607Y35902D01*
X243498Y32793D01*
X239543Y32793D01*
X239452Y32779D01*
X239362Y32771D01*
X239332Y32759D01*
X239300Y32754D01*
X239219Y32711D01*
X239135Y32675D01*
X239103Y32649D01*
X239082Y32638D01*
X239060Y32615D01*
X239004Y32570D01*
X229547Y23113D01*
X94433Y23113D01*
X94343Y23099D01*
X94252Y23091D01*
X94223Y23079D01*
X94191Y23074D01*
X94110Y23031D01*
X94026Y22995D01*
X93994Y22969D01*
X93973Y22958D01*
X93951Y22935D01*
X93895Y22890D01*
X91098Y20093D01*
X86702Y20093D01*
G37*
%LPD*%
%LPC*%
G36*
X201002Y252305D02*
X201002Y252305D01*
X198205Y255102D01*
X198131Y255155D01*
X198061Y255215D01*
X198031Y255227D01*
X198005Y255246D01*
X197918Y255273D01*
X197833Y255307D01*
X197792Y255311D01*
X197770Y255318D01*
X197738Y255317D01*
X197667Y255325D01*
X172975Y255325D01*
X172885Y255311D01*
X172794Y255303D01*
X172765Y255291D01*
X172733Y255286D01*
X172652Y255243D01*
X172568Y255207D01*
X172536Y255181D01*
X172515Y255170D01*
X172493Y255147D01*
X172437Y255102D01*
X169838Y252503D01*
X165442Y252503D01*
X162333Y255612D01*
X162333Y260008D01*
X165439Y263114D01*
X165481Y263172D01*
X165530Y263224D01*
X165552Y263271D01*
X165582Y263313D01*
X165604Y263382D01*
X165634Y263447D01*
X165639Y263499D01*
X165655Y263549D01*
X165653Y263620D01*
X165661Y263691D01*
X165650Y263742D01*
X165648Y263794D01*
X165624Y263862D01*
X165609Y263932D01*
X165582Y263977D01*
X165564Y264025D01*
X165519Y264081D01*
X165482Y264143D01*
X165443Y264177D01*
X165410Y264217D01*
X165350Y264256D01*
X165295Y264303D01*
X165247Y264322D01*
X165203Y264350D01*
X165134Y264368D01*
X165067Y264395D01*
X164996Y264403D01*
X164965Y264411D01*
X164942Y264409D01*
X164901Y264413D01*
X145233Y264413D01*
X145143Y264399D01*
X145052Y264391D01*
X145023Y264379D01*
X144991Y264374D01*
X144910Y264331D01*
X144826Y264295D01*
X144794Y264269D01*
X144773Y264258D01*
X144751Y264235D01*
X144695Y264190D01*
X141898Y261393D01*
X137502Y261393D01*
X134393Y264502D01*
X134393Y268898D01*
X137502Y272007D01*
X141898Y272007D01*
X144695Y269210D01*
X144769Y269157D01*
X144839Y269097D01*
X144869Y269085D01*
X144895Y269066D01*
X144982Y269039D01*
X145067Y269005D01*
X145108Y269001D01*
X145130Y268994D01*
X145162Y268995D01*
X145233Y268987D01*
X197667Y268987D01*
X197757Y269001D01*
X197848Y269009D01*
X197877Y269021D01*
X197909Y269026D01*
X197990Y269069D01*
X198074Y269105D01*
X198106Y269131D01*
X198127Y269142D01*
X198149Y269165D01*
X198205Y269210D01*
X201002Y272007D01*
X205398Y272007D01*
X208507Y268898D01*
X208507Y264502D01*
X206699Y262694D01*
X206688Y262678D01*
X206672Y262666D01*
X206616Y262578D01*
X206556Y262495D01*
X206550Y262476D01*
X206539Y262459D01*
X206514Y262358D01*
X206483Y262259D01*
X206484Y262240D01*
X206479Y262220D01*
X206487Y262117D01*
X206490Y262014D01*
X206496Y261995D01*
X206498Y261975D01*
X206538Y261880D01*
X206574Y261783D01*
X206587Y261767D01*
X206594Y261749D01*
X206699Y261618D01*
X208507Y259810D01*
X208507Y255414D01*
X205398Y252305D01*
X201002Y252305D01*
G37*
%LPD*%
%LPC*%
G36*
X176183Y277367D02*
X176183Y277367D01*
X173195Y278605D01*
X170909Y280891D01*
X169671Y283879D01*
X169671Y300321D01*
X170909Y303309D01*
X173195Y305595D01*
X176183Y306833D01*
X179417Y306833D01*
X182405Y305595D01*
X184691Y303309D01*
X185929Y300321D01*
X185929Y296871D01*
X185940Y296801D01*
X185942Y296729D01*
X185960Y296680D01*
X185968Y296629D01*
X186002Y296565D01*
X186027Y296498D01*
X186059Y296457D01*
X186084Y296411D01*
X186136Y296362D01*
X186180Y296306D01*
X186224Y296278D01*
X186262Y296242D01*
X186327Y296212D01*
X186387Y296173D01*
X186438Y296160D01*
X186485Y296138D01*
X186556Y296130D01*
X186626Y296113D01*
X186678Y296117D01*
X186729Y296111D01*
X186800Y296126D01*
X186871Y296132D01*
X186919Y296152D01*
X186970Y296163D01*
X187031Y296200D01*
X187097Y296228D01*
X187153Y296273D01*
X187181Y296290D01*
X187196Y296307D01*
X187228Y296333D01*
X188302Y297407D01*
X192698Y297407D01*
X195495Y294610D01*
X195569Y294557D01*
X195639Y294497D01*
X195669Y294485D01*
X195695Y294466D01*
X195782Y294439D01*
X195867Y294405D01*
X195908Y294401D01*
X195930Y294394D01*
X195962Y294395D01*
X196033Y294387D01*
X248467Y294387D01*
X248557Y294401D01*
X248648Y294409D01*
X248677Y294421D01*
X248709Y294426D01*
X248790Y294469D01*
X248874Y294505D01*
X248906Y294531D01*
X248927Y294542D01*
X248949Y294565D01*
X249005Y294610D01*
X251802Y297407D01*
X256198Y297407D01*
X259307Y294298D01*
X259307Y289902D01*
X256198Y286793D01*
X251802Y286793D01*
X249005Y289590D01*
X248931Y289643D01*
X248861Y289703D01*
X248831Y289715D01*
X248805Y289734D01*
X248718Y289761D01*
X248633Y289795D01*
X248592Y289799D01*
X248570Y289806D01*
X248538Y289805D01*
X248467Y289813D01*
X196033Y289813D01*
X195943Y289799D01*
X195852Y289791D01*
X195823Y289779D01*
X195791Y289774D01*
X195710Y289731D01*
X195626Y289695D01*
X195594Y289669D01*
X195573Y289658D01*
X195551Y289635D01*
X195495Y289590D01*
X192698Y286793D01*
X188302Y286793D01*
X187228Y287867D01*
X187170Y287909D01*
X187118Y287958D01*
X187071Y287980D01*
X187029Y288010D01*
X186960Y288032D01*
X186895Y288062D01*
X186843Y288067D01*
X186793Y288083D01*
X186722Y288081D01*
X186651Y288089D01*
X186600Y288078D01*
X186548Y288076D01*
X186480Y288052D01*
X186410Y288037D01*
X186365Y288010D01*
X186317Y287992D01*
X186261Y287947D01*
X186199Y287910D01*
X186165Y287871D01*
X186125Y287838D01*
X186086Y287778D01*
X186039Y287723D01*
X186020Y287675D01*
X185992Y287631D01*
X185974Y287562D01*
X185947Y287495D01*
X185939Y287424D01*
X185931Y287393D01*
X185933Y287370D01*
X185929Y287329D01*
X185929Y283879D01*
X184691Y280891D01*
X182405Y278605D01*
X179417Y277367D01*
X176183Y277367D01*
G37*
%LPD*%
%LPC*%
G36*
X337568Y-104235D02*
X337568Y-104235D01*
X331770Y-101833D01*
X327333Y-97396D01*
X324931Y-91598D01*
X324931Y-85322D01*
X327333Y-79524D01*
X331770Y-75087D01*
X337568Y-72685D01*
X343844Y-72685D01*
X349642Y-75087D01*
X354079Y-79524D01*
X356481Y-85322D01*
X356481Y-91598D01*
X354079Y-97396D01*
X349642Y-101833D01*
X343844Y-104235D01*
X337568Y-104235D01*
G37*
%LPD*%
%LPC*%
G36*
X298776Y-166075D02*
X298776Y-166075D01*
X292978Y-163673D01*
X288541Y-159236D01*
X286139Y-153438D01*
X286139Y-147162D01*
X288541Y-141364D01*
X292978Y-136927D01*
X298776Y-134525D01*
X305052Y-134525D01*
X310850Y-136927D01*
X315287Y-141364D01*
X317689Y-147162D01*
X317689Y-153438D01*
X315287Y-159236D01*
X310850Y-163673D01*
X305052Y-166075D01*
X298776Y-166075D01*
G37*
%LPD*%
%LPC*%
G36*
X29552Y77243D02*
X29552Y77243D01*
X26443Y80352D01*
X26443Y84748D01*
X29552Y87857D01*
X33948Y87857D01*
X36745Y85060D01*
X36819Y85007D01*
X36889Y84947D01*
X36919Y84935D01*
X36945Y84916D01*
X37032Y84889D01*
X37117Y84855D01*
X37158Y84851D01*
X37180Y84844D01*
X37212Y84845D01*
X37283Y84837D01*
X151947Y84837D01*
X152037Y84851D01*
X152128Y84859D01*
X152157Y84871D01*
X152189Y84876D01*
X152270Y84919D01*
X152354Y84955D01*
X152386Y84981D01*
X152407Y84992D01*
X152429Y85015D01*
X152485Y85060D01*
X155282Y87857D01*
X159678Y87857D01*
X162787Y84748D01*
X162787Y80352D01*
X159678Y77243D01*
X155282Y77243D01*
X152485Y80040D01*
X152411Y80093D01*
X152341Y80153D01*
X152311Y80165D01*
X152285Y80184D01*
X152198Y80211D01*
X152113Y80245D01*
X152072Y80249D01*
X152050Y80256D01*
X152018Y80255D01*
X151947Y80263D01*
X37283Y80263D01*
X37193Y80249D01*
X37102Y80241D01*
X37073Y80229D01*
X37041Y80224D01*
X36960Y80181D01*
X36876Y80145D01*
X36844Y80119D01*
X36823Y80108D01*
X36801Y80085D01*
X36745Y80040D01*
X33948Y77243D01*
X29552Y77243D01*
G37*
%LPD*%
%LPC*%
G36*
X98233Y-198629D02*
X98233Y-198629D01*
X93471Y-193867D01*
X93471Y-187133D01*
X93697Y-186907D01*
X93709Y-186891D01*
X93724Y-186879D01*
X93780Y-186792D01*
X93840Y-186708D01*
X93846Y-186689D01*
X93857Y-186672D01*
X93882Y-186571D01*
X93913Y-186473D01*
X93912Y-186453D01*
X93917Y-186433D01*
X93909Y-186330D01*
X93906Y-186227D01*
X93900Y-186208D01*
X93898Y-186188D01*
X93858Y-186093D01*
X93822Y-185996D01*
X93809Y-185980D01*
X93802Y-185962D01*
X93697Y-185831D01*
X63256Y-155390D01*
X63182Y-155337D01*
X63112Y-155277D01*
X63082Y-155265D01*
X63056Y-155246D01*
X62969Y-155219D01*
X62884Y-155185D01*
X62843Y-155181D01*
X62821Y-155174D01*
X62789Y-155175D01*
X62717Y-155167D01*
X58762Y-155167D01*
X55653Y-152058D01*
X55653Y-147662D01*
X58762Y-144553D01*
X63158Y-144553D01*
X66267Y-147662D01*
X66267Y-151617D01*
X66281Y-151708D01*
X66289Y-151798D01*
X66301Y-151828D01*
X66306Y-151860D01*
X66349Y-151941D01*
X66385Y-152025D01*
X66411Y-152057D01*
X66422Y-152078D01*
X66445Y-152100D01*
X66490Y-152156D01*
X96931Y-182597D01*
X96947Y-182609D01*
X96959Y-182624D01*
X97047Y-182680D01*
X97131Y-182740D01*
X97150Y-182746D01*
X97166Y-182757D01*
X97267Y-182782D01*
X97366Y-182813D01*
X97386Y-182812D01*
X97405Y-182817D01*
X97508Y-182809D01*
X97611Y-182806D01*
X97630Y-182800D01*
X97650Y-182798D01*
X97745Y-182758D01*
X97843Y-182722D01*
X97858Y-182709D01*
X97876Y-182702D01*
X98007Y-182597D01*
X98233Y-182371D01*
X104967Y-182371D01*
X109407Y-186811D01*
X109423Y-186823D01*
X109436Y-186839D01*
X109523Y-186895D01*
X109607Y-186955D01*
X109626Y-186961D01*
X109643Y-186972D01*
X109743Y-186997D01*
X109842Y-187027D01*
X109862Y-187027D01*
X109881Y-187032D01*
X109984Y-187024D01*
X110088Y-187021D01*
X110107Y-187014D01*
X110126Y-187013D01*
X110221Y-186972D01*
X110319Y-186937D01*
X110335Y-186924D01*
X110353Y-186916D01*
X110484Y-186811D01*
X112102Y-185193D01*
X116498Y-185193D01*
X119607Y-188302D01*
X119607Y-192698D01*
X116498Y-195807D01*
X112102Y-195807D01*
X110484Y-194189D01*
X110468Y-194177D01*
X110455Y-194161D01*
X110368Y-194105D01*
X110284Y-194045D01*
X110265Y-194039D01*
X110248Y-194028D01*
X110148Y-194003D01*
X110049Y-193973D01*
X110029Y-193973D01*
X110010Y-193968D01*
X109907Y-193976D01*
X109803Y-193979D01*
X109784Y-193986D01*
X109764Y-193987D01*
X109670Y-194028D01*
X109572Y-194063D01*
X109556Y-194076D01*
X109538Y-194084D01*
X109407Y-194189D01*
X104967Y-198629D01*
X98233Y-198629D01*
G37*
%LPD*%
%LPC*%
G36*
X264502Y-56107D02*
X264502Y-56107D01*
X261393Y-52998D01*
X261393Y-48602D01*
X264502Y-45493D01*
X268457Y-45493D01*
X268548Y-45479D01*
X268638Y-45471D01*
X268668Y-45459D01*
X268700Y-45454D01*
X268781Y-45411D01*
X268865Y-45375D01*
X268897Y-45349D01*
X268918Y-45338D01*
X268940Y-45315D01*
X268996Y-45270D01*
X324670Y10404D01*
X324723Y10478D01*
X324783Y10548D01*
X324795Y10578D01*
X324814Y10604D01*
X324841Y10691D01*
X324875Y10776D01*
X324879Y10817D01*
X324886Y10839D01*
X324885Y10871D01*
X324893Y10943D01*
X324893Y14898D01*
X328002Y18007D01*
X332398Y18007D01*
X335507Y14898D01*
X335507Y10502D01*
X332398Y7393D01*
X328443Y7393D01*
X328352Y7379D01*
X328262Y7371D01*
X328232Y7359D01*
X328200Y7354D01*
X328119Y7311D01*
X328035Y7275D01*
X328003Y7249D01*
X327982Y7238D01*
X327960Y7215D01*
X327904Y7170D01*
X272230Y-48504D01*
X272187Y-48563D01*
X272141Y-48612D01*
X272133Y-48629D01*
X272117Y-48648D01*
X272105Y-48678D01*
X272086Y-48704D01*
X272062Y-48782D01*
X272038Y-48835D01*
X272036Y-48849D01*
X272025Y-48876D01*
X272021Y-48917D01*
X272014Y-48939D01*
X272015Y-48971D01*
X272007Y-49043D01*
X272007Y-52998D01*
X268898Y-56107D01*
X264502Y-56107D01*
G37*
%LPD*%
%LPC*%
G36*
X162902Y-18007D02*
X162902Y-18007D01*
X159793Y-14898D01*
X159793Y-10502D01*
X162902Y-7393D01*
X167298Y-7393D01*
X170095Y-10190D01*
X170169Y-10243D01*
X170239Y-10303D01*
X170269Y-10315D01*
X170295Y-10334D01*
X170382Y-10361D01*
X170467Y-10395D01*
X170508Y-10399D01*
X170530Y-10406D01*
X170562Y-10405D01*
X170633Y-10413D01*
X248467Y-10413D01*
X248557Y-10399D01*
X248648Y-10391D01*
X248677Y-10379D01*
X248709Y-10374D01*
X248790Y-10331D01*
X248874Y-10295D01*
X248906Y-10269D01*
X248927Y-10258D01*
X248949Y-10235D01*
X249005Y-10190D01*
X251802Y-7393D01*
X256198Y-7393D01*
X259307Y-10502D01*
X259307Y-14898D01*
X256198Y-18007D01*
X251802Y-18007D01*
X249005Y-15210D01*
X248931Y-15157D01*
X248861Y-15097D01*
X248831Y-15085D01*
X248805Y-15066D01*
X248718Y-15039D01*
X248633Y-15005D01*
X248592Y-15001D01*
X248570Y-14994D01*
X248538Y-14995D01*
X248467Y-14987D01*
X170633Y-14987D01*
X170543Y-15001D01*
X170452Y-15009D01*
X170423Y-15021D01*
X170391Y-15026D01*
X170310Y-15069D01*
X170226Y-15105D01*
X170194Y-15131D01*
X170173Y-15142D01*
X170151Y-15165D01*
X170095Y-15210D01*
X167298Y-18007D01*
X162902Y-18007D01*
G37*
%LPD*%
%LPC*%
G36*
X137502Y235993D02*
X137502Y235993D01*
X134393Y239102D01*
X134393Y243498D01*
X137502Y246607D01*
X141898Y246607D01*
X144695Y243810D01*
X144769Y243757D01*
X144839Y243697D01*
X144869Y243685D01*
X144895Y243666D01*
X144982Y243639D01*
X145067Y243605D01*
X145108Y243601D01*
X145130Y243594D01*
X145162Y243595D01*
X145233Y243587D01*
X223067Y243587D01*
X223157Y243601D01*
X223248Y243609D01*
X223277Y243621D01*
X223309Y243626D01*
X223390Y243669D01*
X223474Y243705D01*
X223506Y243731D01*
X223527Y243742D01*
X223549Y243765D01*
X223605Y243810D01*
X226402Y246607D01*
X230798Y246607D01*
X233907Y243498D01*
X233907Y239102D01*
X230798Y235993D01*
X226402Y235993D01*
X223605Y238790D01*
X223531Y238843D01*
X223461Y238903D01*
X223431Y238915D01*
X223405Y238934D01*
X223318Y238961D01*
X223233Y238995D01*
X223192Y238999D01*
X223170Y239006D01*
X223138Y239005D01*
X223067Y239013D01*
X145233Y239013D01*
X145143Y238999D01*
X145052Y238991D01*
X145023Y238979D01*
X144991Y238974D01*
X144910Y238931D01*
X144826Y238895D01*
X144794Y238869D01*
X144773Y238858D01*
X144751Y238835D01*
X144695Y238790D01*
X141898Y235993D01*
X137502Y235993D01*
G37*
%LPD*%
%LPC*%
G36*
X-281598Y108993D02*
X-281598Y108993D01*
X-284707Y112102D01*
X-284707Y116498D01*
X-281598Y119607D01*
X-277202Y119607D01*
X-274405Y116810D01*
X-274331Y116757D01*
X-274261Y116697D01*
X-274231Y116685D01*
X-274205Y116666D01*
X-274118Y116639D01*
X-274033Y116605D01*
X-273992Y116601D01*
X-273970Y116594D01*
X-273938Y116595D01*
X-273867Y116587D01*
X-196033Y116587D01*
X-195943Y116601D01*
X-195852Y116609D01*
X-195823Y116621D01*
X-195791Y116626D01*
X-195710Y116669D01*
X-195626Y116705D01*
X-195594Y116731D01*
X-195573Y116742D01*
X-195551Y116765D01*
X-195495Y116810D01*
X-192698Y119607D01*
X-188302Y119607D01*
X-185193Y116498D01*
X-185193Y112102D01*
X-188302Y108993D01*
X-192698Y108993D01*
X-195495Y111790D01*
X-195569Y111843D01*
X-195639Y111903D01*
X-195669Y111915D01*
X-195695Y111934D01*
X-195782Y111961D01*
X-195867Y111995D01*
X-195908Y111999D01*
X-195930Y112006D01*
X-195962Y112005D01*
X-196033Y112013D01*
X-273867Y112013D01*
X-273957Y111999D01*
X-274048Y111991D01*
X-274077Y111979D01*
X-274109Y111974D01*
X-274190Y111931D01*
X-274274Y111895D01*
X-274306Y111869D01*
X-274327Y111858D01*
X-274349Y111835D01*
X-274405Y111790D01*
X-277202Y108993D01*
X-281598Y108993D01*
G37*
%LPD*%
%LPC*%
G36*
X137502Y147093D02*
X137502Y147093D01*
X134393Y150202D01*
X134393Y154598D01*
X137502Y157707D01*
X141898Y157707D01*
X144695Y154910D01*
X144769Y154857D01*
X144839Y154797D01*
X144869Y154785D01*
X144895Y154766D01*
X144982Y154739D01*
X145067Y154705D01*
X145108Y154701D01*
X145130Y154694D01*
X145162Y154695D01*
X145233Y154687D01*
X223067Y154687D01*
X223157Y154701D01*
X223248Y154709D01*
X223277Y154721D01*
X223309Y154726D01*
X223390Y154769D01*
X223474Y154805D01*
X223506Y154831D01*
X223527Y154842D01*
X223549Y154865D01*
X223605Y154910D01*
X226402Y157707D01*
X230798Y157707D01*
X233907Y154598D01*
X233907Y150202D01*
X230798Y147093D01*
X226402Y147093D01*
X223605Y149890D01*
X223531Y149943D01*
X223461Y150003D01*
X223431Y150015D01*
X223405Y150034D01*
X223318Y150061D01*
X223233Y150095D01*
X223192Y150099D01*
X223170Y150106D01*
X223138Y150105D01*
X223067Y150113D01*
X145233Y150113D01*
X145143Y150099D01*
X145052Y150091D01*
X145023Y150079D01*
X144991Y150074D01*
X144910Y150031D01*
X144826Y149995D01*
X144794Y149969D01*
X144773Y149958D01*
X144751Y149935D01*
X144695Y149890D01*
X141898Y147093D01*
X137502Y147093D01*
G37*
%LPD*%
%LPC*%
G36*
X-167298Y-246607D02*
X-167298Y-246607D01*
X-170407Y-243498D01*
X-170407Y-243078D01*
X-170410Y-243058D01*
X-170408Y-243039D01*
X-170430Y-242937D01*
X-170446Y-242835D01*
X-170456Y-242818D01*
X-170460Y-242798D01*
X-170513Y-242709D01*
X-170562Y-242618D01*
X-170576Y-242604D01*
X-170586Y-242587D01*
X-170665Y-242520D01*
X-170740Y-242448D01*
X-170758Y-242440D01*
X-170773Y-242427D01*
X-170869Y-242388D01*
X-170963Y-242345D01*
X-170983Y-242343D01*
X-171001Y-242335D01*
X-171168Y-242317D01*
X-230687Y-242317D01*
X-230777Y-242331D01*
X-230868Y-242339D01*
X-230897Y-242351D01*
X-230929Y-242356D01*
X-231010Y-242399D01*
X-231094Y-242435D01*
X-231126Y-242461D01*
X-231147Y-242472D01*
X-231169Y-242495D01*
X-231225Y-242540D01*
X-234022Y-245337D01*
X-238418Y-245337D01*
X-241527Y-242228D01*
X-241527Y-237832D01*
X-238418Y-234723D01*
X-234022Y-234723D01*
X-231225Y-237520D01*
X-231151Y-237573D01*
X-231081Y-237633D01*
X-231051Y-237645D01*
X-231025Y-237664D01*
X-230938Y-237691D01*
X-230853Y-237725D01*
X-230812Y-237729D01*
X-230790Y-237736D01*
X-230758Y-237735D01*
X-230687Y-237743D01*
X-169363Y-237743D01*
X-169273Y-237729D01*
X-169182Y-237721D01*
X-169153Y-237709D01*
X-169121Y-237704D01*
X-169040Y-237661D01*
X-168956Y-237625D01*
X-168924Y-237599D01*
X-168903Y-237588D01*
X-168881Y-237565D01*
X-168825Y-237520D01*
X-167298Y-235993D01*
X-162902Y-235993D01*
X-159793Y-239102D01*
X-159793Y-243498D01*
X-162902Y-246607D01*
X-167298Y-246607D01*
G37*
%LPD*%
%LPC*%
G36*
X213702Y121693D02*
X213702Y121693D01*
X210905Y124490D01*
X210831Y124543D01*
X210761Y124603D01*
X210731Y124615D01*
X210705Y124634D01*
X210618Y124661D01*
X210533Y124695D01*
X210492Y124699D01*
X210470Y124706D01*
X210438Y124705D01*
X210367Y124713D01*
X164153Y124713D01*
X154696Y134170D01*
X154622Y134223D01*
X154552Y134283D01*
X154522Y134295D01*
X154496Y134314D01*
X154409Y134341D01*
X154324Y134375D01*
X154283Y134379D01*
X154261Y134386D01*
X154229Y134385D01*
X154157Y134393D01*
X150202Y134393D01*
X147093Y137502D01*
X147093Y141898D01*
X150202Y145007D01*
X154598Y145007D01*
X157707Y141898D01*
X157707Y137943D01*
X157721Y137852D01*
X157729Y137762D01*
X157741Y137732D01*
X157746Y137700D01*
X157789Y137619D01*
X157825Y137535D01*
X157851Y137503D01*
X157862Y137482D01*
X157885Y137460D01*
X157930Y137404D01*
X165824Y129510D01*
X165898Y129457D01*
X165968Y129397D01*
X165998Y129385D01*
X166024Y129366D01*
X166111Y129339D01*
X166196Y129305D01*
X166237Y129301D01*
X166259Y129294D01*
X166291Y129295D01*
X166363Y129287D01*
X210367Y129287D01*
X210457Y129301D01*
X210548Y129309D01*
X210577Y129321D01*
X210609Y129326D01*
X210690Y129369D01*
X210774Y129405D01*
X210806Y129431D01*
X210827Y129442D01*
X210849Y129465D01*
X210905Y129510D01*
X213702Y132307D01*
X218098Y132307D01*
X221207Y129198D01*
X221207Y124802D01*
X218098Y121693D01*
X213702Y121693D01*
G37*
%LPD*%
%LPC*%
G36*
X-192698Y248693D02*
X-192698Y248693D01*
X-195807Y251802D01*
X-195807Y256198D01*
X-192698Y259307D01*
X-188302Y259307D01*
X-185505Y256510D01*
X-185431Y256457D01*
X-185361Y256397D01*
X-185331Y256385D01*
X-185305Y256366D01*
X-185218Y256339D01*
X-185133Y256305D01*
X-185092Y256301D01*
X-185070Y256294D01*
X-185038Y256295D01*
X-184967Y256287D01*
X-132533Y256287D01*
X-132443Y256301D01*
X-132352Y256309D01*
X-132323Y256321D01*
X-132291Y256326D01*
X-132210Y256369D01*
X-132126Y256405D01*
X-132094Y256431D01*
X-132073Y256442D01*
X-132051Y256465D01*
X-131995Y256510D01*
X-129198Y259307D01*
X-124802Y259307D01*
X-121693Y256198D01*
X-121693Y251802D01*
X-124802Y248693D01*
X-129198Y248693D01*
X-131995Y251490D01*
X-132069Y251543D01*
X-132139Y251603D01*
X-132169Y251615D01*
X-132195Y251634D01*
X-132282Y251661D01*
X-132367Y251695D01*
X-132408Y251699D01*
X-132430Y251706D01*
X-132462Y251705D01*
X-132533Y251713D01*
X-184967Y251713D01*
X-185057Y251699D01*
X-185148Y251691D01*
X-185177Y251679D01*
X-185209Y251674D01*
X-185290Y251631D01*
X-185374Y251595D01*
X-185406Y251569D01*
X-185427Y251558D01*
X-185449Y251535D01*
X-185505Y251490D01*
X-188302Y248693D01*
X-192698Y248693D01*
G37*
%LPD*%
%LPC*%
G36*
X188302Y172493D02*
X188302Y172493D01*
X185193Y175602D01*
X185193Y179998D01*
X188302Y183107D01*
X192698Y183107D01*
X195495Y180310D01*
X195569Y180257D01*
X195639Y180197D01*
X195669Y180185D01*
X195695Y180166D01*
X195782Y180139D01*
X195867Y180105D01*
X195908Y180101D01*
X195930Y180094D01*
X195962Y180095D01*
X196033Y180087D01*
X248467Y180087D01*
X248557Y180101D01*
X248648Y180109D01*
X248677Y180121D01*
X248709Y180126D01*
X248790Y180169D01*
X248874Y180205D01*
X248906Y180231D01*
X248927Y180242D01*
X248935Y180251D01*
X248936Y180251D01*
X248951Y180267D01*
X249005Y180310D01*
X251802Y183107D01*
X256198Y183107D01*
X259307Y179998D01*
X259307Y175602D01*
X256198Y172493D01*
X251802Y172493D01*
X249005Y175290D01*
X248931Y175343D01*
X248861Y175403D01*
X248831Y175415D01*
X248805Y175434D01*
X248718Y175461D01*
X248633Y175495D01*
X248592Y175499D01*
X248570Y175506D01*
X248538Y175505D01*
X248467Y175513D01*
X196033Y175513D01*
X195943Y175499D01*
X195852Y175491D01*
X195823Y175479D01*
X195791Y175474D01*
X195710Y175431D01*
X195626Y175395D01*
X195594Y175369D01*
X195573Y175358D01*
X195551Y175335D01*
X195495Y175290D01*
X192698Y172493D01*
X188302Y172493D01*
G37*
%LPD*%
%LPC*%
G36*
X-77817Y201167D02*
X-77817Y201167D01*
X-80805Y202405D01*
X-83091Y204691D01*
X-84329Y207679D01*
X-84329Y224121D01*
X-83091Y227109D01*
X-80805Y229395D01*
X-77817Y230633D01*
X-74583Y230633D01*
X-71595Y229395D01*
X-69309Y227109D01*
X-68071Y224121D01*
X-68071Y207679D01*
X-69309Y204691D01*
X-71595Y202405D01*
X-74583Y201167D01*
X-77817Y201167D01*
G37*
%LPD*%
%LPC*%
G36*
X23783Y277367D02*
X23783Y277367D01*
X20795Y278605D01*
X18509Y280891D01*
X17271Y283879D01*
X17271Y300321D01*
X18509Y303309D01*
X20795Y305595D01*
X23783Y306833D01*
X27017Y306833D01*
X30005Y305595D01*
X32291Y303309D01*
X33529Y300321D01*
X33529Y283879D01*
X32291Y280891D01*
X30005Y278605D01*
X27017Y277367D01*
X23783Y277367D01*
G37*
%LPD*%
%LPC*%
G36*
X74583Y201167D02*
X74583Y201167D01*
X71595Y202405D01*
X69309Y204691D01*
X68071Y207679D01*
X68071Y224121D01*
X69309Y227109D01*
X71595Y229395D01*
X74583Y230633D01*
X77817Y230633D01*
X80805Y229395D01*
X83091Y227109D01*
X84329Y224121D01*
X84329Y207679D01*
X83091Y204691D01*
X80805Y202405D01*
X77817Y201167D01*
X74583Y201167D01*
G37*
%LPD*%
%LPC*%
G36*
X-27017Y277367D02*
X-27017Y277367D01*
X-30005Y278605D01*
X-32291Y280891D01*
X-33529Y283879D01*
X-33529Y300321D01*
X-32291Y303309D01*
X-30005Y305595D01*
X-27017Y306833D01*
X-23783Y306833D01*
X-20795Y305595D01*
X-18509Y303309D01*
X-17271Y300321D01*
X-17271Y283879D01*
X-18509Y280891D01*
X-20795Y278605D01*
X-23783Y277367D01*
X-27017Y277367D01*
G37*
%LPD*%
%LPC*%
G36*
X49183Y277367D02*
X49183Y277367D01*
X46195Y278605D01*
X43909Y280891D01*
X42671Y283879D01*
X42671Y300321D01*
X43909Y303309D01*
X46195Y305595D01*
X49183Y306833D01*
X52417Y306833D01*
X55405Y305595D01*
X57691Y303309D01*
X58929Y300321D01*
X58929Y283879D01*
X57691Y280891D01*
X55405Y278605D01*
X52417Y277367D01*
X49183Y277367D01*
G37*
%LPD*%
%LPC*%
G36*
X125383Y201167D02*
X125383Y201167D01*
X122395Y202405D01*
X120109Y204691D01*
X118871Y207679D01*
X118871Y224121D01*
X120109Y227109D01*
X122395Y229395D01*
X125383Y230633D01*
X128617Y230633D01*
X131605Y229395D01*
X133891Y227109D01*
X135129Y224121D01*
X135129Y207679D01*
X133891Y204691D01*
X131605Y202405D01*
X128617Y201167D01*
X125383Y201167D01*
G37*
%LPD*%
%LPC*%
G36*
X-52417Y201167D02*
X-52417Y201167D01*
X-55405Y202405D01*
X-57691Y204691D01*
X-58929Y207679D01*
X-58929Y224121D01*
X-57691Y227109D01*
X-55405Y229395D01*
X-52417Y230633D01*
X-49183Y230633D01*
X-46195Y229395D01*
X-43909Y227109D01*
X-42671Y224121D01*
X-42671Y207679D01*
X-43909Y204691D01*
X-46195Y202405D01*
X-49183Y201167D01*
X-52417Y201167D01*
G37*
%LPD*%
%LPC*%
G36*
X-128617Y201167D02*
X-128617Y201167D01*
X-131605Y202405D01*
X-133891Y204691D01*
X-135129Y207679D01*
X-135129Y224121D01*
X-133891Y227109D01*
X-131605Y229395D01*
X-128617Y230633D01*
X-125383Y230633D01*
X-122395Y229395D01*
X-120109Y227109D01*
X-118871Y224121D01*
X-118871Y207679D01*
X-120109Y204691D01*
X-122395Y202405D01*
X-125383Y201167D01*
X-128617Y201167D01*
G37*
%LPD*%
%LPC*%
G36*
X99983Y277367D02*
X99983Y277367D01*
X96995Y278605D01*
X94709Y280891D01*
X93471Y283879D01*
X93471Y300321D01*
X94709Y303309D01*
X96995Y305595D01*
X99983Y306833D01*
X103217Y306833D01*
X106205Y305595D01*
X108491Y303309D01*
X109729Y300321D01*
X109729Y283879D01*
X108491Y280891D01*
X106205Y278605D01*
X103217Y277367D01*
X99983Y277367D01*
G37*
%LPD*%
%LPC*%
G36*
X-27017Y201167D02*
X-27017Y201167D01*
X-30005Y202405D01*
X-32291Y204691D01*
X-33529Y207679D01*
X-33529Y224121D01*
X-32291Y227109D01*
X-30005Y229395D01*
X-27017Y230633D01*
X-23783Y230633D01*
X-20795Y229395D01*
X-18509Y227109D01*
X-17271Y224121D01*
X-17271Y207679D01*
X-18509Y204691D01*
X-20795Y202405D01*
X-23783Y201167D01*
X-27017Y201167D01*
G37*
%LPD*%
%LPC*%
G36*
X99983Y201167D02*
X99983Y201167D01*
X96995Y202405D01*
X94709Y204691D01*
X93471Y207679D01*
X93471Y224121D01*
X94709Y227109D01*
X96995Y229395D01*
X99983Y230633D01*
X103217Y230633D01*
X106205Y229395D01*
X108491Y227109D01*
X109729Y224121D01*
X109729Y207679D01*
X108491Y204691D01*
X106205Y202405D01*
X103217Y201167D01*
X99983Y201167D01*
G37*
%LPD*%
%LPC*%
G36*
X-103217Y277367D02*
X-103217Y277367D01*
X-106205Y278605D01*
X-108491Y280891D01*
X-109729Y283879D01*
X-109729Y300321D01*
X-108491Y303309D01*
X-106205Y305595D01*
X-103217Y306833D01*
X-99983Y306833D01*
X-96995Y305595D01*
X-94709Y303309D01*
X-93471Y300321D01*
X-93471Y283879D01*
X-94709Y280891D01*
X-96995Y278605D01*
X-99983Y277367D01*
X-103217Y277367D01*
G37*
%LPD*%
%LPC*%
G36*
X125383Y277367D02*
X125383Y277367D01*
X122395Y278605D01*
X120109Y280891D01*
X118871Y283879D01*
X118871Y300321D01*
X120109Y303309D01*
X122395Y305595D01*
X125383Y306833D01*
X128617Y306833D01*
X131605Y305595D01*
X133891Y303309D01*
X135129Y300321D01*
X135129Y283879D01*
X133891Y280891D01*
X131605Y278605D01*
X128617Y277367D01*
X125383Y277367D01*
G37*
%LPD*%
%LPC*%
G36*
X49183Y201167D02*
X49183Y201167D01*
X46195Y202405D01*
X43909Y204691D01*
X42671Y207679D01*
X42671Y224121D01*
X43909Y227109D01*
X46195Y229395D01*
X49183Y230633D01*
X52417Y230633D01*
X55405Y229395D01*
X57691Y227109D01*
X58929Y224121D01*
X58929Y207679D01*
X57691Y204691D01*
X55405Y202405D01*
X52417Y201167D01*
X49183Y201167D01*
G37*
%LPD*%
%LPC*%
G36*
X150783Y277367D02*
X150783Y277367D01*
X147795Y278605D01*
X145509Y280891D01*
X144271Y283879D01*
X144271Y300321D01*
X145509Y303309D01*
X147795Y305595D01*
X150783Y306833D01*
X154017Y306833D01*
X157005Y305595D01*
X159291Y303309D01*
X160529Y300321D01*
X160529Y283879D01*
X159291Y280891D01*
X157005Y278605D01*
X154017Y277367D01*
X150783Y277367D01*
G37*
%LPD*%
%LPC*%
G36*
X-103217Y201167D02*
X-103217Y201167D01*
X-106205Y202405D01*
X-108491Y204691D01*
X-109729Y207679D01*
X-109729Y224121D01*
X-108491Y227109D01*
X-106205Y229395D01*
X-103217Y230633D01*
X-99983Y230633D01*
X-96995Y229395D01*
X-94709Y227109D01*
X-93471Y224121D01*
X-93471Y207679D01*
X-94709Y204691D01*
X-96995Y202405D01*
X-99983Y201167D01*
X-103217Y201167D01*
G37*
%LPD*%
%LPC*%
G36*
X-154017Y201167D02*
X-154017Y201167D01*
X-157005Y202405D01*
X-159291Y204691D01*
X-160529Y207679D01*
X-160529Y224121D01*
X-159291Y227109D01*
X-157005Y229395D01*
X-154017Y230633D01*
X-150783Y230633D01*
X-147795Y229395D01*
X-145509Y227109D01*
X-144271Y224121D01*
X-144271Y207679D01*
X-145509Y204691D01*
X-147795Y202405D01*
X-150783Y201167D01*
X-154017Y201167D01*
G37*
%LPD*%
%LPC*%
G36*
X176183Y201167D02*
X176183Y201167D01*
X173195Y202405D01*
X170909Y204691D01*
X169671Y207679D01*
X169671Y224121D01*
X170909Y227109D01*
X173195Y229395D01*
X176183Y230633D01*
X179417Y230633D01*
X182405Y229395D01*
X184691Y227109D01*
X185929Y224121D01*
X185929Y207679D01*
X184691Y204691D01*
X182405Y202405D01*
X179417Y201167D01*
X176183Y201167D01*
G37*
%LPD*%
%LPC*%
G36*
X150783Y201167D02*
X150783Y201167D01*
X147795Y202405D01*
X145509Y204691D01*
X144271Y207679D01*
X144271Y224121D01*
X145509Y227109D01*
X147795Y229395D01*
X150783Y230633D01*
X154017Y230633D01*
X157005Y229395D01*
X159291Y227109D01*
X160529Y224121D01*
X160529Y207679D01*
X159291Y204691D01*
X157005Y202405D01*
X154017Y201167D01*
X150783Y201167D01*
G37*
%LPD*%
%LPC*%
G36*
X-1617Y277367D02*
X-1617Y277367D01*
X-4605Y278605D01*
X-6891Y280891D01*
X-8129Y283879D01*
X-8129Y300321D01*
X-6891Y303309D01*
X-4605Y305595D01*
X-1617Y306833D01*
X1617Y306833D01*
X4605Y305595D01*
X6891Y303309D01*
X8129Y300321D01*
X8129Y283879D01*
X6891Y280891D01*
X4605Y278605D01*
X1617Y277367D01*
X-1617Y277367D01*
G37*
%LPD*%
%LPC*%
G36*
X-1617Y201167D02*
X-1617Y201167D01*
X-4605Y202405D01*
X-6891Y204691D01*
X-8129Y207679D01*
X-8129Y224121D01*
X-6891Y227109D01*
X-4605Y229395D01*
X-1617Y230633D01*
X1617Y230633D01*
X4605Y229395D01*
X6891Y227109D01*
X8129Y224121D01*
X8129Y207679D01*
X6891Y204691D01*
X4605Y202405D01*
X1617Y201167D01*
X-1617Y201167D01*
G37*
%LPD*%
%LPC*%
G36*
X-179973Y52577D02*
X-179973Y52577D01*
X-183987Y54240D01*
X-187060Y57313D01*
X-188723Y61327D01*
X-188723Y65673D01*
X-187060Y69687D01*
X-183987Y72760D01*
X-179973Y74423D01*
X-175627Y74423D01*
X-171613Y72760D01*
X-168540Y69687D01*
X-166877Y65673D01*
X-166877Y61327D01*
X-168540Y57313D01*
X-171613Y54240D01*
X-175627Y52577D01*
X-179973Y52577D01*
G37*
%LPD*%
%LPC*%
G36*
X-141692Y351093D02*
X-141692Y351093D01*
X-145706Y352755D01*
X-148779Y355828D01*
X-150442Y359843D01*
X-150442Y364188D01*
X-148779Y368203D01*
X-145706Y371275D01*
X-141692Y372938D01*
X-137346Y372938D01*
X-133332Y371275D01*
X-130259Y368203D01*
X-128596Y364188D01*
X-128596Y359843D01*
X-130259Y355828D01*
X-133332Y352755D01*
X-137346Y351093D01*
X-141692Y351093D01*
G37*
%LPD*%
%LPC*%
G36*
X-326175Y-185028D02*
X-326175Y-185028D01*
X-330189Y-183365D01*
X-333262Y-180292D01*
X-334925Y-176278D01*
X-334925Y-171932D01*
X-333262Y-167918D01*
X-330189Y-164845D01*
X-326175Y-163182D01*
X-321829Y-163182D01*
X-317815Y-164845D01*
X-314742Y-167918D01*
X-313079Y-171932D01*
X-313079Y-176278D01*
X-314742Y-180292D01*
X-317815Y-183365D01*
X-321829Y-185028D01*
X-326175Y-185028D01*
G37*
%LPD*%
%LPC*%
G36*
X-103773Y-49023D02*
X-103773Y-49023D01*
X-107787Y-47360D01*
X-110860Y-44287D01*
X-112523Y-40273D01*
X-112523Y-35927D01*
X-110860Y-31913D01*
X-107787Y-28840D01*
X-103773Y-27177D01*
X-99427Y-27177D01*
X-95413Y-28840D01*
X-92340Y-31913D01*
X-90677Y-35927D01*
X-90677Y-40273D01*
X-92340Y-44287D01*
X-95413Y-47360D01*
X-99427Y-49023D01*
X-103773Y-49023D01*
G37*
%LPD*%
%LPC*%
G36*
X-119013Y-97283D02*
X-119013Y-97283D01*
X-123027Y-95620D01*
X-126100Y-92547D01*
X-127763Y-88533D01*
X-127763Y-84187D01*
X-126100Y-80173D01*
X-123027Y-77100D01*
X-119013Y-75437D01*
X-114667Y-75437D01*
X-110653Y-77100D01*
X-107580Y-80173D01*
X-105917Y-84187D01*
X-105917Y-88533D01*
X-107580Y-92547D01*
X-110653Y-95620D01*
X-114667Y-97283D01*
X-119013Y-97283D01*
G37*
%LPD*%
%LPC*%
G36*
X-154573Y52577D02*
X-154573Y52577D01*
X-158587Y54240D01*
X-161660Y57313D01*
X-163323Y61327D01*
X-163323Y65673D01*
X-161660Y69687D01*
X-158587Y72760D01*
X-154573Y74423D01*
X-150227Y74423D01*
X-146213Y72760D01*
X-143140Y69687D01*
X-141477Y65673D01*
X-141477Y61327D01*
X-143140Y57313D01*
X-146213Y54240D01*
X-150227Y52577D01*
X-154573Y52577D01*
G37*
%LPD*%
%LPC*%
G36*
X-129173Y-49023D02*
X-129173Y-49023D01*
X-133187Y-47360D01*
X-136260Y-44287D01*
X-137923Y-40273D01*
X-137923Y-35927D01*
X-136260Y-31913D01*
X-133187Y-28840D01*
X-129173Y-27177D01*
X-124827Y-27177D01*
X-120813Y-28840D01*
X-117740Y-31913D01*
X-116077Y-35927D01*
X-116077Y-40273D01*
X-117740Y-44287D01*
X-120813Y-47360D01*
X-124827Y-49023D01*
X-129173Y-49023D01*
G37*
%LPD*%
%LPC*%
G36*
X-68213Y-97283D02*
X-68213Y-97283D01*
X-72227Y-95620D01*
X-75300Y-92547D01*
X-76963Y-88533D01*
X-76963Y-84187D01*
X-75300Y-80173D01*
X-72227Y-77100D01*
X-68213Y-75437D01*
X-63867Y-75437D01*
X-59853Y-77100D01*
X-56780Y-80173D01*
X-55117Y-84187D01*
X-55117Y-88533D01*
X-56780Y-92547D01*
X-59853Y-95620D01*
X-63867Y-97283D01*
X-68213Y-97283D01*
G37*
%LPD*%
%LPC*%
G36*
X-42813Y-97283D02*
X-42813Y-97283D01*
X-46827Y-95620D01*
X-49900Y-92547D01*
X-51563Y-88533D01*
X-51563Y-84187D01*
X-49900Y-80173D01*
X-46827Y-77100D01*
X-42813Y-75437D01*
X-38467Y-75437D01*
X-34453Y-77100D01*
X-31380Y-80173D01*
X-29717Y-84187D01*
X-29717Y-88533D01*
X-31380Y-92547D01*
X-34453Y-95620D01*
X-38467Y-97283D01*
X-42813Y-97283D01*
G37*
%LPD*%
%LPC*%
G36*
X-17413Y-97283D02*
X-17413Y-97283D01*
X-21427Y-95620D01*
X-24500Y-92547D01*
X-26163Y-88533D01*
X-26163Y-84187D01*
X-24500Y-80173D01*
X-21427Y-77100D01*
X-17413Y-75437D01*
X-13067Y-75437D01*
X-9053Y-77100D01*
X-5980Y-80173D01*
X-4317Y-84187D01*
X-4317Y-88533D01*
X-5980Y-92547D01*
X-9053Y-95620D01*
X-13067Y-97283D01*
X-17413Y-97283D01*
G37*
%LPD*%
%LPC*%
G36*
X58787Y-97283D02*
X58787Y-97283D01*
X54773Y-95620D01*
X51700Y-92547D01*
X50037Y-88533D01*
X50037Y-84187D01*
X51700Y-80173D01*
X54773Y-77100D01*
X58787Y-75437D01*
X63133Y-75437D01*
X67147Y-77100D01*
X70220Y-80173D01*
X71883Y-84187D01*
X71883Y-88533D01*
X70220Y-92547D01*
X67147Y-95620D01*
X63133Y-97283D01*
X58787Y-97283D01*
G37*
%LPD*%
%LPC*%
G36*
X84187Y-97283D02*
X84187Y-97283D01*
X80173Y-95620D01*
X77100Y-92547D01*
X75437Y-88533D01*
X75437Y-84187D01*
X77100Y-80173D01*
X80173Y-77100D01*
X84187Y-75437D01*
X88533Y-75437D01*
X92547Y-77100D01*
X95620Y-80173D01*
X97283Y-84187D01*
X97283Y-88533D01*
X95620Y-92547D01*
X92547Y-95620D01*
X88533Y-97283D01*
X84187Y-97283D01*
G37*
%LPD*%
%LPC*%
G36*
X124827Y52577D02*
X124827Y52577D01*
X120813Y54240D01*
X117740Y57313D01*
X116077Y61327D01*
X116077Y65673D01*
X117740Y69687D01*
X120813Y72760D01*
X124827Y74423D01*
X129173Y74423D01*
X133187Y72760D01*
X136260Y69687D01*
X137923Y65673D01*
X137923Y61327D01*
X136260Y57313D01*
X133187Y54240D01*
X129173Y52577D01*
X124827Y52577D01*
G37*
%LPD*%
%LPC*%
G36*
X-154573Y-49023D02*
X-154573Y-49023D01*
X-158587Y-47360D01*
X-161660Y-44287D01*
X-163323Y-40273D01*
X-163323Y-35927D01*
X-161660Y-31913D01*
X-158587Y-28840D01*
X-154573Y-27177D01*
X-150227Y-27177D01*
X-146213Y-28840D01*
X-143140Y-31913D01*
X-141477Y-35927D01*
X-141477Y-40273D01*
X-143140Y-44287D01*
X-146213Y-47360D01*
X-150227Y-49023D01*
X-154573Y-49023D01*
G37*
%LPD*%
%LPC*%
G36*
X-93613Y-97283D02*
X-93613Y-97283D01*
X-97627Y-95620D01*
X-100700Y-92547D01*
X-102363Y-88533D01*
X-102363Y-84187D01*
X-100700Y-80173D01*
X-97627Y-77100D01*
X-93613Y-75437D01*
X-89267Y-75437D01*
X-85253Y-77100D01*
X-82180Y-80173D01*
X-80517Y-84187D01*
X-80517Y-88533D01*
X-82180Y-92547D01*
X-85253Y-95620D01*
X-89267Y-97283D01*
X-93613Y-97283D01*
G37*
%LPD*%
%LPC*%
G36*
X86727Y166877D02*
X86727Y166877D01*
X82713Y168540D01*
X79640Y171613D01*
X77977Y175627D01*
X77977Y179973D01*
X79640Y183987D01*
X82713Y187060D01*
X86727Y188723D01*
X91073Y188723D01*
X95087Y187060D01*
X98160Y183987D01*
X99823Y179973D01*
X99823Y175627D01*
X98160Y171613D01*
X95087Y168540D01*
X91073Y166877D01*
X86727Y166877D01*
G37*
%LPD*%
%LPC*%
G36*
X53707Y367537D02*
X53707Y367537D01*
X49693Y369200D01*
X46620Y372273D01*
X44957Y376287D01*
X44957Y380633D01*
X46620Y384647D01*
X49693Y387720D01*
X53707Y389383D01*
X58053Y389383D01*
X62067Y387720D01*
X65140Y384647D01*
X66803Y380633D01*
X66803Y376287D01*
X65140Y372273D01*
X62067Y369200D01*
X58053Y367537D01*
X53707Y367537D01*
G37*
%LPD*%
%LPC*%
G36*
X28307Y367537D02*
X28307Y367537D01*
X24293Y369200D01*
X21220Y372273D01*
X19557Y376287D01*
X19557Y380633D01*
X21220Y384647D01*
X24293Y387720D01*
X28307Y389383D01*
X32653Y389383D01*
X36667Y387720D01*
X39740Y384647D01*
X41403Y380633D01*
X41403Y376287D01*
X39740Y372273D01*
X36667Y369200D01*
X32653Y367537D01*
X28307Y367537D01*
G37*
%LPD*%
%LPC*%
G36*
X-22493Y367537D02*
X-22493Y367537D01*
X-26507Y369200D01*
X-29580Y372273D01*
X-31243Y376287D01*
X-31243Y380633D01*
X-29580Y384647D01*
X-26507Y387720D01*
X-22493Y389383D01*
X-18147Y389383D01*
X-14133Y387720D01*
X-11060Y384647D01*
X-9397Y380633D01*
X-9397Y376287D01*
X-11060Y372273D01*
X-14133Y369200D01*
X-18147Y367537D01*
X-22493Y367537D01*
G37*
%LPD*%
%LPC*%
G36*
X35927Y166877D02*
X35927Y166877D01*
X31913Y168540D01*
X28840Y171613D01*
X27177Y175627D01*
X27177Y179973D01*
X28840Y183987D01*
X31913Y187060D01*
X35927Y188723D01*
X40273Y188723D01*
X44287Y187060D01*
X47360Y183987D01*
X49023Y179973D01*
X49023Y175627D01*
X47360Y171613D01*
X44287Y168540D01*
X40273Y166877D01*
X35927Y166877D01*
G37*
%LPD*%
%LPC*%
G36*
X-47893Y367537D02*
X-47893Y367537D01*
X-51907Y369200D01*
X-54980Y372273D01*
X-56643Y376287D01*
X-56643Y380633D01*
X-54980Y384647D01*
X-51907Y387720D01*
X-47893Y389383D01*
X-43547Y389383D01*
X-39533Y387720D01*
X-36460Y384647D01*
X-34797Y380633D01*
X-34797Y376287D01*
X-36460Y372273D01*
X-39533Y369200D01*
X-43547Y367537D01*
X-47893Y367537D01*
G37*
%LPD*%
%LPC*%
G36*
X-263648Y252784D02*
X-263648Y252784D01*
X-267663Y254447D01*
X-270735Y257520D01*
X-272398Y261534D01*
X-272398Y265880D01*
X-270735Y269894D01*
X-267663Y272967D01*
X-263648Y274630D01*
X-259303Y274630D01*
X-255288Y272967D01*
X-252216Y269894D01*
X-250553Y265880D01*
X-250553Y261534D01*
X-252216Y257520D01*
X-255288Y254447D01*
X-259303Y252784D01*
X-263648Y252784D01*
G37*
%LPD*%
%LPC*%
G36*
X-179973Y-49023D02*
X-179973Y-49023D01*
X-183987Y-47360D01*
X-187060Y-44287D01*
X-188723Y-40273D01*
X-188723Y-35927D01*
X-187060Y-31913D01*
X-183987Y-28840D01*
X-179973Y-27177D01*
X-175627Y-27177D01*
X-171613Y-28840D01*
X-168540Y-31913D01*
X-166877Y-35927D01*
X-166877Y-40273D01*
X-168540Y-44287D01*
X-171613Y-47360D01*
X-175627Y-49023D01*
X-179973Y-49023D01*
G37*
%LPD*%
%LPC*%
G36*
X175627Y-49023D02*
X175627Y-49023D01*
X171613Y-47360D01*
X168540Y-44287D01*
X166877Y-40273D01*
X166877Y-35927D01*
X168540Y-31913D01*
X171613Y-28840D01*
X175627Y-27177D01*
X179973Y-27177D01*
X183987Y-28840D01*
X187060Y-31913D01*
X188723Y-35927D01*
X188723Y-40273D01*
X187060Y-44287D01*
X183987Y-47360D01*
X179973Y-49023D01*
X175627Y-49023D01*
G37*
%LPD*%
%LPC*%
G36*
X150227Y-49023D02*
X150227Y-49023D01*
X146213Y-47360D01*
X143140Y-44287D01*
X141477Y-40273D01*
X141477Y-35927D01*
X143140Y-31913D01*
X146213Y-28840D01*
X150227Y-27177D01*
X154573Y-27177D01*
X158587Y-28840D01*
X161660Y-31913D01*
X163323Y-35927D01*
X163323Y-40273D01*
X161660Y-44287D01*
X158587Y-47360D01*
X154573Y-49023D01*
X150227Y-49023D01*
G37*
%LPD*%
%LPC*%
G36*
X-129173Y52577D02*
X-129173Y52577D01*
X-133187Y54240D01*
X-136260Y57313D01*
X-137923Y61327D01*
X-137923Y65673D01*
X-136260Y69687D01*
X-133187Y72760D01*
X-129173Y74423D01*
X-124827Y74423D01*
X-120813Y72760D01*
X-117740Y69687D01*
X-116077Y65673D01*
X-116077Y61327D01*
X-117740Y57313D01*
X-120813Y54240D01*
X-124827Y52577D01*
X-129173Y52577D01*
G37*
%LPD*%
%LPC*%
G36*
X124827Y-49023D02*
X124827Y-49023D01*
X120813Y-47360D01*
X117740Y-44287D01*
X116077Y-40273D01*
X116077Y-35927D01*
X117740Y-31913D01*
X120813Y-28840D01*
X124827Y-27177D01*
X129173Y-27177D01*
X133187Y-28840D01*
X136260Y-31913D01*
X137923Y-35927D01*
X137923Y-40273D01*
X136260Y-44287D01*
X133187Y-47360D01*
X129173Y-49023D01*
X124827Y-49023D01*
G37*
%LPD*%
%LPC*%
G36*
X99427Y-49023D02*
X99427Y-49023D01*
X95413Y-47360D01*
X92340Y-44287D01*
X90677Y-40273D01*
X90677Y-35927D01*
X92340Y-31913D01*
X95413Y-28840D01*
X99427Y-27177D01*
X103773Y-27177D01*
X107787Y-28840D01*
X110860Y-31913D01*
X112523Y-35927D01*
X112523Y-40273D01*
X110860Y-44287D01*
X107787Y-47360D01*
X103773Y-49023D01*
X99427Y-49023D01*
G37*
%LPD*%
%LPC*%
G36*
X74027Y-49023D02*
X74027Y-49023D01*
X70013Y-47360D01*
X66940Y-44287D01*
X65277Y-40273D01*
X65277Y-35927D01*
X66940Y-31913D01*
X70013Y-28840D01*
X74027Y-27177D01*
X78373Y-27177D01*
X82387Y-28840D01*
X85460Y-31913D01*
X87123Y-35927D01*
X87123Y-40273D01*
X85460Y-44287D01*
X82387Y-47360D01*
X78373Y-49023D01*
X74027Y-49023D01*
G37*
%LPD*%
%LPC*%
G36*
X-52973Y-49023D02*
X-52973Y-49023D01*
X-56987Y-47360D01*
X-60060Y-44287D01*
X-61723Y-40273D01*
X-61723Y-35927D01*
X-60060Y-31913D01*
X-56987Y-28840D01*
X-52973Y-27177D01*
X-48627Y-27177D01*
X-44613Y-28840D01*
X-41540Y-31913D01*
X-39877Y-35927D01*
X-39877Y-40273D01*
X-41540Y-44287D01*
X-44613Y-47360D01*
X-48627Y-49023D01*
X-52973Y-49023D01*
G37*
%LPD*%
%LPC*%
G36*
X175627Y52577D02*
X175627Y52577D01*
X171613Y54240D01*
X168540Y57313D01*
X166877Y61327D01*
X166877Y65673D01*
X168540Y69687D01*
X171613Y72760D01*
X175627Y74423D01*
X179973Y74423D01*
X183987Y72760D01*
X187060Y69687D01*
X188723Y65673D01*
X188723Y61327D01*
X187060Y57313D01*
X183987Y54240D01*
X179973Y52577D01*
X175627Y52577D01*
G37*
%LPD*%
%LPC*%
G36*
X150227Y52577D02*
X150227Y52577D01*
X146213Y54240D01*
X143140Y57313D01*
X141477Y61327D01*
X141477Y65673D01*
X143140Y69687D01*
X146213Y72760D01*
X150227Y74423D01*
X154573Y74423D01*
X158587Y72760D01*
X161660Y69687D01*
X163323Y65673D01*
X163323Y61327D01*
X161660Y57313D01*
X158587Y54240D01*
X154573Y52577D01*
X150227Y52577D01*
G37*
%LPD*%
%LPC*%
G36*
X99427Y52577D02*
X99427Y52577D01*
X95413Y54240D01*
X92340Y57313D01*
X90677Y61327D01*
X90677Y65673D01*
X92340Y69687D01*
X95413Y72760D01*
X99427Y74423D01*
X103773Y74423D01*
X107787Y72760D01*
X110860Y69687D01*
X112523Y65673D01*
X112523Y61327D01*
X110860Y57313D01*
X107787Y54240D01*
X103773Y52577D01*
X99427Y52577D01*
G37*
%LPD*%
%LPC*%
G36*
X74027Y52577D02*
X74027Y52577D01*
X70013Y54240D01*
X66940Y57313D01*
X65277Y61327D01*
X65277Y65673D01*
X66940Y69687D01*
X70013Y72760D01*
X74027Y74423D01*
X78373Y74423D01*
X82387Y72760D01*
X85460Y69687D01*
X87123Y65673D01*
X87123Y61327D01*
X85460Y57313D01*
X82387Y54240D01*
X78373Y52577D01*
X74027Y52577D01*
G37*
%LPD*%
%LPC*%
G36*
X48627Y52577D02*
X48627Y52577D01*
X44613Y54240D01*
X41540Y57313D01*
X39877Y61327D01*
X39877Y65673D01*
X41540Y69687D01*
X44613Y72760D01*
X48627Y74423D01*
X52973Y74423D01*
X56987Y72760D01*
X60060Y69687D01*
X61723Y65673D01*
X61723Y61327D01*
X60060Y57313D01*
X56987Y54240D01*
X52973Y52577D01*
X48627Y52577D01*
G37*
%LPD*%
%LPC*%
G36*
X-78373Y52577D02*
X-78373Y52577D01*
X-82387Y54240D01*
X-85460Y57313D01*
X-87123Y61327D01*
X-87123Y65673D01*
X-85460Y69687D01*
X-82387Y72760D01*
X-78373Y74423D01*
X-74027Y74423D01*
X-70013Y72760D01*
X-66940Y69687D01*
X-65277Y65673D01*
X-65277Y61327D01*
X-66940Y57313D01*
X-70013Y54240D01*
X-74027Y52577D01*
X-78373Y52577D01*
G37*
%LPD*%
%LPC*%
G36*
X-103773Y52577D02*
X-103773Y52577D01*
X-107787Y54240D01*
X-110860Y57313D01*
X-112523Y61327D01*
X-112523Y65673D01*
X-110860Y69687D01*
X-107787Y72760D01*
X-103773Y74423D01*
X-99427Y74423D01*
X-95413Y72760D01*
X-92340Y69687D01*
X-90677Y65673D01*
X-90677Y61327D01*
X-92340Y57313D01*
X-95413Y54240D01*
X-99427Y52577D01*
X-103773Y52577D01*
G37*
%LPD*%
%LPC*%
G36*
X-78373Y-49023D02*
X-78373Y-49023D01*
X-82387Y-47360D01*
X-85460Y-44287D01*
X-87123Y-40273D01*
X-87123Y-35927D01*
X-85460Y-31913D01*
X-82387Y-28840D01*
X-78373Y-27177D01*
X-74027Y-27177D01*
X-70013Y-28840D01*
X-66940Y-31913D01*
X-65277Y-35927D01*
X-65277Y-40273D01*
X-66940Y-44287D01*
X-70013Y-47360D01*
X-74027Y-49023D01*
X-78373Y-49023D01*
G37*
%LPD*%
%LPC*%
G36*
X7987Y-97283D02*
X7987Y-97283D01*
X3973Y-95620D01*
X900Y-92547D01*
X-763Y-88533D01*
X-763Y-84187D01*
X900Y-80173D01*
X3973Y-77100D01*
X7987Y-75437D01*
X12333Y-75437D01*
X16347Y-77100D01*
X19420Y-80173D01*
X21083Y-84187D01*
X21083Y-88533D01*
X19420Y-92547D01*
X16347Y-95620D01*
X12333Y-97283D01*
X7987Y-97283D01*
G37*
%LPD*%
%LPC*%
G36*
X10502Y312193D02*
X10502Y312193D01*
X7393Y315302D01*
X7393Y319698D01*
X10502Y322807D01*
X14898Y322807D01*
X17695Y320010D01*
X17769Y319957D01*
X17839Y319897D01*
X17869Y319885D01*
X17895Y319866D01*
X17982Y319839D01*
X18067Y319805D01*
X18108Y319801D01*
X18130Y319794D01*
X18162Y319795D01*
X18233Y319787D01*
X57967Y319787D01*
X58057Y319801D01*
X58148Y319809D01*
X58177Y319821D01*
X58209Y319826D01*
X58290Y319869D01*
X58374Y319905D01*
X58406Y319931D01*
X58427Y319942D01*
X58449Y319965D01*
X58505Y320010D01*
X61302Y322807D01*
X65698Y322807D01*
X68807Y319698D01*
X68807Y315302D01*
X65698Y312193D01*
X61302Y312193D01*
X58505Y314990D01*
X58431Y315043D01*
X58361Y315103D01*
X58331Y315115D01*
X58305Y315134D01*
X58218Y315161D01*
X58133Y315195D01*
X58092Y315199D01*
X58070Y315206D01*
X58038Y315205D01*
X57967Y315213D01*
X18233Y315213D01*
X18143Y315199D01*
X18052Y315191D01*
X18023Y315179D01*
X17991Y315174D01*
X17910Y315131D01*
X17826Y315095D01*
X17794Y315069D01*
X17773Y315058D01*
X17751Y315035D01*
X17695Y314990D01*
X14898Y312193D01*
X10502Y312193D01*
G37*
%LPD*%
%LPC*%
G36*
X-205398Y-272007D02*
X-205398Y-272007D01*
X-208507Y-268898D01*
X-208507Y-264502D01*
X-205398Y-261393D01*
X-201002Y-261393D01*
X-198205Y-264190D01*
X-198131Y-264243D01*
X-198061Y-264303D01*
X-198031Y-264315D01*
X-198005Y-264334D01*
X-197918Y-264361D01*
X-197833Y-264395D01*
X-197792Y-264399D01*
X-197770Y-264406D01*
X-197738Y-264405D01*
X-197667Y-264413D01*
X-157933Y-264413D01*
X-157843Y-264399D01*
X-157752Y-264391D01*
X-157723Y-264379D01*
X-157691Y-264374D01*
X-157610Y-264331D01*
X-157526Y-264295D01*
X-157494Y-264269D01*
X-157473Y-264258D01*
X-157451Y-264235D01*
X-157395Y-264190D01*
X-154598Y-261393D01*
X-150202Y-261393D01*
X-147093Y-264502D01*
X-147093Y-268898D01*
X-150202Y-272007D01*
X-154598Y-272007D01*
X-157395Y-269210D01*
X-157469Y-269157D01*
X-157539Y-269097D01*
X-157569Y-269085D01*
X-157595Y-269066D01*
X-157682Y-269039D01*
X-157767Y-269005D01*
X-157808Y-269001D01*
X-157830Y-268994D01*
X-157862Y-268995D01*
X-157933Y-268987D01*
X-197667Y-268987D01*
X-197757Y-269001D01*
X-197848Y-269009D01*
X-197877Y-269021D01*
X-197909Y-269026D01*
X-197990Y-269069D01*
X-198074Y-269105D01*
X-198106Y-269131D01*
X-198127Y-269142D01*
X-198149Y-269165D01*
X-198205Y-269210D01*
X-201002Y-272007D01*
X-205398Y-272007D01*
G37*
%LPD*%
%LPC*%
G36*
X-27598Y58193D02*
X-27598Y58193D01*
X-30707Y61302D01*
X-30707Y65698D01*
X-27598Y68807D01*
X-23202Y68807D01*
X-20405Y66010D01*
X-20331Y65957D01*
X-20261Y65897D01*
X-20231Y65885D01*
X-20205Y65866D01*
X-20118Y65839D01*
X-20033Y65805D01*
X-19992Y65801D01*
X-19970Y65794D01*
X-19938Y65795D01*
X-19867Y65787D01*
X19867Y65787D01*
X19957Y65801D01*
X20048Y65809D01*
X20077Y65821D01*
X20109Y65826D01*
X20190Y65869D01*
X20274Y65905D01*
X20306Y65931D01*
X20327Y65942D01*
X20349Y65965D01*
X20405Y66010D01*
X23202Y68807D01*
X27598Y68807D01*
X30707Y65698D01*
X30707Y61302D01*
X27598Y58193D01*
X23202Y58193D01*
X20405Y60990D01*
X20331Y61043D01*
X20261Y61103D01*
X20231Y61115D01*
X20205Y61134D01*
X20118Y61161D01*
X20033Y61195D01*
X19992Y61199D01*
X19970Y61206D01*
X19938Y61205D01*
X19867Y61213D01*
X-19867Y61213D01*
X-19957Y61199D01*
X-20048Y61191D01*
X-20077Y61179D01*
X-20109Y61174D01*
X-20190Y61131D01*
X-20274Y61095D01*
X-20306Y61069D01*
X-20327Y61058D01*
X-20349Y61035D01*
X-20405Y60990D01*
X-23202Y58193D01*
X-27598Y58193D01*
G37*
%LPD*%
%LPC*%
G36*
X289902Y235993D02*
X289902Y235993D01*
X286793Y239102D01*
X286793Y243057D01*
X286779Y243148D01*
X286771Y243238D01*
X286759Y243268D01*
X286754Y243300D01*
X286711Y243381D01*
X286675Y243465D01*
X286649Y243497D01*
X286638Y243518D01*
X286615Y243540D01*
X286570Y243596D01*
X278676Y251490D01*
X278602Y251543D01*
X278532Y251603D01*
X278502Y251615D01*
X278476Y251634D01*
X278389Y251661D01*
X278304Y251695D01*
X278263Y251699D01*
X278241Y251706D01*
X278209Y251705D01*
X278137Y251713D01*
X259533Y251713D01*
X259443Y251699D01*
X259352Y251691D01*
X259323Y251679D01*
X259291Y251674D01*
X259210Y251631D01*
X259126Y251595D01*
X259094Y251569D01*
X259073Y251558D01*
X259051Y251535D01*
X258995Y251490D01*
X256198Y248693D01*
X251802Y248693D01*
X248693Y251802D01*
X248693Y256198D01*
X251802Y259307D01*
X256198Y259307D01*
X258995Y256510D01*
X259069Y256457D01*
X259139Y256397D01*
X259169Y256385D01*
X259195Y256366D01*
X259282Y256339D01*
X259367Y256305D01*
X259408Y256301D01*
X259430Y256294D01*
X259462Y256295D01*
X259533Y256287D01*
X280347Y256287D01*
X289804Y246830D01*
X289878Y246777D01*
X289948Y246717D01*
X289978Y246705D01*
X290004Y246686D01*
X290091Y246659D01*
X290176Y246625D01*
X290217Y246621D01*
X290239Y246614D01*
X290271Y246615D01*
X290343Y246607D01*
X294298Y246607D01*
X297407Y243498D01*
X297407Y239102D01*
X294298Y235993D01*
X289902Y235993D01*
G37*
%LPD*%
%LPC*%
G36*
X306087Y-205417D02*
X306087Y-205417D01*
X294754Y-193641D01*
X294779Y-192378D01*
X306555Y-181046D01*
X307817Y-181070D01*
X319150Y-192846D01*
X319126Y-194109D01*
X307350Y-205442D01*
X306087Y-205417D01*
G37*
%LPD*%
%LPC*%
G36*
X248443Y-260890D02*
X248443Y-260890D01*
X237110Y-249114D01*
X237134Y-247851D01*
X248910Y-236518D01*
X250173Y-236543D01*
X261506Y-248319D01*
X261481Y-249581D01*
X249705Y-260914D01*
X248443Y-260890D01*
G37*
%LPD*%
%LPC*%
G36*
X-154598Y312193D02*
X-154598Y312193D01*
X-157707Y315302D01*
X-157707Y319698D01*
X-154598Y322807D01*
X-150202Y322807D01*
X-147405Y320010D01*
X-147331Y319957D01*
X-147261Y319897D01*
X-147231Y319885D01*
X-147205Y319866D01*
X-147118Y319839D01*
X-147033Y319805D01*
X-146992Y319801D01*
X-146970Y319794D01*
X-146938Y319795D01*
X-146867Y319787D01*
X-119833Y319787D01*
X-119743Y319801D01*
X-119652Y319809D01*
X-119623Y319821D01*
X-119591Y319826D01*
X-119510Y319869D01*
X-119426Y319905D01*
X-119394Y319931D01*
X-119373Y319942D01*
X-119351Y319965D01*
X-119295Y320010D01*
X-116498Y322807D01*
X-112102Y322807D01*
X-108993Y319698D01*
X-108993Y315302D01*
X-112102Y312193D01*
X-116498Y312193D01*
X-119295Y314990D01*
X-119369Y315043D01*
X-119439Y315103D01*
X-119469Y315115D01*
X-119495Y315134D01*
X-119582Y315161D01*
X-119667Y315195D01*
X-119708Y315199D01*
X-119730Y315206D01*
X-119762Y315205D01*
X-119833Y315213D01*
X-146867Y315213D01*
X-146957Y315199D01*
X-147048Y315191D01*
X-147077Y315179D01*
X-147109Y315174D01*
X-147190Y315131D01*
X-147274Y315095D01*
X-147306Y315069D01*
X-147327Y315058D01*
X-147349Y315035D01*
X-147405Y314990D01*
X-150202Y312193D01*
X-154598Y312193D01*
G37*
%LPD*%
%LPC*%
G36*
X264502Y210593D02*
X264502Y210593D01*
X261393Y213702D01*
X261393Y218098D01*
X264502Y221207D01*
X268898Y221207D01*
X271695Y218410D01*
X271769Y218357D01*
X271839Y218297D01*
X271869Y218285D01*
X271895Y218266D01*
X271982Y218239D01*
X272067Y218205D01*
X272108Y218201D01*
X272130Y218194D01*
X272162Y218195D01*
X272233Y218187D01*
X299267Y218187D01*
X299357Y218201D01*
X299448Y218209D01*
X299477Y218221D01*
X299509Y218226D01*
X299590Y218269D01*
X299674Y218305D01*
X299706Y218331D01*
X299727Y218342D01*
X299749Y218365D01*
X299805Y218410D01*
X302602Y221207D01*
X306998Y221207D01*
X310107Y218098D01*
X310107Y213702D01*
X306998Y210593D01*
X302602Y210593D01*
X299805Y213390D01*
X299731Y213443D01*
X299661Y213503D01*
X299631Y213515D01*
X299605Y213534D01*
X299518Y213561D01*
X299433Y213595D01*
X299392Y213599D01*
X299370Y213606D01*
X299338Y213605D01*
X299267Y213613D01*
X272233Y213613D01*
X272143Y213599D01*
X272052Y213591D01*
X272023Y213579D01*
X271991Y213574D01*
X271910Y213531D01*
X271826Y213495D01*
X271794Y213469D01*
X271773Y213458D01*
X271754Y213438D01*
X271752Y213437D01*
X271747Y213431D01*
X271695Y213390D01*
X268898Y210593D01*
X264502Y210593D01*
G37*
%LPD*%
%LPC*%
G36*
X291703Y-217872D02*
X291703Y-217872D01*
X281757Y-207537D01*
X281781Y-206274D01*
X292116Y-196328D01*
X293379Y-196352D01*
X303325Y-206687D01*
X303301Y-207950D01*
X292966Y-217896D01*
X291703Y-217872D01*
G37*
%LPD*%
%LPC*%
G36*
X262881Y-245608D02*
X262881Y-245608D01*
X252935Y-235273D01*
X252959Y-234010D01*
X263294Y-224064D01*
X264557Y-224088D01*
X274503Y-234423D01*
X274479Y-235686D01*
X264144Y-245632D01*
X262881Y-245608D01*
G37*
%LPD*%
%LPC*%
G36*
X277292Y-231740D02*
X277292Y-231740D01*
X267346Y-221405D01*
X267370Y-220142D01*
X277705Y-210196D01*
X278968Y-210220D01*
X288914Y-220555D01*
X288890Y-221818D01*
X278555Y-231764D01*
X277292Y-231740D01*
G37*
%LPD*%
%LPC*%
G36*
X-129198Y261393D02*
X-129198Y261393D01*
X-132307Y264502D01*
X-132307Y268898D01*
X-129198Y272007D01*
X-124802Y272007D01*
X-122005Y269210D01*
X-121931Y269157D01*
X-121861Y269097D01*
X-121831Y269085D01*
X-121805Y269066D01*
X-121718Y269039D01*
X-121633Y269005D01*
X-121592Y269001D01*
X-121570Y268994D01*
X-121538Y268995D01*
X-121467Y268987D01*
X-107133Y268987D01*
X-107043Y269001D01*
X-106952Y269009D01*
X-106923Y269021D01*
X-106891Y269026D01*
X-106810Y269069D01*
X-106726Y269105D01*
X-106694Y269131D01*
X-106673Y269142D01*
X-106651Y269165D01*
X-106595Y269210D01*
X-103798Y272007D01*
X-99402Y272007D01*
X-96293Y268898D01*
X-96293Y264502D01*
X-99402Y261393D01*
X-103798Y261393D01*
X-106595Y264190D01*
X-106669Y264243D01*
X-106739Y264303D01*
X-106769Y264315D01*
X-106795Y264334D01*
X-106882Y264361D01*
X-106967Y264395D01*
X-107008Y264399D01*
X-107030Y264406D01*
X-107062Y264405D01*
X-107133Y264413D01*
X-121467Y264413D01*
X-121557Y264399D01*
X-121648Y264391D01*
X-121677Y264379D01*
X-121709Y264374D01*
X-121790Y264331D01*
X-121874Y264295D01*
X-121906Y264269D01*
X-121927Y264258D01*
X-121949Y264235D01*
X-122005Y264190D01*
X-124802Y261393D01*
X-129198Y261393D01*
G37*
%LPD*%
%LPC*%
G36*
X188302Y312193D02*
X188302Y312193D01*
X185193Y315302D01*
X185193Y319698D01*
X188302Y322807D01*
X192698Y322807D01*
X195495Y320010D01*
X195569Y319957D01*
X195639Y319897D01*
X195669Y319885D01*
X195695Y319866D01*
X195782Y319839D01*
X195867Y319805D01*
X195908Y319801D01*
X195930Y319794D01*
X195962Y319795D01*
X196033Y319787D01*
X210367Y319787D01*
X210457Y319801D01*
X210548Y319809D01*
X210577Y319821D01*
X210609Y319826D01*
X210690Y319869D01*
X210774Y319905D01*
X210806Y319931D01*
X210827Y319942D01*
X210849Y319965D01*
X210905Y320010D01*
X213702Y322807D01*
X218098Y322807D01*
X221207Y319698D01*
X221207Y315302D01*
X218098Y312193D01*
X213702Y312193D01*
X210905Y314990D01*
X210831Y315043D01*
X210761Y315103D01*
X210731Y315115D01*
X210705Y315134D01*
X210618Y315161D01*
X210533Y315195D01*
X210492Y315199D01*
X210470Y315206D01*
X210438Y315205D01*
X210367Y315213D01*
X196033Y315213D01*
X195943Y315199D01*
X195852Y315191D01*
X195823Y315179D01*
X195791Y315174D01*
X195710Y315131D01*
X195626Y315095D01*
X195594Y315069D01*
X195573Y315058D01*
X195551Y315035D01*
X195495Y314990D01*
X192698Y312193D01*
X188302Y312193D01*
G37*
%LPD*%
%LPC*%
G36*
X-14898Y-68807D02*
X-14898Y-68807D01*
X-18007Y-65698D01*
X-18007Y-61302D01*
X-14898Y-58193D01*
X-10502Y-58193D01*
X-7705Y-60990D01*
X-7631Y-61043D01*
X-7561Y-61103D01*
X-7531Y-61115D01*
X-7505Y-61134D01*
X-7418Y-61161D01*
X-7333Y-61195D01*
X-7292Y-61199D01*
X-7270Y-61206D01*
X-7238Y-61205D01*
X-7167Y-61213D01*
X7167Y-61213D01*
X7257Y-61199D01*
X7348Y-61191D01*
X7377Y-61179D01*
X7409Y-61174D01*
X7490Y-61131D01*
X7574Y-61095D01*
X7606Y-61069D01*
X7627Y-61058D01*
X7649Y-61035D01*
X7705Y-60990D01*
X10502Y-58193D01*
X14898Y-58193D01*
X18007Y-61302D01*
X18007Y-65698D01*
X14898Y-68807D01*
X10502Y-68807D01*
X7705Y-66010D01*
X7631Y-65957D01*
X7561Y-65897D01*
X7531Y-65885D01*
X7505Y-65866D01*
X7418Y-65839D01*
X7333Y-65805D01*
X7292Y-65801D01*
X7270Y-65794D01*
X7238Y-65795D01*
X7167Y-65787D01*
X-7167Y-65787D01*
X-7257Y-65801D01*
X-7348Y-65809D01*
X-7377Y-65821D01*
X-7409Y-65826D01*
X-7490Y-65869D01*
X-7574Y-65905D01*
X-7606Y-65931D01*
X-7627Y-65942D01*
X-7649Y-65965D01*
X-7705Y-66010D01*
X-10502Y-68807D01*
X-14898Y-68807D01*
G37*
%LPD*%
%LPC*%
G36*
X315302Y-43407D02*
X315302Y-43407D01*
X312193Y-40298D01*
X312193Y-35902D01*
X315302Y-32793D01*
X319257Y-32793D01*
X319348Y-32779D01*
X319438Y-32771D01*
X319468Y-32759D01*
X319500Y-32754D01*
X319581Y-32711D01*
X319665Y-32675D01*
X319697Y-32649D01*
X319718Y-32638D01*
X319740Y-32615D01*
X319796Y-32570D01*
X324670Y-27696D01*
X324723Y-27622D01*
X324783Y-27552D01*
X324795Y-27522D01*
X324814Y-27496D01*
X324841Y-27409D01*
X324875Y-27324D01*
X324879Y-27283D01*
X324886Y-27261D01*
X324885Y-27229D01*
X324893Y-27157D01*
X324893Y-23202D01*
X328002Y-20093D01*
X332398Y-20093D01*
X335507Y-23202D01*
X335507Y-27598D01*
X332398Y-30707D01*
X328443Y-30707D01*
X328352Y-30721D01*
X328262Y-30729D01*
X328232Y-30741D01*
X328200Y-30746D01*
X328119Y-30789D01*
X328035Y-30825D01*
X328003Y-30851D01*
X327982Y-30862D01*
X327960Y-30885D01*
X327904Y-30930D01*
X323030Y-35804D01*
X322977Y-35878D01*
X322917Y-35948D01*
X322905Y-35978D01*
X322886Y-36004D01*
X322859Y-36091D01*
X322825Y-36176D01*
X322821Y-36217D01*
X322814Y-36239D01*
X322815Y-36271D01*
X322807Y-36343D01*
X322807Y-40298D01*
X319698Y-43407D01*
X315302Y-43407D01*
G37*
%LPD*%
%LPC*%
G36*
X-217997Y-218949D02*
X-217997Y-218949D01*
X-222759Y-214187D01*
X-222759Y-207453D01*
X-217997Y-202691D01*
X-211263Y-202691D01*
X-206501Y-207453D01*
X-206501Y-214187D01*
X-211263Y-218949D01*
X-217997Y-218949D01*
G37*
%LPD*%
%LPC*%
G36*
X-188787Y-221489D02*
X-188787Y-221489D01*
X-193549Y-216727D01*
X-193549Y-209993D01*
X-188787Y-205231D01*
X-182053Y-205231D01*
X-177291Y-209993D01*
X-177291Y-216727D01*
X-182053Y-221489D01*
X-188787Y-221489D01*
G37*
%LPD*%
%LPC*%
G36*
X-257367Y-224029D02*
X-257367Y-224029D01*
X-262129Y-219267D01*
X-262129Y-212533D01*
X-257367Y-207771D01*
X-250633Y-207771D01*
X-245871Y-212533D01*
X-245871Y-219267D01*
X-250633Y-224029D01*
X-257367Y-224029D01*
G37*
%LPD*%
%LPC*%
G36*
X-66867Y322071D02*
X-66867Y322071D01*
X-71629Y326833D01*
X-71629Y333567D01*
X-66867Y338329D01*
X-60133Y338329D01*
X-55371Y333567D01*
X-55371Y326833D01*
X-60133Y322071D01*
X-66867Y322071D01*
G37*
%LPD*%
%LPC*%
G36*
X161733Y-249429D02*
X161733Y-249429D01*
X156971Y-244667D01*
X156971Y-237933D01*
X161733Y-233171D01*
X168467Y-233171D01*
X173229Y-237933D01*
X173229Y-244667D01*
X168467Y-249429D01*
X161733Y-249429D01*
G37*
%LPD*%
%LPC*%
G36*
X-257367Y-122429D02*
X-257367Y-122429D01*
X-262129Y-117667D01*
X-262129Y-110933D01*
X-257367Y-106171D01*
X-250633Y-106171D01*
X-245871Y-110933D01*
X-245871Y-117667D01*
X-250633Y-122429D01*
X-257367Y-122429D01*
G37*
%LPD*%
%LPC*%
G36*
X199833Y-287529D02*
X199833Y-287529D01*
X195071Y-282767D01*
X195071Y-276033D01*
X199833Y-271271D01*
X206567Y-271271D01*
X211329Y-276033D01*
X211329Y-282767D01*
X206567Y-287529D01*
X199833Y-287529D01*
G37*
%LPD*%
%LPC*%
G36*
X-214187Y-291339D02*
X-214187Y-291339D01*
X-218949Y-286577D01*
X-218949Y-279843D01*
X-214187Y-275081D01*
X-207453Y-275081D01*
X-202691Y-279843D01*
X-202691Y-286577D01*
X-207453Y-291339D01*
X-214187Y-291339D01*
G37*
%LPD*%
%LPC*%
G36*
X-239587Y-291339D02*
X-239587Y-291339D01*
X-244349Y-286577D01*
X-244349Y-279843D01*
X-239587Y-275081D01*
X-232853Y-275081D01*
X-228091Y-279843D01*
X-228091Y-286577D01*
X-232853Y-291339D01*
X-239587Y-291339D01*
G37*
%LPD*%
%LPC*%
G36*
X150303Y-304039D02*
X150303Y-304039D01*
X145541Y-299277D01*
X145541Y-292543D01*
X150303Y-287781D01*
X157037Y-287781D01*
X161799Y-292543D01*
X161799Y-299277D01*
X157037Y-304039D01*
X150303Y-304039D01*
G37*
%LPD*%
%LPC*%
G36*
X-167197Y-320549D02*
X-167197Y-320549D01*
X-171959Y-315787D01*
X-171959Y-309053D01*
X-167197Y-304291D01*
X-160463Y-304291D01*
X-155701Y-309053D01*
X-155701Y-315787D01*
X-160463Y-320549D01*
X-167197Y-320549D01*
G37*
%LPD*%
%LPC*%
G36*
X-192597Y-320549D02*
X-192597Y-320549D01*
X-197359Y-315787D01*
X-197359Y-309053D01*
X-192597Y-304291D01*
X-185863Y-304291D01*
X-181101Y-309053D01*
X-181101Y-315787D01*
X-185863Y-320549D01*
X-192597Y-320549D01*
G37*
%LPD*%
%LPC*%
G36*
X163003Y-323089D02*
X163003Y-323089D01*
X158241Y-318327D01*
X158241Y-311593D01*
X163003Y-306831D01*
X169737Y-306831D01*
X174499Y-311593D01*
X174499Y-318327D01*
X169737Y-323089D01*
X163003Y-323089D01*
G37*
%LPD*%
%LPC*%
G36*
X-270612Y187255D02*
X-270612Y187255D01*
X-271351Y193949D01*
X-267141Y199204D01*
X-260448Y199943D01*
X-255192Y195733D01*
X-254453Y189039D01*
X-258664Y183784D01*
X-265357Y183045D01*
X-270612Y187255D01*
G37*
%LPD*%
%LPC*%
G36*
X214283Y-211329D02*
X214283Y-211329D01*
X211295Y-210091D01*
X209009Y-207805D01*
X207771Y-204817D01*
X207771Y-201583D01*
X209009Y-198595D01*
X211295Y-196309D01*
X214283Y-195071D01*
X217517Y-195071D01*
X220505Y-196309D01*
X222791Y-198595D01*
X224029Y-201583D01*
X224029Y-204817D01*
X222791Y-207805D01*
X220505Y-210091D01*
X217517Y-211329D01*
X214283Y-211329D01*
G37*
%LPD*%
%LPC*%
G36*
X49183Y322071D02*
X49183Y322071D01*
X46195Y323309D01*
X43909Y325595D01*
X42671Y328583D01*
X42671Y331817D01*
X43909Y334805D01*
X46195Y337091D01*
X49183Y338329D01*
X52417Y338329D01*
X55405Y337091D01*
X57691Y334805D01*
X58929Y331817D01*
X58929Y328583D01*
X57691Y325595D01*
X55405Y323309D01*
X52417Y322071D01*
X49183Y322071D01*
G37*
%LPD*%
%LPC*%
G36*
X26923Y217423D02*
X26923Y217423D01*
X26923Y231525D01*
X28067Y231297D01*
X29732Y230608D01*
X31230Y229607D01*
X32503Y228334D01*
X33504Y226836D01*
X34193Y225171D01*
X34545Y223405D01*
X34545Y217423D01*
X26923Y217423D01*
G37*
%LPD*%
%LPC*%
G36*
X-136145Y293623D02*
X-136145Y293623D01*
X-136145Y299605D01*
X-135793Y301371D01*
X-135104Y303036D01*
X-134103Y304534D01*
X-132830Y305807D01*
X-131332Y306808D01*
X-129667Y307497D01*
X-128523Y307725D01*
X-128523Y293623D01*
X-136145Y293623D01*
G37*
%LPD*%
%LPC*%
G36*
X77723Y293623D02*
X77723Y293623D01*
X77723Y307725D01*
X78867Y307497D01*
X80532Y306808D01*
X82030Y305807D01*
X83303Y304534D01*
X84304Y303036D01*
X84993Y301371D01*
X85345Y299605D01*
X85345Y293623D01*
X77723Y293623D01*
G37*
%LPD*%
%LPC*%
G36*
X26923Y214377D02*
X26923Y214377D01*
X34545Y214377D01*
X34545Y208395D01*
X34193Y206629D01*
X33504Y204964D01*
X32503Y203466D01*
X31230Y202193D01*
X29732Y201192D01*
X28067Y200503D01*
X26923Y200275D01*
X26923Y214377D01*
G37*
%LPD*%
%LPC*%
G36*
X77723Y290577D02*
X77723Y290577D01*
X85345Y290577D01*
X85345Y284595D01*
X84993Y282829D01*
X84304Y281164D01*
X83303Y279666D01*
X82030Y278393D01*
X80532Y277392D01*
X78867Y276703D01*
X77723Y276475D01*
X77723Y290577D01*
G37*
%LPD*%
%LPC*%
G36*
X-129667Y276703D02*
X-129667Y276703D01*
X-131332Y277392D01*
X-132830Y278393D01*
X-134103Y279666D01*
X-135104Y281164D01*
X-135793Y282829D01*
X-136145Y284595D01*
X-136145Y290577D01*
X-128523Y290577D01*
X-128523Y276475D01*
X-129667Y276703D01*
G37*
%LPD*%
%LPC*%
G36*
X16255Y217423D02*
X16255Y217423D01*
X16255Y223405D01*
X16607Y225171D01*
X17296Y226836D01*
X18297Y228334D01*
X19570Y229607D01*
X21068Y230608D01*
X22733Y231297D01*
X23877Y231525D01*
X23877Y217423D01*
X16255Y217423D01*
G37*
%LPD*%
%LPC*%
G36*
X-125477Y293623D02*
X-125477Y293623D01*
X-125477Y307725D01*
X-124333Y307497D01*
X-122668Y306808D01*
X-121170Y305807D01*
X-119897Y304534D01*
X-118896Y303036D01*
X-118207Y301371D01*
X-117855Y299605D01*
X-117855Y293623D01*
X-125477Y293623D01*
G37*
%LPD*%
%LPC*%
G36*
X67055Y293623D02*
X67055Y293623D01*
X67055Y299605D01*
X67407Y301371D01*
X68096Y303036D01*
X69097Y304534D01*
X70370Y305807D01*
X71868Y306808D01*
X73533Y307497D01*
X74677Y307725D01*
X74677Y293623D01*
X67055Y293623D01*
G37*
%LPD*%
%LPC*%
G36*
X-125477Y290577D02*
X-125477Y290577D01*
X-117855Y290577D01*
X-117855Y284595D01*
X-118207Y282829D01*
X-118896Y281164D01*
X-119897Y279666D01*
X-121170Y278393D01*
X-122668Y277392D01*
X-124333Y276703D01*
X-125477Y276475D01*
X-125477Y290577D01*
G37*
%LPD*%
%LPC*%
G36*
X73533Y276703D02*
X73533Y276703D01*
X71868Y277392D01*
X70370Y278393D01*
X69097Y279666D01*
X68096Y281164D01*
X67407Y282829D01*
X67055Y284595D01*
X67055Y290577D01*
X74677Y290577D01*
X74677Y276475D01*
X73533Y276703D01*
G37*
%LPD*%
%LPC*%
G36*
X22733Y200503D02*
X22733Y200503D01*
X21068Y201192D01*
X19570Y202193D01*
X18297Y203466D01*
X17296Y204964D01*
X16607Y206629D01*
X16255Y208395D01*
X16255Y214377D01*
X23877Y214377D01*
X23877Y200275D01*
X22733Y200503D01*
G37*
%LPD*%
%LPC*%
G36*
X-233875Y291376D02*
X-233875Y291376D01*
X-234729Y293050D01*
X-235309Y294837D01*
X-235603Y296693D01*
X-235603Y298573D01*
X-235309Y300429D01*
X-234729Y302216D01*
X-233875Y303890D01*
X-232771Y305411D01*
X-232728Y305453D01*
X-225815Y297749D01*
X-233498Y290856D01*
X-233875Y291376D01*
G37*
%LPD*%
%LPC*%
G36*
X-230441Y307466D02*
X-230441Y307466D01*
X-229922Y307844D01*
X-228247Y308697D01*
X-226460Y309278D01*
X-224604Y309572D01*
X-222725Y309572D01*
X-220869Y309278D01*
X-219082Y308697D01*
X-217407Y307844D01*
X-215887Y306739D01*
X-215844Y306696D01*
X-223548Y299784D01*
X-230441Y307466D01*
G37*
%LPD*%
%LPC*%
G36*
X-221513Y297516D02*
X-221513Y297516D01*
X-213831Y304410D01*
X-213454Y303890D01*
X-212600Y302216D01*
X-212020Y300429D01*
X-211726Y298573D01*
X-211726Y296693D01*
X-212020Y294837D01*
X-212600Y293050D01*
X-213453Y291376D01*
X-214558Y289855D01*
X-214601Y289812D01*
X-221513Y297516D01*
G37*
%LPD*%
%LPC*%
G36*
X-224604Y285694D02*
X-224604Y285694D01*
X-226460Y285988D01*
X-228247Y286569D01*
X-229922Y287422D01*
X-231442Y288527D01*
X-231485Y288570D01*
X-223781Y295482D01*
X-216888Y287799D01*
X-217407Y287422D01*
X-219082Y286569D01*
X-220869Y285988D01*
X-222725Y285694D01*
X-224604Y285694D01*
G37*
%LPD*%
%LPC*%
G36*
X-163681Y339786D02*
X-163681Y339786D01*
X-165537Y340080D01*
X-167324Y340661D01*
X-168998Y341514D01*
X-170519Y342618D01*
X-171847Y343947D01*
X-172952Y345468D01*
X-172980Y345522D01*
X-163516Y349715D01*
X-159335Y340278D01*
X-159945Y340080D01*
X-161801Y339786D01*
X-163681Y339786D01*
G37*
%LPD*%
%LPC*%
G36*
X-160731Y350949D02*
X-160731Y350949D01*
X-151295Y355131D01*
X-151096Y354520D01*
X-150802Y352664D01*
X-150802Y350785D01*
X-151096Y348929D01*
X-151677Y347142D01*
X-152530Y345468D01*
X-153635Y343947D01*
X-154963Y342618D01*
X-156484Y341514D01*
X-156538Y341486D01*
X-160731Y350949D01*
G37*
%LPD*%
%LPC*%
G36*
X-304282Y-219098D02*
X-304282Y-219098D01*
X-304863Y-217311D01*
X-305157Y-215455D01*
X-305157Y-213575D01*
X-304863Y-211719D01*
X-304282Y-209932D01*
X-303429Y-208258D01*
X-302324Y-206737D01*
X-301605Y-206019D01*
X-295353Y-214226D01*
X-303573Y-220489D01*
X-304282Y-219098D01*
G37*
%LPD*%
%LPC*%
G36*
X-294157Y-226454D02*
X-294157Y-226454D01*
X-296014Y-226160D01*
X-297801Y-225579D01*
X-299475Y-224726D01*
X-300995Y-223621D01*
X-301714Y-222902D01*
X-293506Y-216650D01*
X-287244Y-224870D01*
X-288635Y-225579D01*
X-290422Y-226160D01*
X-292278Y-226454D01*
X-294157Y-226454D01*
G37*
%LPD*%
%LPC*%
G36*
X-291083Y-214804D02*
X-291083Y-214804D01*
X-282863Y-208541D01*
X-282154Y-209932D01*
X-281573Y-211719D01*
X-281279Y-213575D01*
X-281279Y-215455D01*
X-281573Y-217311D01*
X-282154Y-219098D01*
X-283007Y-220772D01*
X-284112Y-222293D01*
X-284830Y-223011D01*
X-291083Y-214804D01*
G37*
%LPD*%
%LPC*%
G36*
X-299192Y-204160D02*
X-299192Y-204160D01*
X-297801Y-203451D01*
X-296014Y-202870D01*
X-294157Y-202576D01*
X-292278Y-202576D01*
X-290422Y-202870D01*
X-288635Y-203451D01*
X-286961Y-204304D01*
X-285440Y-205409D01*
X-284721Y-206128D01*
X-292929Y-212380D01*
X-299192Y-204160D01*
G37*
%LPD*%
%LPC*%
G36*
X65023Y179323D02*
X65023Y179323D01*
X65023Y189646D01*
X66296Y189445D01*
X68083Y188864D01*
X69757Y188011D01*
X71278Y186906D01*
X72606Y185578D01*
X73711Y184057D01*
X74564Y182383D01*
X75145Y180596D01*
X75346Y179323D01*
X65023Y179323D01*
G37*
%LPD*%
%LPC*%
G36*
X52323Y-39623D02*
X52323Y-39623D01*
X62646Y-39623D01*
X62445Y-40896D01*
X61864Y-42683D01*
X61011Y-44357D01*
X59906Y-45878D01*
X58578Y-47206D01*
X57057Y-48311D01*
X55383Y-49164D01*
X53596Y-49745D01*
X52323Y-49946D01*
X52323Y-39623D01*
G37*
%LPD*%
%LPC*%
G36*
X-62646Y65023D02*
X-62646Y65023D01*
X-62445Y66296D01*
X-61864Y68083D01*
X-61011Y69757D01*
X-59906Y71278D01*
X-58578Y72606D01*
X-57057Y73711D01*
X-55383Y74564D01*
X-53596Y75145D01*
X-52323Y75346D01*
X-52323Y65023D01*
X-62646Y65023D01*
G37*
%LPD*%
%LPC*%
G36*
X6603Y379983D02*
X6603Y379983D01*
X6603Y390306D01*
X7876Y390105D01*
X9663Y389524D01*
X11337Y388671D01*
X12858Y387566D01*
X14186Y386238D01*
X15291Y384717D01*
X16144Y383043D01*
X16725Y381256D01*
X16926Y379983D01*
X6603Y379983D01*
G37*
%LPD*%
%LPC*%
G36*
X37083Y-87883D02*
X37083Y-87883D01*
X47406Y-87883D01*
X47205Y-89156D01*
X46624Y-90943D01*
X45771Y-92617D01*
X44666Y-94138D01*
X43338Y-95466D01*
X41817Y-96571D01*
X40143Y-97424D01*
X38356Y-98005D01*
X37083Y-98206D01*
X37083Y-87883D01*
G37*
%LPD*%
%LPC*%
G36*
X52323Y-36577D02*
X52323Y-36577D01*
X52323Y-26254D01*
X53596Y-26455D01*
X55383Y-27036D01*
X57057Y-27889D01*
X58578Y-28994D01*
X59906Y-30322D01*
X61011Y-31843D01*
X61864Y-33517D01*
X62445Y-35304D01*
X62646Y-36577D01*
X52323Y-36577D01*
G37*
%LPD*%
%LPC*%
G36*
X65023Y176277D02*
X65023Y176277D01*
X75346Y176277D01*
X75145Y175004D01*
X74564Y173217D01*
X73711Y171543D01*
X72606Y170022D01*
X71278Y168694D01*
X69757Y167589D01*
X68083Y166736D01*
X66296Y166155D01*
X65023Y165954D01*
X65023Y176277D01*
G37*
%LPD*%
%LPC*%
G36*
X-49277Y65023D02*
X-49277Y65023D01*
X-49277Y75346D01*
X-48004Y75145D01*
X-46217Y74564D01*
X-44543Y73711D01*
X-43022Y72606D01*
X-41694Y71278D01*
X-40589Y69757D01*
X-39736Y68083D01*
X-39155Y66296D01*
X-38954Y65023D01*
X-49277Y65023D01*
G37*
%LPD*%
%LPC*%
G36*
X-53596Y51855D02*
X-53596Y51855D01*
X-55383Y52436D01*
X-57057Y53289D01*
X-58578Y54394D01*
X-59906Y55722D01*
X-61011Y57243D01*
X-61864Y58917D01*
X-62445Y60704D01*
X-62646Y61977D01*
X-52323Y61977D01*
X-52323Y51654D01*
X-53596Y51855D01*
G37*
%LPD*%
%LPC*%
G36*
X48004Y-49745D02*
X48004Y-49745D01*
X46217Y-49164D01*
X44543Y-48311D01*
X43022Y-47206D01*
X41694Y-45878D01*
X40589Y-44357D01*
X39736Y-42683D01*
X39155Y-40896D01*
X38954Y-39623D01*
X49277Y-39623D01*
X49277Y-49946D01*
X48004Y-49745D01*
G37*
%LPD*%
%LPC*%
G36*
X51654Y179323D02*
X51654Y179323D01*
X51855Y180596D01*
X52436Y182383D01*
X53289Y184057D01*
X54394Y185578D01*
X55722Y186906D01*
X57243Y188011D01*
X58917Y188864D01*
X60704Y189445D01*
X61977Y189646D01*
X61977Y179323D01*
X51654Y179323D01*
G37*
%LPD*%
%LPC*%
G36*
X37083Y-84837D02*
X37083Y-84837D01*
X37083Y-74514D01*
X38356Y-74715D01*
X40143Y-75296D01*
X41817Y-76149D01*
X43338Y-77254D01*
X44666Y-78582D01*
X45771Y-80103D01*
X46624Y-81777D01*
X47205Y-83564D01*
X47406Y-84837D01*
X37083Y-84837D01*
G37*
%LPD*%
%LPC*%
G36*
X6603Y376937D02*
X6603Y376937D01*
X16926Y376937D01*
X16725Y375664D01*
X16144Y373877D01*
X15291Y372203D01*
X14186Y370682D01*
X12858Y369354D01*
X11337Y368249D01*
X9663Y367396D01*
X7876Y366815D01*
X6603Y366614D01*
X6603Y376937D01*
G37*
%LPD*%
%LPC*%
G36*
X32764Y-98005D02*
X32764Y-98005D01*
X30977Y-97424D01*
X29303Y-96571D01*
X27782Y-95466D01*
X26454Y-94138D01*
X25349Y-92617D01*
X24496Y-90943D01*
X23915Y-89156D01*
X23714Y-87883D01*
X34037Y-87883D01*
X34037Y-98206D01*
X32764Y-98005D01*
G37*
%LPD*%
%LPC*%
G36*
X-6766Y379983D02*
X-6766Y379983D01*
X-6565Y381256D01*
X-5984Y383043D01*
X-5131Y384717D01*
X-4026Y386238D01*
X-2698Y387566D01*
X-1177Y388671D01*
X497Y389524D01*
X2284Y390105D01*
X3557Y390306D01*
X3557Y379983D01*
X-6766Y379983D01*
G37*
%LPD*%
%LPC*%
G36*
X38954Y-36577D02*
X38954Y-36577D01*
X39155Y-35304D01*
X39736Y-33517D01*
X40589Y-31843D01*
X41694Y-30322D01*
X43022Y-28994D01*
X44543Y-27889D01*
X46217Y-27036D01*
X48004Y-26455D01*
X49277Y-26254D01*
X49277Y-36577D01*
X38954Y-36577D01*
G37*
%LPD*%
%LPC*%
G36*
X60704Y166155D02*
X60704Y166155D01*
X58917Y166736D01*
X57243Y167589D01*
X55722Y168694D01*
X54394Y170022D01*
X53289Y171543D01*
X52436Y173217D01*
X51855Y175004D01*
X51654Y176277D01*
X61977Y176277D01*
X61977Y165954D01*
X60704Y166155D01*
G37*
%LPD*%
%LPC*%
G36*
X-49277Y61977D02*
X-49277Y61977D01*
X-38954Y61977D01*
X-39155Y60704D01*
X-39736Y58917D01*
X-40589Y57243D01*
X-41694Y55722D01*
X-43022Y54394D01*
X-44543Y53289D01*
X-46217Y52436D01*
X-48004Y51855D01*
X-49277Y51654D01*
X-49277Y61977D01*
G37*
%LPD*%
%LPC*%
G36*
X23714Y-84837D02*
X23714Y-84837D01*
X23915Y-83564D01*
X24496Y-81777D01*
X25349Y-80103D01*
X26454Y-78582D01*
X27782Y-77254D01*
X29303Y-76149D01*
X30977Y-75296D01*
X32764Y-74715D01*
X34037Y-74514D01*
X34037Y-84837D01*
X23714Y-84837D01*
G37*
%LPD*%
%LPC*%
G36*
X2284Y366815D02*
X2284Y366815D01*
X497Y367396D01*
X-1177Y368249D01*
X-2698Y369354D01*
X-4026Y370682D01*
X-5131Y372203D01*
X-5984Y373877D01*
X-6565Y375664D01*
X-6766Y376937D01*
X3557Y376937D01*
X3557Y366614D01*
X2284Y366815D01*
G37*
%LPD*%
%LPC*%
G36*
X-218418Y-118365D02*
X-218418Y-118365D01*
X-223775Y-113008D01*
X-223775Y-110743D01*
X-216153Y-110743D01*
X-216153Y-118365D01*
X-218418Y-118365D01*
G37*
%LPD*%
%LPC*%
G36*
X-98045Y331723D02*
X-98045Y331723D01*
X-98045Y333988D01*
X-92688Y339345D01*
X-90423Y339345D01*
X-90423Y331723D01*
X-98045Y331723D01*
G37*
%LPD*%
%LPC*%
G36*
X142493Y-324105D02*
X142493Y-324105D01*
X142493Y-316483D01*
X150115Y-316483D01*
X150115Y-318748D01*
X144758Y-324105D01*
X142493Y-324105D01*
G37*
%LPD*%
%LPC*%
G36*
X166623Y-212345D02*
X166623Y-212345D01*
X166623Y-204723D01*
X174245Y-204723D01*
X174245Y-206988D01*
X168888Y-212345D01*
X166623Y-212345D01*
G37*
%LPD*%
%LPC*%
G36*
X141223Y-250445D02*
X141223Y-250445D01*
X141223Y-242823D01*
X148845Y-242823D01*
X148845Y-245088D01*
X143488Y-250445D01*
X141223Y-250445D01*
G37*
%LPD*%
%LPC*%
G36*
X-9145Y331723D02*
X-9145Y331723D01*
X-9145Y333988D01*
X-3788Y339345D01*
X-1523Y339345D01*
X-1523Y331723D01*
X-9145Y331723D01*
G37*
%LPD*%
%LPC*%
G36*
X1523Y331723D02*
X1523Y331723D01*
X1523Y339345D01*
X3788Y339345D01*
X9145Y333988D01*
X9145Y331723D01*
X1523Y331723D01*
G37*
%LPD*%
%LPC*%
G36*
X-189208Y-120905D02*
X-189208Y-120905D01*
X-194565Y-115548D01*
X-194565Y-113283D01*
X-186943Y-113283D01*
X-186943Y-120905D01*
X-189208Y-120905D01*
G37*
%LPD*%
%LPC*%
G36*
X103123Y-225045D02*
X103123Y-225045D01*
X103123Y-217423D01*
X110745Y-217423D01*
X110745Y-219688D01*
X105388Y-225045D01*
X103123Y-225045D01*
G37*
%LPD*%
%LPC*%
G36*
X204723Y-263145D02*
X204723Y-263145D01*
X204723Y-255523D01*
X212345Y-255523D01*
X212345Y-257788D01*
X206988Y-263145D01*
X204723Y-263145D01*
G37*
%LPD*%
%LPC*%
G36*
X204723Y-252477D02*
X204723Y-252477D01*
X204723Y-244855D01*
X206988Y-244855D01*
X212345Y-250212D01*
X212345Y-252477D01*
X204723Y-252477D01*
G37*
%LPD*%
%LPC*%
G36*
X103123Y-214377D02*
X103123Y-214377D01*
X103123Y-206755D01*
X105388Y-206755D01*
X110745Y-212112D01*
X110745Y-214377D01*
X103123Y-214377D01*
G37*
%LPD*%
%LPC*%
G36*
X-92688Y321055D02*
X-92688Y321055D01*
X-98045Y326412D01*
X-98045Y328677D01*
X-90423Y328677D01*
X-90423Y321055D01*
X-92688Y321055D01*
G37*
%LPD*%
%LPC*%
G36*
X97812Y-225045D02*
X97812Y-225045D01*
X92455Y-219688D01*
X92455Y-217423D01*
X100077Y-217423D01*
X100077Y-225045D01*
X97812Y-225045D01*
G37*
%LPD*%
%LPC*%
G36*
X141223Y-239777D02*
X141223Y-239777D01*
X141223Y-232155D01*
X143488Y-232155D01*
X148845Y-237512D01*
X148845Y-239777D01*
X141223Y-239777D01*
G37*
%LPD*%
%LPC*%
G36*
X166623Y-201677D02*
X166623Y-201677D01*
X166623Y-194055D01*
X168888Y-194055D01*
X174245Y-199412D01*
X174245Y-201677D01*
X166623Y-201677D01*
G37*
%LPD*%
%LPC*%
G36*
X135912Y-250445D02*
X135912Y-250445D01*
X130555Y-245088D01*
X130555Y-242823D01*
X138177Y-242823D01*
X138177Y-250445D01*
X135912Y-250445D01*
G37*
%LPD*%
%LPC*%
G36*
X199412Y-263145D02*
X199412Y-263145D01*
X194055Y-257788D01*
X194055Y-255523D01*
X201677Y-255523D01*
X201677Y-263145D01*
X199412Y-263145D01*
G37*
%LPD*%
%LPC*%
G36*
X-3788Y321055D02*
X-3788Y321055D01*
X-9145Y326412D01*
X-9145Y328677D01*
X-1523Y328677D01*
X-1523Y321055D01*
X-3788Y321055D01*
G37*
%LPD*%
%LPC*%
G36*
X1523Y321055D02*
X1523Y321055D01*
X1523Y328677D01*
X9145Y328677D01*
X9145Y326412D01*
X3788Y321055D01*
X1523Y321055D01*
G37*
%LPD*%
%LPC*%
G36*
X-194565Y-110237D02*
X-194565Y-110237D01*
X-194565Y-107972D01*
X-189208Y-102615D01*
X-186943Y-102615D01*
X-186943Y-110237D01*
X-194565Y-110237D01*
G37*
%LPD*%
%LPC*%
G36*
X-223775Y-107697D02*
X-223775Y-107697D01*
X-223775Y-105432D01*
X-218418Y-100075D01*
X-216153Y-100075D01*
X-216153Y-107697D01*
X-223775Y-107697D01*
G37*
%LPD*%
%LPC*%
G36*
X-87377Y331723D02*
X-87377Y331723D01*
X-87377Y339345D01*
X-85112Y339345D01*
X-79755Y333988D01*
X-79755Y331723D01*
X-87377Y331723D01*
G37*
%LPD*%
%LPC*%
G36*
X137182Y-324105D02*
X137182Y-324105D01*
X131825Y-318748D01*
X131825Y-316483D01*
X139447Y-316483D01*
X139447Y-324105D01*
X137182Y-324105D01*
G37*
%LPD*%
%LPC*%
G36*
X142493Y-313437D02*
X142493Y-313437D01*
X142493Y-305815D01*
X144758Y-305815D01*
X150115Y-311172D01*
X150115Y-313437D01*
X142493Y-313437D01*
G37*
%LPD*%
%LPC*%
G36*
X161312Y-212345D02*
X161312Y-212345D01*
X155955Y-206988D01*
X155955Y-204723D01*
X163577Y-204723D01*
X163577Y-212345D01*
X161312Y-212345D01*
G37*
%LPD*%
%LPC*%
G36*
X-183897Y-120905D02*
X-183897Y-120905D01*
X-183897Y-113283D01*
X-176275Y-113283D01*
X-176275Y-115548D01*
X-181632Y-120905D01*
X-183897Y-120905D01*
G37*
%LPD*%
%LPC*%
G36*
X-213107Y-118365D02*
X-213107Y-118365D01*
X-213107Y-110743D01*
X-205485Y-110743D01*
X-205485Y-113008D01*
X-210842Y-118365D01*
X-213107Y-118365D01*
G37*
%LPD*%
%LPC*%
G36*
X-87377Y321055D02*
X-87377Y321055D01*
X-87377Y328677D01*
X-79755Y328677D01*
X-79755Y326412D01*
X-85112Y321055D01*
X-87377Y321055D01*
G37*
%LPD*%
%LPC*%
G36*
X130555Y-239777D02*
X130555Y-239777D01*
X130555Y-237512D01*
X135912Y-232155D01*
X138177Y-232155D01*
X138177Y-239777D01*
X130555Y-239777D01*
G37*
%LPD*%
%LPC*%
G36*
X155955Y-201677D02*
X155955Y-201677D01*
X155955Y-199412D01*
X161312Y-194055D01*
X163577Y-194055D01*
X163577Y-201677D01*
X155955Y-201677D01*
G37*
%LPD*%
%LPC*%
G36*
X-183897Y-110237D02*
X-183897Y-110237D01*
X-183897Y-102615D01*
X-181632Y-102615D01*
X-176275Y-107972D01*
X-176275Y-110237D01*
X-183897Y-110237D01*
G37*
%LPD*%
%LPC*%
G36*
X-213107Y-107697D02*
X-213107Y-107697D01*
X-213107Y-100075D01*
X-210842Y-100075D01*
X-205485Y-105432D01*
X-205485Y-107697D01*
X-213107Y-107697D01*
G37*
%LPD*%
%LPC*%
G36*
X131825Y-313437D02*
X131825Y-313437D01*
X131825Y-311172D01*
X137182Y-305815D01*
X139447Y-305815D01*
X139447Y-313437D01*
X131825Y-313437D01*
G37*
%LPD*%
%LPC*%
G36*
X194055Y-252477D02*
X194055Y-252477D01*
X194055Y-250212D01*
X199412Y-244855D01*
X201677Y-244855D01*
X201677Y-252477D01*
X194055Y-252477D01*
G37*
%LPD*%
%LPC*%
G36*
X92455Y-214377D02*
X92455Y-214377D01*
X92455Y-212112D01*
X97812Y-206755D01*
X100077Y-206755D01*
X100077Y-214377D01*
X92455Y-214377D01*
G37*
%LPD*%
%LPC*%
G36*
X288709Y-78244D02*
X288709Y-78244D01*
X292665Y-71938D01*
X293663Y-72936D01*
X294656Y-74423D01*
X295341Y-76076D01*
X295690Y-77830D01*
X295690Y-79619D01*
X295341Y-81373D01*
X295002Y-82191D01*
X288709Y-78244D01*
G37*
%LPD*%
%LPC*%
G36*
X279822Y-72669D02*
X279822Y-72669D01*
X280820Y-71671D01*
X282308Y-70677D01*
X283960Y-69993D01*
X285715Y-69644D01*
X287504Y-69644D01*
X289258Y-69993D01*
X290076Y-70332D01*
X286128Y-76625D01*
X279822Y-72669D01*
G37*
%LPD*%
%LPC*%
G36*
X76199Y292099D02*
X76199Y292099D01*
X76199Y292101D01*
X76201Y292101D01*
X76201Y292099D01*
X76199Y292099D01*
G37*
%LPD*%
%LPC*%
G36*
X-127001Y292099D02*
X-127001Y292099D01*
X-127001Y292101D01*
X-126999Y292101D01*
X-126999Y292099D01*
X-127001Y292099D01*
G37*
%LPD*%
%LPC*%
G36*
X50799Y-38101D02*
X50799Y-38101D01*
X50799Y-38099D01*
X50801Y-38099D01*
X50801Y-38101D01*
X50799Y-38101D01*
G37*
%LPD*%
%LPC*%
G36*
X-88901Y330199D02*
X-88901Y330199D01*
X-88901Y330201D01*
X-88899Y330201D01*
X-88899Y330199D01*
X-88901Y330199D01*
G37*
%LPD*%
%LPC*%
G36*
X35559Y-86361D02*
X35559Y-86361D01*
X35559Y-86359D01*
X35561Y-86359D01*
X35561Y-86361D01*
X35559Y-86361D01*
G37*
%LPD*%
%LPC*%
G36*
X-50801Y63499D02*
X-50801Y63499D01*
X-50801Y63501D01*
X-50799Y63501D01*
X-50799Y63499D01*
X-50801Y63499D01*
G37*
%LPD*%
%LPC*%
G36*
X203199Y-254001D02*
X203199Y-254001D01*
X203199Y-253999D01*
X203201Y-253999D01*
X203201Y-254001D01*
X203199Y-254001D01*
G37*
%LPD*%
%LPC*%
G36*
X-185421Y-111761D02*
X-185421Y-111761D01*
X-185421Y-111759D01*
X-185419Y-111759D01*
X-185419Y-111761D01*
X-185421Y-111761D01*
G37*
%LPD*%
%LPC*%
G36*
X101599Y-215901D02*
X101599Y-215901D01*
X101599Y-215899D01*
X101601Y-215899D01*
X101601Y-215901D01*
X101599Y-215901D01*
G37*
%LPD*%
%LPC*%
G36*
X63499Y177799D02*
X63499Y177799D01*
X63499Y177801D01*
X63501Y177801D01*
X63501Y177799D01*
X63499Y177799D01*
G37*
%LPD*%
%LPC*%
G36*
X-214631Y-109221D02*
X-214631Y-109221D01*
X-214631Y-109219D01*
X-214629Y-109219D01*
X-214629Y-109221D01*
X-214631Y-109221D01*
G37*
%LPD*%
%LPC*%
G36*
X139699Y-241301D02*
X139699Y-241301D01*
X139699Y-241299D01*
X139701Y-241299D01*
X139701Y-241301D01*
X139699Y-241301D01*
G37*
%LPD*%
%LPC*%
G36*
X25399Y215899D02*
X25399Y215899D01*
X25399Y215901D01*
X25401Y215901D01*
X25401Y215899D01*
X25399Y215899D01*
G37*
%LPD*%
%LPC*%
G36*
X140969Y-314961D02*
X140969Y-314961D01*
X140969Y-314959D01*
X140971Y-314959D01*
X140971Y-314961D01*
X140969Y-314961D01*
G37*
%LPD*%
%LPC*%
G36*
X165099Y-203201D02*
X165099Y-203201D01*
X165099Y-203199D01*
X165101Y-203199D01*
X165101Y-203201D01*
X165099Y-203201D01*
G37*
%LPD*%
%LPC*%
G36*
X5079Y378459D02*
X5079Y378459D01*
X5079Y378461D01*
X5081Y378461D01*
X5081Y378459D01*
X5079Y378459D01*
G37*
%LPD*%
%LPC*%
G36*
X-1Y330199D02*
X-1Y330199D01*
X-1Y330201D01*
X1Y330201D01*
X1Y330199D01*
X-1Y330199D01*
G37*
%LPD*%
%LPC*%
G36*
X-223666Y297633D02*
X-223666Y297633D01*
X-223664Y297634D01*
X-223663Y297633D01*
X-223665Y297632D01*
X-223666Y297633D01*
G37*
%LPD*%
%LPC*%
G36*
X-293219Y-214515D02*
X-293219Y-214515D01*
X-293218Y-214514D01*
X-293217Y-214515D01*
X-293218Y-214516D01*
X-293219Y-214515D01*
G37*
%LPD*%
D10*
X165100Y-241300D03*
X139700Y-241300D03*
D11*
X101600Y-190500D03*
X101600Y-215900D03*
D10*
X-63500Y330200D03*
X-88900Y330200D03*
D12*
X203200Y-279400D03*
X203200Y-254000D03*
D13*
X50800Y330200D03*
D10*
X0Y330200D03*
D13*
X215900Y-203200D03*
D10*
X165100Y-203200D03*
D14*
X269604Y-105833D03*
X278107Y-92279D03*
X286609Y-78725D03*
X284021Y-105432D03*
X292523Y-91878D03*
D15*
X340706Y-88460D03*
X301914Y-150300D03*
D10*
X-163830Y-312420D03*
X-189230Y-312420D03*
X-210820Y-283210D03*
X-236220Y-283210D03*
D11*
X-185420Y-111760D03*
X-185420Y-213360D03*
X-214630Y-109220D03*
X-214630Y-210820D03*
X-254000Y-114300D03*
X-254000Y-215900D03*
D16*
X-199378Y270786D03*
X-262902Y191494D03*
D17*
X-152400Y209296D02*
X-152400Y222504D01*
X-127000Y222504D02*
X-127000Y209296D01*
X-101600Y209296D02*
X-101600Y222504D01*
X-76200Y222504D02*
X-76200Y209296D01*
X-50800Y209296D02*
X-50800Y222504D01*
X-25400Y222504D02*
X-25400Y209296D01*
X0Y209296D02*
X0Y222504D01*
X25400Y222504D02*
X25400Y209296D01*
X50800Y209296D02*
X50800Y222504D01*
X76200Y222504D02*
X76200Y209296D01*
X101600Y209296D02*
X101600Y222504D01*
X127000Y222504D02*
X127000Y209296D01*
X152400Y209296D02*
X152400Y222504D01*
X177800Y222504D02*
X177800Y209296D01*
X177800Y285496D02*
X177800Y298704D01*
X152400Y298704D02*
X152400Y285496D01*
X127000Y285496D02*
X127000Y298704D01*
X101600Y298704D02*
X101600Y285496D01*
X76200Y285496D02*
X76200Y298704D01*
X50800Y298704D02*
X50800Y285496D01*
X25400Y285496D02*
X25400Y298704D01*
X0Y298704D02*
X0Y285496D01*
X-25400Y285496D02*
X-25400Y298704D01*
X-50800Y298704D02*
X-50800Y285496D01*
X-76200Y285496D02*
X-76200Y298704D01*
X-101600Y298704D02*
X-101600Y285496D01*
X-127000Y285496D02*
X-127000Y298704D01*
X-152400Y298704D02*
X-152400Y285496D01*
D18*
G36*
X296291Y-193040D02*
X307156Y-182583D01*
X317613Y-193448D01*
X306748Y-203905D01*
X296291Y-193040D01*
G37*
G36*
X238647Y-248512D02*
X249512Y-238055D01*
X259969Y-248920D01*
X249104Y-259377D01*
X238647Y-248512D01*
G37*
D19*
G36*
X283294Y-206935D02*
X292718Y-197865D01*
X301788Y-207289D01*
X292364Y-216359D01*
X283294Y-206935D01*
G37*
G36*
X268883Y-220803D02*
X278307Y-211733D01*
X287377Y-221157D01*
X277953Y-230227D01*
X268883Y-220803D01*
G37*
G36*
X254472Y-234671D02*
X263896Y-225601D01*
X272966Y-235025D01*
X263542Y-244095D01*
X254472Y-234671D01*
G37*
D20*
X166370Y-314960D03*
X153670Y-295910D03*
X140970Y-314960D03*
D21*
X-261476Y263707D03*
X-223664Y297633D03*
X-324002Y-174105D03*
X-293218Y-214515D03*
X55880Y378460D03*
X30480Y378460D03*
X5080Y378460D03*
X-20320Y378460D03*
X-45720Y378460D03*
X38100Y177800D03*
X63500Y177800D03*
X88900Y177800D03*
X86360Y-86360D03*
X60960Y-86360D03*
X35560Y-86360D03*
X10160Y-86360D03*
X-15240Y-86360D03*
X-40640Y-86360D03*
X-66040Y-86360D03*
X-91440Y-86360D03*
X-116840Y-86360D03*
X-185963Y341434D03*
X-162741Y351725D03*
X-139519Y362015D03*
X-116297Y372306D03*
X-177800Y-38100D03*
X-152400Y-38100D03*
X-127000Y-38100D03*
X-101600Y-38100D03*
X-76200Y-38100D03*
X-50800Y-38100D03*
X-177800Y63500D03*
X-152400Y63500D03*
X-127000Y63500D03*
X-101600Y63500D03*
X-76200Y63500D03*
X-50800Y63500D03*
X177800Y63500D03*
X152400Y63500D03*
X127000Y63500D03*
X101600Y63500D03*
X76200Y63500D03*
X50800Y63500D03*
X177800Y-38100D03*
X152400Y-38100D03*
X127000Y-38100D03*
X101600Y-38100D03*
X76200Y-38100D03*
X50800Y-38100D03*
D22*
X101600Y-190500D02*
X114300Y-190500D01*
X101600Y-190500D02*
X60960Y-149860D01*
D23*
X-236220Y-240030D03*
D22*
X-166370Y-240030D01*
X-165100Y-241300D01*
D23*
X-165100Y-241300D03*
X215900Y127000D03*
D22*
X165100Y127000D01*
X152400Y139700D01*
D23*
X152400Y139700D03*
X-190500Y279400D03*
D22*
X-177800Y292100D01*
X-165100Y292100D01*
D23*
X-165100Y292100D03*
X-152400Y317500D03*
D22*
X-114300Y317500D01*
D23*
X-114300Y317500D03*
X114300Y-190500D03*
X60960Y-149860D03*
X254000Y292100D03*
D22*
X190500Y292100D01*
D23*
X190500Y292100D03*
X-279400Y114300D03*
X-190500Y114300D03*
D22*
X-279400Y114300D01*
D23*
X-152400Y330200D03*
D22*
X-139700Y342900D01*
X-114300Y342900D02*
X-101600Y355600D01*
D23*
X38100Y355600D03*
D22*
X-114300Y342900D02*
X-139700Y342900D01*
X-101600Y355600D02*
X38100Y355600D01*
D23*
X-101600Y266700D03*
D22*
X-127000Y266700D01*
D23*
X-127000Y266700D03*
X-63500Y304800D03*
D22*
X-25400Y342900D01*
D23*
X-25400Y342900D03*
X-12700Y-63500D03*
D22*
X12700Y-63500D01*
D23*
X12700Y-63500D03*
X-241300Y152400D03*
D22*
X101600Y152400D01*
D23*
X101600Y152400D03*
X254000Y177800D03*
D22*
X190500Y177800D01*
D23*
X190500Y177800D03*
X-190500Y254000D03*
D22*
X-127000Y254000D01*
D23*
X-127000Y254000D03*
X317500Y-38100D03*
D22*
X330200Y-25400D01*
D23*
X330200Y-25400D03*
X292100Y241300D03*
D22*
X279400Y254000D01*
X254000Y254000D01*
D23*
X254000Y254000D03*
X215900Y317500D03*
D22*
X190500Y317500D01*
D23*
X190500Y317500D03*
X63500Y317500D03*
D22*
X12700Y317500D01*
D23*
X12700Y317500D03*
X165100Y-12700D03*
D22*
X254000Y-12700D01*
D23*
X254000Y-12700D03*
X228600Y241300D03*
D22*
X139700Y241300D01*
D23*
X139700Y241300D03*
X-88900Y101600D03*
D22*
X177800Y101600D01*
D23*
X177800Y101600D03*
X203200Y266700D03*
D22*
X139700Y266700D01*
D23*
X139700Y266700D03*
X25400Y63500D03*
D22*
X-25400Y63500D01*
D23*
X-25400Y63500D03*
X31750Y82550D03*
D22*
X157480Y82550D01*
D23*
X157480Y82550D03*
X203200Y257612D03*
D22*
X167838Y257612D01*
X167640Y257810D01*
D23*
X167640Y257810D03*
X-203200Y-266700D03*
D22*
X-152400Y-266700D01*
D23*
X-152400Y-266700D03*
X266700Y-50800D03*
D22*
X330200Y12700D01*
D23*
X330200Y12700D03*
X304800Y215900D03*
D22*
X266700Y215900D01*
D23*
X266700Y215900D03*
X215900Y330200D03*
D22*
X190500Y330200D01*
D23*
X190500Y330200D03*
X88900Y25400D03*
D22*
X228600Y25400D02*
X241300Y38100D01*
X228600Y25400D02*
X88900Y25400D01*
D23*
X241300Y38100D03*
X228600Y152400D03*
D22*
X139700Y152400D01*
D23*
X139700Y152400D03*
M02*
