G04 EAGLE Gerber RS-274X export*
G75*
%MOMM*%
%FSLAX34Y34*%
%LPD*%
%IN*%
%IPPOS*%
%AMOC8*
5,1,8,0,0,1.08239X$1,22.5*%
G01*
%ADD10C,0.254000*%


D10*
X400000Y7791D02*
X400000Y17609D01*
X399759Y27424D01*
X399277Y37230D01*
X398555Y47022D01*
X397593Y56792D01*
X396391Y66536D01*
X394950Y76248D01*
X393272Y85921D01*
X391356Y95551D01*
X389205Y105130D01*
X386820Y114654D01*
X384201Y124116D01*
X381351Y133511D01*
X378271Y142834D01*
X374964Y152078D01*
X371430Y161238D01*
X367673Y170309D01*
X363695Y179284D01*
X359497Y188160D01*
X355083Y196929D01*
X350454Y205588D01*
X345615Y214131D01*
X340568Y222552D01*
X335315Y230846D01*
X329861Y239010D01*
X324207Y247037D01*
X318359Y254923D01*
X312318Y262663D01*
X306090Y270252D01*
X299677Y277686D01*
X293084Y284961D01*
X286314Y292072D01*
X279372Y299014D01*
X272261Y305784D01*
X264986Y312377D01*
X257552Y318790D01*
X249963Y325018D01*
X242223Y331059D01*
X234337Y336907D01*
X226310Y342561D01*
X218146Y348015D01*
X209852Y353268D01*
X201431Y358315D01*
X192888Y363154D01*
X184229Y367783D01*
X175460Y372197D01*
X166584Y376395D01*
X157609Y380373D01*
X148538Y384130D01*
X139378Y387664D01*
X130134Y390971D01*
X120811Y394051D01*
X111416Y396901D01*
X101954Y399520D01*
X92430Y401905D01*
X82851Y404056D01*
X73221Y405972D01*
X63548Y407650D01*
X53836Y409091D01*
X44092Y410293D01*
X34322Y411255D01*
X24530Y411977D01*
X14724Y412459D01*
X4909Y412700D01*
X-4909Y412700D01*
X-14724Y412459D01*
X-24530Y411977D01*
X-34322Y411255D01*
X-44092Y410293D01*
X-53836Y409091D01*
X-63548Y407650D01*
X-73221Y405972D01*
X-82851Y404056D01*
X-92430Y401905D01*
X-101954Y399520D01*
X-111416Y396901D01*
X-120811Y394051D01*
X-130134Y390971D01*
X-139378Y387664D01*
X-148538Y384130D01*
X-157609Y380373D01*
X-166584Y376395D01*
X-175460Y372197D01*
X-184229Y367783D01*
X-192888Y363154D01*
X-201431Y358315D01*
X-209852Y353268D01*
X-218146Y348015D01*
X-226310Y342561D01*
X-234337Y336907D01*
X-242223Y331059D01*
X-249963Y325018D01*
X-257552Y318790D01*
X-264986Y312377D01*
X-272261Y305784D01*
X-279372Y299014D01*
X-286314Y292072D01*
X-293084Y284961D01*
X-299677Y277686D01*
X-306090Y270252D01*
X-312318Y262663D01*
X-318359Y254923D01*
X-324207Y247037D01*
X-329861Y239010D01*
X-335315Y230846D01*
X-340568Y222552D01*
X-345615Y214131D01*
X-350454Y205588D01*
X-355083Y196929D01*
X-359497Y188160D01*
X-363695Y179284D01*
X-367673Y170309D01*
X-371430Y161238D01*
X-374964Y152078D01*
X-378271Y142834D01*
X-381351Y133511D01*
X-384201Y124116D01*
X-386820Y114654D01*
X-389205Y105130D01*
X-391356Y95551D01*
X-393272Y85921D01*
X-394950Y76248D01*
X-396391Y66536D01*
X-397593Y56792D01*
X-398555Y47022D01*
X-399277Y37230D01*
X-399759Y27424D01*
X-400000Y17609D01*
X-400000Y7791D01*
X-399759Y-2024D01*
X-399277Y-11830D01*
X-398555Y-21622D01*
X-397593Y-31392D01*
X-396391Y-41136D01*
X-394950Y-50848D01*
X-393272Y-60521D01*
X-391356Y-70151D01*
X-389205Y-79730D01*
X-386820Y-89254D01*
X-384201Y-98716D01*
X-381351Y-108111D01*
X-378271Y-117434D01*
X-374964Y-126678D01*
X-371430Y-135838D01*
X-367673Y-144909D01*
X-363695Y-153884D01*
X-359497Y-162760D01*
X-355083Y-171529D01*
X-350454Y-180188D01*
X-345615Y-188731D01*
X-340568Y-197152D01*
X-335315Y-205446D01*
X-329861Y-213610D01*
X-324207Y-221637D01*
X-318359Y-229523D01*
X-312318Y-237263D01*
X-306090Y-244852D01*
X-299677Y-252286D01*
X-293084Y-259561D01*
X-286314Y-266672D01*
X-279372Y-273614D01*
X-272261Y-280384D01*
X-264986Y-286977D01*
X-257552Y-293390D01*
X-249963Y-299618D01*
X-242223Y-305659D01*
X-234337Y-311507D01*
X-226310Y-317161D01*
X-218146Y-322615D01*
X-209852Y-327868D01*
X-201431Y-332915D01*
X-192888Y-337754D01*
X-184229Y-342383D01*
X-175460Y-346797D01*
X-166584Y-350995D01*
X-157609Y-354973D01*
X-148538Y-358730D01*
X-139378Y-362264D01*
X-130134Y-365571D01*
X-120811Y-368651D01*
X-111416Y-371501D01*
X-101954Y-374120D01*
X-92430Y-376505D01*
X-82851Y-378656D01*
X-73221Y-380572D01*
X-63548Y-382250D01*
X-53836Y-383691D01*
X-44092Y-384893D01*
X-34322Y-385855D01*
X-24530Y-386577D01*
X-14724Y-387059D01*
X-4909Y-387300D01*
X4909Y-387300D01*
X14724Y-387059D01*
X24530Y-386577D01*
X34322Y-385855D01*
X44092Y-384893D01*
X53836Y-383691D01*
X63548Y-382250D01*
X73221Y-380572D01*
X82851Y-378656D01*
X92430Y-376505D01*
X101954Y-374120D01*
X111416Y-371501D01*
X120811Y-368651D01*
X130134Y-365571D01*
X139378Y-362264D01*
X148538Y-358730D01*
X157609Y-354973D01*
X166584Y-350995D01*
X175460Y-346797D01*
X184229Y-342383D01*
X192888Y-337754D01*
X201431Y-332915D01*
X209852Y-327868D01*
X218146Y-322615D01*
X226310Y-317161D01*
X234337Y-311507D01*
X242223Y-305659D01*
X249963Y-299618D01*
X257552Y-293390D01*
X264986Y-286977D01*
X272261Y-280384D01*
X279372Y-273614D01*
X286314Y-266672D01*
X293084Y-259561D01*
X299677Y-252286D01*
X306090Y-244852D01*
X312318Y-237263D01*
X318359Y-229523D01*
X324207Y-221637D01*
X329861Y-213610D01*
X335315Y-205446D01*
X340568Y-197152D01*
X345615Y-188731D01*
X350454Y-180188D01*
X355083Y-171529D01*
X359497Y-162760D01*
X363695Y-153884D01*
X367673Y-144909D01*
X371430Y-135838D01*
X374964Y-126678D01*
X378271Y-117434D01*
X381351Y-108111D01*
X384201Y-98716D01*
X386820Y-89254D01*
X389205Y-79730D01*
X391356Y-70151D01*
X393272Y-60521D01*
X394950Y-50848D01*
X396391Y-41136D01*
X397593Y-31392D01*
X398555Y-21622D01*
X399277Y-11830D01*
X399759Y-2024D01*
X400000Y7791D01*
X25000Y-701D02*
X25000Y701D01*
X24921Y2102D01*
X24764Y3496D01*
X24529Y4879D01*
X24217Y6247D01*
X23829Y7595D01*
X23365Y8919D01*
X22829Y10215D01*
X22220Y11479D01*
X21541Y12707D01*
X20795Y13895D01*
X19983Y15039D01*
X19108Y16136D01*
X18174Y17182D01*
X17182Y18174D01*
X16136Y19108D01*
X15039Y19983D01*
X13895Y20795D01*
X12707Y21541D01*
X11479Y22220D01*
X10215Y22829D01*
X8919Y23365D01*
X7595Y23829D01*
X6247Y24217D01*
X4879Y24529D01*
X3496Y24764D01*
X2102Y24921D01*
X701Y25000D01*
X-701Y25000D01*
X-2102Y24921D01*
X-3496Y24764D01*
X-4879Y24529D01*
X-6247Y24217D01*
X-7595Y23829D01*
X-8919Y23365D01*
X-10215Y22829D01*
X-11479Y22220D01*
X-12707Y21541D01*
X-13895Y20795D01*
X-15039Y19983D01*
X-16136Y19108D01*
X-17182Y18174D01*
X-18174Y17182D01*
X-19108Y16136D01*
X-19983Y15039D01*
X-20795Y13895D01*
X-21541Y12707D01*
X-22220Y11479D01*
X-22829Y10215D01*
X-23365Y8919D01*
X-23829Y7595D01*
X-24217Y6247D01*
X-24529Y4879D01*
X-24764Y3496D01*
X-24921Y2102D01*
X-25000Y701D01*
X-25000Y-701D01*
X-24921Y-2102D01*
X-24764Y-3496D01*
X-24529Y-4879D01*
X-24217Y-6247D01*
X-23829Y-7595D01*
X-23365Y-8919D01*
X-22829Y-10215D01*
X-22220Y-11479D01*
X-21541Y-12707D01*
X-20795Y-13895D01*
X-19983Y-15039D01*
X-19108Y-16136D01*
X-18174Y-17182D01*
X-17182Y-18174D01*
X-16136Y-19108D01*
X-15039Y-19983D01*
X-13895Y-20795D01*
X-12707Y-21541D01*
X-11479Y-22220D01*
X-10215Y-22829D01*
X-8919Y-23365D01*
X-7595Y-23829D01*
X-6247Y-24217D01*
X-4879Y-24529D01*
X-3496Y-24764D01*
X-2102Y-24921D01*
X-701Y-25000D01*
X701Y-25000D01*
X2102Y-24921D01*
X3496Y-24764D01*
X4879Y-24529D01*
X6247Y-24217D01*
X7595Y-23829D01*
X8919Y-23365D01*
X10215Y-22829D01*
X11479Y-22220D01*
X12707Y-21541D01*
X13895Y-20795D01*
X15039Y-19983D01*
X16136Y-19108D01*
X17182Y-18174D01*
X18174Y-17182D01*
X19108Y-16136D01*
X19983Y-15039D01*
X20795Y-13895D01*
X21541Y-12707D01*
X22220Y-11479D01*
X22829Y-10215D01*
X23365Y-8919D01*
X23829Y-7595D01*
X24217Y-6247D01*
X24529Y-4879D01*
X24764Y-3496D01*
X24921Y-2102D01*
X25000Y-701D01*
X2500Y34303D02*
X2500Y34697D01*
X2438Y35085D01*
X2317Y35460D01*
X2138Y35810D01*
X1907Y36129D01*
X1629Y36407D01*
X1310Y36638D01*
X960Y36817D01*
X585Y36938D01*
X197Y37000D01*
X-197Y37000D01*
X-585Y36938D01*
X-960Y36817D01*
X-1310Y36638D01*
X-1629Y36407D01*
X-1907Y36129D01*
X-2138Y35810D01*
X-2317Y35460D01*
X-2438Y35085D01*
X-2500Y34697D01*
X-2500Y34303D01*
X-2438Y33915D01*
X-2317Y33540D01*
X-2138Y33190D01*
X-1907Y32871D01*
X-1629Y32593D01*
X-1310Y32362D01*
X-960Y32183D01*
X-585Y32062D01*
X-197Y32000D01*
X197Y32000D01*
X585Y32062D01*
X960Y32183D01*
X1310Y32362D01*
X1629Y32593D01*
X1907Y32871D01*
X2138Y33190D01*
X2317Y33540D01*
X2438Y33915D01*
X2500Y34303D01*
X2500Y-34697D02*
X2500Y-34303D01*
X2438Y-33915D01*
X2317Y-33540D01*
X2138Y-33190D01*
X1907Y-32871D01*
X1629Y-32593D01*
X1310Y-32362D01*
X960Y-32183D01*
X585Y-32062D01*
X197Y-32000D01*
X-197Y-32000D01*
X-585Y-32062D01*
X-960Y-32183D01*
X-1310Y-32362D01*
X-1629Y-32593D01*
X-1907Y-32871D01*
X-2138Y-33190D01*
X-2317Y-33540D01*
X-2438Y-33915D01*
X-2500Y-34303D01*
X-2500Y-34697D01*
X-2438Y-35085D01*
X-2317Y-35460D01*
X-2138Y-35810D01*
X-1907Y-36129D01*
X-1629Y-36407D01*
X-1310Y-36638D01*
X-960Y-36817D01*
X-585Y-36938D01*
X-197Y-37000D01*
X197Y-37000D01*
X585Y-36938D01*
X960Y-36817D01*
X1310Y-36638D01*
X1629Y-36407D01*
X1907Y-36129D01*
X2138Y-35810D01*
X2317Y-35460D01*
X2438Y-35085D01*
X2500Y-34697D01*
M02*
