G04 EAGLE Gerber RS-274X export*
G75*
%MOMM*%
%FSLAX34Y34*%
%LPD*%
%INSilkscreen Top*%
%IPPOS*%
%AMOC8*
5,1,8,0,0,1.08239X$1,22.5*%
G01*
%ADD10C,0.152400*%
%ADD11C,0.254000*%
%ADD12R,0.508000X2.540000*%
%ADD13R,0.609600X0.863600*%
%ADD14R,0.863600X0.609600*%
%ADD15C,0.406400*%
%ADD16C,0.101600*%
%ADD17C,0.127000*%
%ADD18C,0.203200*%

G36*
X68668Y352442D02*
X68668Y352442D01*
X68756Y352451D01*
X68777Y352461D01*
X68801Y352465D01*
X68878Y352511D01*
X68957Y352550D01*
X68974Y352567D01*
X68994Y352580D01*
X69050Y352649D01*
X69111Y352713D01*
X69120Y352735D01*
X69135Y352754D01*
X69164Y352838D01*
X69199Y352920D01*
X69200Y352944D01*
X69207Y352966D01*
X69205Y353055D01*
X69209Y353144D01*
X69201Y353167D01*
X69201Y353191D01*
X69167Y353273D01*
X69140Y353358D01*
X69124Y353379D01*
X69116Y353398D01*
X69082Y353436D01*
X69028Y353508D01*
X56328Y366208D01*
X56297Y366230D01*
X56280Y366249D01*
X56261Y366259D01*
X56227Y366291D01*
X56183Y366310D01*
X56144Y366337D01*
X56081Y366353D01*
X56020Y366379D01*
X55973Y366381D01*
X55927Y366393D01*
X55862Y366386D01*
X55796Y366389D01*
X55751Y366374D01*
X55704Y366369D01*
X55645Y366340D01*
X55582Y366320D01*
X55538Y366287D01*
X55503Y366270D01*
X55476Y366241D01*
X55468Y366236D01*
X55451Y366225D01*
X55446Y366219D01*
X55432Y366208D01*
X42732Y353508D01*
X42681Y353435D01*
X42625Y353366D01*
X42617Y353344D01*
X42603Y353324D01*
X42581Y353238D01*
X42553Y353154D01*
X42553Y353130D01*
X42548Y353107D01*
X42557Y353018D01*
X42559Y352929D01*
X42568Y352907D01*
X42571Y352884D01*
X42610Y352804D01*
X42644Y352722D01*
X42660Y352704D01*
X42670Y352683D01*
X42735Y352622D01*
X42795Y352556D01*
X42816Y352545D01*
X42833Y352529D01*
X42915Y352494D01*
X42995Y352453D01*
X43021Y352450D01*
X43040Y352441D01*
X43090Y352439D01*
X43180Y352426D01*
X68580Y352426D01*
X68668Y352442D01*
G37*
D10*
X-202438Y-279936D02*
X-191601Y-279936D01*
X-197019Y-285355D02*
X-197019Y-274518D01*
X-160528Y-332006D02*
X-149691Y-332006D01*
X-155109Y-337425D02*
X-155109Y-326588D01*
X-121158Y173482D02*
X-121158Y189738D01*
X-116642Y189738D01*
X-116511Y189736D01*
X-116379Y189730D01*
X-116248Y189721D01*
X-116118Y189707D01*
X-115987Y189690D01*
X-115858Y189669D01*
X-115729Y189645D01*
X-115601Y189616D01*
X-115473Y189584D01*
X-115347Y189548D01*
X-115222Y189509D01*
X-115097Y189466D01*
X-114975Y189419D01*
X-114853Y189369D01*
X-114733Y189315D01*
X-114615Y189258D01*
X-114499Y189197D01*
X-114384Y189133D01*
X-114271Y189066D01*
X-114160Y188995D01*
X-114052Y188921D01*
X-113945Y188844D01*
X-113841Y188764D01*
X-113739Y188681D01*
X-113640Y188596D01*
X-113543Y188507D01*
X-113449Y188415D01*
X-113357Y188321D01*
X-113268Y188224D01*
X-113183Y188125D01*
X-113100Y188023D01*
X-113020Y187919D01*
X-112943Y187812D01*
X-112869Y187704D01*
X-112798Y187593D01*
X-112731Y187480D01*
X-112667Y187365D01*
X-112606Y187249D01*
X-112549Y187131D01*
X-112495Y187011D01*
X-112445Y186889D01*
X-112398Y186767D01*
X-112355Y186642D01*
X-112316Y186517D01*
X-112280Y186391D01*
X-112248Y186263D01*
X-112219Y186135D01*
X-112195Y186006D01*
X-112174Y185877D01*
X-112157Y185746D01*
X-112143Y185616D01*
X-112134Y185485D01*
X-112128Y185353D01*
X-112126Y185222D01*
X-112127Y185222D02*
X-112127Y177998D01*
X-112126Y177998D02*
X-112128Y177867D01*
X-112134Y177735D01*
X-112143Y177604D01*
X-112157Y177474D01*
X-112174Y177343D01*
X-112195Y177214D01*
X-112219Y177085D01*
X-112248Y176957D01*
X-112280Y176829D01*
X-112316Y176703D01*
X-112355Y176578D01*
X-112398Y176453D01*
X-112445Y176331D01*
X-112495Y176209D01*
X-112549Y176089D01*
X-112606Y175971D01*
X-112667Y175855D01*
X-112731Y175740D01*
X-112798Y175627D01*
X-112869Y175516D01*
X-112943Y175408D01*
X-113020Y175301D01*
X-113100Y175197D01*
X-113183Y175095D01*
X-113268Y174996D01*
X-113357Y174899D01*
X-113449Y174805D01*
X-113543Y174713D01*
X-113640Y174624D01*
X-113739Y174539D01*
X-113841Y174456D01*
X-113945Y174376D01*
X-114052Y174299D01*
X-114160Y174225D01*
X-114271Y174154D01*
X-114384Y174087D01*
X-114499Y174023D01*
X-114615Y173962D01*
X-114733Y173905D01*
X-114853Y173851D01*
X-114975Y173801D01*
X-115097Y173754D01*
X-115222Y173711D01*
X-115347Y173672D01*
X-115473Y173636D01*
X-115601Y173604D01*
X-115729Y173575D01*
X-115858Y173551D01*
X-115987Y173530D01*
X-116118Y173513D01*
X-116248Y173499D01*
X-116379Y173490D01*
X-116511Y173484D01*
X-116642Y173482D01*
X-121158Y173482D01*
X-102435Y173482D02*
X-97920Y173482D01*
X-102435Y173482D02*
X-102536Y173484D01*
X-102637Y173490D01*
X-102738Y173499D01*
X-102839Y173512D01*
X-102939Y173529D01*
X-103038Y173550D01*
X-103136Y173574D01*
X-103233Y173602D01*
X-103330Y173634D01*
X-103425Y173669D01*
X-103518Y173708D01*
X-103610Y173750D01*
X-103701Y173796D01*
X-103790Y173845D01*
X-103876Y173897D01*
X-103961Y173953D01*
X-104044Y174011D01*
X-104124Y174073D01*
X-104202Y174138D01*
X-104278Y174205D01*
X-104351Y174275D01*
X-104421Y174348D01*
X-104488Y174424D01*
X-104553Y174502D01*
X-104615Y174582D01*
X-104673Y174665D01*
X-104729Y174750D01*
X-104781Y174837D01*
X-104830Y174925D01*
X-104876Y175016D01*
X-104918Y175108D01*
X-104957Y175201D01*
X-104992Y175296D01*
X-105024Y175393D01*
X-105052Y175490D01*
X-105076Y175588D01*
X-105097Y175687D01*
X-105114Y175787D01*
X-105127Y175888D01*
X-105136Y175989D01*
X-105142Y176090D01*
X-105144Y176191D01*
X-105145Y176191D02*
X-105145Y180707D01*
X-105144Y180707D02*
X-105142Y180826D01*
X-105136Y180946D01*
X-105126Y181065D01*
X-105112Y181183D01*
X-105095Y181302D01*
X-105073Y181419D01*
X-105048Y181536D01*
X-105018Y181651D01*
X-104985Y181766D01*
X-104948Y181880D01*
X-104908Y181992D01*
X-104863Y182103D01*
X-104815Y182212D01*
X-104764Y182320D01*
X-104709Y182426D01*
X-104650Y182530D01*
X-104588Y182632D01*
X-104523Y182732D01*
X-104454Y182830D01*
X-104382Y182926D01*
X-104307Y183019D01*
X-104230Y183109D01*
X-104149Y183197D01*
X-104065Y183282D01*
X-103978Y183364D01*
X-103889Y183444D01*
X-103797Y183520D01*
X-103703Y183594D01*
X-103606Y183664D01*
X-103508Y183731D01*
X-103407Y183795D01*
X-103303Y183855D01*
X-103198Y183912D01*
X-103091Y183965D01*
X-102983Y184015D01*
X-102873Y184061D01*
X-102761Y184103D01*
X-102648Y184142D01*
X-102534Y184177D01*
X-102419Y184208D01*
X-102302Y184236D01*
X-102185Y184259D01*
X-102068Y184279D01*
X-101949Y184295D01*
X-101830Y184307D01*
X-101711Y184315D01*
X-101592Y184319D01*
X-101472Y184319D01*
X-101353Y184315D01*
X-101234Y184307D01*
X-101115Y184295D01*
X-100996Y184279D01*
X-100879Y184259D01*
X-100762Y184236D01*
X-100645Y184208D01*
X-100530Y184177D01*
X-100416Y184142D01*
X-100303Y184103D01*
X-100191Y184061D01*
X-100081Y184015D01*
X-99973Y183965D01*
X-99866Y183912D01*
X-99761Y183855D01*
X-99657Y183795D01*
X-99556Y183731D01*
X-99458Y183664D01*
X-99361Y183594D01*
X-99267Y183520D01*
X-99175Y183444D01*
X-99086Y183364D01*
X-98999Y183282D01*
X-98915Y183197D01*
X-98834Y183109D01*
X-98757Y183019D01*
X-98682Y182926D01*
X-98610Y182830D01*
X-98541Y182732D01*
X-98476Y182632D01*
X-98414Y182530D01*
X-98355Y182426D01*
X-98300Y182320D01*
X-98249Y182212D01*
X-98201Y182103D01*
X-98156Y181992D01*
X-98116Y181880D01*
X-98079Y181766D01*
X-98046Y181651D01*
X-98016Y181536D01*
X-97991Y181419D01*
X-97969Y181302D01*
X-97952Y181183D01*
X-97938Y181065D01*
X-97928Y180946D01*
X-97922Y180826D01*
X-97920Y180707D01*
X-97920Y178901D01*
X-105145Y178901D01*
X-92119Y184319D02*
X-88506Y173482D01*
X-84894Y184319D01*
X-71941Y189738D02*
X-71941Y173482D01*
X-76457Y173482D01*
X-76558Y173484D01*
X-76659Y173490D01*
X-76760Y173499D01*
X-76861Y173512D01*
X-76961Y173529D01*
X-77060Y173550D01*
X-77158Y173574D01*
X-77255Y173602D01*
X-77352Y173634D01*
X-77447Y173669D01*
X-77540Y173708D01*
X-77632Y173750D01*
X-77723Y173796D01*
X-77812Y173845D01*
X-77898Y173897D01*
X-77983Y173953D01*
X-78066Y174011D01*
X-78146Y174073D01*
X-78224Y174138D01*
X-78300Y174205D01*
X-78373Y174275D01*
X-78443Y174348D01*
X-78510Y174424D01*
X-78575Y174502D01*
X-78637Y174582D01*
X-78695Y174665D01*
X-78751Y174750D01*
X-78803Y174837D01*
X-78852Y174925D01*
X-78898Y175016D01*
X-78940Y175108D01*
X-78979Y175201D01*
X-79014Y175296D01*
X-79046Y175393D01*
X-79074Y175490D01*
X-79098Y175588D01*
X-79119Y175687D01*
X-79136Y175787D01*
X-79149Y175888D01*
X-79158Y175989D01*
X-79164Y176090D01*
X-79166Y176191D01*
X-79166Y181610D01*
X-79164Y181711D01*
X-79158Y181812D01*
X-79149Y181913D01*
X-79136Y182014D01*
X-79119Y182114D01*
X-79098Y182213D01*
X-79074Y182311D01*
X-79046Y182408D01*
X-79014Y182505D01*
X-78979Y182600D01*
X-78940Y182693D01*
X-78898Y182785D01*
X-78852Y182876D01*
X-78803Y182965D01*
X-78751Y183051D01*
X-78695Y183136D01*
X-78637Y183219D01*
X-78575Y183299D01*
X-78510Y183377D01*
X-78443Y183453D01*
X-78373Y183526D01*
X-78300Y183596D01*
X-78224Y183663D01*
X-78146Y183728D01*
X-78066Y183790D01*
X-77983Y183848D01*
X-77898Y183904D01*
X-77812Y183956D01*
X-77723Y184005D01*
X-77632Y184051D01*
X-77540Y184093D01*
X-77447Y184132D01*
X-77352Y184167D01*
X-77255Y184199D01*
X-77158Y184227D01*
X-77060Y184251D01*
X-76961Y184272D01*
X-76861Y184289D01*
X-76760Y184302D01*
X-76659Y184311D01*
X-76558Y184317D01*
X-76457Y184319D01*
X-71941Y184319D01*
X-64504Y189738D02*
X-64504Y173482D01*
X-64504Y184319D02*
X-59988Y184319D01*
X-59884Y184317D01*
X-59781Y184311D01*
X-59677Y184301D01*
X-59574Y184287D01*
X-59472Y184269D01*
X-59371Y184248D01*
X-59270Y184222D01*
X-59171Y184193D01*
X-59072Y184160D01*
X-58975Y184123D01*
X-58880Y184082D01*
X-58786Y184038D01*
X-58694Y183990D01*
X-58604Y183939D01*
X-58515Y183884D01*
X-58429Y183826D01*
X-58346Y183764D01*
X-58264Y183700D01*
X-58186Y183632D01*
X-58110Y183562D01*
X-58036Y183489D01*
X-57966Y183412D01*
X-57898Y183334D01*
X-57834Y183252D01*
X-57772Y183169D01*
X-57714Y183083D01*
X-57659Y182994D01*
X-57608Y182904D01*
X-57560Y182812D01*
X-57516Y182718D01*
X-57475Y182623D01*
X-57438Y182526D01*
X-57405Y182427D01*
X-57376Y182328D01*
X-57350Y182227D01*
X-57329Y182126D01*
X-57311Y182024D01*
X-57297Y181921D01*
X-57287Y181817D01*
X-57281Y181714D01*
X-57279Y181610D01*
X-57279Y173482D01*
X-47348Y179804D02*
X-43284Y179804D01*
X-47348Y179804D02*
X-47460Y179802D01*
X-47571Y179796D01*
X-47682Y179786D01*
X-47793Y179773D01*
X-47903Y179755D01*
X-48012Y179733D01*
X-48121Y179708D01*
X-48229Y179679D01*
X-48335Y179646D01*
X-48441Y179609D01*
X-48545Y179569D01*
X-48647Y179525D01*
X-48748Y179477D01*
X-48847Y179426D01*
X-48945Y179371D01*
X-49040Y179313D01*
X-49133Y179252D01*
X-49224Y179187D01*
X-49313Y179119D01*
X-49399Y179048D01*
X-49482Y178975D01*
X-49563Y178898D01*
X-49642Y178818D01*
X-49717Y178736D01*
X-49789Y178651D01*
X-49859Y178564D01*
X-49925Y178474D01*
X-49988Y178382D01*
X-50048Y178287D01*
X-50104Y178191D01*
X-50157Y178093D01*
X-50206Y177993D01*
X-50252Y177891D01*
X-50294Y177788D01*
X-50333Y177683D01*
X-50368Y177577D01*
X-50399Y177470D01*
X-50426Y177362D01*
X-50450Y177253D01*
X-50469Y177143D01*
X-50485Y177033D01*
X-50497Y176922D01*
X-50505Y176810D01*
X-50509Y176699D01*
X-50509Y176587D01*
X-50505Y176476D01*
X-50497Y176364D01*
X-50485Y176253D01*
X-50469Y176143D01*
X-50450Y176033D01*
X-50426Y175924D01*
X-50399Y175816D01*
X-50368Y175709D01*
X-50333Y175603D01*
X-50294Y175498D01*
X-50252Y175395D01*
X-50206Y175293D01*
X-50157Y175193D01*
X-50104Y175095D01*
X-50048Y174999D01*
X-49988Y174904D01*
X-49925Y174812D01*
X-49859Y174722D01*
X-49789Y174635D01*
X-49717Y174550D01*
X-49642Y174468D01*
X-49563Y174388D01*
X-49482Y174311D01*
X-49399Y174238D01*
X-49313Y174167D01*
X-49224Y174099D01*
X-49133Y174034D01*
X-49040Y173973D01*
X-48945Y173915D01*
X-48847Y173860D01*
X-48748Y173809D01*
X-48647Y173761D01*
X-48545Y173717D01*
X-48441Y173677D01*
X-48335Y173640D01*
X-48229Y173607D01*
X-48121Y173578D01*
X-48012Y173553D01*
X-47903Y173531D01*
X-47793Y173513D01*
X-47682Y173500D01*
X-47571Y173490D01*
X-47460Y173484D01*
X-47348Y173482D01*
X-43284Y173482D01*
X-43284Y181610D01*
X-43286Y181711D01*
X-43292Y181812D01*
X-43301Y181913D01*
X-43314Y182014D01*
X-43331Y182114D01*
X-43352Y182213D01*
X-43376Y182311D01*
X-43404Y182408D01*
X-43436Y182505D01*
X-43471Y182600D01*
X-43510Y182693D01*
X-43552Y182785D01*
X-43598Y182876D01*
X-43647Y182965D01*
X-43699Y183051D01*
X-43755Y183136D01*
X-43813Y183219D01*
X-43875Y183299D01*
X-43940Y183377D01*
X-44007Y183453D01*
X-44077Y183526D01*
X-44150Y183596D01*
X-44226Y183663D01*
X-44304Y183728D01*
X-44384Y183790D01*
X-44467Y183848D01*
X-44552Y183904D01*
X-44639Y183956D01*
X-44727Y184005D01*
X-44818Y184051D01*
X-44910Y184093D01*
X-45003Y184132D01*
X-45098Y184167D01*
X-45195Y184199D01*
X-45292Y184227D01*
X-45390Y184251D01*
X-45489Y184272D01*
X-45589Y184289D01*
X-45690Y184302D01*
X-45791Y184311D01*
X-45892Y184317D01*
X-45993Y184319D01*
X-49606Y184319D01*
X-35761Y184319D02*
X-35761Y173482D01*
X-35761Y184319D02*
X-30343Y184319D01*
X-30343Y182513D01*
X-24736Y189738D02*
X-24736Y173482D01*
X-24736Y178901D02*
X-17511Y184319D01*
X-21575Y181158D02*
X-17511Y173482D01*
X-121158Y163068D02*
X-121158Y146812D01*
X-121158Y163068D02*
X-116642Y163068D01*
X-116511Y163066D01*
X-116379Y163060D01*
X-116248Y163051D01*
X-116118Y163037D01*
X-115987Y163020D01*
X-115858Y162999D01*
X-115729Y162975D01*
X-115601Y162946D01*
X-115473Y162914D01*
X-115347Y162878D01*
X-115222Y162839D01*
X-115097Y162796D01*
X-114975Y162749D01*
X-114853Y162699D01*
X-114733Y162645D01*
X-114615Y162588D01*
X-114499Y162527D01*
X-114384Y162463D01*
X-114271Y162396D01*
X-114160Y162325D01*
X-114052Y162251D01*
X-113945Y162174D01*
X-113841Y162094D01*
X-113739Y162011D01*
X-113640Y161926D01*
X-113543Y161837D01*
X-113449Y161745D01*
X-113357Y161651D01*
X-113268Y161554D01*
X-113183Y161455D01*
X-113100Y161353D01*
X-113020Y161249D01*
X-112943Y161142D01*
X-112869Y161034D01*
X-112798Y160923D01*
X-112731Y160810D01*
X-112667Y160695D01*
X-112606Y160579D01*
X-112549Y160461D01*
X-112495Y160341D01*
X-112445Y160219D01*
X-112398Y160097D01*
X-112355Y159972D01*
X-112316Y159847D01*
X-112280Y159721D01*
X-112248Y159593D01*
X-112219Y159465D01*
X-112195Y159336D01*
X-112174Y159207D01*
X-112157Y159076D01*
X-112143Y158946D01*
X-112134Y158815D01*
X-112128Y158683D01*
X-112126Y158552D01*
X-112127Y158552D02*
X-112127Y151328D01*
X-112126Y151328D02*
X-112128Y151197D01*
X-112134Y151065D01*
X-112143Y150934D01*
X-112157Y150804D01*
X-112174Y150673D01*
X-112195Y150544D01*
X-112219Y150415D01*
X-112248Y150287D01*
X-112280Y150159D01*
X-112316Y150033D01*
X-112355Y149908D01*
X-112398Y149783D01*
X-112445Y149661D01*
X-112495Y149539D01*
X-112549Y149419D01*
X-112606Y149301D01*
X-112667Y149185D01*
X-112731Y149070D01*
X-112798Y148957D01*
X-112869Y148846D01*
X-112943Y148738D01*
X-113020Y148631D01*
X-113100Y148527D01*
X-113183Y148425D01*
X-113268Y148326D01*
X-113357Y148229D01*
X-113449Y148135D01*
X-113543Y148043D01*
X-113640Y147954D01*
X-113739Y147869D01*
X-113841Y147786D01*
X-113945Y147706D01*
X-114052Y147629D01*
X-114160Y147555D01*
X-114271Y147484D01*
X-114384Y147417D01*
X-114499Y147353D01*
X-114615Y147292D01*
X-114733Y147235D01*
X-114853Y147181D01*
X-114975Y147131D01*
X-115097Y147084D01*
X-115222Y147041D01*
X-115347Y147002D01*
X-115473Y146966D01*
X-115601Y146934D01*
X-115729Y146905D01*
X-115858Y146881D01*
X-115987Y146860D01*
X-116118Y146843D01*
X-116248Y146829D01*
X-116379Y146820D01*
X-116511Y146814D01*
X-116642Y146812D01*
X-121158Y146812D01*
X-104624Y146812D02*
X-104624Y163068D01*
X-104624Y157649D02*
X-100108Y157649D01*
X-100004Y157647D01*
X-99901Y157641D01*
X-99797Y157631D01*
X-99694Y157617D01*
X-99592Y157599D01*
X-99491Y157578D01*
X-99390Y157552D01*
X-99291Y157523D01*
X-99192Y157490D01*
X-99095Y157453D01*
X-99000Y157412D01*
X-98906Y157368D01*
X-98814Y157320D01*
X-98724Y157269D01*
X-98635Y157214D01*
X-98549Y157156D01*
X-98466Y157094D01*
X-98384Y157030D01*
X-98306Y156962D01*
X-98230Y156892D01*
X-98156Y156819D01*
X-98086Y156742D01*
X-98018Y156664D01*
X-97954Y156582D01*
X-97892Y156499D01*
X-97834Y156413D01*
X-97779Y156324D01*
X-97728Y156234D01*
X-97680Y156142D01*
X-97636Y156048D01*
X-97595Y155953D01*
X-97558Y155856D01*
X-97525Y155757D01*
X-97496Y155658D01*
X-97470Y155557D01*
X-97449Y155456D01*
X-97431Y155354D01*
X-97417Y155251D01*
X-97407Y155147D01*
X-97401Y155044D01*
X-97399Y154940D01*
X-97399Y146812D01*
X-87468Y153134D02*
X-83404Y153134D01*
X-87468Y153134D02*
X-87580Y153132D01*
X-87691Y153126D01*
X-87802Y153116D01*
X-87913Y153103D01*
X-88023Y153085D01*
X-88132Y153063D01*
X-88241Y153038D01*
X-88349Y153009D01*
X-88455Y152976D01*
X-88561Y152939D01*
X-88665Y152899D01*
X-88767Y152855D01*
X-88868Y152807D01*
X-88967Y152756D01*
X-89065Y152701D01*
X-89160Y152643D01*
X-89253Y152582D01*
X-89344Y152517D01*
X-89433Y152449D01*
X-89519Y152378D01*
X-89602Y152305D01*
X-89683Y152228D01*
X-89762Y152148D01*
X-89837Y152066D01*
X-89909Y151981D01*
X-89979Y151894D01*
X-90045Y151804D01*
X-90108Y151712D01*
X-90168Y151617D01*
X-90224Y151521D01*
X-90277Y151423D01*
X-90326Y151323D01*
X-90372Y151221D01*
X-90414Y151118D01*
X-90453Y151013D01*
X-90488Y150907D01*
X-90519Y150800D01*
X-90546Y150692D01*
X-90570Y150583D01*
X-90589Y150473D01*
X-90605Y150363D01*
X-90617Y150252D01*
X-90625Y150140D01*
X-90629Y150029D01*
X-90629Y149917D01*
X-90625Y149806D01*
X-90617Y149694D01*
X-90605Y149583D01*
X-90589Y149473D01*
X-90570Y149363D01*
X-90546Y149254D01*
X-90519Y149146D01*
X-90488Y149039D01*
X-90453Y148933D01*
X-90414Y148828D01*
X-90372Y148725D01*
X-90326Y148623D01*
X-90277Y148523D01*
X-90224Y148425D01*
X-90168Y148329D01*
X-90108Y148234D01*
X-90045Y148142D01*
X-89979Y148052D01*
X-89909Y147965D01*
X-89837Y147880D01*
X-89762Y147798D01*
X-89683Y147718D01*
X-89602Y147641D01*
X-89519Y147568D01*
X-89433Y147497D01*
X-89344Y147429D01*
X-89253Y147364D01*
X-89160Y147303D01*
X-89065Y147245D01*
X-88967Y147190D01*
X-88868Y147139D01*
X-88767Y147091D01*
X-88665Y147047D01*
X-88561Y147007D01*
X-88455Y146970D01*
X-88349Y146937D01*
X-88241Y146908D01*
X-88132Y146883D01*
X-88023Y146861D01*
X-87913Y146843D01*
X-87802Y146830D01*
X-87691Y146820D01*
X-87580Y146814D01*
X-87468Y146812D01*
X-83404Y146812D01*
X-83404Y154940D01*
X-83406Y155041D01*
X-83412Y155142D01*
X-83421Y155243D01*
X-83434Y155344D01*
X-83451Y155444D01*
X-83472Y155543D01*
X-83496Y155641D01*
X-83524Y155738D01*
X-83556Y155835D01*
X-83591Y155930D01*
X-83630Y156023D01*
X-83672Y156115D01*
X-83718Y156206D01*
X-83767Y156295D01*
X-83819Y156381D01*
X-83875Y156466D01*
X-83933Y156549D01*
X-83995Y156629D01*
X-84060Y156707D01*
X-84127Y156783D01*
X-84197Y156856D01*
X-84270Y156926D01*
X-84346Y156993D01*
X-84424Y157058D01*
X-84504Y157120D01*
X-84587Y157178D01*
X-84672Y157234D01*
X-84759Y157286D01*
X-84847Y157335D01*
X-84938Y157381D01*
X-85030Y157423D01*
X-85123Y157462D01*
X-85218Y157497D01*
X-85315Y157529D01*
X-85412Y157557D01*
X-85510Y157581D01*
X-85609Y157602D01*
X-85709Y157619D01*
X-85810Y157632D01*
X-85911Y157641D01*
X-86012Y157647D01*
X-86113Y157649D01*
X-89726Y157649D01*
X-75966Y157649D02*
X-75966Y146812D01*
X-75966Y157649D02*
X-71451Y157649D01*
X-71347Y157647D01*
X-71244Y157641D01*
X-71140Y157631D01*
X-71037Y157617D01*
X-70935Y157599D01*
X-70834Y157578D01*
X-70733Y157552D01*
X-70634Y157523D01*
X-70535Y157490D01*
X-70438Y157453D01*
X-70343Y157412D01*
X-70249Y157368D01*
X-70157Y157320D01*
X-70067Y157269D01*
X-69978Y157214D01*
X-69892Y157156D01*
X-69809Y157094D01*
X-69727Y157030D01*
X-69649Y156962D01*
X-69573Y156892D01*
X-69499Y156819D01*
X-69429Y156742D01*
X-69361Y156664D01*
X-69297Y156582D01*
X-69235Y156499D01*
X-69177Y156413D01*
X-69122Y156324D01*
X-69071Y156234D01*
X-69023Y156142D01*
X-68979Y156048D01*
X-68938Y155953D01*
X-68901Y155856D01*
X-68868Y155757D01*
X-68839Y155658D01*
X-68813Y155557D01*
X-68792Y155456D01*
X-68774Y155354D01*
X-68760Y155251D01*
X-68750Y155147D01*
X-68744Y155044D01*
X-68742Y154940D01*
X-68742Y146812D01*
X-58807Y146812D02*
X-62419Y157649D01*
X-55195Y157649D02*
X-58807Y146812D01*
X-49428Y146812D02*
X-49428Y157649D01*
X-49880Y162165D02*
X-49880Y163068D01*
X-48977Y163068D01*
X-48977Y162165D01*
X-49880Y162165D01*
X-42620Y157649D02*
X-42620Y146812D01*
X-42620Y157649D02*
X-38104Y157649D01*
X-38000Y157647D01*
X-37897Y157641D01*
X-37793Y157631D01*
X-37690Y157617D01*
X-37588Y157599D01*
X-37487Y157578D01*
X-37386Y157552D01*
X-37287Y157523D01*
X-37188Y157490D01*
X-37091Y157453D01*
X-36996Y157412D01*
X-36902Y157368D01*
X-36810Y157320D01*
X-36720Y157269D01*
X-36631Y157214D01*
X-36545Y157156D01*
X-36462Y157094D01*
X-36380Y157030D01*
X-36302Y156962D01*
X-36226Y156892D01*
X-36152Y156819D01*
X-36082Y156742D01*
X-36014Y156664D01*
X-35950Y156582D01*
X-35888Y156499D01*
X-35830Y156413D01*
X-35775Y156324D01*
X-35724Y156234D01*
X-35676Y156142D01*
X-35632Y156048D01*
X-35591Y155953D01*
X-35554Y155856D01*
X-35521Y155757D01*
X-35492Y155658D01*
X-35466Y155557D01*
X-35445Y155456D01*
X-35427Y155354D01*
X-35413Y155251D01*
X-35403Y155147D01*
X-35397Y155044D01*
X-35395Y154940D01*
X-35395Y146812D01*
X-27862Y146812D02*
X-27862Y163068D01*
X-20637Y157649D02*
X-27862Y152231D01*
X-24701Y154488D02*
X-20637Y146812D01*
X-121158Y136398D02*
X-121158Y120142D01*
X-115739Y127367D02*
X-121158Y136398D01*
X-115739Y127367D02*
X-110321Y136398D01*
X-110321Y120142D01*
X-102510Y120142D02*
X-95285Y120142D01*
X-102510Y120142D02*
X-102510Y136398D01*
X-95285Y136398D01*
X-97091Y129173D02*
X-102510Y129173D01*
X-88963Y120142D02*
X-81738Y120142D01*
X-88963Y120142D02*
X-88963Y136398D01*
X-81738Y136398D01*
X-83544Y129173D02*
X-88963Y129173D01*
X-75966Y123754D02*
X-72354Y136398D01*
X-75966Y123754D02*
X-66935Y123754D01*
X-69645Y120142D02*
X-69645Y127367D01*
X-56723Y127367D02*
X-51304Y127367D01*
X-56723Y127367D02*
X-56841Y127369D01*
X-56959Y127375D01*
X-57077Y127384D01*
X-57194Y127398D01*
X-57311Y127415D01*
X-57428Y127436D01*
X-57543Y127461D01*
X-57658Y127490D01*
X-57772Y127523D01*
X-57884Y127559D01*
X-57995Y127599D01*
X-58105Y127642D01*
X-58214Y127689D01*
X-58321Y127739D01*
X-58426Y127794D01*
X-58529Y127851D01*
X-58630Y127912D01*
X-58730Y127976D01*
X-58827Y128043D01*
X-58922Y128113D01*
X-59014Y128187D01*
X-59105Y128263D01*
X-59192Y128343D01*
X-59277Y128425D01*
X-59359Y128510D01*
X-59439Y128597D01*
X-59515Y128688D01*
X-59589Y128780D01*
X-59659Y128875D01*
X-59726Y128972D01*
X-59790Y129072D01*
X-59851Y129173D01*
X-59908Y129276D01*
X-59963Y129381D01*
X-60013Y129488D01*
X-60060Y129597D01*
X-60103Y129707D01*
X-60143Y129818D01*
X-60179Y129930D01*
X-60212Y130044D01*
X-60241Y130159D01*
X-60266Y130274D01*
X-60287Y130391D01*
X-60304Y130508D01*
X-60318Y130625D01*
X-60327Y130743D01*
X-60333Y130861D01*
X-60335Y130979D01*
X-60335Y131882D01*
X-60336Y131882D02*
X-60334Y132015D01*
X-60328Y132147D01*
X-60318Y132279D01*
X-60305Y132411D01*
X-60287Y132543D01*
X-60266Y132673D01*
X-60241Y132804D01*
X-60212Y132933D01*
X-60179Y133061D01*
X-60143Y133189D01*
X-60103Y133315D01*
X-60059Y133440D01*
X-60011Y133564D01*
X-59960Y133686D01*
X-59905Y133807D01*
X-59847Y133926D01*
X-59785Y134044D01*
X-59720Y134159D01*
X-59651Y134273D01*
X-59580Y134384D01*
X-59504Y134493D01*
X-59426Y134600D01*
X-59345Y134705D01*
X-59260Y134807D01*
X-59173Y134907D01*
X-59083Y135004D01*
X-58990Y135099D01*
X-58894Y135190D01*
X-58796Y135279D01*
X-58695Y135365D01*
X-58591Y135448D01*
X-58485Y135528D01*
X-58377Y135604D01*
X-58267Y135678D01*
X-58154Y135748D01*
X-58040Y135815D01*
X-57923Y135878D01*
X-57805Y135938D01*
X-57685Y135995D01*
X-57563Y136048D01*
X-57440Y136097D01*
X-57316Y136143D01*
X-57190Y136185D01*
X-57063Y136223D01*
X-56935Y136258D01*
X-56806Y136289D01*
X-56677Y136316D01*
X-56546Y136339D01*
X-56415Y136359D01*
X-56283Y136374D01*
X-56151Y136386D01*
X-56019Y136394D01*
X-55886Y136398D01*
X-55754Y136398D01*
X-55621Y136394D01*
X-55489Y136386D01*
X-55357Y136374D01*
X-55225Y136359D01*
X-55094Y136339D01*
X-54963Y136316D01*
X-54834Y136289D01*
X-54705Y136258D01*
X-54577Y136223D01*
X-54450Y136185D01*
X-54324Y136143D01*
X-54200Y136097D01*
X-54077Y136048D01*
X-53955Y135995D01*
X-53835Y135938D01*
X-53717Y135878D01*
X-53600Y135815D01*
X-53486Y135748D01*
X-53373Y135678D01*
X-53263Y135604D01*
X-53155Y135528D01*
X-53049Y135448D01*
X-52945Y135365D01*
X-52844Y135279D01*
X-52746Y135190D01*
X-52650Y135099D01*
X-52557Y135004D01*
X-52467Y134907D01*
X-52380Y134807D01*
X-52295Y134705D01*
X-52214Y134600D01*
X-52136Y134493D01*
X-52060Y134384D01*
X-51989Y134273D01*
X-51920Y134159D01*
X-51855Y134044D01*
X-51793Y133926D01*
X-51735Y133807D01*
X-51680Y133686D01*
X-51629Y133564D01*
X-51581Y133440D01*
X-51537Y133315D01*
X-51497Y133189D01*
X-51461Y133061D01*
X-51428Y132933D01*
X-51399Y132804D01*
X-51374Y132673D01*
X-51353Y132543D01*
X-51335Y132411D01*
X-51322Y132279D01*
X-51312Y132147D01*
X-51306Y132015D01*
X-51304Y131882D01*
X-51304Y127367D01*
X-51306Y127192D01*
X-51312Y127018D01*
X-51323Y126844D01*
X-51338Y126670D01*
X-51357Y126496D01*
X-51380Y126323D01*
X-51407Y126151D01*
X-51439Y125979D01*
X-51474Y125808D01*
X-51514Y125638D01*
X-51558Y125469D01*
X-51606Y125301D01*
X-51658Y125134D01*
X-51714Y124969D01*
X-51774Y124805D01*
X-51837Y124642D01*
X-51905Y124482D01*
X-51977Y124322D01*
X-52052Y124165D01*
X-52132Y124009D01*
X-52215Y123856D01*
X-52301Y123704D01*
X-52392Y123555D01*
X-52486Y123408D01*
X-52583Y123263D01*
X-52684Y123120D01*
X-52788Y122980D01*
X-52896Y122843D01*
X-53007Y122708D01*
X-53121Y122576D01*
X-53238Y122447D01*
X-53359Y122320D01*
X-53482Y122197D01*
X-53609Y122076D01*
X-53738Y121959D01*
X-53870Y121845D01*
X-54005Y121734D01*
X-54142Y121626D01*
X-54282Y121522D01*
X-54425Y121421D01*
X-54570Y121324D01*
X-54717Y121230D01*
X-54866Y121139D01*
X-55018Y121053D01*
X-55171Y120970D01*
X-55327Y120890D01*
X-55484Y120815D01*
X-55644Y120743D01*
X-55804Y120675D01*
X-55967Y120612D01*
X-56131Y120552D01*
X-56296Y120496D01*
X-56463Y120444D01*
X-56631Y120396D01*
X-56800Y120352D01*
X-56970Y120312D01*
X-57141Y120277D01*
X-57313Y120245D01*
X-57485Y120218D01*
X-57658Y120195D01*
X-57832Y120176D01*
X-58006Y120161D01*
X-58180Y120150D01*
X-58354Y120144D01*
X-58529Y120142D01*
X-41092Y127367D02*
X-35673Y127367D01*
X-41092Y127367D02*
X-41210Y127369D01*
X-41328Y127375D01*
X-41446Y127384D01*
X-41563Y127398D01*
X-41680Y127415D01*
X-41797Y127436D01*
X-41912Y127461D01*
X-42027Y127490D01*
X-42141Y127523D01*
X-42253Y127559D01*
X-42364Y127599D01*
X-42474Y127642D01*
X-42583Y127689D01*
X-42690Y127739D01*
X-42795Y127794D01*
X-42898Y127851D01*
X-42999Y127912D01*
X-43099Y127976D01*
X-43196Y128043D01*
X-43291Y128113D01*
X-43383Y128187D01*
X-43474Y128263D01*
X-43561Y128343D01*
X-43646Y128425D01*
X-43728Y128510D01*
X-43808Y128597D01*
X-43884Y128688D01*
X-43958Y128780D01*
X-44028Y128875D01*
X-44095Y128972D01*
X-44159Y129072D01*
X-44220Y129173D01*
X-44277Y129276D01*
X-44332Y129381D01*
X-44382Y129488D01*
X-44429Y129597D01*
X-44472Y129707D01*
X-44512Y129818D01*
X-44548Y129930D01*
X-44581Y130044D01*
X-44610Y130159D01*
X-44635Y130274D01*
X-44656Y130391D01*
X-44673Y130508D01*
X-44687Y130625D01*
X-44696Y130743D01*
X-44702Y130861D01*
X-44704Y130979D01*
X-44704Y131882D01*
X-44702Y132015D01*
X-44696Y132147D01*
X-44686Y132279D01*
X-44673Y132411D01*
X-44655Y132543D01*
X-44634Y132673D01*
X-44609Y132804D01*
X-44580Y132933D01*
X-44547Y133061D01*
X-44511Y133189D01*
X-44471Y133315D01*
X-44427Y133440D01*
X-44379Y133564D01*
X-44328Y133686D01*
X-44273Y133807D01*
X-44215Y133926D01*
X-44153Y134044D01*
X-44088Y134159D01*
X-44019Y134273D01*
X-43948Y134384D01*
X-43872Y134493D01*
X-43794Y134600D01*
X-43713Y134705D01*
X-43628Y134807D01*
X-43541Y134907D01*
X-43451Y135004D01*
X-43358Y135099D01*
X-43262Y135190D01*
X-43164Y135279D01*
X-43063Y135365D01*
X-42959Y135448D01*
X-42853Y135528D01*
X-42745Y135604D01*
X-42635Y135678D01*
X-42522Y135748D01*
X-42408Y135815D01*
X-42291Y135878D01*
X-42173Y135938D01*
X-42053Y135995D01*
X-41931Y136048D01*
X-41808Y136097D01*
X-41684Y136143D01*
X-41558Y136185D01*
X-41431Y136223D01*
X-41303Y136258D01*
X-41174Y136289D01*
X-41045Y136316D01*
X-40914Y136339D01*
X-40783Y136359D01*
X-40651Y136374D01*
X-40519Y136386D01*
X-40387Y136394D01*
X-40254Y136398D01*
X-40122Y136398D01*
X-39989Y136394D01*
X-39857Y136386D01*
X-39725Y136374D01*
X-39593Y136359D01*
X-39462Y136339D01*
X-39331Y136316D01*
X-39202Y136289D01*
X-39073Y136258D01*
X-38945Y136223D01*
X-38818Y136185D01*
X-38692Y136143D01*
X-38568Y136097D01*
X-38445Y136048D01*
X-38323Y135995D01*
X-38203Y135938D01*
X-38085Y135878D01*
X-37968Y135815D01*
X-37854Y135748D01*
X-37741Y135678D01*
X-37631Y135604D01*
X-37523Y135528D01*
X-37417Y135448D01*
X-37313Y135365D01*
X-37212Y135279D01*
X-37114Y135190D01*
X-37018Y135099D01*
X-36925Y135004D01*
X-36835Y134907D01*
X-36748Y134807D01*
X-36663Y134705D01*
X-36582Y134600D01*
X-36504Y134493D01*
X-36428Y134384D01*
X-36357Y134273D01*
X-36288Y134159D01*
X-36223Y134044D01*
X-36161Y133926D01*
X-36103Y133807D01*
X-36048Y133686D01*
X-35997Y133564D01*
X-35949Y133440D01*
X-35905Y133315D01*
X-35865Y133189D01*
X-35829Y133061D01*
X-35796Y132933D01*
X-35767Y132804D01*
X-35742Y132673D01*
X-35721Y132543D01*
X-35703Y132411D01*
X-35690Y132279D01*
X-35680Y132147D01*
X-35674Y132015D01*
X-35672Y131882D01*
X-35673Y131882D02*
X-35673Y127367D01*
X-35675Y127192D01*
X-35681Y127018D01*
X-35692Y126844D01*
X-35707Y126670D01*
X-35726Y126496D01*
X-35749Y126323D01*
X-35776Y126151D01*
X-35808Y125979D01*
X-35843Y125808D01*
X-35883Y125638D01*
X-35927Y125469D01*
X-35975Y125301D01*
X-36027Y125134D01*
X-36083Y124969D01*
X-36143Y124805D01*
X-36206Y124642D01*
X-36274Y124482D01*
X-36346Y124322D01*
X-36421Y124165D01*
X-36501Y124009D01*
X-36584Y123856D01*
X-36670Y123704D01*
X-36761Y123555D01*
X-36855Y123408D01*
X-36952Y123263D01*
X-37053Y123120D01*
X-37157Y122980D01*
X-37265Y122843D01*
X-37376Y122708D01*
X-37490Y122576D01*
X-37607Y122447D01*
X-37728Y122320D01*
X-37851Y122197D01*
X-37978Y122076D01*
X-38107Y121959D01*
X-38239Y121845D01*
X-38374Y121734D01*
X-38511Y121626D01*
X-38651Y121522D01*
X-38794Y121421D01*
X-38939Y121324D01*
X-39086Y121230D01*
X-39235Y121139D01*
X-39387Y121053D01*
X-39540Y120970D01*
X-39696Y120890D01*
X-39853Y120815D01*
X-40013Y120743D01*
X-40173Y120675D01*
X-40336Y120612D01*
X-40500Y120552D01*
X-40665Y120496D01*
X-40832Y120444D01*
X-41000Y120396D01*
X-41169Y120352D01*
X-41339Y120312D01*
X-41510Y120277D01*
X-41682Y120245D01*
X-41854Y120218D01*
X-42027Y120195D01*
X-42201Y120176D01*
X-42375Y120161D01*
X-42549Y120150D01*
X-42723Y120144D01*
X-42898Y120142D01*
X-395021Y12700D02*
X-394902Y22394D01*
X-394545Y32083D01*
X-393951Y41760D01*
X-393119Y51419D01*
X-392050Y61055D01*
X-390745Y70662D01*
X-389205Y80234D01*
X-387431Y89765D01*
X-385423Y99250D01*
X-383183Y108682D01*
X-380712Y118057D01*
X-378012Y127369D01*
X-375084Y136611D01*
X-371930Y145779D01*
X-368552Y154866D01*
X-364952Y163868D01*
X-361132Y172779D01*
X-357095Y181593D01*
X-352842Y190306D01*
X-348377Y198912D01*
X-343703Y207405D01*
X-338821Y215781D01*
X-333735Y224035D01*
X-328448Y232162D01*
X-322963Y240156D01*
X-317284Y248014D01*
X-311413Y255729D01*
X-305355Y263299D01*
X-299113Y270717D01*
X-292691Y277980D01*
X-286093Y285083D01*
X-279322Y292022D01*
X-272383Y298793D01*
X-265280Y305391D01*
X-258017Y311813D01*
X-250599Y318055D01*
X-243029Y324113D01*
X-235314Y329984D01*
X-227456Y335663D01*
X-219462Y341148D01*
X-211335Y346435D01*
X-203081Y351521D01*
X-194705Y356403D01*
X-186212Y361077D01*
X-177606Y365542D01*
X-168893Y369795D01*
X-160079Y373832D01*
X-151168Y377652D01*
X-142166Y381252D01*
X-133079Y384630D01*
X-123911Y387784D01*
X-114669Y390712D01*
X-105357Y393412D01*
X-95982Y395883D01*
X-86550Y398123D01*
X-77065Y400131D01*
X-67534Y401905D01*
X-57962Y403445D01*
X-48355Y404750D01*
X-38719Y405819D01*
X-29060Y406651D01*
X-19383Y407245D01*
X-9694Y407602D01*
X0Y407721D01*
X9694Y407602D01*
X19383Y407245D01*
X29060Y406651D01*
X38719Y405819D01*
X48355Y404750D01*
X57962Y403445D01*
X67534Y401905D01*
X77065Y400131D01*
X86550Y398123D01*
X95982Y395883D01*
X105357Y393412D01*
X114669Y390712D01*
X123911Y387784D01*
X133079Y384630D01*
X142166Y381252D01*
X151168Y377652D01*
X160079Y373832D01*
X168893Y369795D01*
X177606Y365542D01*
X186212Y361077D01*
X194705Y356403D01*
X203081Y351521D01*
X211335Y346435D01*
X219462Y341148D01*
X227456Y335663D01*
X235314Y329984D01*
X243029Y324113D01*
X250599Y318055D01*
X258017Y311813D01*
X265280Y305391D01*
X272383Y298793D01*
X279322Y292022D01*
X286093Y285083D01*
X292691Y277980D01*
X299113Y270717D01*
X305355Y263299D01*
X311413Y255729D01*
X317284Y248014D01*
X322963Y240156D01*
X328448Y232162D01*
X333735Y224035D01*
X338821Y215781D01*
X343703Y207405D01*
X348377Y198912D01*
X352842Y190306D01*
X357095Y181593D01*
X361132Y172779D01*
X364952Y163868D01*
X368552Y154866D01*
X371930Y145779D01*
X375084Y136611D01*
X378012Y127369D01*
X380712Y118057D01*
X383183Y108682D01*
X385423Y99250D01*
X387431Y89765D01*
X389205Y80234D01*
X390745Y70662D01*
X392050Y61055D01*
X393119Y51419D01*
X393951Y41760D01*
X394545Y32083D01*
X394902Y22394D01*
X395021Y12700D01*
X394902Y3006D01*
X394545Y-6683D01*
X393951Y-16360D01*
X393119Y-26019D01*
X392050Y-35655D01*
X390745Y-45262D01*
X389205Y-54834D01*
X387431Y-64365D01*
X385423Y-73850D01*
X383183Y-83282D01*
X380712Y-92657D01*
X378012Y-101969D01*
X375084Y-111211D01*
X371930Y-120379D01*
X368552Y-129466D01*
X364952Y-138468D01*
X361132Y-147379D01*
X357095Y-156193D01*
X352842Y-164906D01*
X348377Y-173512D01*
X343703Y-182005D01*
X338821Y-190381D01*
X333735Y-198635D01*
X328448Y-206762D01*
X322963Y-214756D01*
X317284Y-222614D01*
X311413Y-230329D01*
X305355Y-237899D01*
X299113Y-245317D01*
X292691Y-252580D01*
X286093Y-259683D01*
X279322Y-266622D01*
X272383Y-273393D01*
X265280Y-279991D01*
X258017Y-286413D01*
X250599Y-292655D01*
X243029Y-298713D01*
X235314Y-304584D01*
X227456Y-310263D01*
X219462Y-315748D01*
X211335Y-321035D01*
X203081Y-326121D01*
X194705Y-331003D01*
X186212Y-335677D01*
X177606Y-340142D01*
X168893Y-344395D01*
X160079Y-348432D01*
X151168Y-352252D01*
X142166Y-355852D01*
X133079Y-359230D01*
X123911Y-362384D01*
X114669Y-365312D01*
X105357Y-368012D01*
X95982Y-370483D01*
X86550Y-372723D01*
X77065Y-374731D01*
X67534Y-376505D01*
X57962Y-378045D01*
X48355Y-379350D01*
X38719Y-380419D01*
X29060Y-381251D01*
X19383Y-381845D01*
X9694Y-382202D01*
X0Y-382321D01*
X-9694Y-382202D01*
X-19383Y-381845D01*
X-29060Y-381251D01*
X-38719Y-380419D01*
X-48355Y-379350D01*
X-57962Y-378045D01*
X-67534Y-376505D01*
X-77065Y-374731D01*
X-86550Y-372723D01*
X-95982Y-370483D01*
X-105357Y-368012D01*
X-114669Y-365312D01*
X-123911Y-362384D01*
X-133079Y-359230D01*
X-142166Y-355852D01*
X-151168Y-352252D01*
X-160079Y-348432D01*
X-168893Y-344395D01*
X-177606Y-340142D01*
X-186212Y-335677D01*
X-194705Y-331003D01*
X-203081Y-326121D01*
X-211335Y-321035D01*
X-219462Y-315748D01*
X-227456Y-310263D01*
X-235314Y-304584D01*
X-243029Y-298713D01*
X-250599Y-292655D01*
X-258017Y-286413D01*
X-265280Y-279991D01*
X-272383Y-273393D01*
X-279322Y-266622D01*
X-286093Y-259683D01*
X-292691Y-252580D01*
X-299113Y-245317D01*
X-305355Y-237899D01*
X-311413Y-230329D01*
X-317284Y-222614D01*
X-322963Y-214756D01*
X-328448Y-206762D01*
X-333735Y-198635D01*
X-338821Y-190381D01*
X-343703Y-182005D01*
X-348377Y-173512D01*
X-352842Y-164906D01*
X-357095Y-156193D01*
X-361132Y-147379D01*
X-364952Y-138468D01*
X-368552Y-129466D01*
X-371930Y-120379D01*
X-375084Y-111211D01*
X-378012Y-101969D01*
X-380712Y-92657D01*
X-383183Y-83282D01*
X-385423Y-73850D01*
X-387431Y-64365D01*
X-389205Y-54834D01*
X-390745Y-45262D01*
X-392050Y-35655D01*
X-393119Y-26019D01*
X-393951Y-16360D01*
X-394545Y-6683D01*
X-394902Y3006D01*
X-395021Y12700D01*
X130810Y-254000D02*
X173990Y-254000D01*
X173990Y-228600D02*
X130810Y-228600D01*
X128270Y-231140D02*
X128270Y-251460D01*
X176530Y-251460D02*
X176530Y-231140D01*
X130810Y-254000D02*
X130710Y-253998D01*
X130611Y-253992D01*
X130511Y-253982D01*
X130413Y-253969D01*
X130314Y-253951D01*
X130217Y-253930D01*
X130121Y-253905D01*
X130025Y-253876D01*
X129931Y-253843D01*
X129838Y-253807D01*
X129747Y-253767D01*
X129657Y-253723D01*
X129569Y-253676D01*
X129483Y-253626D01*
X129399Y-253572D01*
X129317Y-253515D01*
X129238Y-253455D01*
X129160Y-253391D01*
X129086Y-253325D01*
X129014Y-253256D01*
X128945Y-253184D01*
X128879Y-253110D01*
X128815Y-253032D01*
X128755Y-252953D01*
X128698Y-252871D01*
X128644Y-252787D01*
X128594Y-252701D01*
X128547Y-252613D01*
X128503Y-252523D01*
X128463Y-252432D01*
X128427Y-252339D01*
X128394Y-252245D01*
X128365Y-252149D01*
X128340Y-252053D01*
X128319Y-251956D01*
X128301Y-251857D01*
X128288Y-251759D01*
X128278Y-251659D01*
X128272Y-251560D01*
X128270Y-251460D01*
X173990Y-254000D02*
X174090Y-253998D01*
X174189Y-253992D01*
X174289Y-253982D01*
X174387Y-253969D01*
X174486Y-253951D01*
X174583Y-253930D01*
X174679Y-253905D01*
X174775Y-253876D01*
X174869Y-253843D01*
X174962Y-253807D01*
X175053Y-253767D01*
X175143Y-253723D01*
X175231Y-253676D01*
X175317Y-253626D01*
X175401Y-253572D01*
X175483Y-253515D01*
X175562Y-253455D01*
X175640Y-253391D01*
X175714Y-253325D01*
X175786Y-253256D01*
X175855Y-253184D01*
X175921Y-253110D01*
X175985Y-253032D01*
X176045Y-252953D01*
X176102Y-252871D01*
X176156Y-252787D01*
X176206Y-252701D01*
X176253Y-252613D01*
X176297Y-252523D01*
X176337Y-252432D01*
X176373Y-252339D01*
X176406Y-252245D01*
X176435Y-252149D01*
X176460Y-252053D01*
X176481Y-251956D01*
X176499Y-251857D01*
X176512Y-251759D01*
X176522Y-251659D01*
X176528Y-251560D01*
X176530Y-251460D01*
X130810Y-228600D02*
X130710Y-228602D01*
X130611Y-228608D01*
X130511Y-228618D01*
X130413Y-228631D01*
X130314Y-228649D01*
X130217Y-228670D01*
X130121Y-228695D01*
X130025Y-228724D01*
X129931Y-228757D01*
X129838Y-228793D01*
X129747Y-228833D01*
X129657Y-228877D01*
X129569Y-228924D01*
X129483Y-228974D01*
X129399Y-229028D01*
X129317Y-229085D01*
X129238Y-229145D01*
X129160Y-229209D01*
X129086Y-229275D01*
X129014Y-229344D01*
X128945Y-229416D01*
X128879Y-229490D01*
X128815Y-229568D01*
X128755Y-229647D01*
X128698Y-229729D01*
X128644Y-229813D01*
X128594Y-229899D01*
X128547Y-229987D01*
X128503Y-230077D01*
X128463Y-230168D01*
X128427Y-230261D01*
X128394Y-230355D01*
X128365Y-230451D01*
X128340Y-230547D01*
X128319Y-230644D01*
X128301Y-230743D01*
X128288Y-230841D01*
X128278Y-230941D01*
X128272Y-231040D01*
X128270Y-231140D01*
X173990Y-228600D02*
X174090Y-228602D01*
X174189Y-228608D01*
X174289Y-228618D01*
X174387Y-228631D01*
X174486Y-228649D01*
X174583Y-228670D01*
X174679Y-228695D01*
X174775Y-228724D01*
X174869Y-228757D01*
X174962Y-228793D01*
X175053Y-228833D01*
X175143Y-228877D01*
X175231Y-228924D01*
X175317Y-228974D01*
X175401Y-229028D01*
X175483Y-229085D01*
X175562Y-229145D01*
X175640Y-229209D01*
X175714Y-229275D01*
X175786Y-229344D01*
X175855Y-229416D01*
X175921Y-229490D01*
X175985Y-229568D01*
X176045Y-229647D01*
X176102Y-229729D01*
X176156Y-229813D01*
X176206Y-229899D01*
X176253Y-229987D01*
X176297Y-230077D01*
X176337Y-230168D01*
X176373Y-230261D01*
X176406Y-230355D01*
X176435Y-230451D01*
X176460Y-230547D01*
X176481Y-230644D01*
X176499Y-230743D01*
X176512Y-230841D01*
X176522Y-230941D01*
X176528Y-231040D01*
X176530Y-231140D01*
X149860Y-241300D02*
X148590Y-241300D01*
D11*
X149860Y-241300D02*
X149860Y-248920D01*
X149860Y-241300D02*
X149860Y-233680D01*
X154940Y-241300D02*
X154940Y-248920D01*
X154940Y-241300D02*
X154940Y-233680D01*
D10*
X154940Y-241300D02*
X156210Y-241300D01*
X114300Y-224790D02*
X114300Y-181610D01*
X88900Y-181610D02*
X88900Y-224790D01*
X91440Y-227330D02*
X111760Y-227330D01*
X111760Y-179070D02*
X91440Y-179070D01*
X114300Y-224790D02*
X114298Y-224890D01*
X114292Y-224989D01*
X114282Y-225089D01*
X114269Y-225187D01*
X114251Y-225286D01*
X114230Y-225383D01*
X114205Y-225479D01*
X114176Y-225575D01*
X114143Y-225669D01*
X114107Y-225762D01*
X114067Y-225853D01*
X114023Y-225943D01*
X113976Y-226031D01*
X113926Y-226117D01*
X113872Y-226201D01*
X113815Y-226283D01*
X113755Y-226362D01*
X113691Y-226440D01*
X113625Y-226514D01*
X113556Y-226586D01*
X113484Y-226655D01*
X113410Y-226721D01*
X113332Y-226785D01*
X113253Y-226845D01*
X113171Y-226902D01*
X113087Y-226956D01*
X113001Y-227006D01*
X112913Y-227053D01*
X112823Y-227097D01*
X112732Y-227137D01*
X112639Y-227173D01*
X112545Y-227206D01*
X112449Y-227235D01*
X112353Y-227260D01*
X112256Y-227281D01*
X112157Y-227299D01*
X112059Y-227312D01*
X111959Y-227322D01*
X111860Y-227328D01*
X111760Y-227330D01*
X114300Y-181610D02*
X114298Y-181510D01*
X114292Y-181411D01*
X114282Y-181311D01*
X114269Y-181213D01*
X114251Y-181114D01*
X114230Y-181017D01*
X114205Y-180921D01*
X114176Y-180825D01*
X114143Y-180731D01*
X114107Y-180638D01*
X114067Y-180547D01*
X114023Y-180457D01*
X113976Y-180369D01*
X113926Y-180283D01*
X113872Y-180199D01*
X113815Y-180117D01*
X113755Y-180038D01*
X113691Y-179960D01*
X113625Y-179886D01*
X113556Y-179814D01*
X113484Y-179745D01*
X113410Y-179679D01*
X113332Y-179615D01*
X113253Y-179555D01*
X113171Y-179498D01*
X113087Y-179444D01*
X113001Y-179394D01*
X112913Y-179347D01*
X112823Y-179303D01*
X112732Y-179263D01*
X112639Y-179227D01*
X112545Y-179194D01*
X112449Y-179165D01*
X112353Y-179140D01*
X112256Y-179119D01*
X112157Y-179101D01*
X112059Y-179088D01*
X111959Y-179078D01*
X111860Y-179072D01*
X111760Y-179070D01*
X88900Y-224790D02*
X88902Y-224890D01*
X88908Y-224989D01*
X88918Y-225089D01*
X88931Y-225187D01*
X88949Y-225286D01*
X88970Y-225383D01*
X88995Y-225479D01*
X89024Y-225575D01*
X89057Y-225669D01*
X89093Y-225762D01*
X89133Y-225853D01*
X89177Y-225943D01*
X89224Y-226031D01*
X89274Y-226117D01*
X89328Y-226201D01*
X89385Y-226283D01*
X89445Y-226362D01*
X89509Y-226440D01*
X89575Y-226514D01*
X89644Y-226586D01*
X89716Y-226655D01*
X89790Y-226721D01*
X89868Y-226785D01*
X89947Y-226845D01*
X90029Y-226902D01*
X90113Y-226956D01*
X90199Y-227006D01*
X90287Y-227053D01*
X90377Y-227097D01*
X90468Y-227137D01*
X90561Y-227173D01*
X90655Y-227206D01*
X90751Y-227235D01*
X90847Y-227260D01*
X90944Y-227281D01*
X91043Y-227299D01*
X91141Y-227312D01*
X91241Y-227322D01*
X91340Y-227328D01*
X91440Y-227330D01*
X88900Y-181610D02*
X88902Y-181510D01*
X88908Y-181411D01*
X88918Y-181311D01*
X88931Y-181213D01*
X88949Y-181114D01*
X88970Y-181017D01*
X88995Y-180921D01*
X89024Y-180825D01*
X89057Y-180731D01*
X89093Y-180638D01*
X89133Y-180547D01*
X89177Y-180457D01*
X89224Y-180369D01*
X89274Y-180283D01*
X89328Y-180199D01*
X89385Y-180117D01*
X89445Y-180038D01*
X89509Y-179960D01*
X89575Y-179886D01*
X89644Y-179814D01*
X89716Y-179745D01*
X89790Y-179679D01*
X89868Y-179615D01*
X89947Y-179555D01*
X90029Y-179498D01*
X90113Y-179444D01*
X90199Y-179394D01*
X90287Y-179347D01*
X90377Y-179303D01*
X90468Y-179263D01*
X90561Y-179227D01*
X90655Y-179194D01*
X90751Y-179165D01*
X90847Y-179140D01*
X90944Y-179119D01*
X91043Y-179101D01*
X91141Y-179088D01*
X91241Y-179078D01*
X91340Y-179072D01*
X91440Y-179070D01*
X101600Y-205740D02*
X101600Y-207010D01*
D11*
X101600Y-205740D02*
X109220Y-205740D01*
X101600Y-205740D02*
X93980Y-205740D01*
X101600Y-200660D02*
X109220Y-200660D01*
X101600Y-200660D02*
X93980Y-200660D01*
D10*
X101600Y-200660D02*
X101600Y-199390D01*
X-54610Y317500D02*
X-97790Y317500D01*
X-97790Y342900D02*
X-54610Y342900D01*
X-100330Y340360D02*
X-100330Y320040D01*
X-52070Y320040D02*
X-52070Y340360D01*
X-97790Y317500D02*
X-97890Y317502D01*
X-97989Y317508D01*
X-98089Y317518D01*
X-98187Y317531D01*
X-98286Y317549D01*
X-98383Y317570D01*
X-98479Y317595D01*
X-98575Y317624D01*
X-98669Y317657D01*
X-98762Y317693D01*
X-98853Y317733D01*
X-98943Y317777D01*
X-99031Y317824D01*
X-99117Y317874D01*
X-99201Y317928D01*
X-99283Y317985D01*
X-99362Y318045D01*
X-99440Y318109D01*
X-99514Y318175D01*
X-99586Y318244D01*
X-99655Y318316D01*
X-99721Y318390D01*
X-99785Y318468D01*
X-99845Y318547D01*
X-99902Y318629D01*
X-99956Y318713D01*
X-100006Y318799D01*
X-100053Y318887D01*
X-100097Y318977D01*
X-100137Y319068D01*
X-100173Y319161D01*
X-100206Y319255D01*
X-100235Y319351D01*
X-100260Y319447D01*
X-100281Y319544D01*
X-100299Y319643D01*
X-100312Y319741D01*
X-100322Y319841D01*
X-100328Y319940D01*
X-100330Y320040D01*
X-54610Y317500D02*
X-54510Y317502D01*
X-54411Y317508D01*
X-54311Y317518D01*
X-54213Y317531D01*
X-54114Y317549D01*
X-54017Y317570D01*
X-53921Y317595D01*
X-53825Y317624D01*
X-53731Y317657D01*
X-53638Y317693D01*
X-53547Y317733D01*
X-53457Y317777D01*
X-53369Y317824D01*
X-53283Y317874D01*
X-53199Y317928D01*
X-53117Y317985D01*
X-53038Y318045D01*
X-52960Y318109D01*
X-52886Y318175D01*
X-52814Y318244D01*
X-52745Y318316D01*
X-52679Y318390D01*
X-52615Y318468D01*
X-52555Y318547D01*
X-52498Y318629D01*
X-52444Y318713D01*
X-52394Y318799D01*
X-52347Y318887D01*
X-52303Y318977D01*
X-52263Y319068D01*
X-52227Y319161D01*
X-52194Y319255D01*
X-52165Y319351D01*
X-52140Y319447D01*
X-52119Y319544D01*
X-52101Y319643D01*
X-52088Y319741D01*
X-52078Y319841D01*
X-52072Y319940D01*
X-52070Y320040D01*
X-97790Y342900D02*
X-97890Y342898D01*
X-97989Y342892D01*
X-98089Y342882D01*
X-98187Y342869D01*
X-98286Y342851D01*
X-98383Y342830D01*
X-98479Y342805D01*
X-98575Y342776D01*
X-98669Y342743D01*
X-98762Y342707D01*
X-98853Y342667D01*
X-98943Y342623D01*
X-99031Y342576D01*
X-99117Y342526D01*
X-99201Y342472D01*
X-99283Y342415D01*
X-99362Y342355D01*
X-99440Y342291D01*
X-99514Y342225D01*
X-99586Y342156D01*
X-99655Y342084D01*
X-99721Y342010D01*
X-99785Y341932D01*
X-99845Y341853D01*
X-99902Y341771D01*
X-99956Y341687D01*
X-100006Y341601D01*
X-100053Y341513D01*
X-100097Y341423D01*
X-100137Y341332D01*
X-100173Y341239D01*
X-100206Y341145D01*
X-100235Y341049D01*
X-100260Y340953D01*
X-100281Y340856D01*
X-100299Y340757D01*
X-100312Y340659D01*
X-100322Y340559D01*
X-100328Y340460D01*
X-100330Y340360D01*
X-54610Y342900D02*
X-54510Y342898D01*
X-54411Y342892D01*
X-54311Y342882D01*
X-54213Y342869D01*
X-54114Y342851D01*
X-54017Y342830D01*
X-53921Y342805D01*
X-53825Y342776D01*
X-53731Y342743D01*
X-53638Y342707D01*
X-53547Y342667D01*
X-53457Y342623D01*
X-53369Y342576D01*
X-53283Y342526D01*
X-53199Y342472D01*
X-53117Y342415D01*
X-53038Y342355D01*
X-52960Y342291D01*
X-52886Y342225D01*
X-52814Y342156D01*
X-52745Y342084D01*
X-52679Y342010D01*
X-52615Y341932D01*
X-52555Y341853D01*
X-52498Y341771D01*
X-52444Y341687D01*
X-52394Y341601D01*
X-52347Y341513D01*
X-52303Y341423D01*
X-52263Y341332D01*
X-52227Y341239D01*
X-52194Y341145D01*
X-52165Y341049D01*
X-52140Y340953D01*
X-52119Y340856D01*
X-52101Y340757D01*
X-52088Y340659D01*
X-52078Y340559D01*
X-52072Y340460D01*
X-52070Y340360D01*
X-78740Y330200D02*
X-80010Y330200D01*
D11*
X-78740Y330200D02*
X-78740Y322580D01*
X-78740Y330200D02*
X-78740Y337820D01*
X-73660Y330200D02*
X-73660Y322580D01*
X-73660Y330200D02*
X-73660Y337820D01*
D10*
X-73660Y330200D02*
X-72390Y330200D01*
X190500Y-245110D02*
X190500Y-288290D01*
X215900Y-288290D02*
X215900Y-245110D01*
X213360Y-242570D02*
X193040Y-242570D01*
X193040Y-290830D02*
X213360Y-290830D01*
X190500Y-245110D02*
X190502Y-245010D01*
X190508Y-244911D01*
X190518Y-244811D01*
X190531Y-244713D01*
X190549Y-244614D01*
X190570Y-244517D01*
X190595Y-244421D01*
X190624Y-244325D01*
X190657Y-244231D01*
X190693Y-244138D01*
X190733Y-244047D01*
X190777Y-243957D01*
X190824Y-243869D01*
X190874Y-243783D01*
X190928Y-243699D01*
X190985Y-243617D01*
X191045Y-243538D01*
X191109Y-243460D01*
X191175Y-243386D01*
X191244Y-243314D01*
X191316Y-243245D01*
X191390Y-243179D01*
X191468Y-243115D01*
X191547Y-243055D01*
X191629Y-242998D01*
X191713Y-242944D01*
X191799Y-242894D01*
X191887Y-242847D01*
X191977Y-242803D01*
X192068Y-242763D01*
X192161Y-242727D01*
X192255Y-242694D01*
X192351Y-242665D01*
X192447Y-242640D01*
X192544Y-242619D01*
X192643Y-242601D01*
X192741Y-242588D01*
X192841Y-242578D01*
X192940Y-242572D01*
X193040Y-242570D01*
X190500Y-288290D02*
X190502Y-288390D01*
X190508Y-288489D01*
X190518Y-288589D01*
X190531Y-288687D01*
X190549Y-288786D01*
X190570Y-288883D01*
X190595Y-288979D01*
X190624Y-289075D01*
X190657Y-289169D01*
X190693Y-289262D01*
X190733Y-289353D01*
X190777Y-289443D01*
X190824Y-289531D01*
X190874Y-289617D01*
X190928Y-289701D01*
X190985Y-289783D01*
X191045Y-289862D01*
X191109Y-289940D01*
X191175Y-290014D01*
X191244Y-290086D01*
X191316Y-290155D01*
X191390Y-290221D01*
X191468Y-290285D01*
X191547Y-290345D01*
X191629Y-290402D01*
X191713Y-290456D01*
X191799Y-290506D01*
X191887Y-290553D01*
X191977Y-290597D01*
X192068Y-290637D01*
X192161Y-290673D01*
X192255Y-290706D01*
X192351Y-290735D01*
X192447Y-290760D01*
X192544Y-290781D01*
X192643Y-290799D01*
X192741Y-290812D01*
X192841Y-290822D01*
X192940Y-290828D01*
X193040Y-290830D01*
X215900Y-245110D02*
X215898Y-245010D01*
X215892Y-244911D01*
X215882Y-244811D01*
X215869Y-244713D01*
X215851Y-244614D01*
X215830Y-244517D01*
X215805Y-244421D01*
X215776Y-244325D01*
X215743Y-244231D01*
X215707Y-244138D01*
X215667Y-244047D01*
X215623Y-243957D01*
X215576Y-243869D01*
X215526Y-243783D01*
X215472Y-243699D01*
X215415Y-243617D01*
X215355Y-243538D01*
X215291Y-243460D01*
X215225Y-243386D01*
X215156Y-243314D01*
X215084Y-243245D01*
X215010Y-243179D01*
X214932Y-243115D01*
X214853Y-243055D01*
X214771Y-242998D01*
X214687Y-242944D01*
X214601Y-242894D01*
X214513Y-242847D01*
X214423Y-242803D01*
X214332Y-242763D01*
X214239Y-242727D01*
X214145Y-242694D01*
X214049Y-242665D01*
X213953Y-242640D01*
X213856Y-242619D01*
X213757Y-242601D01*
X213659Y-242588D01*
X213559Y-242578D01*
X213460Y-242572D01*
X213360Y-242570D01*
X215900Y-288290D02*
X215898Y-288390D01*
X215892Y-288489D01*
X215882Y-288589D01*
X215869Y-288687D01*
X215851Y-288786D01*
X215830Y-288883D01*
X215805Y-288979D01*
X215776Y-289075D01*
X215743Y-289169D01*
X215707Y-289262D01*
X215667Y-289353D01*
X215623Y-289443D01*
X215576Y-289531D01*
X215526Y-289617D01*
X215472Y-289701D01*
X215415Y-289783D01*
X215355Y-289862D01*
X215291Y-289940D01*
X215225Y-290014D01*
X215156Y-290086D01*
X215084Y-290155D01*
X215010Y-290221D01*
X214932Y-290285D01*
X214853Y-290345D01*
X214771Y-290402D01*
X214687Y-290456D01*
X214601Y-290506D01*
X214513Y-290553D01*
X214423Y-290597D01*
X214332Y-290637D01*
X214239Y-290673D01*
X214145Y-290706D01*
X214049Y-290735D01*
X213953Y-290760D01*
X213856Y-290781D01*
X213757Y-290799D01*
X213659Y-290812D01*
X213559Y-290822D01*
X213460Y-290828D01*
X213360Y-290830D01*
X203200Y-264160D02*
X203200Y-262890D01*
D11*
X203200Y-264160D02*
X195580Y-264160D01*
X203200Y-264160D02*
X210820Y-264160D01*
X203200Y-269240D02*
X195580Y-269240D01*
X203200Y-269240D02*
X210820Y-269240D01*
D10*
X203200Y-269240D02*
X203200Y-270510D01*
X54610Y306070D02*
X-7620Y306070D01*
X-11430Y309880D02*
X-11430Y350520D01*
X-7620Y354330D02*
X54610Y354330D01*
X62230Y313690D02*
X54610Y306070D01*
X43180Y313436D02*
X43180Y319786D01*
X39878Y316484D02*
X46482Y316484D01*
X40640Y330200D02*
X31750Y330200D01*
X31750Y342392D01*
X26670Y342392D01*
X26670Y318008D01*
X31750Y318008D01*
X31750Y330200D01*
X19050Y330200D02*
X10160Y330200D01*
X54610Y354330D02*
X62230Y346710D01*
X62230Y313690D01*
X-7620Y306070D02*
X-7742Y306072D01*
X-7864Y306078D01*
X-7986Y306088D01*
X-8107Y306101D01*
X-8228Y306119D01*
X-8348Y306140D01*
X-8468Y306166D01*
X-8586Y306195D01*
X-8704Y306227D01*
X-8821Y306264D01*
X-8936Y306304D01*
X-9050Y306348D01*
X-9162Y306396D01*
X-9273Y306447D01*
X-9382Y306502D01*
X-9490Y306560D01*
X-9595Y306622D01*
X-9698Y306687D01*
X-9800Y306755D01*
X-9899Y306827D01*
X-9995Y306901D01*
X-10090Y306979D01*
X-10181Y307060D01*
X-10271Y307143D01*
X-10357Y307229D01*
X-10440Y307319D01*
X-10521Y307410D01*
X-10599Y307505D01*
X-10673Y307601D01*
X-10745Y307700D01*
X-10813Y307802D01*
X-10878Y307905D01*
X-10940Y308010D01*
X-10998Y308118D01*
X-11053Y308227D01*
X-11104Y308338D01*
X-11152Y308450D01*
X-11196Y308564D01*
X-11236Y308679D01*
X-11273Y308796D01*
X-11305Y308914D01*
X-11334Y309032D01*
X-11360Y309152D01*
X-11381Y309272D01*
X-11399Y309393D01*
X-11412Y309514D01*
X-11422Y309636D01*
X-11428Y309758D01*
X-11430Y309880D01*
X-11430Y350520D02*
X-11428Y350642D01*
X-11422Y350764D01*
X-11412Y350886D01*
X-11399Y351007D01*
X-11381Y351128D01*
X-11360Y351248D01*
X-11334Y351368D01*
X-11305Y351486D01*
X-11273Y351604D01*
X-11236Y351721D01*
X-11196Y351836D01*
X-11152Y351950D01*
X-11104Y352062D01*
X-11053Y352173D01*
X-10998Y352282D01*
X-10940Y352390D01*
X-10878Y352495D01*
X-10813Y352598D01*
X-10745Y352700D01*
X-10673Y352799D01*
X-10599Y352895D01*
X-10521Y352990D01*
X-10440Y353081D01*
X-10357Y353171D01*
X-10271Y353257D01*
X-10181Y353340D01*
X-10090Y353421D01*
X-9995Y353499D01*
X-9899Y353573D01*
X-9800Y353645D01*
X-9698Y353713D01*
X-9595Y353778D01*
X-9490Y353840D01*
X-9382Y353898D01*
X-9273Y353953D01*
X-9162Y354004D01*
X-9050Y354052D01*
X-8936Y354096D01*
X-8821Y354136D01*
X-8704Y354173D01*
X-8586Y354205D01*
X-8468Y354234D01*
X-8348Y354260D01*
X-8228Y354281D01*
X-8107Y354299D01*
X-7986Y354312D01*
X-7864Y354322D01*
X-7742Y354328D01*
X-7620Y354330D01*
D12*
X20320Y330200D03*
D10*
X157480Y-227330D02*
X219710Y-227330D01*
X153670Y-223520D02*
X153670Y-182880D01*
X157480Y-179070D02*
X219710Y-179070D01*
X227330Y-219710D02*
X219710Y-227330D01*
X208280Y-219964D02*
X208280Y-213614D01*
X204978Y-216916D02*
X211582Y-216916D01*
X205740Y-203200D02*
X196850Y-203200D01*
X196850Y-191008D01*
X191770Y-191008D01*
X191770Y-215392D01*
X196850Y-215392D01*
X196850Y-203200D01*
X184150Y-203200D02*
X175260Y-203200D01*
X219710Y-179070D02*
X227330Y-186690D01*
X227330Y-219710D01*
X157480Y-227330D02*
X157358Y-227328D01*
X157236Y-227322D01*
X157114Y-227312D01*
X156993Y-227299D01*
X156872Y-227281D01*
X156752Y-227260D01*
X156632Y-227234D01*
X156514Y-227205D01*
X156396Y-227173D01*
X156279Y-227136D01*
X156164Y-227096D01*
X156050Y-227052D01*
X155938Y-227004D01*
X155827Y-226953D01*
X155718Y-226898D01*
X155610Y-226840D01*
X155505Y-226778D01*
X155402Y-226713D01*
X155300Y-226645D01*
X155201Y-226573D01*
X155105Y-226499D01*
X155010Y-226421D01*
X154919Y-226340D01*
X154829Y-226257D01*
X154743Y-226171D01*
X154660Y-226081D01*
X154579Y-225990D01*
X154501Y-225895D01*
X154427Y-225799D01*
X154355Y-225700D01*
X154287Y-225598D01*
X154222Y-225495D01*
X154160Y-225390D01*
X154102Y-225282D01*
X154047Y-225173D01*
X153996Y-225062D01*
X153948Y-224950D01*
X153904Y-224836D01*
X153864Y-224721D01*
X153827Y-224604D01*
X153795Y-224486D01*
X153766Y-224368D01*
X153740Y-224248D01*
X153719Y-224128D01*
X153701Y-224007D01*
X153688Y-223886D01*
X153678Y-223764D01*
X153672Y-223642D01*
X153670Y-223520D01*
X153670Y-182880D02*
X153672Y-182758D01*
X153678Y-182636D01*
X153688Y-182514D01*
X153701Y-182393D01*
X153719Y-182272D01*
X153740Y-182152D01*
X153766Y-182032D01*
X153795Y-181914D01*
X153827Y-181796D01*
X153864Y-181679D01*
X153904Y-181564D01*
X153948Y-181450D01*
X153996Y-181338D01*
X154047Y-181227D01*
X154102Y-181118D01*
X154160Y-181010D01*
X154222Y-180905D01*
X154287Y-180802D01*
X154355Y-180700D01*
X154427Y-180601D01*
X154501Y-180505D01*
X154579Y-180410D01*
X154660Y-180319D01*
X154743Y-180229D01*
X154829Y-180143D01*
X154919Y-180060D01*
X155010Y-179979D01*
X155105Y-179901D01*
X155201Y-179827D01*
X155300Y-179755D01*
X155402Y-179687D01*
X155505Y-179622D01*
X155610Y-179560D01*
X155718Y-179502D01*
X155827Y-179447D01*
X155938Y-179396D01*
X156050Y-179348D01*
X156164Y-179304D01*
X156279Y-179264D01*
X156396Y-179227D01*
X156514Y-179195D01*
X156632Y-179166D01*
X156752Y-179140D01*
X156872Y-179119D01*
X156993Y-179101D01*
X157114Y-179088D01*
X157236Y-179078D01*
X157358Y-179072D01*
X157480Y-179070D01*
D12*
X185420Y-203200D03*
D10*
X-176530Y-327660D02*
X-176902Y-327655D01*
X-177273Y-327642D01*
X-177644Y-327619D01*
X-178014Y-327588D01*
X-178383Y-327547D01*
X-178751Y-327497D01*
X-179118Y-327439D01*
X-179483Y-327371D01*
X-179847Y-327295D01*
X-180208Y-327210D01*
X-180567Y-327115D01*
X-180924Y-327013D01*
X-181279Y-326901D01*
X-181630Y-326781D01*
X-181979Y-326653D01*
X-182324Y-326516D01*
X-182666Y-326370D01*
X-183004Y-326217D01*
X-183338Y-326055D01*
X-183668Y-325885D01*
X-183994Y-325707D01*
X-184316Y-325521D01*
X-184633Y-325327D01*
X-184945Y-325126D01*
X-185252Y-324917D01*
X-185554Y-324701D01*
X-185851Y-324477D01*
X-186142Y-324247D01*
X-186427Y-324009D01*
X-186707Y-323764D01*
X-186980Y-323513D01*
X-187247Y-323255D01*
X-187508Y-322991D01*
X-187763Y-322720D01*
X-188010Y-322443D01*
X-188251Y-322160D01*
X-188485Y-321872D01*
X-188712Y-321578D01*
X-188931Y-321278D01*
X-176530Y-327660D02*
X-176158Y-327655D01*
X-175787Y-327642D01*
X-175415Y-327619D01*
X-175045Y-327587D01*
X-174675Y-327547D01*
X-174307Y-327497D01*
X-173939Y-327438D01*
X-173574Y-327371D01*
X-173210Y-327294D01*
X-172848Y-327208D01*
X-172488Y-327114D01*
X-172131Y-327011D01*
X-171776Y-326900D01*
X-171424Y-326779D01*
X-171075Y-326650D01*
X-170730Y-326513D01*
X-170388Y-326367D01*
X-170049Y-326213D01*
X-169714Y-326051D01*
X-169384Y-325881D01*
X-169058Y-325702D01*
X-168736Y-325516D01*
X-168418Y-325322D01*
X-168106Y-325120D01*
X-167799Y-324911D01*
X-167497Y-324694D01*
X-167200Y-324470D01*
X-166908Y-324239D01*
X-166623Y-324001D01*
X-166343Y-323755D01*
X-166070Y-323503D01*
X-165802Y-323245D01*
X-165542Y-322980D01*
X-165287Y-322709D01*
X-165039Y-322431D01*
X-164799Y-322148D01*
X-164565Y-321859D01*
X-164338Y-321564D01*
X-176530Y-297180D02*
X-176895Y-297184D01*
X-177260Y-297197D01*
X-177624Y-297219D01*
X-177987Y-297250D01*
X-178350Y-297289D01*
X-178712Y-297337D01*
X-179072Y-297394D01*
X-179431Y-297459D01*
X-179789Y-297532D01*
X-180144Y-297615D01*
X-180497Y-297705D01*
X-180849Y-297805D01*
X-181197Y-297912D01*
X-181543Y-298028D01*
X-181886Y-298152D01*
X-182226Y-298285D01*
X-182563Y-298425D01*
X-182896Y-298573D01*
X-183226Y-298730D01*
X-183552Y-298894D01*
X-183874Y-299066D01*
X-184191Y-299246D01*
X-184504Y-299433D01*
X-184813Y-299627D01*
X-185117Y-299829D01*
X-185416Y-300039D01*
X-185710Y-300255D01*
X-185998Y-300478D01*
X-186281Y-300708D01*
X-186559Y-300945D01*
X-186831Y-301188D01*
X-187097Y-301438D01*
X-187357Y-301694D01*
X-187610Y-301957D01*
X-187858Y-302225D01*
X-188098Y-302499D01*
X-188333Y-302779D01*
X-188560Y-303064D01*
X-176530Y-297180D02*
X-176165Y-297184D01*
X-175800Y-297197D01*
X-175436Y-297219D01*
X-175073Y-297250D01*
X-174710Y-297289D01*
X-174348Y-297337D01*
X-173988Y-297394D01*
X-173629Y-297459D01*
X-173271Y-297532D01*
X-172916Y-297615D01*
X-172563Y-297705D01*
X-172211Y-297805D01*
X-171863Y-297912D01*
X-171517Y-298028D01*
X-171174Y-298152D01*
X-170834Y-298285D01*
X-170497Y-298425D01*
X-170164Y-298573D01*
X-169834Y-298730D01*
X-169508Y-298894D01*
X-169186Y-299066D01*
X-168869Y-299246D01*
X-168556Y-299433D01*
X-168247Y-299627D01*
X-167943Y-299829D01*
X-167644Y-300039D01*
X-167350Y-300255D01*
X-167062Y-300478D01*
X-166779Y-300708D01*
X-166501Y-300945D01*
X-166229Y-301188D01*
X-165963Y-301438D01*
X-165703Y-301694D01*
X-165450Y-301957D01*
X-165202Y-302225D01*
X-164962Y-302499D01*
X-164727Y-302779D01*
X-164500Y-303064D01*
D11*
X-176530Y-332740D02*
X-177024Y-332734D01*
X-177518Y-332716D01*
X-178012Y-332686D01*
X-178505Y-332644D01*
X-178996Y-332590D01*
X-179486Y-332524D01*
X-179974Y-332446D01*
X-180461Y-332356D01*
X-180945Y-332255D01*
X-181426Y-332141D01*
X-181904Y-332016D01*
X-182380Y-331880D01*
X-182851Y-331732D01*
X-183319Y-331572D01*
X-183783Y-331401D01*
X-184243Y-331219D01*
X-184698Y-331026D01*
X-185149Y-330822D01*
X-185594Y-330607D01*
X-186034Y-330381D01*
X-186468Y-330144D01*
X-186896Y-329897D01*
X-187318Y-329640D01*
X-187734Y-329372D01*
X-188143Y-329094D01*
X-188545Y-328807D01*
X-188941Y-328510D01*
X-189328Y-328203D01*
X-189709Y-327887D01*
X-190081Y-327562D01*
X-190446Y-327227D01*
X-190802Y-326884D01*
X-191149Y-326533D01*
X-191489Y-326173D01*
X-191819Y-325805D01*
X-192140Y-325429D01*
X-176530Y-332740D02*
X-176042Y-332734D01*
X-175555Y-332717D01*
X-175068Y-332687D01*
X-174581Y-332646D01*
X-174096Y-332594D01*
X-173612Y-332529D01*
X-173130Y-332453D01*
X-172650Y-332366D01*
X-172172Y-332267D01*
X-171697Y-332157D01*
X-171224Y-332035D01*
X-170755Y-331902D01*
X-170288Y-331757D01*
X-169826Y-331602D01*
X-169367Y-331435D01*
X-168912Y-331258D01*
X-168462Y-331069D01*
X-168017Y-330870D01*
X-167576Y-330660D01*
X-167140Y-330440D01*
X-166710Y-330209D01*
X-166286Y-329968D01*
X-165868Y-329717D01*
X-165455Y-329456D01*
X-165049Y-329185D01*
X-164650Y-328905D01*
X-164257Y-328615D01*
X-163872Y-328315D01*
X-163494Y-328006D01*
X-163123Y-327689D01*
X-162761Y-327362D01*
X-162406Y-327027D01*
X-162059Y-326684D01*
X-161721Y-326332D01*
X-161391Y-325973D01*
X-161070Y-325605D01*
X-160757Y-325230D01*
X-160454Y-324847D01*
X-160160Y-324458D01*
X-159876Y-324061D01*
X-159601Y-323658D01*
X-159336Y-323248D01*
X-159081Y-322832D01*
X-158836Y-322410D01*
X-158601Y-321982D01*
X-176530Y-292100D02*
X-177020Y-292106D01*
X-177510Y-292124D01*
X-177999Y-292153D01*
X-178488Y-292195D01*
X-178975Y-292248D01*
X-179461Y-292312D01*
X-179945Y-292389D01*
X-180427Y-292477D01*
X-180907Y-292577D01*
X-181385Y-292688D01*
X-181859Y-292811D01*
X-182331Y-292946D01*
X-182799Y-293091D01*
X-183263Y-293248D01*
X-183724Y-293416D01*
X-184180Y-293595D01*
X-184632Y-293785D01*
X-185079Y-293986D01*
X-185521Y-294198D01*
X-185958Y-294420D01*
X-186390Y-294652D01*
X-186816Y-294895D01*
X-187235Y-295149D01*
X-187649Y-295412D01*
X-188056Y-295685D01*
X-188456Y-295968D01*
X-188850Y-296261D01*
X-189236Y-296562D01*
X-189615Y-296874D01*
X-189986Y-297194D01*
X-190349Y-297523D01*
X-190705Y-297860D01*
X-191052Y-298207D01*
X-191390Y-298561D01*
X-191720Y-298924D01*
X-192042Y-299294D01*
X-176530Y-292100D02*
X-176033Y-292106D01*
X-175536Y-292124D01*
X-175040Y-292155D01*
X-174545Y-292197D01*
X-174051Y-292252D01*
X-173558Y-292318D01*
X-173068Y-292397D01*
X-172579Y-292488D01*
X-172093Y-292590D01*
X-171609Y-292705D01*
X-171129Y-292831D01*
X-170651Y-292969D01*
X-170177Y-293118D01*
X-169707Y-293279D01*
X-169241Y-293452D01*
X-168779Y-293636D01*
X-168322Y-293831D01*
X-167870Y-294037D01*
X-167423Y-294254D01*
X-166982Y-294483D01*
X-166546Y-294721D01*
X-166116Y-294971D01*
X-165693Y-295231D01*
X-165275Y-295501D01*
X-164865Y-295781D01*
X-164462Y-296071D01*
X-164065Y-296371D01*
X-163677Y-296681D01*
X-163296Y-297000D01*
X-162923Y-297328D01*
X-162558Y-297665D01*
X-162201Y-298011D01*
X-161853Y-298366D01*
X-161514Y-298729D01*
X-161183Y-299100D01*
X-160862Y-299480D01*
X-160550Y-299867D01*
X-160248Y-300261D01*
X-159956Y-300663D01*
X-159673Y-301072D01*
X-159401Y-301487D01*
X-159138Y-301910D01*
X-158887Y-302338D01*
D10*
X-223520Y-298450D02*
X-223892Y-298445D01*
X-224263Y-298432D01*
X-224634Y-298409D01*
X-225004Y-298378D01*
X-225373Y-298337D01*
X-225741Y-298287D01*
X-226108Y-298229D01*
X-226473Y-298161D01*
X-226837Y-298085D01*
X-227198Y-298000D01*
X-227557Y-297905D01*
X-227914Y-297803D01*
X-228269Y-297691D01*
X-228620Y-297571D01*
X-228969Y-297443D01*
X-229314Y-297306D01*
X-229656Y-297160D01*
X-229994Y-297007D01*
X-230328Y-296845D01*
X-230658Y-296675D01*
X-230984Y-296497D01*
X-231306Y-296311D01*
X-231623Y-296117D01*
X-231935Y-295916D01*
X-232242Y-295707D01*
X-232544Y-295491D01*
X-232841Y-295267D01*
X-233132Y-295037D01*
X-233417Y-294799D01*
X-233697Y-294554D01*
X-233970Y-294303D01*
X-234237Y-294045D01*
X-234498Y-293781D01*
X-234753Y-293510D01*
X-235000Y-293233D01*
X-235241Y-292950D01*
X-235475Y-292662D01*
X-235702Y-292368D01*
X-235921Y-292068D01*
X-223520Y-298450D02*
X-223148Y-298445D01*
X-222777Y-298432D01*
X-222405Y-298409D01*
X-222035Y-298377D01*
X-221665Y-298337D01*
X-221297Y-298287D01*
X-220929Y-298228D01*
X-220564Y-298161D01*
X-220200Y-298084D01*
X-219838Y-297998D01*
X-219478Y-297904D01*
X-219121Y-297801D01*
X-218766Y-297690D01*
X-218414Y-297569D01*
X-218065Y-297440D01*
X-217720Y-297303D01*
X-217378Y-297157D01*
X-217039Y-297003D01*
X-216704Y-296841D01*
X-216374Y-296671D01*
X-216048Y-296492D01*
X-215726Y-296306D01*
X-215408Y-296112D01*
X-215096Y-295910D01*
X-214789Y-295701D01*
X-214487Y-295484D01*
X-214190Y-295260D01*
X-213898Y-295029D01*
X-213613Y-294791D01*
X-213333Y-294545D01*
X-213060Y-294293D01*
X-212792Y-294035D01*
X-212532Y-293770D01*
X-212277Y-293499D01*
X-212029Y-293221D01*
X-211789Y-292938D01*
X-211555Y-292649D01*
X-211328Y-292354D01*
X-223520Y-267970D02*
X-223885Y-267974D01*
X-224250Y-267987D01*
X-224614Y-268009D01*
X-224977Y-268040D01*
X-225340Y-268079D01*
X-225702Y-268127D01*
X-226062Y-268184D01*
X-226421Y-268249D01*
X-226779Y-268322D01*
X-227134Y-268405D01*
X-227487Y-268495D01*
X-227839Y-268595D01*
X-228187Y-268702D01*
X-228533Y-268818D01*
X-228876Y-268942D01*
X-229216Y-269075D01*
X-229553Y-269215D01*
X-229886Y-269363D01*
X-230216Y-269520D01*
X-230542Y-269684D01*
X-230864Y-269856D01*
X-231181Y-270036D01*
X-231494Y-270223D01*
X-231803Y-270417D01*
X-232107Y-270619D01*
X-232406Y-270829D01*
X-232700Y-271045D01*
X-232988Y-271268D01*
X-233271Y-271498D01*
X-233549Y-271735D01*
X-233821Y-271978D01*
X-234087Y-272228D01*
X-234347Y-272484D01*
X-234600Y-272747D01*
X-234848Y-273015D01*
X-235088Y-273289D01*
X-235323Y-273569D01*
X-235550Y-273854D01*
X-223520Y-267970D02*
X-223155Y-267974D01*
X-222790Y-267987D01*
X-222426Y-268009D01*
X-222063Y-268040D01*
X-221700Y-268079D01*
X-221338Y-268127D01*
X-220978Y-268184D01*
X-220619Y-268249D01*
X-220261Y-268322D01*
X-219906Y-268405D01*
X-219553Y-268495D01*
X-219201Y-268595D01*
X-218853Y-268702D01*
X-218507Y-268818D01*
X-218164Y-268942D01*
X-217824Y-269075D01*
X-217487Y-269215D01*
X-217154Y-269363D01*
X-216824Y-269520D01*
X-216498Y-269684D01*
X-216176Y-269856D01*
X-215859Y-270036D01*
X-215546Y-270223D01*
X-215237Y-270417D01*
X-214933Y-270619D01*
X-214634Y-270829D01*
X-214340Y-271045D01*
X-214052Y-271268D01*
X-213769Y-271498D01*
X-213491Y-271735D01*
X-213219Y-271978D01*
X-212953Y-272228D01*
X-212693Y-272484D01*
X-212440Y-272747D01*
X-212192Y-273015D01*
X-211952Y-273289D01*
X-211717Y-273569D01*
X-211490Y-273854D01*
D11*
X-223520Y-303530D02*
X-224014Y-303524D01*
X-224508Y-303506D01*
X-225002Y-303476D01*
X-225495Y-303434D01*
X-225986Y-303380D01*
X-226476Y-303314D01*
X-226964Y-303236D01*
X-227451Y-303146D01*
X-227935Y-303045D01*
X-228416Y-302931D01*
X-228894Y-302806D01*
X-229370Y-302670D01*
X-229841Y-302522D01*
X-230309Y-302362D01*
X-230773Y-302191D01*
X-231233Y-302009D01*
X-231688Y-301816D01*
X-232139Y-301612D01*
X-232584Y-301397D01*
X-233024Y-301171D01*
X-233458Y-300934D01*
X-233886Y-300687D01*
X-234308Y-300430D01*
X-234724Y-300162D01*
X-235133Y-299884D01*
X-235535Y-299597D01*
X-235931Y-299300D01*
X-236318Y-298993D01*
X-236699Y-298677D01*
X-237071Y-298352D01*
X-237436Y-298017D01*
X-237792Y-297674D01*
X-238139Y-297323D01*
X-238479Y-296963D01*
X-238809Y-296595D01*
X-239130Y-296219D01*
X-223520Y-303530D02*
X-223032Y-303524D01*
X-222545Y-303507D01*
X-222058Y-303477D01*
X-221571Y-303436D01*
X-221086Y-303384D01*
X-220602Y-303319D01*
X-220120Y-303243D01*
X-219640Y-303156D01*
X-219162Y-303057D01*
X-218687Y-302947D01*
X-218214Y-302825D01*
X-217745Y-302692D01*
X-217278Y-302547D01*
X-216816Y-302392D01*
X-216357Y-302225D01*
X-215902Y-302048D01*
X-215452Y-301859D01*
X-215007Y-301660D01*
X-214566Y-301450D01*
X-214130Y-301230D01*
X-213700Y-300999D01*
X-213276Y-300758D01*
X-212858Y-300507D01*
X-212445Y-300246D01*
X-212039Y-299975D01*
X-211640Y-299695D01*
X-211247Y-299405D01*
X-210862Y-299105D01*
X-210484Y-298796D01*
X-210113Y-298479D01*
X-209751Y-298152D01*
X-209396Y-297817D01*
X-209049Y-297474D01*
X-208711Y-297122D01*
X-208381Y-296763D01*
X-208060Y-296395D01*
X-207747Y-296020D01*
X-207444Y-295637D01*
X-207150Y-295248D01*
X-206866Y-294851D01*
X-206591Y-294448D01*
X-206326Y-294038D01*
X-206071Y-293622D01*
X-205826Y-293200D01*
X-205591Y-292772D01*
X-223520Y-262890D02*
X-224010Y-262896D01*
X-224500Y-262914D01*
X-224989Y-262943D01*
X-225478Y-262985D01*
X-225965Y-263038D01*
X-226451Y-263102D01*
X-226935Y-263179D01*
X-227417Y-263267D01*
X-227897Y-263367D01*
X-228375Y-263478D01*
X-228849Y-263601D01*
X-229321Y-263736D01*
X-229789Y-263881D01*
X-230253Y-264038D01*
X-230714Y-264206D01*
X-231170Y-264385D01*
X-231622Y-264575D01*
X-232069Y-264776D01*
X-232511Y-264988D01*
X-232948Y-265210D01*
X-233380Y-265442D01*
X-233806Y-265685D01*
X-234225Y-265939D01*
X-234639Y-266202D01*
X-235046Y-266475D01*
X-235446Y-266758D01*
X-235840Y-267051D01*
X-236226Y-267352D01*
X-236605Y-267664D01*
X-236976Y-267984D01*
X-237339Y-268313D01*
X-237695Y-268650D01*
X-238042Y-268997D01*
X-238380Y-269351D01*
X-238710Y-269714D01*
X-239032Y-270084D01*
X-223520Y-262890D02*
X-223023Y-262896D01*
X-222526Y-262914D01*
X-222030Y-262945D01*
X-221535Y-262987D01*
X-221041Y-263042D01*
X-220548Y-263108D01*
X-220058Y-263187D01*
X-219569Y-263278D01*
X-219083Y-263380D01*
X-218599Y-263495D01*
X-218119Y-263621D01*
X-217641Y-263759D01*
X-217167Y-263908D01*
X-216697Y-264069D01*
X-216231Y-264242D01*
X-215769Y-264426D01*
X-215312Y-264621D01*
X-214860Y-264827D01*
X-214413Y-265044D01*
X-213972Y-265273D01*
X-213536Y-265511D01*
X-213106Y-265761D01*
X-212683Y-266021D01*
X-212265Y-266291D01*
X-211855Y-266571D01*
X-211452Y-266861D01*
X-211055Y-267161D01*
X-210667Y-267471D01*
X-210286Y-267790D01*
X-209913Y-268118D01*
X-209548Y-268455D01*
X-209191Y-268801D01*
X-208843Y-269156D01*
X-208504Y-269519D01*
X-208173Y-269890D01*
X-207852Y-270270D01*
X-207540Y-270657D01*
X-207238Y-271051D01*
X-206946Y-271453D01*
X-206663Y-271862D01*
X-206391Y-272277D01*
X-206128Y-272700D01*
X-205877Y-273128D01*
D10*
X-173990Y-133350D02*
X-173992Y-133250D01*
X-173998Y-133151D01*
X-174008Y-133051D01*
X-174021Y-132953D01*
X-174039Y-132854D01*
X-174060Y-132757D01*
X-174085Y-132661D01*
X-174114Y-132565D01*
X-174147Y-132471D01*
X-174183Y-132378D01*
X-174223Y-132287D01*
X-174267Y-132197D01*
X-174314Y-132109D01*
X-174364Y-132023D01*
X-174418Y-131939D01*
X-174475Y-131857D01*
X-174535Y-131778D01*
X-174599Y-131700D01*
X-174665Y-131626D01*
X-174734Y-131554D01*
X-174806Y-131485D01*
X-174880Y-131419D01*
X-174958Y-131355D01*
X-175037Y-131295D01*
X-175119Y-131238D01*
X-175203Y-131184D01*
X-175289Y-131134D01*
X-175377Y-131087D01*
X-175467Y-131043D01*
X-175558Y-131003D01*
X-175651Y-130967D01*
X-175745Y-130934D01*
X-175841Y-130905D01*
X-175937Y-130880D01*
X-176034Y-130859D01*
X-176133Y-130841D01*
X-176231Y-130828D01*
X-176331Y-130818D01*
X-176430Y-130812D01*
X-176530Y-130810D01*
X-194310Y-130810D02*
X-194410Y-130812D01*
X-194509Y-130818D01*
X-194609Y-130828D01*
X-194707Y-130841D01*
X-194806Y-130859D01*
X-194903Y-130880D01*
X-194999Y-130905D01*
X-195095Y-130934D01*
X-195189Y-130967D01*
X-195282Y-131003D01*
X-195373Y-131043D01*
X-195463Y-131087D01*
X-195551Y-131134D01*
X-195637Y-131184D01*
X-195721Y-131238D01*
X-195803Y-131295D01*
X-195882Y-131355D01*
X-195960Y-131419D01*
X-196034Y-131485D01*
X-196106Y-131554D01*
X-196175Y-131626D01*
X-196241Y-131700D01*
X-196305Y-131778D01*
X-196365Y-131857D01*
X-196422Y-131939D01*
X-196476Y-132023D01*
X-196526Y-132109D01*
X-196573Y-132197D01*
X-196617Y-132287D01*
X-196657Y-132378D01*
X-196693Y-132471D01*
X-196726Y-132565D01*
X-196755Y-132661D01*
X-196780Y-132757D01*
X-196801Y-132854D01*
X-196819Y-132953D01*
X-196832Y-133051D01*
X-196842Y-133151D01*
X-196848Y-133250D01*
X-196850Y-133350D01*
X-196850Y-191770D02*
X-196848Y-191870D01*
X-196842Y-191969D01*
X-196832Y-192069D01*
X-196819Y-192167D01*
X-196801Y-192266D01*
X-196780Y-192363D01*
X-196755Y-192459D01*
X-196726Y-192555D01*
X-196693Y-192649D01*
X-196657Y-192742D01*
X-196617Y-192833D01*
X-196573Y-192923D01*
X-196526Y-193011D01*
X-196476Y-193097D01*
X-196422Y-193181D01*
X-196365Y-193263D01*
X-196305Y-193342D01*
X-196241Y-193420D01*
X-196175Y-193494D01*
X-196106Y-193566D01*
X-196034Y-193635D01*
X-195960Y-193701D01*
X-195882Y-193765D01*
X-195803Y-193825D01*
X-195721Y-193882D01*
X-195637Y-193936D01*
X-195551Y-193986D01*
X-195463Y-194033D01*
X-195373Y-194077D01*
X-195282Y-194117D01*
X-195189Y-194153D01*
X-195095Y-194186D01*
X-194999Y-194215D01*
X-194903Y-194240D01*
X-194806Y-194261D01*
X-194707Y-194279D01*
X-194609Y-194292D01*
X-194509Y-194302D01*
X-194410Y-194308D01*
X-194310Y-194310D01*
X-176530Y-194310D02*
X-176430Y-194308D01*
X-176331Y-194302D01*
X-176231Y-194292D01*
X-176133Y-194279D01*
X-176034Y-194261D01*
X-175937Y-194240D01*
X-175841Y-194215D01*
X-175745Y-194186D01*
X-175651Y-194153D01*
X-175558Y-194117D01*
X-175467Y-194077D01*
X-175377Y-194033D01*
X-175289Y-193986D01*
X-175203Y-193936D01*
X-175119Y-193882D01*
X-175037Y-193825D01*
X-174958Y-193765D01*
X-174880Y-193701D01*
X-174806Y-193635D01*
X-174734Y-193566D01*
X-174665Y-193494D01*
X-174599Y-193420D01*
X-174535Y-193342D01*
X-174475Y-193263D01*
X-174418Y-193181D01*
X-174364Y-193097D01*
X-174314Y-193011D01*
X-174267Y-192923D01*
X-174223Y-192833D01*
X-174183Y-192742D01*
X-174147Y-192649D01*
X-174114Y-192555D01*
X-174085Y-192459D01*
X-174060Y-192363D01*
X-174039Y-192266D01*
X-174021Y-192167D01*
X-174008Y-192069D01*
X-173998Y-191969D01*
X-173992Y-191870D01*
X-173990Y-191770D01*
X-176530Y-130810D02*
X-194310Y-130810D01*
X-173990Y-133350D02*
X-173990Y-137160D01*
X-175260Y-138430D01*
X-196850Y-137160D02*
X-196850Y-133350D01*
X-196850Y-137160D02*
X-195580Y-138430D01*
X-175260Y-186690D02*
X-173990Y-187960D01*
X-175260Y-186690D02*
X-175260Y-138430D01*
X-195580Y-186690D02*
X-196850Y-187960D01*
X-195580Y-186690D02*
X-195580Y-138430D01*
X-173990Y-187960D02*
X-173990Y-191770D01*
X-196850Y-191770D02*
X-196850Y-187960D01*
X-194310Y-194310D02*
X-176530Y-194310D01*
D13*
X-185420Y-198628D03*
X-185420Y-126492D03*
D10*
X-203200Y-130810D02*
X-203202Y-130710D01*
X-203208Y-130611D01*
X-203218Y-130511D01*
X-203231Y-130413D01*
X-203249Y-130314D01*
X-203270Y-130217D01*
X-203295Y-130121D01*
X-203324Y-130025D01*
X-203357Y-129931D01*
X-203393Y-129838D01*
X-203433Y-129747D01*
X-203477Y-129657D01*
X-203524Y-129569D01*
X-203574Y-129483D01*
X-203628Y-129399D01*
X-203685Y-129317D01*
X-203745Y-129238D01*
X-203809Y-129160D01*
X-203875Y-129086D01*
X-203944Y-129014D01*
X-204016Y-128945D01*
X-204090Y-128879D01*
X-204168Y-128815D01*
X-204247Y-128755D01*
X-204329Y-128698D01*
X-204413Y-128644D01*
X-204499Y-128594D01*
X-204587Y-128547D01*
X-204677Y-128503D01*
X-204768Y-128463D01*
X-204861Y-128427D01*
X-204955Y-128394D01*
X-205051Y-128365D01*
X-205147Y-128340D01*
X-205244Y-128319D01*
X-205343Y-128301D01*
X-205441Y-128288D01*
X-205541Y-128278D01*
X-205640Y-128272D01*
X-205740Y-128270D01*
X-223520Y-128270D02*
X-223620Y-128272D01*
X-223719Y-128278D01*
X-223819Y-128288D01*
X-223917Y-128301D01*
X-224016Y-128319D01*
X-224113Y-128340D01*
X-224209Y-128365D01*
X-224305Y-128394D01*
X-224399Y-128427D01*
X-224492Y-128463D01*
X-224583Y-128503D01*
X-224673Y-128547D01*
X-224761Y-128594D01*
X-224847Y-128644D01*
X-224931Y-128698D01*
X-225013Y-128755D01*
X-225092Y-128815D01*
X-225170Y-128879D01*
X-225244Y-128945D01*
X-225316Y-129014D01*
X-225385Y-129086D01*
X-225451Y-129160D01*
X-225515Y-129238D01*
X-225575Y-129317D01*
X-225632Y-129399D01*
X-225686Y-129483D01*
X-225736Y-129569D01*
X-225783Y-129657D01*
X-225827Y-129747D01*
X-225867Y-129838D01*
X-225903Y-129931D01*
X-225936Y-130025D01*
X-225965Y-130121D01*
X-225990Y-130217D01*
X-226011Y-130314D01*
X-226029Y-130413D01*
X-226042Y-130511D01*
X-226052Y-130611D01*
X-226058Y-130710D01*
X-226060Y-130810D01*
X-226060Y-189230D02*
X-226058Y-189330D01*
X-226052Y-189429D01*
X-226042Y-189529D01*
X-226029Y-189627D01*
X-226011Y-189726D01*
X-225990Y-189823D01*
X-225965Y-189919D01*
X-225936Y-190015D01*
X-225903Y-190109D01*
X-225867Y-190202D01*
X-225827Y-190293D01*
X-225783Y-190383D01*
X-225736Y-190471D01*
X-225686Y-190557D01*
X-225632Y-190641D01*
X-225575Y-190723D01*
X-225515Y-190802D01*
X-225451Y-190880D01*
X-225385Y-190954D01*
X-225316Y-191026D01*
X-225244Y-191095D01*
X-225170Y-191161D01*
X-225092Y-191225D01*
X-225013Y-191285D01*
X-224931Y-191342D01*
X-224847Y-191396D01*
X-224761Y-191446D01*
X-224673Y-191493D01*
X-224583Y-191537D01*
X-224492Y-191577D01*
X-224399Y-191613D01*
X-224305Y-191646D01*
X-224209Y-191675D01*
X-224113Y-191700D01*
X-224016Y-191721D01*
X-223917Y-191739D01*
X-223819Y-191752D01*
X-223719Y-191762D01*
X-223620Y-191768D01*
X-223520Y-191770D01*
X-205740Y-191770D02*
X-205640Y-191768D01*
X-205541Y-191762D01*
X-205441Y-191752D01*
X-205343Y-191739D01*
X-205244Y-191721D01*
X-205147Y-191700D01*
X-205051Y-191675D01*
X-204955Y-191646D01*
X-204861Y-191613D01*
X-204768Y-191577D01*
X-204677Y-191537D01*
X-204587Y-191493D01*
X-204499Y-191446D01*
X-204413Y-191396D01*
X-204329Y-191342D01*
X-204247Y-191285D01*
X-204168Y-191225D01*
X-204090Y-191161D01*
X-204016Y-191095D01*
X-203944Y-191026D01*
X-203875Y-190954D01*
X-203809Y-190880D01*
X-203745Y-190802D01*
X-203685Y-190723D01*
X-203628Y-190641D01*
X-203574Y-190557D01*
X-203524Y-190471D01*
X-203477Y-190383D01*
X-203433Y-190293D01*
X-203393Y-190202D01*
X-203357Y-190109D01*
X-203324Y-190015D01*
X-203295Y-189919D01*
X-203270Y-189823D01*
X-203249Y-189726D01*
X-203231Y-189627D01*
X-203218Y-189529D01*
X-203208Y-189429D01*
X-203202Y-189330D01*
X-203200Y-189230D01*
X-205740Y-128270D02*
X-223520Y-128270D01*
X-203200Y-130810D02*
X-203200Y-134620D01*
X-204470Y-135890D01*
X-226060Y-134620D02*
X-226060Y-130810D01*
X-226060Y-134620D02*
X-224790Y-135890D01*
X-204470Y-184150D02*
X-203200Y-185420D01*
X-204470Y-184150D02*
X-204470Y-135890D01*
X-224790Y-184150D02*
X-226060Y-185420D01*
X-224790Y-184150D02*
X-224790Y-135890D01*
X-203200Y-185420D02*
X-203200Y-189230D01*
X-226060Y-189230D02*
X-226060Y-185420D01*
X-223520Y-191770D02*
X-205740Y-191770D01*
D13*
X-214630Y-196088D03*
X-214630Y-123952D03*
D10*
X-242570Y-135890D02*
X-242572Y-135790D01*
X-242578Y-135691D01*
X-242588Y-135591D01*
X-242601Y-135493D01*
X-242619Y-135394D01*
X-242640Y-135297D01*
X-242665Y-135201D01*
X-242694Y-135105D01*
X-242727Y-135011D01*
X-242763Y-134918D01*
X-242803Y-134827D01*
X-242847Y-134737D01*
X-242894Y-134649D01*
X-242944Y-134563D01*
X-242998Y-134479D01*
X-243055Y-134397D01*
X-243115Y-134318D01*
X-243179Y-134240D01*
X-243245Y-134166D01*
X-243314Y-134094D01*
X-243386Y-134025D01*
X-243460Y-133959D01*
X-243538Y-133895D01*
X-243617Y-133835D01*
X-243699Y-133778D01*
X-243783Y-133724D01*
X-243869Y-133674D01*
X-243957Y-133627D01*
X-244047Y-133583D01*
X-244138Y-133543D01*
X-244231Y-133507D01*
X-244325Y-133474D01*
X-244421Y-133445D01*
X-244517Y-133420D01*
X-244614Y-133399D01*
X-244713Y-133381D01*
X-244811Y-133368D01*
X-244911Y-133358D01*
X-245010Y-133352D01*
X-245110Y-133350D01*
X-262890Y-133350D02*
X-262990Y-133352D01*
X-263089Y-133358D01*
X-263189Y-133368D01*
X-263287Y-133381D01*
X-263386Y-133399D01*
X-263483Y-133420D01*
X-263579Y-133445D01*
X-263675Y-133474D01*
X-263769Y-133507D01*
X-263862Y-133543D01*
X-263953Y-133583D01*
X-264043Y-133627D01*
X-264131Y-133674D01*
X-264217Y-133724D01*
X-264301Y-133778D01*
X-264383Y-133835D01*
X-264462Y-133895D01*
X-264540Y-133959D01*
X-264614Y-134025D01*
X-264686Y-134094D01*
X-264755Y-134166D01*
X-264821Y-134240D01*
X-264885Y-134318D01*
X-264945Y-134397D01*
X-265002Y-134479D01*
X-265056Y-134563D01*
X-265106Y-134649D01*
X-265153Y-134737D01*
X-265197Y-134827D01*
X-265237Y-134918D01*
X-265273Y-135011D01*
X-265306Y-135105D01*
X-265335Y-135201D01*
X-265360Y-135297D01*
X-265381Y-135394D01*
X-265399Y-135493D01*
X-265412Y-135591D01*
X-265422Y-135691D01*
X-265428Y-135790D01*
X-265430Y-135890D01*
X-265430Y-194310D02*
X-265428Y-194410D01*
X-265422Y-194509D01*
X-265412Y-194609D01*
X-265399Y-194707D01*
X-265381Y-194806D01*
X-265360Y-194903D01*
X-265335Y-194999D01*
X-265306Y-195095D01*
X-265273Y-195189D01*
X-265237Y-195282D01*
X-265197Y-195373D01*
X-265153Y-195463D01*
X-265106Y-195551D01*
X-265056Y-195637D01*
X-265002Y-195721D01*
X-264945Y-195803D01*
X-264885Y-195882D01*
X-264821Y-195960D01*
X-264755Y-196034D01*
X-264686Y-196106D01*
X-264614Y-196175D01*
X-264540Y-196241D01*
X-264462Y-196305D01*
X-264383Y-196365D01*
X-264301Y-196422D01*
X-264217Y-196476D01*
X-264131Y-196526D01*
X-264043Y-196573D01*
X-263953Y-196617D01*
X-263862Y-196657D01*
X-263769Y-196693D01*
X-263675Y-196726D01*
X-263579Y-196755D01*
X-263483Y-196780D01*
X-263386Y-196801D01*
X-263287Y-196819D01*
X-263189Y-196832D01*
X-263089Y-196842D01*
X-262990Y-196848D01*
X-262890Y-196850D01*
X-245110Y-196850D02*
X-245010Y-196848D01*
X-244911Y-196842D01*
X-244811Y-196832D01*
X-244713Y-196819D01*
X-244614Y-196801D01*
X-244517Y-196780D01*
X-244421Y-196755D01*
X-244325Y-196726D01*
X-244231Y-196693D01*
X-244138Y-196657D01*
X-244047Y-196617D01*
X-243957Y-196573D01*
X-243869Y-196526D01*
X-243783Y-196476D01*
X-243699Y-196422D01*
X-243617Y-196365D01*
X-243538Y-196305D01*
X-243460Y-196241D01*
X-243386Y-196175D01*
X-243314Y-196106D01*
X-243245Y-196034D01*
X-243179Y-195960D01*
X-243115Y-195882D01*
X-243055Y-195803D01*
X-242998Y-195721D01*
X-242944Y-195637D01*
X-242894Y-195551D01*
X-242847Y-195463D01*
X-242803Y-195373D01*
X-242763Y-195282D01*
X-242727Y-195189D01*
X-242694Y-195095D01*
X-242665Y-194999D01*
X-242640Y-194903D01*
X-242619Y-194806D01*
X-242601Y-194707D01*
X-242588Y-194609D01*
X-242578Y-194509D01*
X-242572Y-194410D01*
X-242570Y-194310D01*
X-245110Y-133350D02*
X-262890Y-133350D01*
X-242570Y-135890D02*
X-242570Y-139700D01*
X-243840Y-140970D01*
X-265430Y-139700D02*
X-265430Y-135890D01*
X-265430Y-139700D02*
X-264160Y-140970D01*
X-243840Y-189230D02*
X-242570Y-190500D01*
X-243840Y-189230D02*
X-243840Y-140970D01*
X-264160Y-189230D02*
X-265430Y-190500D01*
X-264160Y-189230D02*
X-264160Y-140970D01*
X-242570Y-190500D02*
X-242570Y-194310D01*
X-265430Y-194310D02*
X-265430Y-190500D01*
X-262890Y-196850D02*
X-245110Y-196850D01*
D13*
X-254000Y-201168D03*
X-254000Y-129032D03*
D10*
X-203957Y246790D02*
X-203896Y246869D01*
X-203838Y246950D01*
X-203784Y247034D01*
X-203733Y247120D01*
X-203685Y247207D01*
X-203641Y247297D01*
X-203600Y247388D01*
X-203563Y247480D01*
X-203530Y247574D01*
X-203500Y247669D01*
X-203474Y247766D01*
X-203452Y247863D01*
X-203433Y247961D01*
X-203419Y248060D01*
X-203408Y248159D01*
X-203402Y248258D01*
X-203399Y248358D01*
X-203400Y248458D01*
X-203405Y248557D01*
X-203414Y248657D01*
X-203427Y248756D01*
X-203444Y248854D01*
X-203465Y248952D01*
X-203489Y249048D01*
X-203517Y249144D01*
X-203549Y249238D01*
X-203585Y249332D01*
X-203624Y249423D01*
X-203667Y249513D01*
X-203713Y249602D01*
X-203763Y249688D01*
X-203816Y249773D01*
X-203872Y249855D01*
X-203932Y249935D01*
X-203995Y250012D01*
X-204060Y250087D01*
X-204129Y250160D01*
X-204200Y250230D01*
X-204274Y250296D01*
X-204351Y250360D01*
X-218227Y261477D02*
X-218306Y261538D01*
X-218387Y261596D01*
X-218471Y261650D01*
X-218557Y261701D01*
X-218644Y261749D01*
X-218734Y261793D01*
X-218825Y261834D01*
X-218917Y261871D01*
X-219011Y261904D01*
X-219106Y261934D01*
X-219203Y261960D01*
X-219300Y261982D01*
X-219398Y262001D01*
X-219497Y262015D01*
X-219596Y262026D01*
X-219695Y262032D01*
X-219795Y262035D01*
X-219895Y262034D01*
X-219994Y262029D01*
X-220094Y262020D01*
X-220193Y262007D01*
X-220291Y261990D01*
X-220389Y261969D01*
X-220485Y261945D01*
X-220581Y261917D01*
X-220675Y261885D01*
X-220769Y261849D01*
X-220860Y261810D01*
X-220950Y261767D01*
X-221039Y261721D01*
X-221125Y261671D01*
X-221210Y261618D01*
X-221292Y261562D01*
X-221372Y261502D01*
X-221449Y261439D01*
X-221524Y261374D01*
X-221597Y261305D01*
X-221667Y261234D01*
X-221733Y261160D01*
X-221797Y261083D01*
X-258323Y215490D02*
X-258384Y215411D01*
X-258442Y215330D01*
X-258496Y215246D01*
X-258547Y215160D01*
X-258595Y215073D01*
X-258639Y214983D01*
X-258680Y214892D01*
X-258717Y214800D01*
X-258750Y214706D01*
X-258780Y214611D01*
X-258806Y214514D01*
X-258828Y214417D01*
X-258847Y214319D01*
X-258861Y214220D01*
X-258872Y214121D01*
X-258878Y214022D01*
X-258881Y213922D01*
X-258880Y213822D01*
X-258875Y213723D01*
X-258866Y213623D01*
X-258853Y213524D01*
X-258836Y213426D01*
X-258815Y213328D01*
X-258791Y213232D01*
X-258763Y213136D01*
X-258731Y213042D01*
X-258695Y212948D01*
X-258656Y212857D01*
X-258613Y212767D01*
X-258567Y212678D01*
X-258517Y212592D01*
X-258464Y212507D01*
X-258408Y212425D01*
X-258348Y212345D01*
X-258285Y212268D01*
X-258220Y212193D01*
X-258151Y212120D01*
X-258080Y212050D01*
X-258006Y211984D01*
X-257929Y211920D01*
X-244053Y200803D02*
X-243974Y200742D01*
X-243893Y200684D01*
X-243809Y200630D01*
X-243723Y200579D01*
X-243636Y200531D01*
X-243546Y200487D01*
X-243455Y200446D01*
X-243363Y200409D01*
X-243269Y200376D01*
X-243174Y200346D01*
X-243077Y200320D01*
X-242980Y200298D01*
X-242882Y200279D01*
X-242783Y200265D01*
X-242684Y200254D01*
X-242585Y200248D01*
X-242485Y200245D01*
X-242385Y200246D01*
X-242286Y200251D01*
X-242186Y200260D01*
X-242087Y200273D01*
X-241989Y200290D01*
X-241891Y200311D01*
X-241795Y200335D01*
X-241699Y200363D01*
X-241605Y200395D01*
X-241511Y200431D01*
X-241420Y200470D01*
X-241330Y200513D01*
X-241241Y200559D01*
X-241155Y200609D01*
X-241070Y200662D01*
X-240988Y200718D01*
X-240908Y200778D01*
X-240831Y200841D01*
X-240756Y200906D01*
X-240683Y200975D01*
X-240613Y201046D01*
X-240547Y201120D01*
X-240483Y201197D01*
X-204351Y250360D02*
X-218227Y261477D01*
X-203956Y246790D02*
X-206339Y243816D01*
X-208124Y243619D01*
X-224179Y258109D02*
X-221797Y261083D01*
X-224179Y258109D02*
X-223982Y256324D01*
X-238298Y205956D02*
X-238101Y204171D01*
X-238298Y205956D02*
X-208124Y243619D01*
X-254156Y218661D02*
X-255941Y218464D01*
X-254156Y218661D02*
X-223982Y256324D01*
X-238101Y204171D02*
X-240483Y201197D01*
X-258324Y215490D02*
X-255941Y218464D01*
X-257929Y211920D02*
X-244053Y200803D01*
D14*
G36*
X-258769Y201527D02*
X-253370Y208266D01*
X-248613Y204455D01*
X-254012Y197716D01*
X-258769Y201527D01*
G37*
G36*
X-213667Y257825D02*
X-208268Y264564D01*
X-203511Y260753D01*
X-208910Y254014D01*
X-213667Y257825D01*
G37*
D10*
X-165100Y241300D02*
X-165100Y228600D01*
X-165100Y241300D02*
X-164791Y241304D01*
X-164482Y241315D01*
X-164173Y241334D01*
X-163865Y241360D01*
X-163557Y241394D01*
X-163251Y241435D01*
X-162945Y241484D01*
X-162641Y241540D01*
X-162339Y241604D01*
X-162038Y241675D01*
X-161738Y241753D01*
X-161441Y241838D01*
X-161146Y241931D01*
X-160853Y242031D01*
X-160563Y242138D01*
X-160276Y242252D01*
X-159991Y242373D01*
X-159709Y242501D01*
X-159431Y242635D01*
X-159156Y242777D01*
X-158884Y242925D01*
X-158617Y243080D01*
X-158353Y243241D01*
X-158093Y243408D01*
X-157837Y243582D01*
X-157585Y243762D01*
X-157338Y243948D01*
X-157096Y244140D01*
X-156858Y244338D01*
X-156625Y244541D01*
X-156397Y244751D01*
X-156175Y244965D01*
X-155957Y245185D01*
X-155745Y245411D01*
X-155539Y245641D01*
X-155338Y245876D01*
X-155143Y246116D01*
X-154954Y246361D01*
X-154771Y246610D01*
X-154594Y246864D01*
X-154424Y247122D01*
X-154259Y247384D01*
X-154101Y247650D01*
X-153950Y247920D01*
X-153805Y248193D01*
X-153667Y248470D01*
X-153536Y248750D01*
X-153412Y249033D01*
X-153294Y249319D01*
X-153184Y249608D01*
X-153080Y249899D01*
X-152984Y250193D01*
X-152895Y250489D01*
X-152813Y250788D01*
X-152738Y251088D01*
X-152671Y251390D01*
X-152611Y251693D01*
X-152559Y251998D01*
X-152514Y252304D01*
X-152476Y252611D01*
X-152446Y252919D01*
X-152424Y253227D01*
X-152408Y253536D01*
X-152401Y253845D01*
X-152401Y254155D01*
X-152408Y254464D01*
X-152424Y254773D01*
X-152446Y255081D01*
X-152476Y255389D01*
X-152514Y255696D01*
X-152559Y256002D01*
X-152611Y256307D01*
X-152671Y256610D01*
X-152738Y256912D01*
X-152813Y257212D01*
X-152895Y257511D01*
X-152984Y257807D01*
X-153080Y258101D01*
X-153184Y258392D01*
X-153294Y258681D01*
X-153412Y258967D01*
X-153536Y259250D01*
X-153667Y259530D01*
X-153805Y259807D01*
X-153950Y260080D01*
X-154101Y260350D01*
X-154259Y260616D01*
X-154424Y260878D01*
X-154594Y261136D01*
X-154771Y261390D01*
X-154954Y261639D01*
X-155143Y261884D01*
X-155338Y262124D01*
X-155539Y262359D01*
X-155745Y262589D01*
X-155957Y262815D01*
X-156175Y263035D01*
X-156397Y263249D01*
X-156625Y263459D01*
X-156858Y263662D01*
X-157096Y263860D01*
X-157338Y264052D01*
X-157585Y264238D01*
X-157837Y264418D01*
X-158093Y264592D01*
X-158353Y264759D01*
X-158617Y264920D01*
X-158884Y265075D01*
X-159156Y265223D01*
X-159431Y265365D01*
X-159709Y265499D01*
X-159991Y265627D01*
X-160276Y265748D01*
X-160563Y265862D01*
X-160853Y265969D01*
X-161146Y266069D01*
X-161441Y266162D01*
X-161738Y266247D01*
X-162038Y266325D01*
X-162339Y266396D01*
X-162641Y266460D01*
X-162945Y266516D01*
X-163251Y266565D01*
X-163557Y266606D01*
X-163865Y266640D01*
X-164173Y266666D01*
X-164482Y266685D01*
X-164791Y266696D01*
X-165100Y266700D01*
X190500Y279400D02*
X190500Y228600D01*
X-165100Y266700D02*
X-165100Y279400D01*
X190500Y279400D01*
X190500Y228600D02*
X-163830Y228600D01*
D15*
X294206Y-175672D02*
X324022Y-206656D01*
X294206Y-175672D02*
X232238Y-235304D01*
X262054Y-266288D01*
X324022Y-206656D01*
X291998Y-235391D02*
X305866Y-249802D01*
X291727Y-249531D01*
X291455Y-263670D01*
X277587Y-249259D01*
D16*
X249254Y-209616D02*
X249324Y-209545D01*
X249392Y-209472D01*
X249457Y-209397D01*
X249519Y-209319D01*
X249577Y-209239D01*
X249633Y-209156D01*
X249685Y-209072D01*
X249735Y-208985D01*
X249780Y-208897D01*
X249823Y-208807D01*
X249862Y-208716D01*
X249897Y-208623D01*
X249929Y-208528D01*
X249957Y-208433D01*
X249982Y-208337D01*
X250002Y-208239D01*
X250020Y-208141D01*
X250033Y-208043D01*
X250042Y-207944D01*
X250048Y-207845D01*
X250050Y-207745D01*
X250048Y-207646D01*
X250042Y-207546D01*
X250033Y-207447D01*
X250020Y-207349D01*
X250003Y-207251D01*
X249982Y-207154D01*
X249957Y-207057D01*
X249929Y-206962D01*
X249897Y-206868D01*
X249862Y-206775D01*
X249823Y-206683D01*
X249780Y-206593D01*
X249735Y-206505D01*
X249686Y-206418D01*
X249633Y-206334D01*
X249577Y-206252D01*
X249519Y-206171D01*
X249457Y-206093D01*
X249392Y-206018D01*
X249325Y-205945D01*
X249255Y-209616D02*
X249150Y-209715D01*
X249042Y-209811D01*
X248932Y-209904D01*
X248819Y-209994D01*
X248704Y-210081D01*
X248586Y-210165D01*
X248467Y-210246D01*
X248345Y-210324D01*
X248222Y-210398D01*
X248096Y-210470D01*
X247969Y-210538D01*
X247840Y-210602D01*
X247709Y-210663D01*
X247576Y-210721D01*
X247443Y-210775D01*
X247307Y-210826D01*
X247171Y-210873D01*
X247033Y-210916D01*
X246895Y-210956D01*
X246755Y-210992D01*
X246614Y-211024D01*
X246473Y-211053D01*
X246331Y-211078D01*
X246188Y-211099D01*
X246044Y-211117D01*
X245901Y-211131D01*
X245757Y-211141D01*
X245612Y-211147D01*
X245468Y-211149D01*
X245324Y-211148D01*
X240382Y-205543D02*
X240314Y-205470D01*
X240249Y-205395D01*
X240187Y-205317D01*
X240129Y-205236D01*
X240073Y-205154D01*
X240021Y-205070D01*
X239971Y-204983D01*
X239926Y-204895D01*
X239883Y-204805D01*
X239844Y-204713D01*
X239809Y-204620D01*
X239777Y-204526D01*
X239749Y-204431D01*
X239724Y-204334D01*
X239703Y-204237D01*
X239686Y-204139D01*
X239673Y-204041D01*
X239664Y-203942D01*
X239658Y-203842D01*
X239656Y-203743D01*
X239658Y-203643D01*
X239664Y-203544D01*
X239673Y-203445D01*
X239686Y-203347D01*
X239704Y-203249D01*
X239724Y-203151D01*
X239749Y-203055D01*
X239777Y-202960D01*
X239809Y-202865D01*
X239844Y-202772D01*
X239883Y-202681D01*
X239926Y-202591D01*
X239971Y-202503D01*
X240021Y-202416D01*
X240073Y-202332D01*
X240129Y-202249D01*
X240188Y-202169D01*
X240249Y-202091D01*
X240314Y-202016D01*
X240382Y-201943D01*
X240452Y-201872D01*
X240451Y-201872D02*
X240550Y-201778D01*
X240652Y-201688D01*
X240757Y-201601D01*
X240864Y-201516D01*
X240973Y-201435D01*
X241085Y-201357D01*
X241198Y-201282D01*
X241314Y-201210D01*
X241432Y-201141D01*
X241551Y-201076D01*
X241672Y-201014D01*
X241795Y-200955D01*
X241920Y-200900D01*
X242046Y-200848D01*
X242173Y-200800D01*
X242302Y-200756D01*
X242432Y-200715D01*
X242563Y-200678D01*
X242695Y-200644D01*
X242828Y-200615D01*
X242962Y-200588D01*
X243096Y-200566D01*
X243231Y-200548D01*
X242892Y-206280D02*
X242793Y-206302D01*
X242693Y-206320D01*
X242592Y-206334D01*
X242492Y-206344D01*
X242390Y-206350D01*
X242289Y-206352D01*
X242188Y-206350D01*
X242086Y-206345D01*
X241985Y-206335D01*
X241885Y-206322D01*
X241785Y-206305D01*
X241686Y-206284D01*
X241587Y-206259D01*
X241490Y-206231D01*
X241394Y-206198D01*
X241299Y-206162D01*
X241206Y-206123D01*
X241114Y-206080D01*
X241024Y-206033D01*
X240936Y-205983D01*
X240849Y-205930D01*
X240765Y-205873D01*
X240683Y-205813D01*
X240604Y-205750D01*
X240527Y-205684D01*
X240453Y-205615D01*
X240381Y-205543D01*
X246814Y-205208D02*
X246913Y-205186D01*
X247013Y-205168D01*
X247114Y-205154D01*
X247215Y-205144D01*
X247316Y-205138D01*
X247417Y-205136D01*
X247519Y-205138D01*
X247620Y-205143D01*
X247721Y-205153D01*
X247821Y-205166D01*
X247921Y-205183D01*
X248020Y-205204D01*
X248119Y-205229D01*
X248216Y-205257D01*
X248312Y-205290D01*
X248407Y-205326D01*
X248500Y-205365D01*
X248592Y-205408D01*
X248682Y-205455D01*
X248770Y-205505D01*
X248857Y-205558D01*
X248941Y-205615D01*
X249023Y-205675D01*
X249102Y-205738D01*
X249179Y-205804D01*
X249253Y-205873D01*
X249325Y-205945D01*
X246815Y-205208D02*
X242892Y-206280D01*
X246599Y-195956D02*
X254701Y-204375D01*
X258442Y-200774D01*
X262239Y-197121D02*
X254137Y-188702D01*
X263174Y-196221D02*
X261304Y-198021D01*
X253202Y-189602D02*
X255073Y-187802D01*
X258662Y-184348D02*
X266764Y-192767D01*
X258662Y-184348D02*
X261000Y-182097D01*
X261083Y-182020D01*
X261169Y-181946D01*
X261257Y-181875D01*
X261348Y-181807D01*
X261441Y-181742D01*
X261536Y-181680D01*
X261633Y-181622D01*
X261732Y-181567D01*
X261833Y-181516D01*
X261936Y-181468D01*
X262040Y-181424D01*
X262146Y-181384D01*
X262253Y-181347D01*
X262362Y-181314D01*
X262471Y-181285D01*
X262582Y-181260D01*
X262693Y-181238D01*
X262805Y-181221D01*
X262917Y-181207D01*
X263030Y-181198D01*
X263143Y-181192D01*
X263257Y-181190D01*
X263370Y-181192D01*
X263483Y-181198D01*
X263596Y-181208D01*
X263708Y-181222D01*
X263820Y-181240D01*
X263931Y-181262D01*
X264042Y-181288D01*
X264151Y-181317D01*
X264259Y-181351D01*
X264367Y-181388D01*
X264472Y-181428D01*
X264576Y-181473D01*
X264679Y-181521D01*
X264780Y-181573D01*
X264879Y-181628D01*
X264976Y-181686D01*
X265071Y-181748D01*
X265164Y-181813D01*
X265254Y-181882D01*
X265342Y-181953D01*
X265427Y-182028D01*
X265510Y-182105D01*
X265590Y-182185D01*
X269190Y-185927D01*
X269191Y-185927D02*
X269268Y-186010D01*
X269342Y-186096D01*
X269413Y-186184D01*
X269481Y-186275D01*
X269546Y-186368D01*
X269608Y-186463D01*
X269666Y-186560D01*
X269721Y-186659D01*
X269772Y-186760D01*
X269820Y-186863D01*
X269864Y-186967D01*
X269904Y-187073D01*
X269941Y-187180D01*
X269974Y-187289D01*
X270003Y-187398D01*
X270028Y-187509D01*
X270050Y-187620D01*
X270067Y-187732D01*
X270081Y-187844D01*
X270090Y-187957D01*
X270096Y-188070D01*
X270098Y-188184D01*
X270096Y-188297D01*
X270090Y-188410D01*
X270080Y-188523D01*
X270066Y-188635D01*
X270048Y-188747D01*
X270026Y-188858D01*
X270000Y-188969D01*
X269971Y-189078D01*
X269937Y-189186D01*
X269900Y-189294D01*
X269860Y-189399D01*
X269815Y-189503D01*
X269767Y-189606D01*
X269715Y-189707D01*
X269660Y-189806D01*
X269602Y-189903D01*
X269540Y-189998D01*
X269475Y-190091D01*
X269406Y-190181D01*
X269335Y-190269D01*
X269260Y-190354D01*
X269183Y-190437D01*
X269103Y-190517D01*
X269102Y-190516D02*
X266764Y-192767D01*
X275565Y-184297D02*
X279307Y-180696D01*
X275565Y-184297D02*
X267463Y-175878D01*
X271205Y-172277D01*
X273870Y-176919D02*
X271064Y-179620D01*
D17*
X127121Y-317500D02*
X127189Y-318133D01*
X127272Y-318763D01*
X127371Y-319391D01*
X127484Y-320017D01*
X127612Y-320639D01*
X127754Y-321259D01*
X127912Y-321875D01*
X128084Y-322487D01*
X128271Y-323095D01*
X128472Y-323698D01*
X128687Y-324296D01*
X128917Y-324889D01*
X129160Y-325476D01*
X129418Y-326057D01*
X129689Y-326632D01*
X129974Y-327201D01*
X130273Y-327762D01*
X130585Y-328316D01*
X130910Y-328863D01*
X131247Y-329401D01*
X131598Y-329931D01*
X131961Y-330453D01*
X132337Y-330966D01*
X132724Y-331470D01*
X127121Y-317500D02*
X127067Y-316851D01*
X127029Y-316202D01*
X127007Y-315551D01*
X127000Y-314900D01*
X127009Y-314249D01*
X127035Y-313599D01*
X127076Y-312949D01*
X127133Y-312301D01*
X127206Y-311654D01*
X127294Y-311009D01*
X127399Y-310366D01*
X127519Y-309726D01*
X127654Y-309090D01*
X127805Y-308456D01*
X127972Y-307827D01*
X128153Y-307202D01*
X128350Y-306581D01*
X128562Y-305966D01*
X128789Y-305356D01*
X129031Y-304751D01*
X129288Y-304153D01*
X129559Y-303561D01*
X129844Y-302976D01*
X130144Y-302398D01*
X130457Y-301828D01*
X130785Y-301265D01*
X131126Y-300711D01*
X131480Y-300165D01*
X131848Y-299628D01*
X132229Y-299099D01*
X132622Y-298581D01*
X133028Y-298072D01*
X133446Y-297573D01*
X133877Y-297085D01*
X134319Y-296607D01*
X134773Y-296140D01*
X135238Y-295685D01*
X135714Y-295241D01*
X136200Y-294808D01*
X136697Y-294388D01*
X137204Y-293980D01*
X137721Y-293584D01*
X138248Y-293201D01*
X138784Y-292831D01*
X139328Y-292474D01*
X139881Y-292131D01*
X140442Y-291801D01*
X141012Y-291485D01*
X141588Y-291183D01*
X142172Y-290896D01*
X142763Y-290622D01*
X143360Y-290363D01*
X143964Y-290119D01*
X144573Y-289889D01*
X145187Y-289675D01*
X145807Y-289475D01*
X161533Y-289475D02*
X162148Y-289674D01*
X162759Y-289886D01*
X163364Y-290114D01*
X163963Y-290356D01*
X164556Y-290613D01*
X165143Y-290884D01*
X165723Y-291169D01*
X166296Y-291468D01*
X166862Y-291781D01*
X167420Y-292108D01*
X167970Y-292448D01*
X168511Y-292801D01*
X169044Y-293167D01*
X169567Y-293546D01*
X170082Y-293938D01*
X170586Y-294342D01*
X171081Y-294758D01*
X171566Y-295185D01*
X172040Y-295625D01*
X172503Y-296076D01*
X172955Y-296538D01*
X173396Y-297011D01*
X173825Y-297494D01*
X174242Y-297988D01*
X174648Y-298491D01*
X175041Y-299004D01*
X175421Y-299527D01*
X175789Y-300059D01*
X176143Y-300599D01*
X176485Y-301148D01*
X176813Y-301705D01*
X177127Y-302270D01*
X177428Y-302842D01*
X177715Y-303421D01*
X177987Y-304008D01*
X178246Y-304600D01*
X178490Y-305199D01*
X178719Y-305803D01*
X178933Y-306413D01*
X179133Y-307028D01*
X179318Y-307647D01*
X179488Y-308271D01*
X179642Y-308899D01*
X179781Y-309530D01*
X179905Y-310164D01*
X180014Y-310801D01*
X180107Y-311441D01*
X180184Y-312083D01*
X180246Y-312726D01*
X180293Y-313371D01*
X180323Y-314017D01*
X180338Y-314663D01*
X180338Y-315309D01*
X180321Y-315956D01*
X180289Y-316601D01*
X180242Y-317246D01*
X180179Y-317889D01*
X180100Y-318531D01*
X180006Y-319170D01*
X179896Y-319807D01*
X179771Y-320442D01*
X179630Y-321073D01*
X179474Y-321700D01*
X179303Y-322323D01*
X179117Y-322942D01*
X178916Y-323557D01*
X178701Y-324166D01*
X178470Y-324770D01*
X178225Y-325368D01*
X177966Y-325960D01*
X177692Y-326546D01*
X177404Y-327125D01*
X177102Y-327696D01*
X176787Y-328260D01*
X176458Y-328817D01*
X176115Y-329365D01*
X175759Y-329905D01*
X175391Y-330436D01*
X175009Y-330958D01*
X174615Y-331470D01*
X132725Y-331470D01*
X131133Y-317500D02*
X127121Y-317500D01*
X150807Y-317500D02*
X156533Y-317500D01*
X176207Y-317500D02*
X180219Y-317500D01*
D18*
X-227420Y311326D02*
X-240627Y316538D01*
X-227420Y311326D02*
X-218452Y310841D01*
X-209971Y301388D02*
X-210457Y292421D01*
X-206702Y278727D01*
X-274683Y268919D02*
X-278438Y282613D01*
X-257720Y250014D02*
X-244513Y244802D01*
X-278438Y282613D02*
X-240627Y316538D01*
X-206702Y278727D02*
X-244513Y244802D01*
X-266688Y250499D02*
X-275169Y259952D01*
X-274683Y268919D01*
X-266688Y250499D02*
X-257720Y250014D01*
X-209971Y301388D02*
X-218452Y310841D01*
D17*
X-247296Y276429D02*
X-252023Y272189D01*
X-237844Y284911D02*
X-233117Y289151D01*
X-237844Y284911D02*
X-251537Y281156D01*
D18*
X-273013Y-199123D02*
X-279267Y-211870D01*
X-280471Y-220770D01*
X-290573Y-228466D02*
X-299472Y-227262D01*
X-313423Y-229907D01*
X-317748Y-161358D02*
X-303797Y-158713D01*
X-337953Y-176750D02*
X-344207Y-189497D01*
X-303797Y-158713D02*
X-273013Y-199123D01*
X-313423Y-229907D02*
X-344207Y-189497D01*
X-336749Y-167850D02*
X-326647Y-160154D01*
X-317748Y-161358D01*
X-336749Y-167850D02*
X-337953Y-176750D01*
X-290573Y-228466D02*
X-280471Y-220770D01*
D17*
X-312458Y-189259D02*
X-316306Y-184207D01*
X-304762Y-199361D02*
X-300914Y-204413D01*
X-304762Y-199361D02*
X-307407Y-185411D01*
D18*
X76200Y190500D02*
X82550Y190500D01*
X95250Y190500D01*
X101600Y184150D01*
X101600Y171450D02*
X95250Y165100D01*
X82550Y165100D01*
X76200Y165100D01*
X44450Y190500D02*
X31750Y190500D01*
X44450Y190500D02*
X50800Y190500D01*
X50800Y165100D02*
X44450Y165100D01*
X50800Y190500D02*
X57150Y190500D01*
X69850Y190500D01*
X76200Y190500D01*
X76200Y165100D02*
X69850Y165100D01*
X57150Y165100D01*
X50800Y165100D01*
X25400Y171450D02*
X25400Y184150D01*
X31750Y190500D01*
X25400Y171450D02*
X31750Y165100D01*
X44450Y165100D01*
X101600Y171450D02*
X101600Y184150D01*
D17*
X66865Y-166074D02*
X70083Y-167414D01*
X66865Y-168755D01*
X73229Y-169291D02*
X73229Y-164465D01*
X72693Y-169291D02*
X73765Y-169291D01*
X73765Y-164465D02*
X72693Y-164465D01*
X76558Y-164465D02*
X76558Y-169291D01*
X78167Y-167146D02*
X76558Y-164465D01*
X78167Y-167146D02*
X79775Y-164465D01*
X79775Y-169291D01*
X83044Y-167950D02*
X83044Y-164465D01*
X83043Y-167950D02*
X83045Y-168021D01*
X83051Y-168093D01*
X83060Y-168163D01*
X83073Y-168233D01*
X83090Y-168303D01*
X83111Y-168371D01*
X83135Y-168438D01*
X83163Y-168504D01*
X83194Y-168568D01*
X83229Y-168631D01*
X83267Y-168691D01*
X83308Y-168750D01*
X83352Y-168806D01*
X83399Y-168860D01*
X83448Y-168911D01*
X83501Y-168959D01*
X83556Y-169005D01*
X83613Y-169047D01*
X83673Y-169087D01*
X83734Y-169123D01*
X83798Y-169156D01*
X83863Y-169185D01*
X83929Y-169211D01*
X83997Y-169234D01*
X84066Y-169253D01*
X84136Y-169268D01*
X84206Y-169279D01*
X84277Y-169287D01*
X84348Y-169291D01*
X84420Y-169291D01*
X84491Y-169287D01*
X84562Y-169279D01*
X84632Y-169268D01*
X84702Y-169253D01*
X84771Y-169234D01*
X84839Y-169211D01*
X84905Y-169185D01*
X84970Y-169156D01*
X85034Y-169123D01*
X85095Y-169087D01*
X85155Y-169047D01*
X85212Y-169005D01*
X85267Y-168959D01*
X85320Y-168911D01*
X85369Y-168860D01*
X85416Y-168806D01*
X85460Y-168750D01*
X85501Y-168691D01*
X85539Y-168631D01*
X85574Y-168568D01*
X85605Y-168504D01*
X85633Y-168438D01*
X85657Y-168371D01*
X85678Y-168303D01*
X85695Y-168233D01*
X85708Y-168163D01*
X85717Y-168093D01*
X85723Y-168021D01*
X85725Y-167950D01*
X85725Y-164465D01*
X99060Y-175260D02*
X-129540Y-175260D01*
X99060Y-175260D02*
X99060Y-73660D01*
X-129540Y-73660D01*
X-129540Y-175260D01*
X-38100Y-50800D02*
X-38100Y76200D01*
D16*
X-208252Y-42503D02*
X-211497Y-50292D01*
X-205006Y-50292D02*
X-208252Y-42503D01*
X-211497Y-37338D02*
X-208252Y-29549D01*
X-205006Y-37338D01*
X-203708Y-24116D02*
X-215392Y-24116D01*
X-215392Y-20870D01*
X-215390Y-20757D01*
X-215384Y-20644D01*
X-215374Y-20531D01*
X-215360Y-20418D01*
X-215343Y-20306D01*
X-215321Y-20195D01*
X-215296Y-20085D01*
X-215266Y-19975D01*
X-215233Y-19867D01*
X-215196Y-19760D01*
X-215156Y-19654D01*
X-215111Y-19550D01*
X-215063Y-19447D01*
X-215012Y-19346D01*
X-214957Y-19247D01*
X-214899Y-19150D01*
X-214837Y-19055D01*
X-214772Y-18962D01*
X-214704Y-18872D01*
X-214633Y-18784D01*
X-214558Y-18698D01*
X-214481Y-18615D01*
X-214401Y-18535D01*
X-214318Y-18458D01*
X-214232Y-18383D01*
X-214144Y-18312D01*
X-214054Y-18244D01*
X-213961Y-18179D01*
X-213866Y-18117D01*
X-213769Y-18059D01*
X-213670Y-18004D01*
X-213569Y-17953D01*
X-213466Y-17905D01*
X-213362Y-17860D01*
X-213256Y-17820D01*
X-213149Y-17783D01*
X-213041Y-17750D01*
X-212931Y-17720D01*
X-212821Y-17695D01*
X-212710Y-17673D01*
X-212598Y-17656D01*
X-212485Y-17642D01*
X-212372Y-17632D01*
X-212259Y-17626D01*
X-212146Y-17624D01*
X-212146Y-17625D02*
X-206954Y-17625D01*
X-206954Y-17624D02*
X-206841Y-17626D01*
X-206728Y-17632D01*
X-206615Y-17642D01*
X-206502Y-17656D01*
X-206390Y-17673D01*
X-206279Y-17695D01*
X-206169Y-17720D01*
X-206059Y-17750D01*
X-205951Y-17783D01*
X-205844Y-17820D01*
X-205738Y-17860D01*
X-205634Y-17905D01*
X-205531Y-17953D01*
X-205430Y-18004D01*
X-205331Y-18059D01*
X-205234Y-18117D01*
X-205139Y-18179D01*
X-205046Y-18244D01*
X-204956Y-18312D01*
X-204868Y-18383D01*
X-204782Y-18458D01*
X-204699Y-18535D01*
X-204619Y-18615D01*
X-204542Y-18698D01*
X-204467Y-18784D01*
X-204396Y-18872D01*
X-204328Y-18962D01*
X-204263Y-19055D01*
X-204201Y-19150D01*
X-204143Y-19247D01*
X-204088Y-19346D01*
X-204037Y-19447D01*
X-203989Y-19550D01*
X-203944Y-19654D01*
X-203904Y-19760D01*
X-203867Y-19867D01*
X-203834Y-19975D01*
X-203804Y-20085D01*
X-203779Y-20195D01*
X-203757Y-20306D01*
X-203740Y-20418D01*
X-203726Y-20531D01*
X-203716Y-20644D01*
X-203710Y-20757D01*
X-203708Y-20870D01*
X-203708Y-24116D01*
X-203708Y-11850D02*
X-215392Y-11850D01*
X-215392Y-8605D01*
X-215390Y-8492D01*
X-215384Y-8379D01*
X-215374Y-8266D01*
X-215360Y-8153D01*
X-215343Y-8041D01*
X-215321Y-7930D01*
X-215296Y-7820D01*
X-215266Y-7710D01*
X-215233Y-7602D01*
X-215196Y-7495D01*
X-215156Y-7389D01*
X-215111Y-7285D01*
X-215063Y-7182D01*
X-215012Y-7081D01*
X-214957Y-6982D01*
X-214899Y-6885D01*
X-214837Y-6790D01*
X-214772Y-6697D01*
X-214704Y-6607D01*
X-214633Y-6519D01*
X-214558Y-6433D01*
X-214481Y-6350D01*
X-214401Y-6270D01*
X-214318Y-6193D01*
X-214232Y-6118D01*
X-214144Y-6047D01*
X-214054Y-5979D01*
X-213961Y-5914D01*
X-213866Y-5852D01*
X-213769Y-5794D01*
X-213670Y-5739D01*
X-213569Y-5688D01*
X-213466Y-5640D01*
X-213362Y-5595D01*
X-213256Y-5555D01*
X-213149Y-5518D01*
X-213041Y-5485D01*
X-212931Y-5455D01*
X-212821Y-5430D01*
X-212710Y-5408D01*
X-212598Y-5391D01*
X-212485Y-5377D01*
X-212372Y-5367D01*
X-212259Y-5361D01*
X-212146Y-5359D01*
X-212033Y-5361D01*
X-211920Y-5367D01*
X-211807Y-5377D01*
X-211694Y-5391D01*
X-211582Y-5408D01*
X-211471Y-5430D01*
X-211361Y-5455D01*
X-211251Y-5485D01*
X-211143Y-5518D01*
X-211036Y-5555D01*
X-210930Y-5595D01*
X-210826Y-5640D01*
X-210723Y-5688D01*
X-210622Y-5739D01*
X-210523Y-5794D01*
X-210426Y-5852D01*
X-210331Y-5914D01*
X-210238Y-5979D01*
X-210148Y-6047D01*
X-210060Y-6118D01*
X-209974Y-6193D01*
X-209891Y-6270D01*
X-209811Y-6350D01*
X-209734Y-6433D01*
X-209659Y-6519D01*
X-209588Y-6607D01*
X-209520Y-6697D01*
X-209455Y-6790D01*
X-209393Y-6885D01*
X-209335Y-6982D01*
X-209280Y-7081D01*
X-209229Y-7182D01*
X-209181Y-7285D01*
X-209136Y-7389D01*
X-209096Y-7495D01*
X-209059Y-7602D01*
X-209026Y-7710D01*
X-208996Y-7820D01*
X-208971Y-7930D01*
X-208949Y-8041D01*
X-208932Y-8153D01*
X-208918Y-8266D01*
X-208908Y-8379D01*
X-208902Y-8492D01*
X-208900Y-8605D01*
X-208901Y-8605D02*
X-208901Y-11850D01*
X-208901Y-7956D02*
X-203708Y-5359D01*
X-203708Y2752D02*
X-215392Y-1143D01*
X-215392Y6646D02*
X-203708Y2752D01*
X-206954Y10936D02*
X-207067Y10938D01*
X-207180Y10944D01*
X-207293Y10954D01*
X-207406Y10968D01*
X-207518Y10985D01*
X-207629Y11007D01*
X-207739Y11032D01*
X-207849Y11062D01*
X-207957Y11095D01*
X-208064Y11132D01*
X-208170Y11172D01*
X-208274Y11217D01*
X-208377Y11265D01*
X-208478Y11316D01*
X-208577Y11371D01*
X-208674Y11429D01*
X-208769Y11491D01*
X-208862Y11556D01*
X-208952Y11624D01*
X-209040Y11695D01*
X-209126Y11770D01*
X-209209Y11847D01*
X-209289Y11927D01*
X-209366Y12010D01*
X-209441Y12096D01*
X-209512Y12184D01*
X-209580Y12274D01*
X-209645Y12367D01*
X-209707Y12462D01*
X-209765Y12559D01*
X-209820Y12658D01*
X-209871Y12759D01*
X-209919Y12862D01*
X-209964Y12966D01*
X-210004Y13072D01*
X-210041Y13179D01*
X-210074Y13287D01*
X-210104Y13397D01*
X-210129Y13507D01*
X-210151Y13618D01*
X-210168Y13730D01*
X-210182Y13843D01*
X-210192Y13956D01*
X-210198Y14069D01*
X-210200Y14182D01*
X-210198Y14295D01*
X-210192Y14408D01*
X-210182Y14521D01*
X-210168Y14634D01*
X-210151Y14746D01*
X-210129Y14857D01*
X-210104Y14967D01*
X-210074Y15077D01*
X-210041Y15185D01*
X-210004Y15292D01*
X-209964Y15398D01*
X-209919Y15502D01*
X-209871Y15605D01*
X-209820Y15706D01*
X-209765Y15805D01*
X-209707Y15902D01*
X-209645Y15997D01*
X-209580Y16090D01*
X-209512Y16180D01*
X-209441Y16268D01*
X-209366Y16354D01*
X-209289Y16437D01*
X-209209Y16517D01*
X-209126Y16594D01*
X-209040Y16669D01*
X-208952Y16740D01*
X-208862Y16808D01*
X-208769Y16873D01*
X-208674Y16935D01*
X-208577Y16993D01*
X-208478Y17048D01*
X-208377Y17099D01*
X-208274Y17147D01*
X-208170Y17192D01*
X-208064Y17232D01*
X-207957Y17269D01*
X-207849Y17302D01*
X-207739Y17332D01*
X-207629Y17357D01*
X-207518Y17379D01*
X-207406Y17396D01*
X-207293Y17410D01*
X-207180Y17420D01*
X-207067Y17426D01*
X-206954Y17428D01*
X-206841Y17426D01*
X-206728Y17420D01*
X-206615Y17410D01*
X-206502Y17396D01*
X-206390Y17379D01*
X-206279Y17357D01*
X-206169Y17332D01*
X-206059Y17302D01*
X-205951Y17269D01*
X-205844Y17232D01*
X-205738Y17192D01*
X-205634Y17147D01*
X-205531Y17099D01*
X-205430Y17048D01*
X-205331Y16993D01*
X-205234Y16935D01*
X-205139Y16873D01*
X-205046Y16808D01*
X-204956Y16740D01*
X-204868Y16669D01*
X-204782Y16594D01*
X-204699Y16517D01*
X-204619Y16437D01*
X-204542Y16354D01*
X-204467Y16268D01*
X-204396Y16180D01*
X-204328Y16090D01*
X-204263Y15997D01*
X-204201Y15902D01*
X-204143Y15805D01*
X-204088Y15706D01*
X-204037Y15605D01*
X-203989Y15502D01*
X-203944Y15398D01*
X-203904Y15292D01*
X-203867Y15185D01*
X-203834Y15077D01*
X-203804Y14967D01*
X-203779Y14857D01*
X-203757Y14746D01*
X-203740Y14634D01*
X-203726Y14521D01*
X-203716Y14408D01*
X-203710Y14295D01*
X-203708Y14182D01*
X-203710Y14069D01*
X-203716Y13956D01*
X-203726Y13843D01*
X-203740Y13730D01*
X-203757Y13618D01*
X-203779Y13507D01*
X-203804Y13397D01*
X-203834Y13287D01*
X-203867Y13179D01*
X-203904Y13072D01*
X-203944Y12966D01*
X-203989Y12862D01*
X-204037Y12759D01*
X-204088Y12658D01*
X-204143Y12559D01*
X-204201Y12462D01*
X-204263Y12367D01*
X-204328Y12274D01*
X-204396Y12184D01*
X-204467Y12096D01*
X-204542Y12010D01*
X-204619Y11927D01*
X-204699Y11847D01*
X-204782Y11770D01*
X-204868Y11695D01*
X-204956Y11624D01*
X-205046Y11556D01*
X-205139Y11491D01*
X-205234Y11429D01*
X-205331Y11371D01*
X-205430Y11316D01*
X-205531Y11265D01*
X-205634Y11217D01*
X-205738Y11172D01*
X-205844Y11132D01*
X-205951Y11095D01*
X-206059Y11062D01*
X-206169Y11032D01*
X-206279Y11007D01*
X-206390Y10985D01*
X-206502Y10968D01*
X-206615Y10954D01*
X-206728Y10944D01*
X-206841Y10938D01*
X-206954Y10936D01*
X-212796Y11586D02*
X-212897Y11588D01*
X-212997Y11594D01*
X-213097Y11604D01*
X-213197Y11617D01*
X-213296Y11635D01*
X-213395Y11656D01*
X-213492Y11681D01*
X-213589Y11710D01*
X-213684Y11743D01*
X-213778Y11779D01*
X-213870Y11819D01*
X-213961Y11862D01*
X-214050Y11909D01*
X-214137Y11959D01*
X-214223Y12013D01*
X-214306Y12070D01*
X-214386Y12130D01*
X-214465Y12193D01*
X-214541Y12260D01*
X-214614Y12329D01*
X-214684Y12401D01*
X-214752Y12475D01*
X-214817Y12552D01*
X-214878Y12632D01*
X-214937Y12714D01*
X-214992Y12798D01*
X-215044Y12884D01*
X-215093Y12972D01*
X-215138Y13062D01*
X-215180Y13154D01*
X-215218Y13247D01*
X-215252Y13342D01*
X-215283Y13437D01*
X-215310Y13534D01*
X-215333Y13632D01*
X-215353Y13731D01*
X-215368Y13831D01*
X-215380Y13931D01*
X-215388Y14031D01*
X-215392Y14132D01*
X-215392Y14232D01*
X-215388Y14333D01*
X-215380Y14433D01*
X-215368Y14533D01*
X-215353Y14633D01*
X-215333Y14732D01*
X-215310Y14830D01*
X-215283Y14927D01*
X-215252Y15022D01*
X-215218Y15117D01*
X-215180Y15210D01*
X-215138Y15302D01*
X-215093Y15392D01*
X-215044Y15480D01*
X-214992Y15566D01*
X-214937Y15650D01*
X-214878Y15732D01*
X-214817Y15812D01*
X-214752Y15889D01*
X-214684Y15963D01*
X-214614Y16035D01*
X-214541Y16104D01*
X-214465Y16171D01*
X-214386Y16234D01*
X-214306Y16294D01*
X-214223Y16351D01*
X-214137Y16405D01*
X-214050Y16455D01*
X-213961Y16502D01*
X-213870Y16545D01*
X-213778Y16585D01*
X-213684Y16621D01*
X-213589Y16654D01*
X-213492Y16683D01*
X-213395Y16708D01*
X-213296Y16729D01*
X-213197Y16747D01*
X-213097Y16760D01*
X-212997Y16770D01*
X-212897Y16776D01*
X-212796Y16778D01*
X-212695Y16776D01*
X-212595Y16770D01*
X-212495Y16760D01*
X-212395Y16747D01*
X-212296Y16729D01*
X-212197Y16708D01*
X-212100Y16683D01*
X-212003Y16654D01*
X-211908Y16621D01*
X-211814Y16585D01*
X-211722Y16545D01*
X-211631Y16502D01*
X-211542Y16455D01*
X-211455Y16405D01*
X-211369Y16351D01*
X-211286Y16294D01*
X-211206Y16234D01*
X-211127Y16171D01*
X-211051Y16104D01*
X-210978Y16035D01*
X-210908Y15963D01*
X-210840Y15889D01*
X-210775Y15812D01*
X-210714Y15732D01*
X-210655Y15650D01*
X-210600Y15566D01*
X-210548Y15480D01*
X-210499Y15392D01*
X-210454Y15302D01*
X-210412Y15210D01*
X-210374Y15117D01*
X-210340Y15022D01*
X-210309Y14927D01*
X-210282Y14830D01*
X-210259Y14732D01*
X-210239Y14633D01*
X-210224Y14533D01*
X-210212Y14433D01*
X-210204Y14333D01*
X-210200Y14232D01*
X-210200Y14132D01*
X-210204Y14031D01*
X-210212Y13931D01*
X-210224Y13831D01*
X-210239Y13731D01*
X-210259Y13632D01*
X-210282Y13534D01*
X-210309Y13437D01*
X-210340Y13342D01*
X-210374Y13247D01*
X-210412Y13154D01*
X-210454Y13062D01*
X-210499Y12972D01*
X-210548Y12884D01*
X-210600Y12798D01*
X-210655Y12714D01*
X-210714Y12632D01*
X-210775Y12552D01*
X-210840Y12475D01*
X-210908Y12401D01*
X-210978Y12329D01*
X-211051Y12260D01*
X-211127Y12193D01*
X-211206Y12130D01*
X-211286Y12070D01*
X-211369Y12013D01*
X-211455Y11959D01*
X-211542Y11909D01*
X-211631Y11862D01*
X-211722Y11819D01*
X-211814Y11779D01*
X-211908Y11743D01*
X-212003Y11710D01*
X-212100Y11681D01*
X-212197Y11656D01*
X-212296Y11635D01*
X-212395Y11617D01*
X-212495Y11604D01*
X-212595Y11594D01*
X-212695Y11588D01*
X-212796Y11586D01*
X-206954Y22366D02*
X-207067Y22368D01*
X-207180Y22374D01*
X-207293Y22384D01*
X-207406Y22398D01*
X-207518Y22415D01*
X-207629Y22437D01*
X-207739Y22462D01*
X-207849Y22492D01*
X-207957Y22525D01*
X-208064Y22562D01*
X-208170Y22602D01*
X-208274Y22647D01*
X-208377Y22695D01*
X-208478Y22746D01*
X-208577Y22801D01*
X-208674Y22859D01*
X-208769Y22921D01*
X-208862Y22986D01*
X-208952Y23054D01*
X-209040Y23125D01*
X-209126Y23200D01*
X-209209Y23277D01*
X-209289Y23357D01*
X-209366Y23440D01*
X-209441Y23526D01*
X-209512Y23614D01*
X-209580Y23704D01*
X-209645Y23797D01*
X-209707Y23892D01*
X-209765Y23989D01*
X-209820Y24088D01*
X-209871Y24189D01*
X-209919Y24292D01*
X-209964Y24396D01*
X-210004Y24502D01*
X-210041Y24609D01*
X-210074Y24717D01*
X-210104Y24827D01*
X-210129Y24937D01*
X-210151Y25048D01*
X-210168Y25160D01*
X-210182Y25273D01*
X-210192Y25386D01*
X-210198Y25499D01*
X-210200Y25612D01*
X-210198Y25725D01*
X-210192Y25838D01*
X-210182Y25951D01*
X-210168Y26064D01*
X-210151Y26176D01*
X-210129Y26287D01*
X-210104Y26397D01*
X-210074Y26507D01*
X-210041Y26615D01*
X-210004Y26722D01*
X-209964Y26828D01*
X-209919Y26932D01*
X-209871Y27035D01*
X-209820Y27136D01*
X-209765Y27235D01*
X-209707Y27332D01*
X-209645Y27427D01*
X-209580Y27520D01*
X-209512Y27610D01*
X-209441Y27698D01*
X-209366Y27784D01*
X-209289Y27867D01*
X-209209Y27947D01*
X-209126Y28024D01*
X-209040Y28099D01*
X-208952Y28170D01*
X-208862Y28238D01*
X-208769Y28303D01*
X-208674Y28365D01*
X-208577Y28423D01*
X-208478Y28478D01*
X-208377Y28529D01*
X-208274Y28577D01*
X-208170Y28622D01*
X-208064Y28662D01*
X-207957Y28699D01*
X-207849Y28732D01*
X-207739Y28762D01*
X-207629Y28787D01*
X-207518Y28809D01*
X-207406Y28826D01*
X-207293Y28840D01*
X-207180Y28850D01*
X-207067Y28856D01*
X-206954Y28858D01*
X-206841Y28856D01*
X-206728Y28850D01*
X-206615Y28840D01*
X-206502Y28826D01*
X-206390Y28809D01*
X-206279Y28787D01*
X-206169Y28762D01*
X-206059Y28732D01*
X-205951Y28699D01*
X-205844Y28662D01*
X-205738Y28622D01*
X-205634Y28577D01*
X-205531Y28529D01*
X-205430Y28478D01*
X-205331Y28423D01*
X-205234Y28365D01*
X-205139Y28303D01*
X-205046Y28238D01*
X-204956Y28170D01*
X-204868Y28099D01*
X-204782Y28024D01*
X-204699Y27947D01*
X-204619Y27867D01*
X-204542Y27784D01*
X-204467Y27698D01*
X-204396Y27610D01*
X-204328Y27520D01*
X-204263Y27427D01*
X-204201Y27332D01*
X-204143Y27235D01*
X-204088Y27136D01*
X-204037Y27035D01*
X-203989Y26932D01*
X-203944Y26828D01*
X-203904Y26722D01*
X-203867Y26615D01*
X-203834Y26507D01*
X-203804Y26397D01*
X-203779Y26287D01*
X-203757Y26176D01*
X-203740Y26064D01*
X-203726Y25951D01*
X-203716Y25838D01*
X-203710Y25725D01*
X-203708Y25612D01*
X-203710Y25499D01*
X-203716Y25386D01*
X-203726Y25273D01*
X-203740Y25160D01*
X-203757Y25048D01*
X-203779Y24937D01*
X-203804Y24827D01*
X-203834Y24717D01*
X-203867Y24609D01*
X-203904Y24502D01*
X-203944Y24396D01*
X-203989Y24292D01*
X-204037Y24189D01*
X-204088Y24088D01*
X-204143Y23989D01*
X-204201Y23892D01*
X-204263Y23797D01*
X-204328Y23704D01*
X-204396Y23614D01*
X-204467Y23526D01*
X-204542Y23440D01*
X-204619Y23357D01*
X-204699Y23277D01*
X-204782Y23200D01*
X-204868Y23125D01*
X-204956Y23054D01*
X-205046Y22986D01*
X-205139Y22921D01*
X-205234Y22859D01*
X-205331Y22801D01*
X-205430Y22746D01*
X-205531Y22695D01*
X-205634Y22647D01*
X-205738Y22602D01*
X-205844Y22562D01*
X-205951Y22525D01*
X-206059Y22492D01*
X-206169Y22462D01*
X-206279Y22437D01*
X-206390Y22415D01*
X-206502Y22398D01*
X-206615Y22384D01*
X-206728Y22374D01*
X-206841Y22368D01*
X-206954Y22366D01*
X-212796Y23016D02*
X-212897Y23018D01*
X-212997Y23024D01*
X-213097Y23034D01*
X-213197Y23047D01*
X-213296Y23065D01*
X-213395Y23086D01*
X-213492Y23111D01*
X-213589Y23140D01*
X-213684Y23173D01*
X-213778Y23209D01*
X-213870Y23249D01*
X-213961Y23292D01*
X-214050Y23339D01*
X-214137Y23389D01*
X-214223Y23443D01*
X-214306Y23500D01*
X-214386Y23560D01*
X-214465Y23623D01*
X-214541Y23690D01*
X-214614Y23759D01*
X-214684Y23831D01*
X-214752Y23905D01*
X-214817Y23982D01*
X-214878Y24062D01*
X-214937Y24144D01*
X-214992Y24228D01*
X-215044Y24314D01*
X-215093Y24402D01*
X-215138Y24492D01*
X-215180Y24584D01*
X-215218Y24677D01*
X-215252Y24772D01*
X-215283Y24867D01*
X-215310Y24964D01*
X-215333Y25062D01*
X-215353Y25161D01*
X-215368Y25261D01*
X-215380Y25361D01*
X-215388Y25461D01*
X-215392Y25562D01*
X-215392Y25662D01*
X-215388Y25763D01*
X-215380Y25863D01*
X-215368Y25963D01*
X-215353Y26063D01*
X-215333Y26162D01*
X-215310Y26260D01*
X-215283Y26357D01*
X-215252Y26452D01*
X-215218Y26547D01*
X-215180Y26640D01*
X-215138Y26732D01*
X-215093Y26822D01*
X-215044Y26910D01*
X-214992Y26996D01*
X-214937Y27080D01*
X-214878Y27162D01*
X-214817Y27242D01*
X-214752Y27319D01*
X-214684Y27393D01*
X-214614Y27465D01*
X-214541Y27534D01*
X-214465Y27601D01*
X-214386Y27664D01*
X-214306Y27724D01*
X-214223Y27781D01*
X-214137Y27835D01*
X-214050Y27885D01*
X-213961Y27932D01*
X-213870Y27975D01*
X-213778Y28015D01*
X-213684Y28051D01*
X-213589Y28084D01*
X-213492Y28113D01*
X-213395Y28138D01*
X-213296Y28159D01*
X-213197Y28177D01*
X-213097Y28190D01*
X-212997Y28200D01*
X-212897Y28206D01*
X-212796Y28208D01*
X-212695Y28206D01*
X-212595Y28200D01*
X-212495Y28190D01*
X-212395Y28177D01*
X-212296Y28159D01*
X-212197Y28138D01*
X-212100Y28113D01*
X-212003Y28084D01*
X-211908Y28051D01*
X-211814Y28015D01*
X-211722Y27975D01*
X-211631Y27932D01*
X-211542Y27885D01*
X-211455Y27835D01*
X-211369Y27781D01*
X-211286Y27724D01*
X-211206Y27664D01*
X-211127Y27601D01*
X-211051Y27534D01*
X-210978Y27465D01*
X-210908Y27393D01*
X-210840Y27319D01*
X-210775Y27242D01*
X-210714Y27162D01*
X-210655Y27080D01*
X-210600Y26996D01*
X-210548Y26910D01*
X-210499Y26822D01*
X-210454Y26732D01*
X-210412Y26640D01*
X-210374Y26547D01*
X-210340Y26452D01*
X-210309Y26357D01*
X-210282Y26260D01*
X-210259Y26162D01*
X-210239Y26063D01*
X-210224Y25963D01*
X-210212Y25863D01*
X-210204Y25763D01*
X-210200Y25662D01*
X-210200Y25562D01*
X-210204Y25461D01*
X-210212Y25361D01*
X-210224Y25261D01*
X-210239Y25161D01*
X-210259Y25062D01*
X-210282Y24964D01*
X-210309Y24867D01*
X-210340Y24772D01*
X-210374Y24677D01*
X-210412Y24584D01*
X-210454Y24492D01*
X-210499Y24402D01*
X-210548Y24314D01*
X-210600Y24228D01*
X-210655Y24144D01*
X-210714Y24062D01*
X-210775Y23982D01*
X-210840Y23905D01*
X-210908Y23831D01*
X-210978Y23759D01*
X-211051Y23690D01*
X-211127Y23623D01*
X-211206Y23560D01*
X-211286Y23500D01*
X-211369Y23443D01*
X-211455Y23389D01*
X-211542Y23339D01*
X-211631Y23292D01*
X-211722Y23249D01*
X-211814Y23209D01*
X-211908Y23173D01*
X-212003Y23140D01*
X-212100Y23111D01*
X-212197Y23086D01*
X-212296Y23065D01*
X-212395Y23047D01*
X-212495Y23034D01*
X-212595Y23024D01*
X-212695Y23018D01*
X-212796Y23016D01*
X-203708Y33796D02*
X-203708Y37042D01*
X-203710Y37155D01*
X-203716Y37268D01*
X-203726Y37381D01*
X-203740Y37494D01*
X-203757Y37606D01*
X-203779Y37717D01*
X-203804Y37827D01*
X-203834Y37937D01*
X-203867Y38045D01*
X-203904Y38152D01*
X-203944Y38258D01*
X-203989Y38362D01*
X-204037Y38465D01*
X-204088Y38566D01*
X-204143Y38665D01*
X-204201Y38762D01*
X-204263Y38857D01*
X-204328Y38950D01*
X-204396Y39040D01*
X-204467Y39128D01*
X-204542Y39214D01*
X-204619Y39297D01*
X-204699Y39377D01*
X-204782Y39454D01*
X-204868Y39529D01*
X-204956Y39600D01*
X-205046Y39668D01*
X-205139Y39733D01*
X-205234Y39795D01*
X-205331Y39853D01*
X-205430Y39908D01*
X-205531Y39959D01*
X-205634Y40007D01*
X-205738Y40052D01*
X-205844Y40092D01*
X-205951Y40129D01*
X-206059Y40162D01*
X-206169Y40192D01*
X-206279Y40217D01*
X-206390Y40239D01*
X-206502Y40256D01*
X-206615Y40270D01*
X-206728Y40280D01*
X-206841Y40286D01*
X-206954Y40288D01*
X-207067Y40286D01*
X-207180Y40280D01*
X-207293Y40270D01*
X-207406Y40256D01*
X-207518Y40239D01*
X-207629Y40217D01*
X-207739Y40192D01*
X-207849Y40162D01*
X-207957Y40129D01*
X-208064Y40092D01*
X-208170Y40052D01*
X-208274Y40007D01*
X-208377Y39959D01*
X-208478Y39908D01*
X-208577Y39853D01*
X-208674Y39795D01*
X-208769Y39733D01*
X-208862Y39668D01*
X-208952Y39600D01*
X-209040Y39529D01*
X-209126Y39454D01*
X-209209Y39377D01*
X-209289Y39297D01*
X-209366Y39214D01*
X-209441Y39128D01*
X-209512Y39040D01*
X-209580Y38950D01*
X-209645Y38857D01*
X-209707Y38762D01*
X-209765Y38665D01*
X-209820Y38566D01*
X-209871Y38465D01*
X-209919Y38362D01*
X-209964Y38258D01*
X-210004Y38152D01*
X-210041Y38045D01*
X-210074Y37937D01*
X-210104Y37827D01*
X-210129Y37717D01*
X-210151Y37606D01*
X-210168Y37494D01*
X-210182Y37381D01*
X-210192Y37268D01*
X-210198Y37155D01*
X-210200Y37042D01*
X-215392Y37691D02*
X-215392Y33796D01*
X-215392Y37691D02*
X-215390Y37792D01*
X-215384Y37892D01*
X-215374Y37992D01*
X-215361Y38092D01*
X-215343Y38191D01*
X-215322Y38290D01*
X-215297Y38387D01*
X-215268Y38484D01*
X-215235Y38579D01*
X-215199Y38673D01*
X-215159Y38765D01*
X-215116Y38856D01*
X-215069Y38945D01*
X-215019Y39032D01*
X-214965Y39118D01*
X-214908Y39201D01*
X-214848Y39281D01*
X-214785Y39360D01*
X-214718Y39436D01*
X-214649Y39509D01*
X-214577Y39579D01*
X-214503Y39647D01*
X-214426Y39712D01*
X-214346Y39773D01*
X-214264Y39832D01*
X-214180Y39887D01*
X-214094Y39939D01*
X-214006Y39988D01*
X-213916Y40033D01*
X-213824Y40075D01*
X-213731Y40113D01*
X-213636Y40147D01*
X-213541Y40178D01*
X-213444Y40205D01*
X-213346Y40228D01*
X-213247Y40248D01*
X-213147Y40263D01*
X-213047Y40275D01*
X-212947Y40283D01*
X-212846Y40287D01*
X-212746Y40287D01*
X-212645Y40283D01*
X-212545Y40275D01*
X-212445Y40263D01*
X-212345Y40248D01*
X-212246Y40228D01*
X-212148Y40205D01*
X-212051Y40178D01*
X-211956Y40147D01*
X-211861Y40113D01*
X-211768Y40075D01*
X-211676Y40033D01*
X-211586Y39988D01*
X-211498Y39939D01*
X-211412Y39887D01*
X-211328Y39832D01*
X-211246Y39773D01*
X-211166Y39712D01*
X-211089Y39647D01*
X-211015Y39579D01*
X-210943Y39509D01*
X-210874Y39436D01*
X-210807Y39360D01*
X-210744Y39281D01*
X-210684Y39201D01*
X-210627Y39118D01*
X-210573Y39032D01*
X-210523Y38945D01*
X-210476Y38856D01*
X-210433Y38765D01*
X-210393Y38673D01*
X-210357Y38579D01*
X-210324Y38484D01*
X-210295Y38387D01*
X-210270Y38290D01*
X-210249Y38191D01*
X-210231Y38092D01*
X-210218Y37992D01*
X-210208Y37892D01*
X-210202Y37792D01*
X-210200Y37691D01*
X-210199Y37691D02*
X-210199Y35094D01*
X-203708Y45226D02*
X-203708Y49121D01*
X-203710Y49220D01*
X-203716Y49320D01*
X-203725Y49419D01*
X-203738Y49517D01*
X-203755Y49615D01*
X-203776Y49713D01*
X-203801Y49809D01*
X-203829Y49904D01*
X-203861Y49998D01*
X-203896Y50091D01*
X-203935Y50183D01*
X-203978Y50273D01*
X-204023Y50361D01*
X-204073Y50448D01*
X-204125Y50532D01*
X-204181Y50615D01*
X-204239Y50695D01*
X-204301Y50773D01*
X-204366Y50848D01*
X-204434Y50921D01*
X-204504Y50991D01*
X-204577Y51059D01*
X-204652Y51124D01*
X-204730Y51186D01*
X-204810Y51244D01*
X-204893Y51300D01*
X-204977Y51352D01*
X-205064Y51402D01*
X-205152Y51447D01*
X-205242Y51490D01*
X-205334Y51529D01*
X-205427Y51564D01*
X-205521Y51596D01*
X-205616Y51624D01*
X-205712Y51649D01*
X-205810Y51670D01*
X-205908Y51687D01*
X-206006Y51700D01*
X-206105Y51709D01*
X-206205Y51715D01*
X-206304Y51717D01*
X-207603Y51717D01*
X-207702Y51715D01*
X-207802Y51709D01*
X-207901Y51700D01*
X-207999Y51687D01*
X-208097Y51670D01*
X-208195Y51649D01*
X-208291Y51624D01*
X-208386Y51596D01*
X-208480Y51564D01*
X-208573Y51529D01*
X-208665Y51490D01*
X-208755Y51447D01*
X-208843Y51402D01*
X-208930Y51352D01*
X-209014Y51300D01*
X-209097Y51244D01*
X-209177Y51186D01*
X-209255Y51124D01*
X-209330Y51059D01*
X-209403Y50991D01*
X-209473Y50921D01*
X-209541Y50848D01*
X-209606Y50773D01*
X-209668Y50695D01*
X-209726Y50615D01*
X-209782Y50532D01*
X-209834Y50448D01*
X-209884Y50361D01*
X-209929Y50273D01*
X-209972Y50183D01*
X-210011Y50091D01*
X-210046Y49998D01*
X-210078Y49904D01*
X-210106Y49809D01*
X-210131Y49713D01*
X-210152Y49615D01*
X-210169Y49517D01*
X-210182Y49419D01*
X-210191Y49320D01*
X-210197Y49220D01*
X-210199Y49121D01*
X-210199Y45226D01*
X-215392Y45226D01*
X-215392Y51717D01*
D17*
X-190500Y-50800D02*
X-38100Y-50800D01*
X-190500Y-50800D02*
X-190500Y76200D01*
X-38100Y76200D01*
X38100Y76200D02*
X38100Y-50800D01*
D16*
X207603Y-26317D02*
X210848Y-18528D01*
X214094Y-26317D01*
X207603Y-13363D02*
X210848Y-5574D01*
X214094Y-13363D01*
X215392Y-141D02*
X203708Y-141D01*
X203708Y3105D01*
X203710Y3218D01*
X203716Y3331D01*
X203726Y3444D01*
X203740Y3557D01*
X203757Y3669D01*
X203779Y3780D01*
X203804Y3890D01*
X203834Y4000D01*
X203867Y4108D01*
X203904Y4215D01*
X203944Y4321D01*
X203989Y4425D01*
X204037Y4528D01*
X204088Y4629D01*
X204143Y4728D01*
X204201Y4825D01*
X204263Y4920D01*
X204328Y5013D01*
X204396Y5103D01*
X204467Y5191D01*
X204542Y5277D01*
X204619Y5360D01*
X204699Y5440D01*
X204782Y5517D01*
X204868Y5592D01*
X204956Y5663D01*
X205046Y5731D01*
X205139Y5796D01*
X205234Y5858D01*
X205331Y5916D01*
X205430Y5971D01*
X205531Y6022D01*
X205634Y6070D01*
X205738Y6115D01*
X205844Y6155D01*
X205951Y6192D01*
X206059Y6225D01*
X206169Y6255D01*
X206279Y6280D01*
X206390Y6302D01*
X206502Y6319D01*
X206615Y6333D01*
X206728Y6343D01*
X206841Y6349D01*
X206954Y6351D01*
X206954Y6350D02*
X212146Y6350D01*
X212146Y6351D02*
X212259Y6349D01*
X212372Y6343D01*
X212485Y6333D01*
X212598Y6319D01*
X212710Y6302D01*
X212821Y6280D01*
X212931Y6255D01*
X213041Y6225D01*
X213149Y6192D01*
X213256Y6155D01*
X213362Y6115D01*
X213466Y6070D01*
X213569Y6022D01*
X213670Y5971D01*
X213769Y5916D01*
X213866Y5858D01*
X213961Y5796D01*
X214054Y5731D01*
X214144Y5663D01*
X214232Y5592D01*
X214318Y5517D01*
X214401Y5440D01*
X214481Y5360D01*
X214558Y5277D01*
X214633Y5191D01*
X214704Y5103D01*
X214772Y5013D01*
X214837Y4920D01*
X214899Y4825D01*
X214957Y4728D01*
X215012Y4629D01*
X215063Y4528D01*
X215111Y4425D01*
X215156Y4321D01*
X215196Y4215D01*
X215233Y4108D01*
X215266Y4000D01*
X215296Y3890D01*
X215321Y3780D01*
X215343Y3669D01*
X215360Y3557D01*
X215374Y3444D01*
X215384Y3331D01*
X215390Y3218D01*
X215392Y3105D01*
X215392Y-141D01*
X215392Y12125D02*
X203708Y12125D01*
X203708Y15370D01*
X203710Y15483D01*
X203716Y15596D01*
X203726Y15709D01*
X203740Y15822D01*
X203757Y15934D01*
X203779Y16045D01*
X203804Y16155D01*
X203834Y16265D01*
X203867Y16373D01*
X203904Y16480D01*
X203944Y16586D01*
X203989Y16690D01*
X204037Y16793D01*
X204088Y16894D01*
X204143Y16993D01*
X204201Y17090D01*
X204263Y17185D01*
X204328Y17278D01*
X204396Y17368D01*
X204467Y17456D01*
X204542Y17542D01*
X204619Y17625D01*
X204699Y17705D01*
X204782Y17782D01*
X204868Y17857D01*
X204956Y17928D01*
X205046Y17996D01*
X205139Y18061D01*
X205234Y18123D01*
X205331Y18181D01*
X205430Y18236D01*
X205531Y18287D01*
X205634Y18335D01*
X205738Y18380D01*
X205844Y18420D01*
X205951Y18457D01*
X206059Y18490D01*
X206169Y18520D01*
X206279Y18545D01*
X206390Y18567D01*
X206502Y18584D01*
X206615Y18598D01*
X206728Y18608D01*
X206841Y18614D01*
X206954Y18616D01*
X207067Y18614D01*
X207180Y18608D01*
X207293Y18598D01*
X207406Y18584D01*
X207518Y18567D01*
X207629Y18545D01*
X207739Y18520D01*
X207849Y18490D01*
X207957Y18457D01*
X208064Y18420D01*
X208170Y18380D01*
X208274Y18335D01*
X208377Y18287D01*
X208478Y18236D01*
X208577Y18181D01*
X208674Y18123D01*
X208769Y18061D01*
X208862Y17996D01*
X208952Y17928D01*
X209040Y17857D01*
X209126Y17782D01*
X209209Y17705D01*
X209289Y17625D01*
X209366Y17542D01*
X209441Y17456D01*
X209512Y17368D01*
X209580Y17278D01*
X209645Y17185D01*
X209707Y17090D01*
X209765Y16993D01*
X209820Y16894D01*
X209871Y16793D01*
X209919Y16690D01*
X209964Y16586D01*
X210004Y16480D01*
X210041Y16373D01*
X210074Y16265D01*
X210104Y16155D01*
X210129Y16045D01*
X210151Y15934D01*
X210168Y15822D01*
X210182Y15709D01*
X210192Y15596D01*
X210198Y15483D01*
X210200Y15370D01*
X210199Y15370D02*
X210199Y12125D01*
X210199Y16019D02*
X215392Y18616D01*
X215392Y26727D02*
X203708Y22832D01*
X203708Y30621D02*
X215392Y26727D01*
X212146Y34911D02*
X212033Y34913D01*
X211920Y34919D01*
X211807Y34929D01*
X211694Y34943D01*
X211582Y34960D01*
X211471Y34982D01*
X211361Y35007D01*
X211251Y35037D01*
X211143Y35070D01*
X211036Y35107D01*
X210930Y35147D01*
X210826Y35192D01*
X210723Y35240D01*
X210622Y35291D01*
X210523Y35346D01*
X210426Y35404D01*
X210331Y35466D01*
X210238Y35531D01*
X210148Y35599D01*
X210060Y35670D01*
X209974Y35745D01*
X209891Y35822D01*
X209811Y35902D01*
X209734Y35985D01*
X209659Y36071D01*
X209588Y36159D01*
X209520Y36249D01*
X209455Y36342D01*
X209393Y36437D01*
X209335Y36534D01*
X209280Y36633D01*
X209229Y36734D01*
X209181Y36837D01*
X209136Y36941D01*
X209096Y37047D01*
X209059Y37154D01*
X209026Y37262D01*
X208996Y37372D01*
X208971Y37482D01*
X208949Y37593D01*
X208932Y37705D01*
X208918Y37818D01*
X208908Y37931D01*
X208902Y38044D01*
X208900Y38157D01*
X208902Y38270D01*
X208908Y38383D01*
X208918Y38496D01*
X208932Y38609D01*
X208949Y38721D01*
X208971Y38832D01*
X208996Y38942D01*
X209026Y39052D01*
X209059Y39160D01*
X209096Y39267D01*
X209136Y39373D01*
X209181Y39477D01*
X209229Y39580D01*
X209280Y39681D01*
X209335Y39780D01*
X209393Y39877D01*
X209455Y39972D01*
X209520Y40065D01*
X209588Y40155D01*
X209659Y40243D01*
X209734Y40329D01*
X209811Y40412D01*
X209891Y40492D01*
X209974Y40569D01*
X210060Y40644D01*
X210148Y40715D01*
X210238Y40783D01*
X210331Y40848D01*
X210426Y40910D01*
X210523Y40968D01*
X210622Y41023D01*
X210723Y41074D01*
X210826Y41122D01*
X210930Y41167D01*
X211036Y41207D01*
X211143Y41244D01*
X211251Y41277D01*
X211361Y41307D01*
X211471Y41332D01*
X211582Y41354D01*
X211694Y41371D01*
X211807Y41385D01*
X211920Y41395D01*
X212033Y41401D01*
X212146Y41403D01*
X212259Y41401D01*
X212372Y41395D01*
X212485Y41385D01*
X212598Y41371D01*
X212710Y41354D01*
X212821Y41332D01*
X212931Y41307D01*
X213041Y41277D01*
X213149Y41244D01*
X213256Y41207D01*
X213362Y41167D01*
X213466Y41122D01*
X213569Y41074D01*
X213670Y41023D01*
X213769Y40968D01*
X213866Y40910D01*
X213961Y40848D01*
X214054Y40783D01*
X214144Y40715D01*
X214232Y40644D01*
X214318Y40569D01*
X214401Y40492D01*
X214481Y40412D01*
X214558Y40329D01*
X214633Y40243D01*
X214704Y40155D01*
X214772Y40065D01*
X214837Y39972D01*
X214899Y39877D01*
X214957Y39780D01*
X215012Y39681D01*
X215063Y39580D01*
X215111Y39477D01*
X215156Y39373D01*
X215196Y39267D01*
X215233Y39160D01*
X215266Y39052D01*
X215296Y38942D01*
X215321Y38832D01*
X215343Y38721D01*
X215360Y38609D01*
X215374Y38496D01*
X215384Y38383D01*
X215390Y38270D01*
X215392Y38157D01*
X215390Y38044D01*
X215384Y37931D01*
X215374Y37818D01*
X215360Y37705D01*
X215343Y37593D01*
X215321Y37482D01*
X215296Y37372D01*
X215266Y37262D01*
X215233Y37154D01*
X215196Y37047D01*
X215156Y36941D01*
X215111Y36837D01*
X215063Y36734D01*
X215012Y36633D01*
X214957Y36534D01*
X214899Y36437D01*
X214837Y36342D01*
X214772Y36249D01*
X214704Y36159D01*
X214633Y36071D01*
X214558Y35985D01*
X214481Y35902D01*
X214401Y35822D01*
X214318Y35745D01*
X214232Y35670D01*
X214144Y35599D01*
X214054Y35531D01*
X213961Y35466D01*
X213866Y35404D01*
X213769Y35346D01*
X213670Y35291D01*
X213569Y35240D01*
X213466Y35192D01*
X213362Y35147D01*
X213256Y35107D01*
X213149Y35070D01*
X213041Y35037D01*
X212931Y35007D01*
X212821Y34982D01*
X212710Y34960D01*
X212598Y34943D01*
X212485Y34929D01*
X212372Y34919D01*
X212259Y34913D01*
X212146Y34911D01*
X206304Y35561D02*
X206203Y35563D01*
X206103Y35569D01*
X206003Y35579D01*
X205903Y35592D01*
X205804Y35610D01*
X205705Y35631D01*
X205608Y35656D01*
X205511Y35685D01*
X205416Y35718D01*
X205322Y35754D01*
X205230Y35794D01*
X205139Y35837D01*
X205050Y35884D01*
X204963Y35934D01*
X204877Y35988D01*
X204794Y36045D01*
X204714Y36105D01*
X204635Y36168D01*
X204559Y36235D01*
X204486Y36304D01*
X204416Y36376D01*
X204348Y36450D01*
X204283Y36527D01*
X204222Y36607D01*
X204163Y36689D01*
X204108Y36773D01*
X204056Y36859D01*
X204007Y36947D01*
X203962Y37037D01*
X203920Y37129D01*
X203882Y37222D01*
X203848Y37317D01*
X203817Y37412D01*
X203790Y37509D01*
X203767Y37607D01*
X203747Y37706D01*
X203732Y37806D01*
X203720Y37906D01*
X203712Y38006D01*
X203708Y38107D01*
X203708Y38207D01*
X203712Y38308D01*
X203720Y38408D01*
X203732Y38508D01*
X203747Y38608D01*
X203767Y38707D01*
X203790Y38805D01*
X203817Y38902D01*
X203848Y38997D01*
X203882Y39092D01*
X203920Y39185D01*
X203962Y39277D01*
X204007Y39367D01*
X204056Y39455D01*
X204108Y39541D01*
X204163Y39625D01*
X204222Y39707D01*
X204283Y39787D01*
X204348Y39864D01*
X204416Y39938D01*
X204486Y40010D01*
X204559Y40079D01*
X204635Y40146D01*
X204714Y40209D01*
X204794Y40269D01*
X204877Y40326D01*
X204963Y40380D01*
X205050Y40430D01*
X205139Y40477D01*
X205230Y40520D01*
X205322Y40560D01*
X205416Y40596D01*
X205511Y40629D01*
X205608Y40658D01*
X205705Y40683D01*
X205804Y40704D01*
X205903Y40722D01*
X206003Y40735D01*
X206103Y40745D01*
X206203Y40751D01*
X206304Y40753D01*
X206405Y40751D01*
X206505Y40745D01*
X206605Y40735D01*
X206705Y40722D01*
X206804Y40704D01*
X206903Y40683D01*
X207000Y40658D01*
X207097Y40629D01*
X207192Y40596D01*
X207286Y40560D01*
X207378Y40520D01*
X207469Y40477D01*
X207558Y40430D01*
X207645Y40380D01*
X207731Y40326D01*
X207814Y40269D01*
X207894Y40209D01*
X207973Y40146D01*
X208049Y40079D01*
X208122Y40010D01*
X208192Y39938D01*
X208260Y39864D01*
X208325Y39787D01*
X208386Y39707D01*
X208445Y39625D01*
X208500Y39541D01*
X208552Y39455D01*
X208601Y39367D01*
X208646Y39277D01*
X208688Y39185D01*
X208726Y39092D01*
X208760Y38997D01*
X208791Y38902D01*
X208818Y38805D01*
X208841Y38707D01*
X208861Y38608D01*
X208876Y38508D01*
X208888Y38408D01*
X208896Y38308D01*
X208900Y38207D01*
X208900Y38107D01*
X208896Y38006D01*
X208888Y37906D01*
X208876Y37806D01*
X208861Y37706D01*
X208841Y37607D01*
X208818Y37509D01*
X208791Y37412D01*
X208760Y37317D01*
X208726Y37222D01*
X208688Y37129D01*
X208646Y37037D01*
X208601Y36947D01*
X208552Y36859D01*
X208500Y36773D01*
X208445Y36689D01*
X208386Y36607D01*
X208325Y36527D01*
X208260Y36450D01*
X208192Y36376D01*
X208122Y36304D01*
X208049Y36235D01*
X207973Y36168D01*
X207894Y36105D01*
X207814Y36045D01*
X207731Y35988D01*
X207645Y35934D01*
X207558Y35884D01*
X207469Y35837D01*
X207378Y35794D01*
X207286Y35754D01*
X207192Y35718D01*
X207097Y35685D01*
X207000Y35656D01*
X206903Y35631D01*
X206804Y35610D01*
X206705Y35592D01*
X206605Y35579D01*
X206505Y35569D01*
X206405Y35563D01*
X206304Y35561D01*
X212146Y46341D02*
X212033Y46343D01*
X211920Y46349D01*
X211807Y46359D01*
X211694Y46373D01*
X211582Y46390D01*
X211471Y46412D01*
X211361Y46437D01*
X211251Y46467D01*
X211143Y46500D01*
X211036Y46537D01*
X210930Y46577D01*
X210826Y46622D01*
X210723Y46670D01*
X210622Y46721D01*
X210523Y46776D01*
X210426Y46834D01*
X210331Y46896D01*
X210238Y46961D01*
X210148Y47029D01*
X210060Y47100D01*
X209974Y47175D01*
X209891Y47252D01*
X209811Y47332D01*
X209734Y47415D01*
X209659Y47501D01*
X209588Y47589D01*
X209520Y47679D01*
X209455Y47772D01*
X209393Y47867D01*
X209335Y47964D01*
X209280Y48063D01*
X209229Y48164D01*
X209181Y48267D01*
X209136Y48371D01*
X209096Y48477D01*
X209059Y48584D01*
X209026Y48692D01*
X208996Y48802D01*
X208971Y48912D01*
X208949Y49023D01*
X208932Y49135D01*
X208918Y49248D01*
X208908Y49361D01*
X208902Y49474D01*
X208900Y49587D01*
X208902Y49700D01*
X208908Y49813D01*
X208918Y49926D01*
X208932Y50039D01*
X208949Y50151D01*
X208971Y50262D01*
X208996Y50372D01*
X209026Y50482D01*
X209059Y50590D01*
X209096Y50697D01*
X209136Y50803D01*
X209181Y50907D01*
X209229Y51010D01*
X209280Y51111D01*
X209335Y51210D01*
X209393Y51307D01*
X209455Y51402D01*
X209520Y51495D01*
X209588Y51585D01*
X209659Y51673D01*
X209734Y51759D01*
X209811Y51842D01*
X209891Y51922D01*
X209974Y51999D01*
X210060Y52074D01*
X210148Y52145D01*
X210238Y52213D01*
X210331Y52278D01*
X210426Y52340D01*
X210523Y52398D01*
X210622Y52453D01*
X210723Y52504D01*
X210826Y52552D01*
X210930Y52597D01*
X211036Y52637D01*
X211143Y52674D01*
X211251Y52707D01*
X211361Y52737D01*
X211471Y52762D01*
X211582Y52784D01*
X211694Y52801D01*
X211807Y52815D01*
X211920Y52825D01*
X212033Y52831D01*
X212146Y52833D01*
X212259Y52831D01*
X212372Y52825D01*
X212485Y52815D01*
X212598Y52801D01*
X212710Y52784D01*
X212821Y52762D01*
X212931Y52737D01*
X213041Y52707D01*
X213149Y52674D01*
X213256Y52637D01*
X213362Y52597D01*
X213466Y52552D01*
X213569Y52504D01*
X213670Y52453D01*
X213769Y52398D01*
X213866Y52340D01*
X213961Y52278D01*
X214054Y52213D01*
X214144Y52145D01*
X214232Y52074D01*
X214318Y51999D01*
X214401Y51922D01*
X214481Y51842D01*
X214558Y51759D01*
X214633Y51673D01*
X214704Y51585D01*
X214772Y51495D01*
X214837Y51402D01*
X214899Y51307D01*
X214957Y51210D01*
X215012Y51111D01*
X215063Y51010D01*
X215111Y50907D01*
X215156Y50803D01*
X215196Y50697D01*
X215233Y50590D01*
X215266Y50482D01*
X215296Y50372D01*
X215321Y50262D01*
X215343Y50151D01*
X215360Y50039D01*
X215374Y49926D01*
X215384Y49813D01*
X215390Y49700D01*
X215392Y49587D01*
X215390Y49474D01*
X215384Y49361D01*
X215374Y49248D01*
X215360Y49135D01*
X215343Y49023D01*
X215321Y48912D01*
X215296Y48802D01*
X215266Y48692D01*
X215233Y48584D01*
X215196Y48477D01*
X215156Y48371D01*
X215111Y48267D01*
X215063Y48164D01*
X215012Y48063D01*
X214957Y47964D01*
X214899Y47867D01*
X214837Y47772D01*
X214772Y47679D01*
X214704Y47589D01*
X214633Y47501D01*
X214558Y47415D01*
X214481Y47332D01*
X214401Y47252D01*
X214318Y47175D01*
X214232Y47100D01*
X214144Y47029D01*
X214054Y46961D01*
X213961Y46896D01*
X213866Y46834D01*
X213769Y46776D01*
X213670Y46721D01*
X213569Y46670D01*
X213466Y46622D01*
X213362Y46577D01*
X213256Y46537D01*
X213149Y46500D01*
X213041Y46467D01*
X212931Y46437D01*
X212821Y46412D01*
X212710Y46390D01*
X212598Y46373D01*
X212485Y46359D01*
X212372Y46349D01*
X212259Y46343D01*
X212146Y46341D01*
X206304Y46991D02*
X206203Y46993D01*
X206103Y46999D01*
X206003Y47009D01*
X205903Y47022D01*
X205804Y47040D01*
X205705Y47061D01*
X205608Y47086D01*
X205511Y47115D01*
X205416Y47148D01*
X205322Y47184D01*
X205230Y47224D01*
X205139Y47267D01*
X205050Y47314D01*
X204963Y47364D01*
X204877Y47418D01*
X204794Y47475D01*
X204714Y47535D01*
X204635Y47598D01*
X204559Y47665D01*
X204486Y47734D01*
X204416Y47806D01*
X204348Y47880D01*
X204283Y47957D01*
X204222Y48037D01*
X204163Y48119D01*
X204108Y48203D01*
X204056Y48289D01*
X204007Y48377D01*
X203962Y48467D01*
X203920Y48559D01*
X203882Y48652D01*
X203848Y48747D01*
X203817Y48842D01*
X203790Y48939D01*
X203767Y49037D01*
X203747Y49136D01*
X203732Y49236D01*
X203720Y49336D01*
X203712Y49436D01*
X203708Y49537D01*
X203708Y49637D01*
X203712Y49738D01*
X203720Y49838D01*
X203732Y49938D01*
X203747Y50038D01*
X203767Y50137D01*
X203790Y50235D01*
X203817Y50332D01*
X203848Y50427D01*
X203882Y50522D01*
X203920Y50615D01*
X203962Y50707D01*
X204007Y50797D01*
X204056Y50885D01*
X204108Y50971D01*
X204163Y51055D01*
X204222Y51137D01*
X204283Y51217D01*
X204348Y51294D01*
X204416Y51368D01*
X204486Y51440D01*
X204559Y51509D01*
X204635Y51576D01*
X204714Y51639D01*
X204794Y51699D01*
X204877Y51756D01*
X204963Y51810D01*
X205050Y51860D01*
X205139Y51907D01*
X205230Y51950D01*
X205322Y51990D01*
X205416Y52026D01*
X205511Y52059D01*
X205608Y52088D01*
X205705Y52113D01*
X205804Y52134D01*
X205903Y52152D01*
X206003Y52165D01*
X206103Y52175D01*
X206203Y52181D01*
X206304Y52183D01*
X206405Y52181D01*
X206505Y52175D01*
X206605Y52165D01*
X206705Y52152D01*
X206804Y52134D01*
X206903Y52113D01*
X207000Y52088D01*
X207097Y52059D01*
X207192Y52026D01*
X207286Y51990D01*
X207378Y51950D01*
X207469Y51907D01*
X207558Y51860D01*
X207645Y51810D01*
X207731Y51756D01*
X207814Y51699D01*
X207894Y51639D01*
X207973Y51576D01*
X208049Y51509D01*
X208122Y51440D01*
X208192Y51368D01*
X208260Y51294D01*
X208325Y51217D01*
X208386Y51137D01*
X208445Y51055D01*
X208500Y50971D01*
X208552Y50885D01*
X208601Y50797D01*
X208646Y50707D01*
X208688Y50615D01*
X208726Y50522D01*
X208760Y50427D01*
X208791Y50332D01*
X208818Y50235D01*
X208841Y50137D01*
X208861Y50038D01*
X208876Y49938D01*
X208888Y49838D01*
X208896Y49738D01*
X208900Y49637D01*
X208900Y49537D01*
X208896Y49436D01*
X208888Y49336D01*
X208876Y49236D01*
X208861Y49136D01*
X208841Y49037D01*
X208818Y48939D01*
X208791Y48842D01*
X208760Y48747D01*
X208726Y48652D01*
X208688Y48559D01*
X208646Y48467D01*
X208601Y48377D01*
X208552Y48289D01*
X208500Y48203D01*
X208445Y48119D01*
X208386Y48037D01*
X208325Y47957D01*
X208260Y47880D01*
X208192Y47806D01*
X208122Y47734D01*
X208049Y47665D01*
X207973Y47598D01*
X207894Y47535D01*
X207814Y47475D01*
X207731Y47418D01*
X207645Y47364D01*
X207558Y47314D01*
X207469Y47267D01*
X207378Y47224D01*
X207286Y47184D01*
X207192Y47148D01*
X207097Y47115D01*
X207000Y47086D01*
X206903Y47061D01*
X206804Y47040D01*
X206705Y47022D01*
X206605Y47009D01*
X206505Y46999D01*
X206405Y46993D01*
X206304Y46991D01*
X215392Y57771D02*
X215392Y61016D01*
X215390Y61129D01*
X215384Y61242D01*
X215374Y61355D01*
X215360Y61468D01*
X215343Y61580D01*
X215321Y61691D01*
X215296Y61801D01*
X215266Y61911D01*
X215233Y62019D01*
X215196Y62126D01*
X215156Y62232D01*
X215111Y62336D01*
X215063Y62439D01*
X215012Y62540D01*
X214957Y62639D01*
X214899Y62736D01*
X214837Y62831D01*
X214772Y62924D01*
X214704Y63014D01*
X214633Y63102D01*
X214558Y63188D01*
X214481Y63271D01*
X214401Y63351D01*
X214318Y63428D01*
X214232Y63503D01*
X214144Y63574D01*
X214054Y63642D01*
X213961Y63707D01*
X213866Y63769D01*
X213769Y63827D01*
X213670Y63882D01*
X213569Y63933D01*
X213466Y63981D01*
X213362Y64026D01*
X213256Y64066D01*
X213149Y64103D01*
X213041Y64136D01*
X212931Y64166D01*
X212821Y64191D01*
X212710Y64213D01*
X212598Y64230D01*
X212485Y64244D01*
X212372Y64254D01*
X212259Y64260D01*
X212146Y64262D01*
X212033Y64260D01*
X211920Y64254D01*
X211807Y64244D01*
X211694Y64230D01*
X211582Y64213D01*
X211471Y64191D01*
X211361Y64166D01*
X211251Y64136D01*
X211143Y64103D01*
X211036Y64066D01*
X210930Y64026D01*
X210826Y63981D01*
X210723Y63933D01*
X210622Y63882D01*
X210523Y63827D01*
X210426Y63769D01*
X210331Y63707D01*
X210238Y63642D01*
X210148Y63574D01*
X210060Y63503D01*
X209974Y63428D01*
X209891Y63351D01*
X209811Y63271D01*
X209734Y63188D01*
X209659Y63102D01*
X209588Y63014D01*
X209520Y62924D01*
X209455Y62831D01*
X209393Y62736D01*
X209335Y62639D01*
X209280Y62540D01*
X209229Y62439D01*
X209181Y62336D01*
X209136Y62232D01*
X209096Y62126D01*
X209059Y62019D01*
X209026Y61911D01*
X208996Y61801D01*
X208971Y61691D01*
X208949Y61580D01*
X208932Y61468D01*
X208918Y61355D01*
X208908Y61242D01*
X208902Y61129D01*
X208900Y61016D01*
X203708Y61666D02*
X203708Y57771D01*
X203708Y61666D02*
X203710Y61767D01*
X203716Y61867D01*
X203726Y61967D01*
X203739Y62067D01*
X203757Y62166D01*
X203778Y62265D01*
X203803Y62362D01*
X203832Y62459D01*
X203865Y62554D01*
X203901Y62648D01*
X203941Y62740D01*
X203984Y62831D01*
X204031Y62920D01*
X204081Y63007D01*
X204135Y63093D01*
X204192Y63176D01*
X204252Y63256D01*
X204315Y63335D01*
X204382Y63411D01*
X204451Y63484D01*
X204523Y63554D01*
X204597Y63622D01*
X204674Y63687D01*
X204754Y63748D01*
X204836Y63807D01*
X204920Y63862D01*
X205006Y63914D01*
X205094Y63963D01*
X205184Y64008D01*
X205276Y64050D01*
X205369Y64088D01*
X205464Y64122D01*
X205559Y64153D01*
X205656Y64180D01*
X205754Y64203D01*
X205853Y64223D01*
X205953Y64238D01*
X206053Y64250D01*
X206153Y64258D01*
X206254Y64262D01*
X206354Y64262D01*
X206455Y64258D01*
X206555Y64250D01*
X206655Y64238D01*
X206755Y64223D01*
X206854Y64203D01*
X206952Y64180D01*
X207049Y64153D01*
X207144Y64122D01*
X207239Y64088D01*
X207332Y64050D01*
X207424Y64008D01*
X207514Y63963D01*
X207602Y63914D01*
X207688Y63862D01*
X207772Y63807D01*
X207854Y63748D01*
X207934Y63687D01*
X208011Y63622D01*
X208085Y63554D01*
X208157Y63484D01*
X208226Y63411D01*
X208293Y63335D01*
X208356Y63256D01*
X208416Y63176D01*
X208473Y63093D01*
X208527Y63007D01*
X208577Y62920D01*
X208624Y62831D01*
X208667Y62740D01*
X208707Y62648D01*
X208743Y62554D01*
X208776Y62459D01*
X208805Y62362D01*
X208830Y62265D01*
X208851Y62166D01*
X208869Y62067D01*
X208882Y61967D01*
X208892Y61867D01*
X208898Y61767D01*
X208900Y61666D01*
X208901Y61666D02*
X208901Y59069D01*
X215392Y69201D02*
X215392Y73096D01*
X215390Y73195D01*
X215384Y73295D01*
X215375Y73394D01*
X215362Y73492D01*
X215345Y73590D01*
X215324Y73688D01*
X215299Y73784D01*
X215271Y73879D01*
X215239Y73973D01*
X215204Y74066D01*
X215165Y74158D01*
X215122Y74248D01*
X215077Y74336D01*
X215027Y74423D01*
X214975Y74507D01*
X214919Y74590D01*
X214861Y74670D01*
X214799Y74748D01*
X214734Y74823D01*
X214666Y74896D01*
X214596Y74966D01*
X214523Y75034D01*
X214448Y75099D01*
X214370Y75161D01*
X214290Y75219D01*
X214207Y75275D01*
X214123Y75327D01*
X214036Y75377D01*
X213948Y75422D01*
X213858Y75465D01*
X213766Y75504D01*
X213673Y75539D01*
X213579Y75571D01*
X213484Y75599D01*
X213388Y75624D01*
X213290Y75645D01*
X213192Y75662D01*
X213094Y75675D01*
X212995Y75684D01*
X212895Y75690D01*
X212796Y75692D01*
X211497Y75692D01*
X211398Y75690D01*
X211298Y75684D01*
X211199Y75675D01*
X211101Y75662D01*
X211003Y75645D01*
X210905Y75624D01*
X210809Y75599D01*
X210714Y75571D01*
X210620Y75539D01*
X210527Y75504D01*
X210435Y75465D01*
X210345Y75422D01*
X210257Y75377D01*
X210170Y75327D01*
X210086Y75275D01*
X210003Y75219D01*
X209923Y75161D01*
X209845Y75099D01*
X209770Y75034D01*
X209697Y74966D01*
X209627Y74896D01*
X209559Y74823D01*
X209494Y74748D01*
X209432Y74670D01*
X209374Y74590D01*
X209318Y74507D01*
X209266Y74423D01*
X209216Y74336D01*
X209171Y74248D01*
X209128Y74158D01*
X209089Y74066D01*
X209054Y73973D01*
X209022Y73879D01*
X208994Y73784D01*
X208969Y73688D01*
X208948Y73590D01*
X208931Y73492D01*
X208918Y73394D01*
X208909Y73295D01*
X208903Y73195D01*
X208901Y73096D01*
X208901Y69201D01*
X203708Y69201D01*
X203708Y75692D01*
D17*
X190500Y76200D02*
X38100Y76200D01*
X190500Y76200D02*
X190500Y-50800D01*
X38100Y-50800D01*
M02*
