G04 EAGLE Gerber RS-274X export*
G75*
%MOMM*%
%FSLAX34Y34*%
%LPD*%
%INSoldermask Bottom*%
%IPPOS*%
%AMOC8*
5,1,8,0,0,1.08239X$1,22.5*%
G01*
%ADD10P,1.649562X8X202.500000*%
%ADD11P,1.649562X8X292.500000*%
%ADD12P,1.649562X8X112.500000*%
%ADD13C,1.524000*%
%ADD14C,1.511200*%
%ADD15C,3.053200*%
%ADD16P,1.649562X8X253.800000*%
%ADD17C,1.524000*%
%ADD18R,1.711200X1.711200*%
%ADD19R,1.511200X1.511200*%
%ADD20P,1.649562X8X22.500000*%
%ADD21C,2.082800*%
%ADD22C,0.959600*%


D10*
X165100Y-241300D03*
X139700Y-241300D03*
D11*
X101600Y-190500D03*
X101600Y-215900D03*
D10*
X-63500Y330200D03*
X-88900Y330200D03*
D12*
X203200Y-279400D03*
X203200Y-254000D03*
D13*
X50800Y330200D03*
D10*
X0Y330200D03*
D13*
X215900Y-203200D03*
D10*
X165100Y-203200D03*
D14*
X269604Y-105833D03*
X278107Y-92279D03*
X286609Y-78725D03*
X284021Y-105432D03*
X292523Y-91878D03*
D15*
X340706Y-88460D03*
X301914Y-150300D03*
D10*
X-163830Y-312420D03*
X-189230Y-312420D03*
X-210820Y-283210D03*
X-236220Y-283210D03*
D11*
X-185420Y-111760D03*
X-185420Y-213360D03*
X-214630Y-109220D03*
X-214630Y-210820D03*
X-254000Y-114300D03*
X-254000Y-215900D03*
D16*
X-199378Y270786D03*
X-262902Y191494D03*
D17*
X-152400Y209296D02*
X-152400Y222504D01*
X-127000Y222504D02*
X-127000Y209296D01*
X-101600Y209296D02*
X-101600Y222504D01*
X-76200Y222504D02*
X-76200Y209296D01*
X-50800Y209296D02*
X-50800Y222504D01*
X-25400Y222504D02*
X-25400Y209296D01*
X0Y209296D02*
X0Y222504D01*
X25400Y222504D02*
X25400Y209296D01*
X50800Y209296D02*
X50800Y222504D01*
X76200Y222504D02*
X76200Y209296D01*
X101600Y209296D02*
X101600Y222504D01*
X127000Y222504D02*
X127000Y209296D01*
X152400Y209296D02*
X152400Y222504D01*
X177800Y222504D02*
X177800Y209296D01*
X177800Y285496D02*
X177800Y298704D01*
X152400Y298704D02*
X152400Y285496D01*
X127000Y285496D02*
X127000Y298704D01*
X101600Y298704D02*
X101600Y285496D01*
X76200Y285496D02*
X76200Y298704D01*
X50800Y298704D02*
X50800Y285496D01*
X25400Y285496D02*
X25400Y298704D01*
X0Y298704D02*
X0Y285496D01*
X-25400Y285496D02*
X-25400Y298704D01*
X-50800Y298704D02*
X-50800Y285496D01*
X-76200Y285496D02*
X-76200Y298704D01*
X-101600Y298704D02*
X-101600Y285496D01*
X-127000Y285496D02*
X-127000Y298704D01*
X-152400Y298704D02*
X-152400Y285496D01*
D18*
G36*
X294855Y-193012D02*
X307184Y-181147D01*
X319049Y-193476D01*
X306720Y-205341D01*
X294855Y-193012D01*
G37*
G36*
X237211Y-248484D02*
X249540Y-236619D01*
X261405Y-248948D01*
X249076Y-260813D01*
X237211Y-248484D01*
G37*
D19*
G36*
X281858Y-206907D02*
X292746Y-196429D01*
X303224Y-207317D01*
X292336Y-217795D01*
X281858Y-206907D01*
G37*
G36*
X267447Y-220775D02*
X278335Y-210297D01*
X288813Y-221185D01*
X277925Y-231663D01*
X267447Y-220775D01*
G37*
G36*
X253036Y-234643D02*
X263924Y-224165D01*
X274402Y-235053D01*
X263514Y-245531D01*
X253036Y-234643D01*
G37*
D20*
X166370Y-314960D03*
X153670Y-295910D03*
X140970Y-314960D03*
D21*
X-261476Y263707D03*
X-223664Y297633D03*
X-324002Y-174105D03*
X-293218Y-214515D03*
X55880Y378460D03*
X30480Y378460D03*
X5080Y378460D03*
X-20320Y378460D03*
X-45720Y378460D03*
X38100Y177800D03*
X63500Y177800D03*
X88900Y177800D03*
X86360Y-86360D03*
X60960Y-86360D03*
X35560Y-86360D03*
X10160Y-86360D03*
X-15240Y-86360D03*
X-40640Y-86360D03*
X-66040Y-86360D03*
X-91440Y-86360D03*
X-116840Y-86360D03*
X-203200Y-38100D03*
X-177800Y-38100D03*
X-152400Y-38100D03*
X-127000Y-38100D03*
X-101600Y-38100D03*
X-76200Y-38100D03*
X-50800Y-38100D03*
X-203200Y63500D03*
X-177800Y63500D03*
X-152400Y63500D03*
X-127000Y63500D03*
X-101600Y63500D03*
X-76200Y63500D03*
X-50800Y63500D03*
X203200Y63500D03*
X177800Y63500D03*
X152400Y63500D03*
X127000Y63500D03*
X101600Y63500D03*
X76200Y63500D03*
X50800Y63500D03*
X203200Y-38100D03*
X177800Y-38100D03*
X152400Y-38100D03*
X127000Y-38100D03*
X101600Y-38100D03*
X76200Y-38100D03*
X50800Y-38100D03*
X-185963Y341434D03*
X-162741Y351725D03*
X-139519Y362015D03*
X-116297Y372306D03*
D22*
X-236220Y-240030D03*
X-165100Y-241300D03*
X215900Y127000D03*
X152400Y139700D03*
X-190500Y279400D03*
X-165100Y292100D03*
X-152400Y317500D03*
X-114300Y317500D03*
X114300Y-190500D03*
X60960Y-149860D03*
X254000Y292100D03*
X190500Y292100D03*
X-279400Y114300D03*
X-190500Y114300D03*
X-152400Y330200D03*
X38100Y355600D03*
X-101600Y266700D03*
X-127000Y266700D03*
X-63500Y304800D03*
X-25400Y342900D03*
X-12700Y-63500D03*
X12700Y-63500D03*
X-241300Y152400D03*
X101600Y152400D03*
X254000Y177800D03*
X190500Y177800D03*
X-190500Y254000D03*
X-127000Y254000D03*
X317500Y-38100D03*
X330200Y-25400D03*
X292100Y241300D03*
X254000Y254000D03*
X215900Y317500D03*
X190500Y317500D03*
X63500Y317500D03*
X12700Y317500D03*
X165100Y-12700D03*
X254000Y-12700D03*
X228600Y241300D03*
X139700Y241300D03*
X-88900Y101600D03*
X177800Y101600D03*
X203200Y266700D03*
X139700Y266700D03*
X-63500Y50800D03*
X25400Y63500D03*
X-25400Y63500D03*
X31750Y82550D03*
X157480Y82550D03*
X203200Y257612D03*
X167640Y257810D03*
X-203200Y-266700D03*
X-152400Y-266700D03*
X-203200Y-76200D03*
X-254000Y-76200D03*
X-228600Y139700D03*
X-139700Y139700D03*
X114300Y-12700D03*
X88900Y-12700D03*
X266700Y-50800D03*
X330200Y12700D03*
X304800Y215900D03*
X266700Y215900D03*
X215900Y330200D03*
X190500Y330200D03*
X114300Y12700D03*
X241300Y12700D03*
X228600Y152400D03*
X139700Y152400D03*
M02*
