M48
;GenerationSoftware,Autodesk,EAGLE,9.5.1*%
;CreationDate,2019-11-03T23:17:42Z*%
FMAT,2
ICI,OFF
METRIC,TZ,000.000
T6C0.350
T5C0.800
T4C0.813
T3C1.000
T2C1.016
T1C1.900
%
G90
M71
T1
X30191Y-15030
X34071Y-8846
T2
X3556Y-8636
X6096Y-8636
X8636Y-8636
X8890Y17780
X6350Y17780
X3810Y17780
X-4572Y37846
X-2032Y37846
X508Y37846
X3048Y37846
X5588Y37846
X-29322Y-21452
X-26148Y26371
X-1524Y-8636
X1016Y-8636
X-32400Y-17410
X-22366Y29763
X-11630Y37231
X-13952Y36202
X-16274Y35172
X-18596Y34143
X-17780Y6350
X5080Y-3810
X7620Y-3810
X10160Y-3810
X12700Y-3810
X15240Y-3810
X17780Y-3810
X20320Y-3810
X5080Y6350
X7620Y6350
X10160Y6350
X12700Y6350
X15240Y6350
X17780Y6350
X20320Y6350
X-5080Y6350
X-7620Y6350
X-10160Y6350
X-12700Y6350
X-15240Y6350
X-20320Y6350
X-5080Y-3810
X-7620Y-3810
X-10160Y-3810
X-12700Y-3810
X-15240Y-3810
X-17780Y-3810
X-20320Y-3810
X-11684Y-8636
X-9144Y-8636
X-6604Y-8636
X-4064Y-8636
T3
X24931Y-24872
X30695Y-19324
T4
X15240Y21590
X17780Y21590
X17780Y29210
X15240Y29210
X12700Y29210
X10160Y29210
X7620Y29210
X5080Y29210
X2540Y29210
X0Y29210
X-2540Y29210
X-5080Y29210
X-7620Y29210
X-10160Y29210
X-12700Y29210
X-15240Y29210
X16637Y-31496
X15367Y-29591
X14097Y-31496
X16510Y-24130
X13970Y-24130
X10160Y-19050
X10160Y-21590
X-6350Y33020
X-8890Y33020
X20320Y-27940
X20320Y-25400
X5080Y33020
X0Y33020
X21590Y-20320
X16510Y-20320
X-16383Y-31242
X-18923Y-31242
X-21082Y-28321
X-23622Y-28321
X-18542Y-11176
X-18542Y-21336
X-21463Y-10922
X-21463Y-21082
X-25400Y-11430
X-25400Y-21590
X-19938Y27079
X-26290Y19149
X-15240Y21590
X-12700Y21590
X-10160Y21590
X-7620Y21590
X-5080Y21590
X-2540Y21590
X0Y21590
X2540Y21590
X5080Y21590
X7620Y21590
X10160Y21590
X12700Y21590
T5
X28661Y-7872
X27811Y-9228
X26960Y-10583
X27813Y-22098
X26372Y-23485
X29252Y-9188
X28402Y-10543
X29254Y-20711
T6
X-23622Y-24003
X-16510Y-24130
X21590Y12700
X15240Y13970
X-19050Y27940
X-16510Y29210
X-15240Y31750
X-11430Y31750
X11430Y-19050
X6096Y-14986
X25400Y29210
X19050Y29210
X-27940Y11430
X-19050Y11430
X-15240Y33020
X3810Y35560
X-10160Y26670
X-12700Y26670
X-6350Y30480
X13970Y15240
X22860Y15240
X24130Y1270
X11430Y1270
X19050Y33020
X21590Y33020
X26670Y21590
X30480Y21590
X33020Y1270
X26670Y-5080
X8890Y-1270
X11430Y-1270
X-13970Y13970
X-22860Y13970
X-25400Y-7620
X-20320Y-7620
X-15240Y-26670
X-20320Y-26670
X16764Y25781
X20320Y25761
X15748Y8255
X3175Y8255
X-2540Y6350
X2540Y6350
X-6350Y5080
X13970Y26670
X10160Y15240
X20320Y26670
X17780Y10160
X-8890Y10160
X13970Y24130
X22860Y24130
X25400Y-1270
X16510Y-1270
X1270Y31750
X6350Y31750
X19050Y31750
X21590Y31750
X25400Y25400
X29210Y24130
X33020Y-2540
X31750Y-3810
X-12700Y25400
X-19050Y25400
X19050Y17780
X25400Y17780
X-24130Y15240
X1270Y-6350
X-1270Y-6350
X-2540Y34290
M30